<svg viewBox="0 0 24 24" fill="currentColor" xmlns="http://www.w3.org/2000/svg"><path d="M12 2C12.3748 2 12.7456 2.02023 13.1104 2.06055L12.8896 4.04883C12.5979 4.01659 12.3011 4 12 4C7.58172 4 4 7.58172 4 12C4 16.4183 7.58172 20 12 20C16.4183 20 20 16.4183 20 12C20 11.6989 19.9834 11.4021 19.9512 11.1104L21.9395 10.8896C21.9798 11.2544 22 11.6252 22 12C22 17.5228 17.5228 22 12 22C6.47715 22 2 17.5228 2 12C2 6.47715 6.47715 2 12 2ZM16 13C16 15.2091 14.2091 17 12 17C9.79086 17 8 15.2091 8 13H16ZM20 4H23V6H20V9H18V6H15V4H18V1H20V4Z"/></svg>