<svg viewBox="0 0 24 24" fill="currentColor" xmlns="http://www.w3.org/2000/svg"><path d="M12 2C16.9706 2 21 6.02944 21 11V19C21 19.2652 20.8946 19.5195 20.707 19.707L18.707 21.707C18.37 22.0441 17.8419 22.0964 17.4453 21.832L15 20.2012L12.5547 21.832C12.2188 22.056 11.7812 22.056 11.4453 21.832L9 20.2012L6.55469 21.832C6.15806 22.0964 5.63003 22.0441 5.29297 21.707L3.29297 19.707C3.10543 19.5195 3 19.2652 3 19V11C3 6.02944 7.02944 2 12 2ZM12 4C8.13401 4 5 7.13401 5 11V18.5859L6.12695 19.7129L8.44531 18.168L8.5752 18.0947C8.88867 17.9475 9.26063 17.9719 9.55469 18.168L12 19.7979L14.4453 18.168L14.5752 18.0947C14.8887 17.9475 15.2606 17.9719 15.5547 18.168L17.8721 19.7129L19 18.5859V11C19 7.13401 15.866 4 12 4ZM9.5 8C10.3284 8 11 8.67157 11 9.5C11 10.3284 10.3284 11 9.5 11C8.67157 11 8 10.3284 8 9.5C8 8.67157 8.67157 8 9.5 8ZM14.5 8C15.3284 8 16 8.67157 16 9.5C16 10.3284 15.3284 11 14.5 11C13.6716 11 13 10.3284 13 9.5C13 8.67157 13.6716 8 14.5 8Z"/></svg>