<svg width="40" height="40" viewBox="0 0 40 40" fill="none" xmlns="http://www.w3.org/2000/svg">
<g clip-path="url(#clip0_51_2026)">
<path d="M40 20C40 17.5536 39.56 15.2101 38.756 13.0436L20 12.174L1.24398 13.0435C0.44 15.2101 0 17.5536 0 20C0 22.4464 0.44 24.79 1.24398 26.9565L20 27.8261L38.756 26.9566C39.56 24.79 40 22.4464 40 20Z" fill="#FFDA44"/>
<path d="M20.0002 40.0001C28.5994 40.0001 35.9303 34.5726 38.7562 26.9565H1.24414C4.07 34.5726 11.4009 40.0001 20.0002 40.0001Z" fill="#6DA544"/>
<path d="M1.24414 13.0435H38.7562C35.9303 5.4275 28.5995 0 20.0002 0C11.4009 0 4.07 5.4275 1.24414 13.0435V13.0435Z" fill="#D80027"/>
</g>
<defs>
<clipPath id="clip0_51_2026">
<rect width="40" height="40" fill="white"/>
</clipPath>
</defs>
</svg>
