<svg width="40" height="40" viewBox="0 0 40 40" fill="none" xmlns="http://www.w3.org/2000/svg">
<g clip-path="url(#clip0_51_1598)">
<path d="M38.756 26.9566C39.56 24.79 40 22.4465 40 20.0001C40 17.5537 39.56 15.2103 38.756 13.0436L20 11.3044L1.24398 13.0436C0.440078 15.2103 0 17.5537 0 20.0001C0 22.4465 0.440078 24.79 1.24398 26.9566L20 28.6957L38.756 26.9566Z" fill="#FFDA44"/>
<path d="M20.0002 40C28.5995 40 35.9304 34.5725 38.7562 26.9565H1.24414C4.07008 34.5725 11.4009 40 20.0002 40Z" fill="#0052B4"/>
<path d="M20.0002 6.10352e-05C11.4009 6.10352e-05 4.07008 5.42756 1.24414 13.0436H38.7563C35.9304 5.42756 28.5995 6.10352e-05 20.0002 6.10352e-05Z" fill="#6DA544"/>
</g>
<defs>
<clipPath id="clip0_51_1598">
<rect width="40" height="40" fill="white"/>
</clipPath>
</defs>
</svg>
