<svg width="40" height="40" viewBox="0 0 40 40" fill="none" xmlns="http://www.w3.org/2000/svg">
<g clip-path="url(#clip0_51_1502)">
<path d="M26.9565 1.24406C24.7898 0.440078 22.4462 0 19.9998 0C17.5534 0 15.21 0.440078 13.0434 1.24391L12.1738 20L13.0434 38.7561C15.21 39.56 17.5534 40 19.9998 40C22.4463 40 24.7898 39.56 26.9565 38.7559L27.826 20L26.9565 1.24406Z" fill="#FFDA44"/>
<path d="M0 19.9999C0 28.5991 5.4275 35.93 13.0435 38.7558V1.24377C5.4275 4.06971 0 11.4005 0 19.9999Z" fill="#D80027"/>
<path d="M39.9996 19.9999C39.9996 11.4005 34.5721 4.06971 26.9561 1.24377V38.7559C34.5721 35.93 39.9996 28.5991 39.9996 19.9999Z" fill="#6DA544"/>
</g>
<defs>
<clipPath id="clip0_51_1502">
<rect width="40" height="40" fill="white"/>
</clipPath>
</defs>
</svg>
