<svg width="40" height="40" viewBox="0 0 40 40" fill="none" xmlns="http://www.w3.org/2000/svg">
<g clip-path="url(#clip0_51_1145)">
<path d="M20 40C31.0457 40 40 31.0457 40 20C40 8.95431 31.0457 0 20 0C8.95431 0 0 8.95431 0 20C0 31.0457 8.95431 40 20 40Z" fill="#F0F0F0"/>
<path d="M13.0439 20V38.756C15.2105 39.56 17.554 40 20.0004 40C31.0461 40 40.0004 31.0456 40.0004 20C40.0004 8.95436 13.0439 20 13.0439 20Z" fill="#6DA544"/>
<path d="M20.0004 0C17.554 0 15.2105 0.440078 13.0439 1.24398V20H40.0004C40.0004 8.95438 31.0461 0 20.0004 0Z" fill="#D80027"/>
</g>
<defs>
<clipPath id="clip0_51_1145">
<rect width="40" height="40" fill="white"/>
</clipPath>
</defs>
</svg>
