<svg xmlns="http://www.w3.org/2000/svg" xmlns:xlink="http://www.w3.org/1999/xlink" width="24" height="24" viewBox="0 0 24 24">
    <defs>
        <path id="a" d="M20 .6a.6.6 0 0 0-.6-.6H.6a.6.6 0 0 0-.6.6v18.8a.6.6 0 0 0 .6.6h18.8a.6.6 0 0 0 .6-.6V.6z"/>
        <radialGradient id="c" cx="76.433%" cy="-18.794%" r="118.794%" fx="76.433%" fy="-18.794%">
            <stop offset="0%" stop-color="#6BE1FB"/>
            <stop offset="100%" stop-color="#38BDFA"/>
        </radialGradient>
        <linearGradient id="d" x1="77.782%" x2="77.78%" y1="96.856%" y2="3.386%">
            <stop offset="0%" stop-color="#4AC5FA"/>
            <stop offset="100%" stop-color="#97E8FC"/>
        </linearGradient>
    </defs>
    <g fill="none" fill-rule="evenodd">
        <path d="M0 0h24v24H0z"/>
        <g transform="translate(2 2)">
            <mask id="b" fill="#fff">
                <use xlink:href="#a"/>
            </mask>
            <path fill="#1B72BE" d="M20.005.6a.6.6 0 0 0-.6-.6H.605a.6.6 0 0 0-.6.6v18.8a.6.6 0 0 0 .6.6h18.8a.6.6 0 0 0 .6-.6V.6z" mask="url(#b)"/>
            <path fill="#0568AA" d="M20.005.6a.6.6 0 0 0-.6-.6h-11.2l-8.2 14.203V19.4a.6.6 0 0 0 .6.6h18.8a.6.6 0 0 0 .6-.6V.6z" mask="url(#b)"/>
            <path fill="#074F7F" d="M9.252 20H7.857l-3.603-7.243L11.274 0h1.13L5.056 12.731l4.197 7.27zm3.778 0H9.552l-4.099-7.099h14.552l-.001 1.326L13.03 20zM9.573 0H8.405l-8.4 14.55v2.023L9.573 0zm2.029 12.64H7.646c-.462 0-.89-.242-1.122-.642-.23-.4-.23-.892 0-1.292l1.98-3.43 3.098 5.364zm8.402 0h-8.102L8.655 7.015 12.705 0l1.467.001-2.131 7.251.989 2.032 6.974 2.743v.613z" mask="url(#b)"/>
            <path fill="url(#c)" d="M20.005 20H9.852l-3.948-6.839h14.101v6.84zM8.952 20H.005v-4.93L8.705 0h3.4l-7.35 12.731 4.197 7.27zm2.201-7.619H7.716a1.07 1.07 0 0 1-.93-1.608l1.72-2.978 2.647 4.586zm8.852 0h-7.951L8.955 7.015 13.005 0h7v12.381z" mask="url(#b)"/>
            <path fill="url(#d)" d="M20.428 20.349H10.045l-4.153-7.2h14.53l.006 7.2zm-15.682-7.63l4.4 7.63H-.607l-.033-4.175L8.93-.416h3.393L4.746 12.718zm1.56.67l3.877 6.72h10.006l-.007-6.72H6.307zM9.068-.177L-.4 16.237l.03 3.872h9.102l-4.263-7.39L11.907-.177h-2.84zm2.064 12.547H7.665l-.005-.001H7.642l-.004-.001H7.629l-.004-.001H7.61l-.004-.001h-.005l-.004-.001H7.589l-.004-.001H7.58l-.004-.001h-.004l-.005-.001-.004-.001h-.005l-.004-.001H7.55l-.005-.001h-.004l-.004-.002h-.005l-.004-.001h-.004l-.005-.001-.004-.001-.005-.001h-.004l-.004-.002h-.004l-.005-.001-.004-.001h-.004l-.005-.002h-.004l-.004-.002h-.005l-.004-.002H7.46l-.004-.002H7.45l-.004-.001-.004-.001-.004-.002h-.005l-.004-.002h-.004l-.004-.002-.005-.001-.004-.001-.004-.001-.004-.002H7.4l-.005-.002-.004-.001-.004-.001-.004-.002-.004-.001-.004-.001-.005-.002h-.004l-.004-.002-.004-.002-.004-.001-.004-.002h-.004l-.004-.002-.004-.002-.005-.001-.004-.002-.004-.001-.004-.002-.004-.001-.004-.002-.004-.001-.004-.002-.004-.002-.004-.001-.004-.002-.004-.001-.004-.002-.004-.002-.004-.001-.004-.002-.004-.002-.004-.002-.004-.002-.004-.001-.004-.002-.004-.002-.004-.002-.004-.001-.004-.002-.004-.002-.004-.002-.003-.002-.004-.002-.004-.002-.004-.002-.004-.002-.004-.002-.004-.002-.003-.002-.004-.002-.004-.002-.004-.002-.004-.002-.004-.002-.003-.002-.004-.002-.004-.002-.004-.002-.003-.002-.004-.003-.004-.002-.004-.002-.003-.002-.004-.003-.004-.002-.003-.002-.004-.002-.004-.003-.003-.002-.004-.002-.004-.003-.003-.002-.004-.002-.004-.003-.003-.002-.004-.002-.003-.003-.004-.002-.003-.003-.004-.002-.004-.003-.003-.002-.004-.003-.003-.002-.004-.003-.003-.002-.004-.003-.003-.003-.004-.002-.003-.003-.004-.003-.003-.002-.003-.003-.004-.003-.003-.002-.004-.003-.003-.003-.003-.002-.004-.003-.003-.003-.003-.003-.004-.002-.003-.003-.003-.003-.004-.003-.003-.003-.003-.003-.003-.002-.004-.003-.003-.003-.003-.003-.003-.003-.004-.003-.003-.003-.003-.003-.003-.003-.003-.003-.003-.003-.004-.003-.003-.003-.003-.003-.003-.003-.003-.003-.003-.003-.003-.003-.003-.004-.003-.003-.003-.003-.003-.003-.003-.003-.003-.003-.003-.004-.003-.003-.003-.003-.003-.003-.003-.003-.003-.004-.003-.003-.003-.003-.003-.004L6.887 12l-.003-.003-.002-.004-.003-.003-.003-.003-.003-.004-.003-.003-.002-.004-.003-.003-.003-.003-.003-.004-.002-.003-.003-.004-.003-.003-.002-.004-.003-.003-.003-.004-.002-.003-.003-.004-.003-.003-.002-.004-.003-.004-.003-.003-.002-.004-.003-.003-.002-.004-.003-.004-.002-.003-.003-.004-.002-.004-.003-.004-.002-.003-.003-.004-.002-.004-.002-.003-.003-.004-.002-.004-.003-.004-.002-.004-.002-.003-.003-.004-.002-.004-.002-.004-.002-.004-.003-.004-.002-.003-.002-.004-.002-.004-.003-.004-.002-.004-.002-.004-.002-.004-.002-.004-.002-.004-.002-.004-.003-.004-.002-.004-.002-.004-.002-.004-.002-.004-.002-.004-.002-.004-.002-.004-.002-.004-.001-.004-.002-.004-.002-.004-.002-.004-.002-.004-.002-.004-.002-.004-.001-.004-.002-.004-.002-.004-.002-.004-.001-.004-.002-.004-.002-.004-.001-.004-.002-.004-.002-.005-.001-.004-.002-.004-.002-.004-.001-.004-.002-.004-.001-.004-.002-.004-.001-.005-.002-.004-.001-.004-.002-.004-.001-.004-.001-.004-.002-.005-.001-.004-.002-.004-.001-.004-.001-.004-.002-.004v-.005l-.002-.004-.001-.004-.002-.004v-.004l-.002-.005-.001-.004-.001-.004-.002-.004v-.005l-.002-.004v-.004l-.002-.004-.001-.005-.001-.004-.001-.004-.001-.004-.001-.005-.001-.004-.001-.004-.001-.004v-.004l-.002-.005v-.004l-.002-.004v-.005l-.001-.004-.001-.004v-.004l-.002-.005v-.004l-.001-.004v-.005l-.002-.004V11.464l-.002-.004v-.008l-.001-.005-.001-.004v-.004l-.001-.005v-.004l-.001-.004v-.005l-.001-.004v-.004l-.001-.005V11.4l-.001-.005v-.004l-.001-.004V11.378l-.001-.004V11.36l-.001-.004V11.339l-.001-.004V11.244l.001-.005V11.23l.001-.004V11.213l.001-.004v-.004l.001-.005v-.008l.001-.005v-.004l.001-.004v-.005l.001-.004v-.004l.001-.005v-.004l.002-.004V11.144l.001-.004.001-.005v-.004l.001-.004.001-.004v-.005l.002-.004v-.004l.001-.005.001-.004v-.004l.002-.004v-.005l.001-.004.001-.004.001-.004.001-.005.001-.004v-.004l.002-.005v-.004l.002-.004v-.004l.002-.005.001-.004.001-.004.001-.004.001-.005.001-.004.002-.004v-.004l.002-.004.001-.005.001-.004.002-.004v-.004l.002-.004.001-.005.002-.004.001-.004.001-.004.002-.004.001-.005.002-.004v-.004l.002-.004.002-.004.001-.004.002-.004.001-.004.002-.005.001-.004.002-.004.001-.004.002-.004.002-.004.001-.004.002-.004.002-.005.001-.004.002-.004.002-.004.001-.004.002-.004.002-.004.002-.004.001-.004.002-.004.002-.004.002-.004.002-.004.002-.004.002-.004.001-.004.002-.005.002-.003.002-.004.002-.004.002-.004.002-.004.002-.004.002-.004.003-.004.002-.004.002-.004.002-.004.002-.004.002-.004.002-.004.003-.004.002-.004.002-.003 1.716-2.976 2.643 4.582zm9.285 0H12.03L8.937 7.01 13.22-.418h7.11l.086 12.787zM6.98 10.883l-.002.003-.002.004-.002.003-.001.002-.002.003-.002.004-.001.003-.002.002-.002.004-.001.003-.002.003-.001.003-.002.003-.002.003-.001.004-.002.003-.001.002-.002.004-.001.003-.002.003-.001.003-.002.003-.001.003-.001.003-.002.003-.001.004-.002.003-.001.003-.001.003-.002.003v.003l-.002.004-.002.003v.003l-.002.003-.002.004v.003l-.002.003-.001.003-.001.003-.002.004v.003l-.002.003-.001.003-.001.003-.001.003-.001.004-.002.003v.003l-.002.003v.003l-.002.004v.003l-.002.003v.004l-.002.003v.003l-.002.004v.003l-.002.003v.004l-.001.003-.001.003-.001.003-.001.003v.003l-.002.004v.003l-.001.003-.001.004-.001.003v.003l-.001.003-.001.004-.001.004v.002l-.001.004-.001.003v.003l-.001.004-.001.003v.004l-.001.003v.003l-.002.004v.006l-.001.003v.004l-.001.003v.004l-.001.003v.003l-.001.004v.003l-.001.004v.006l-.001.003v.003l-.001.004v.007l-.001.003v.007l-.001.003v.011l-.001.003V11.256l-.001.003v.024l-.001.003V11.341l.001.003V11.357l.001.003v.011l.001.003v.007l.001.003v.007l.001.003v.004l.001.006v.003l.001.004v.003l.001.004v.003l.001.003.001.007.001.007v.003l.001.003.001.004v.003l.001.003.001.004v.003l.001.003v.004l.002.003v.004l.001.002v.004l.002.007.001.003v.003l.002.004v.003l.001.003.001.004.001.003v.003l.002.003v.003l.001.004.002.006.001.003.001.004.001.003.001.003.001.004.001.003.001.003.001.004.001.003.001.003.001.003.002.003v.004l.002.003.001.003.001.003.001.003.001.004.002.003v.003l.002.003.001.003.001.004.002.003.001.003.001.003.002.003.002.007.002.003v.003l.002.003.002.004.001.003.002.003v.003l.002.003.002.003.001.003.002.003.001.003.002.004.001.002.002.003.001.004.002.003.002.003.001.003.002.003.001.003.002.004.002.002.001.003.002.003.002.004.001.003.002.002.002.004.001.003.002.003.002.003.002.003.002.003.001.003.002.002.002.004.002.003.002.002.001.003.002.003.002.003.002.003.002.003.002.003.002.003.002.002.002.004.002.002.001.003.003.003.001.003.002.003.003.003.001.002.002.003.002.003.003.002.002.003.002.003.002.003.002.002.002.003.002.003.002.002.002.003.002.003.002.002.003.003.002.003.002.002.002.003.002.002.002.003.003.003.002.002.002.003.002.002.003.003.002.002.002.003.003.002.002.003.002.002.002.003.003.002.002.003.002.002.003.002.002.003.003.003.002.002.002.002.003.003.002.002.002.002.003.003.002.002.003.002.002.003.003.002.002.002.002.002.003.003.003.002.002.002.003.003.002.002.003.002.002.002.003.002.002.003.003.002.002.002.003.002.003.003.002.001.003.002.002.003.003.002.003.002.002.002.003.002.003.002.005.004.002.002.003.002.003.002.003.002.002.002.003.002.003.002.003.002.002.002.003.002.003.002.003.002.002.002.003.002.003.001.003.002.003.002.002.002.003.002.003.002.003.001.003.002.002.002.003.002.003.002.003.001.003.002.003.002.003.002.002.001.003.002.003.002.003.001.003.002.003.001.003.002.003.002.003.001.003.002.003.002.003.001.003.002.003.001.003.002.006.003.003.001.003.002.003.001.003.002.003.001.003.002h.003l.003.002.003.002.003.001.003.001.003.002.003.001.003.001.004.002.003.001.003.002h.003l.003.002.003.001.003.002h.003l.004.002.003.001.003.002h.003l.003.002.003.001.004.001.003.001.003.002h.003l.003.002h.004l.003.002h.003l.003.002.003.001h.003l.004.002.003.001.003.001.004.001.003.001h.003l.003.002h.004l.003.002h.003l.004.001.003.001.003.001.003.001h.004l.003.002h.003l.003.001.004.001h.003l.004.002h.003l.003.001h.004l.003.001.003.001h.004l.003.002h.007l.003.001h.003l.004.001.003.001h.003l.004.001h.003l.004.001h.003l.003.001h.004l.003.001h.004l.003.001H7.6l.003.001h.004l.003.001h.007l.003.001h.007l.004.001h.01l.004.001h.01l.004.001h.027l.004.001h3.026L8.488 8.267 6.98 10.883zm6.379-11.06L9.214 7.01l2.954 5.121h8.007L20.092-.177h-6.733z" mask="url(#b)"/>
        </g>
    </g>
</svg>
