<?xml version="1.0" encoding="UTF-8"?>
<svg width="24px" height="24px" viewBox="0 0 24 24" version="1.1" xmlns="http://www.w3.org/2000/svg" xmlns:xlink="http://www.w3.org/1999/xlink">
    <!-- Generator: sketchtool 61.2 (101010) - https://sketch.com -->
    <title>7A00D520-DF0C-4EC1-AB5D-5E0A4E3283DF</title>
    <desc>Created with sketchtool.</desc>
    <defs>
        <path d="M20.4869557,1.38521826 C20.4869557,1.05408689 20.2180873,0.785218753 19.8869557,0.785218753 L1.08695567,0.785218753 C0.75582403,0.785218753 0.48695567,1.05408689 0.48695567,1.38521826 L0.48695567,20.1852028 C0.48695567,20.5163342 0.75582403,20.7852023 1.08695567,20.7852023 L19.8869557,20.7852023 C20.2180873,20.7852023 20.4869557,20.5163342 20.4869557,20.1852028 L20.4869557,1.38521826 Z" id="path-1"></path>
        <radialGradient cx="76.4332357%" cy="-18.7940812%" fx="76.4332357%" fy="-18.7940812%" r="118.792812%" gradientTransform="translate(0.764332,-0.187941),scale(1.000000,0.998016),translate(-0.764332,0.187941)" id="radialGradient-3">
            <stop stop-color="#F9A6FF" offset="0%"></stop>
            <stop stop-color="#EA73FF" offset="100%"></stop>
        </radialGradient>
        <linearGradient x1="68.4386653%" y1="3.48358757%" x2="68.4386653%" y2="96.1568402%" id="linearGradient-4">
            <stop stop-color="#F7B3FF" offset="0%"></stop>
            <stop stop-color="#EE8AFF" offset="100%"></stop>
        </linearGradient>
    </defs>
    <g id="2.0" stroke="none" stroke-width="1" fill="none" fill-rule="evenodd">
        <g id="Details2" transform="translate(-395.000000, -758.000000)">
            <g id="气泡确认框" transform="translate(199.000000, 678.000000)">
                <g id="Affinity-Photo" transform="translate(196.000000, 80.000000)">
                    <g>
                        <rect id="矩形" x="0" y="0" width="24" height="24"></rect>
                        <g id="编组" transform="translate(1.513044, 1.214780)">
                            <mask id="mask-2" fill="white">
                                <use xlink:href="#path-1"></use>
                            </mask>
                            <g id="路径"></g>
                            <path d="M20.4671967,1.38521826 C20.4671967,1.05408689 20.1988644,0.785218753 19.8683929,0.785218753 L1.10587399,0.785218753 C0.775402514,0.785218753 0.507070189,1.05408689 0.507070189,1.38521826 L0.507070189,20.1852028 C0.507070189,20.5163342 0.775402514,20.7852023 1.10587399,20.7852023 L19.8683929,20.7852023 C20.1988644,20.7852023 20.4671967,20.5163342 20.4671967,20.1852028 L20.4671967,1.38521826 Z" id="路径" fill="#7E4DD2" mask="url(#mask-2)"></path>
                            <path d="M20.4671967,1.38521826 C20.4671967,1.05408689 20.1988644,0.785218753 19.8683929,0.785218753 L8.69072207,0.785218753 L0.507070189,14.9880246 L0.507070189,20.1852028 C0.507070189,20.5163342 0.775402514,20.7852023 1.10587399,20.7852023 L19.8683929,20.7852023 C20.1988644,20.7852023 20.4671967,20.5163342 20.4671967,20.1852028 L20.4671967,1.38521826 Z" id="路径" fill="#7140C2" mask="url(#mask-2)"></path>
                            <path d="M20.7171362,21.0423845 L13.3790008,21.0440012 L9.1392487,13.6860395 L20.727923,13.6860395 C20.7251111,16.1368458 20.7199021,18.5916244 20.7171362,21.0423845 Z M13.076787,21.0437702 L1.5036936,21.0437702 L7.29351321,11.006827 L13.076787,21.0437702 Z M1.20788729,21.0438164 L0.252013884,21.0438164 L0.248787074,15.7847907 L4.69855847,8.0598548 L8.69058378,8.0598548 C6.19695088,12.3874725 3.70152019,16.7161987 1.20788729,21.0438164 L1.20788729,21.0438164 Z M11.3520569,8.06100953 C11.7358629,8.06581322 12.1019215,8.27671374 12.2989413,8.60881509 C12.6047508,9.13435738 12.9061348,9.66239389 13.2097316,10.1891833 C13.3941208,10.5129244 13.4079499,10.9289517 13.2272486,11.2678891 C13.2229154,11.2760646 13.2184901,11.2841478 13.2138804,11.2922771 C12.9127268,11.8204522 12.6069173,12.3458559 12.3033206,12.8726453 C12.1145061,13.1974949 11.7568372,13.4118134 11.3797614,13.4243769 C11.370588,13.4247003 11.3522413,13.4243769 11.3522413,13.4243769 L9.64502816,13.4243769 L9.63027703,13.4243769 C9.25384656,13.4227603 8.88894042,13.2250238 8.68956964,12.904054 C8.68454503,12.8962019 8.67979701,12.8882111 8.67500289,12.8802203 C8.36937786,12.3546319 8.06799378,11.8266415 7.76439703,11.2998521 C7.57816398,10.9732935 7.569175,10.5543562 7.74664957,10.2210539 C7.75102881,10.2129246 7.75563854,10.2047953 7.76001779,10.1967122 C8.06121748,9.66853708 8.36721129,9.14313335 8.67057755,8.61634395 C8.85920766,8.29223336 9.21729141,8.07417349 9.59413676,8.06160999 C9.6035406,8.06128667 9.61271396,8.0611481 9.62188733,8.06100953 C10.1987488,8.0585615 10.7753798,8.0585615 11.3520569,8.06100953 L11.3520569,8.06100953 Z M20.7252955,0.526558458 L20.7252955,13.4243769 L12.2875553,13.4243769 L19.7193604,0.526558458 L20.7252955,0.526558458 Z M13.6805693,10.4823932 L8.49231933,1.47805883 L9.0406466,0.526558458 L19.4171466,0.526558458 L13.6805693,10.4823932 Z M11.8342807,7.79999358 L4.85021855,7.79888504 L8.34125851,1.74013714 C9.5049385,3.75971977 10.6705546,5.78045714 11.8342807,7.79999358 Z" id="形状" fill="#58328A" fill-rule="nonzero" mask="url(#mask-2)"></path>
                            <path d="M1.05876809,20.7851823 L0.509864607,20.7851823 L0.506870588,15.8540264 L4.84819811,8.31961255 L8.24141962,8.31961255 L1.05876809,20.7851823 L1.05876809,20.7851823 Z M20.4671967,13.9452079 L20.4671967,20.7852023 L13.5278591,20.7852023 L9.58673215,13.9452079 L20.4671967,13.9452079 Z M12.6296534,20.7851823 L1.95098574,20.7851823 L7.29331361,11.5239099 L12.6296534,20.7851823 L12.6296534,20.7851823 Z M20.4671967,13.1652086 L12.7348433,13.1652086 L19.8681933,0.785198753 L20.4669971,0.785198753 L20.4671967,13.1652086 Z M11.3446205,8.30553256 C11.64023,8.30677256 11.923065,8.48085242 12.0759595,8.73883221 C12.0775563,8.7414522 12.0805504,8.7467122 12.0805504,8.7467122 L12.977758,10.3039909 C12.977758,10.3039909 12.9829477,10.3126909 12.9853429,10.3168909 C13.1320498,10.5739507 13.1376387,10.8978704 12.9911313,11.1596102 C12.6903322,11.6868898 12.3849423,12.2116493 12.0819476,12.7376689 C11.933045,12.9934887 11.651208,13.1603886 11.3518061,13.1641286 C10.7803477,13.1665286 9.63463645,13.1652086 9.63303964,13.1652086 C9.33743017,13.1639686 9.05000435,13.0059487 8.89710978,12.7479689 C8.89371656,12.7423689 8.88712971,12.7309689 8.88712971,12.7309689 C8.88712971,12.7309689 7.98972242,11.1735302 7.98772641,11.1699102 C7.84101948,10.9128504 7.84121908,10.5807307 7.98772641,10.3189909 L7.99431325,10.3074509 C7.99431325,10.3074509 8.59491346,9.26311178 8.89571257,8.74093221 C9.04461511,8.48511242 9.3268513,8.30911256 9.6262532,8.30535256 C9.63124323,8.30533256 9.64122329,8.30511256 9.64122329,8.30511256 L11.3344408,8.30553256 L11.3446205,8.30553256 L11.3446205,8.30553256 Z M9.18952563,0.785198753 L18.9699876,0.785198753 L13.6805541,9.9650712 L8.7903231,1.47801818 L9.18952563,0.785198753 L9.18952563,0.785198753 Z M11.3851395,7.54019319 L5.29730096,7.54019319 L8.34122025,2.25743754 L11.3851395,7.54019319 Z" id="形状" fill="url(#radialGradient-3)" mask="url(#mask-2)"></path>
                            <path d="M0.580922657,21.6146016 L0.0419992408,21.5974016 L0.0483864813,16.6499057 L4.84819811,8.31961255 L8.24141962,8.31961255 L0.580922657,21.6146016 L0.580922657,21.6146016 Z M13.0787563,21.5646017 L1.53801072,21.5012017 L7.29331361,11.5239099 L13.0787563,21.5646017 Z M20.8919482,21.5348017 L13.9326505,21.4876017 L9.58673215,13.9452079 L20.9182956,13.9452079 L20.8919482,21.5348017 Z M4.98652179,8.55961235 L0.287908,16.7143656 L0.281720361,21.3650018 L0.445193797,21.3702018 L7.82664819,8.55961235 L4.98652179,8.55961235 Z M1.95178415,21.2636019 L12.6625876,21.3224018 L7.29331361,12.0037095 L1.95178415,21.2636019 Z M10.0015036,14.1852077 L14.071573,21.2486019 L20.6532251,21.2932019 L20.6777761,14.1852077 L10.0015036,14.1852077 L10.0015036,14.1852077 Z M11.3344408,8.30553256 L11.3446205,8.30553256 L11.3482133,8.30555256 L11.3516065,8.30559256 L11.3549998,8.30565256 L11.3585926,8.30571256 L11.3619858,8.30581256 L11.365379,8.30591256 L11.3687722,8.30603256 L11.3723651,8.30615256 L11.3757583,8.30631256 L11.3791515,8.30647256 L11.3827443,8.30665256 L11.3861376,8.30683256 L11.3895308,8.30705256 L11.392924,8.30727256 L11.3965168,8.30751256 L11.39991,8.30777256 L11.4033033,8.30805256 L11.4066965,8.30833256 L11.4102893,8.30863256 L11.4136825,8.30895256 L11.4170758,8.30927256 L11.420469,8.30963256 L11.4238622,8.30999256 L11.427455,8.31037256 L11.4308482,8.31075256 L11.4342415,8.31117256 L11.4376347,8.31159256 L11.4410279,8.31203256 L11.4444211,8.31247256 L11.4478143,8.31295256 L11.4512076,8.31343256 L11.4546008,8.31393256 L11.4613872,8.31497256 L11.4681737,8.31607255 L11.4749601,8.31721255 L11.4817466,8.31843255 L11.488533,8.31971255 L11.4953194,8.32103255 L11.5021059,8.32243255 L11.5086927,8.32387255 L11.5154792,8.32537255 L11.5222656,8.32693255 L11.5288525,8.32855254 L11.5356389,8.33023254 L11.5422257,8.33195254 L11.5488126,8.33375254 L11.5553994,8.33559254 L11.5621859,8.33747254 L11.5687727,8.33943254 L11.5753596,8.34143253 L11.5819464,8.34349253 L11.5883336,8.34561253 L11.5949205,8.34779253 L11.6015073,8.35001253 L11.6078946,8.35229252 L11.6144814,8.35461252 L11.6208686,8.35699252 L11.6272559,8.35943252 L11.6338427,8.36193252 L11.64023,8.36447251 L11.6466172,8.36707251 L11.6530044,8.36971251 L11.6591921,8.37241251 L11.6655793,8.37515251 L11.6719666,8.3779525 L11.6781542,8.3808125 L11.6845414,8.3837125 L11.6907291,8.3866525 L11.6969167,8.38965249 L11.7031044,8.39271249 L11.709292,8.39581249 L11.7154796,8.39895249 L11.7216673,8.40215248 L11.7276553,8.40541248 L11.733843,8.40871248 L11.739831,8.41205248 L11.745819,8.41543247 L11.7518071,8.41887247 L11.7577951,8.42237247 L11.7637832,8.42591246 L11.7697712,8.42949246 L11.7755596,8.43311246 L11.7815477,8.43679246 L11.7873361,8.44051245 L11.7931245,8.44427245 L11.798913,8.44809245 L11.8047014,8.45195244 L11.8104898,8.45585244 L11.8160787,8.45981244 L11.8218671,8.46379243 L11.827456,8.46783243 L11.8330448,8.47193243 L11.8386336,8.47605242 L11.8442225,8.48021242 L11.8498113,8.48443242 L11.8552005,8.48869241 L11.8607894,8.49299241 L11.8661786,8.49733241 L11.8715678,8.5017124 L11.8769571,8.5061524 L11.8823463,8.51061239 L11.8875359,8.51513239 L11.8929252,8.51967239 L11.8981148,8.52427238 L11.9033044,8.52891238 L11.9084941,8.53357238 L11.9136837,8.53829237 L11.9186737,8.54305237 L11.9238634,8.54785236 L11.9288534,8.55267236 L11.9338434,8.55755236 L11.9388335,8.56247235 L11.9436239,8.56741235 L11.9486139,8.57241234 L11.9534044,8.57745234 L11.9581948,8.58251234 L11.9629852,8.58761233 L11.967576,8.59275233 L11.9723665,8.59793232 L11.9769573,8.60315232 L11.9815481,8.60841231 L11.986139,8.61369231 L11.9907298,8.61903231 L11.9953206,8.6243923 L11.9997118,8.6297923 L12.0041031,8.63523229 L12.0084943,8.64069229 L12.0126859,8.64619228 L12.0170772,8.65173228 L12.0212688,8.65731227 L12.0254604,8.66291227 L12.029652,8.66857226 L12.0338437,8.67423226 L12.0378357,8.67995226 L12.0418277,8.68569225 L12.0458197,8.69147225 L12.0498118,8.69727224 L12.0536042,8.70311224 L12.0573966,8.70899223 L12.061189,8.71489223 L12.0649815,8.72083222 L12.0687739,8.72681222 L12.0723667,8.73281221 L12.0759595,8.73883221 L12.0805504,8.7467122 L12.977758,10.3039909 L12.9853429,10.3168909 L12.9887361,10.3229309 L12.9921293,10.3289909 L12.995323,10.3350709 L12.9985166,10.3411909 L13.0019098,10.3473109 L13.0049038,10.3534709 L13.0080974,10.3596509 L13.0110915,10.3658509 L13.0140855,10.3720709 L13.0170795,10.3783109 L13.0198739,10.3845709 L13.0228679,10.3908508 L13.0256623,10.3971508 L13.0282572,10.4034708 L13.0310516,10.4098108 L13.0336464,10.4161708 L13.0362412,10.4225508 L13.038836,10.4289508 L13.0412312,10.4353708 L13.0436265,10.4417908 L13.0460217,10.4482508 L13.0484169,10.4547108 L13.0506125,10.4611908 L13.0528081,10.4676908 L13.0550037,10.4742108 L13.0571993,10.4807308 L13.0591954,10.4872708 L13.0611914,10.4938308 L13.0631874,10.5004108 L13.0649838,10.5069908 L13.0669798,10.5135907 L13.0687762,10.5202107 L13.070373,10.5268307 L13.0721694,10.5334707 L13.0737663,10.5401307 L13.0753631,10.5467907 L13.0769599,10.5534507 L13.0783571,10.5601507 L13.0797543,10.5668307 L13.0811515,10.5735307 L13.0825487,10.5802507 L13.0837463,10.5869707 L13.0849439,10.5937107 L13.0861415,10.6004507 L13.0871395,10.6071907 L13.0883371,10.6139507 L13.0893352,10.6207107 L13.0901336,10.6274907 L13.0911316,10.6342706 L13.09193,10.6410506 L13.0927284,10.6478506 L13.0935268,10.6546306 L13.0941256,10.6614306 L13.0947244,10.6682506 L13.0953232,10.6750506 L13.095922,10.6818706 L13.0963212,10.6886906 L13.0967204,10.6955106 L13.0971196,10.7023306 L13.0975188,10.7091706 L13.0977184,10.7159906 L13.097918,10.7228306 L13.0981176,10.7296706 L13.0981176,10.7570105 L13.097918,10.7638505 L13.097918,10.7706705 L13.0975188,10.7775105 L13.0973192,10.7843505 L13.09692,10.7911705 L13.0965208,10.7980105 L13.0961216,10.8048305 L13.0957224,10.8116505 L13.0951236,10.8184705 L13.0945248,10.8252905 L13.093926,10.8321105 L13.0931276,10.8389305 L13.0923292,10.8457305 L13.0915308,10.8525305 L13.0907324,10.8593105 L13.0897344,10.8661105 L13.0887363,10.8728905 L13.0877383,10.8796704 L13.0865407,10.8864304 L13.0855427,10.8931904 L13.0843451,10.8999504 L13.0829479,10.9066904 L13.0817503,10.9134304 L13.0803531,10.9201704 L13.0789559,10.9268904 L13.0773591,10.9335904 L13.0759619,10.9402904 L13.0743651,10.9469904 L13.0727682,10.9536704 L13.0709718,10.9603304 L13.0691754,10.9669904 L13.067379,10.9736304 L13.0655826,10.9802704 L13.0635866,10.9868904 L13.0617902,10.9934904 L13.0595946,11.0000903 L13.0575986,11.0066703 L13.0554029,11.0132303 L13.0532073,11.0197903 L13.0510117,11.0263303 L13.0488161,11.0328503 L13.0464209,11.0393703 L13.0440257,11.0458503 L13.0414308,11.0523303 L13.0390356,11.0587903 L13.0364408,11.0652303 L13.033846,11.0716503 L13.0310516,11.0780703 L13.0284568,11.0844503 L13.0254627,11.0908303 L13.0226683,11.0971903 L13.0198739,11.1035103 L13.0168799,11.1098303 L13.0138859,11.1161303 L13.0106923,11.1224102 L13.0076982,11.1286502 L13.0045046,11.1348902 L13.0011114,11.1410902 L12.9979178,11.1472902 L12.9945246,11.1534502 L12.9911313,11.1596102 L12.9629876,11.2090302 L12.9346442,11.2584301 L12.9065004,11.3078301 L12.878157,11.3572301 L12.8498136,11.40659 L12.8214703,11.45595 L12.7931269,11.5053099 L12.7647835,11.5546499 L12.7364401,11.6039898 L12.7080967,11.6533098 L12.6512104,11.7519297 L12.594324,11.8505296 L12.5374377,11.9491096 L12.4803517,12.0476695 L12.4234653,12.1462294 L12.309493,12.3433292 L12.2526066,12.4418892 L12.1957203,12.5404691 L12.1388339,12.639049 L12.0819476,12.7376689 L12.0783547,12.7436489 L12.0747619,12.7495889 L12.0711691,12.7555089 L12.0675763,12.7613889 L12.0639835,12.7672289 L12.060191,12.7730489 L12.0563986,12.7788289 L12.0524066,12.7845689 L12.0486142,12.7902889 L12.0446221,12.7959689 L12.0406301,12.8016089 L12.0366381,12.8072089 L12.0326461,12.8127889 L12.0284544,12.8183288 L12.0242628,12.8238288 L12.0200712,12.8292888 L12.0158795,12.8347088 L12.0114883,12.8401088 L12.0072967,12.8454688 L12.0029055,12.8507888 L11.9985142,12.8560688 L11.9939234,12.8613088 L11.9895322,12.8665288 L11.9849414,12.8716888 L11.9803505,12.8768288 L11.9757597,12.8819288 L11.9711689,12.8869888 L11.9663784,12.8920088 L11.961588,12.8969888 L11.9567976,12.9019288 L11.9520071,12.9068288 L11.9472167,12.9117088 L11.9422267,12.9165288 L11.9372366,12.9213088 L11.9324462,12.9260488 L11.9272566,12.9307688 L11.9222666,12.9354288 L11.9172765,12.9400487 L11.9120869,12.9446487 L11.9068973,12.9491887 L11.9017076,12.9536887 L11.896518,12.9581487 L11.8913284,12.9625687 L11.8859391,12.9669487 L11.8807495,12.9712887 L11.8753603,12.9755687 L11.869971,12.9798287 L11.8643822,12.9840287 L11.858993,12.9882087 L11.8534041,12.9923287 L11.8480149,12.9964087 L11.842426,13.0004487 L11.8368372,13.0044487 L11.8312484,13.0083887 L11.8256595,13.0122887 L11.8198711,13.0161487 L11.8140827,13.0199687 L11.8084938,13.0237487 L11.8027054,13.0274687 L11.796917,13.0311487 L11.7909289,13.0347887 L11.7851405,13.0383887 L11.779352,13.0419287 L11.773364,13.0454287 L11.767376,13.0488887 L11.7613879,13.0522887 L11.7553999,13.0556487 L11.7494119,13.0589687 L11.7434238,13.0622286 L11.7372362,13.0654486 L11.7312481,13.0686286 L11.7250605,13.0717486 L11.7188729,13.0748286 L11.7126852,13.0778486 L11.7064976,13.0808286 L11.7003099,13.0837686 L11.6941223,13.0866486 L11.6877351,13.0894886 L11.6815474,13.0922686 L11.6751602,13.0950086 L11.6687729,13.0976886 L11.6623857,13.1003286 L11.6559985,13.1029086 L11.6496112,13.1054486 L11.643224,13.1079286 L11.6368367,13.1103686 L11.6304495,13.1127486 L11.6238627,13.1150886 L11.6172758,13.1173686 L11.6108886,13.1196086 L11.6043017,13.1217886 L11.5977149,13.1239086 L11.5911281,13.1259886 L11.5845412,13.1280086 L11.5779544,13.1299686 L11.5713675,13.1318886 L11.5645811,13.1337686 L11.5579942,13.1355686 L11.5512078,13.1373286 L11.544621,13.1390286 L11.5378345,13.1406886 L11.5310481,13.1422886 L11.5244612,13.1438286 L11.5176748,13.1453086 L11.5108883,13.1467486 L11.5041019,13.1481286 L11.4973155,13.1494486 L11.490529,13.1507086 L11.483543,13.1519286 L11.4767565,13.1530886 L11.4699701,13.1541886 L11.462984,13.1552286 L11.4561976,13.1562086 L11.4492116,13.1571486 L11.4424251,13.1580286 L11.4354391,13.1588486 L11.428453,13.1596086 L11.4216666,13.1603086 L11.4146805,13.1609486 L11.4076945,13.1615486 L11.4007084,13.1620686 L11.3937224,13.1625486 L11.3867364,13.1629486 L11.3797503,13.1633086 L11.3727643,13.1636086 L11.3657782,13.1638486 L11.3587922,13.1640286 L11.3518061,13.1641286 L11.2965166,13.1643486 L11.238233,13.1645486 L11.1773546,13.1647086 L11.1138814,13.1648686 L11.0484122,13.1650086 L10.9811466,13.1651286 L10.9122842,13.1652286 L10.8424237,13.1653086 L10.7003076,13.1654486 L10.5571935,13.1655686 L10.4158758,13.1655686 L10.2787497,13.1655686 L10.1482105,13.1655686 L10.0268529,13.1655086 L9.91727184,13.1654486 L9.82186244,13.1653686 L9.68393797,13.1652686 L9.63303964,13.1652086 L9.6260536,13.1651486 L9.61926716,13.1650286 L9.61228111,13.1648686 L9.60529507,13.1646286 L9.59850862,13.1643486 L9.59152258,13.1640086 L9.58473614,13.1636086 L9.57775009,13.1631486 L9.57096365,13.1626486 L9.5639776,13.1620686 L9.55719116,13.1614486 L9.55020512,13.1607686 L9.54341867,13.1600486 L9.53663223,13.1592486 L9.52964619,13.1584086 L9.52285974,13.1575086 L9.5160733,13.1565486 L9.50928686,13.1555486 L9.50230081,13.1544886 L9.49551437,13.1533686 L9.48872793,13.1521886 L9.48194148,13.1509686 L9.47535464,13.1496886 L9.4685682,13.1483486 L9.46178176,13.1469686 L9.45499531,13.1455286 L9.44820887,13.1440286 L9.44162203,13.1424886 L9.43483559,13.1408886 L9.42824874,13.1392286 L9.4214623,13.1375286 L9.41487546,13.1357686 L9.40828862,13.1339686 L9.40170178,13.1321086 L9.39511493,13.1301886 L9.38832849,13.1282286 L9.38174165,13.1262086 L9.37535441,13.1241486 L9.36876757,13.1220286 L9.36218073,13.1198486 L9.35579348,13.1176286 L9.34920664,13.1153486 L9.3426198,13.1130286 L9.33623256,13.1106686 L9.32984532,13.1082486 L9.32345808,13.1057686 L9.31707084,13.1032486 L9.3106836,13.1006686 L9.30429636,13.0980486 L9.29790912,13.0953686 L9.29172148,13.0926486 L9.28533424,13.0898886 L9.2791466,13.0870686 L9.27275936,13.0841886 L9.26657172,13.0812886 L9.26038408,13.0783086 L9.25419644,13.0753086 L9.2480088,13.0722486 L9.24182116,13.0691286 L9.23583312,13.0659686 L9.22964549,13.0627686 L9.22365745,13.0595087 L9.21766941,13.0562087 L9.21168137,13.0528687 L9.20569333,13.0494687 L9.1997053,13.0460287 L9.19371726,13.0425487 L9.18772922,13.0390087 L9.18194078,13.0354287 L9.17615235,13.0318087 L9.17016431,13.0281287 L9.16437587,13.0244087 L9.15878704,13.0206487 L9.1529986,13.0168287 L9.14721016,13.0129887 L9.14162133,13.0090887 L9.13603249,13.0051287 L9.13024405,13.0011487 L9.12485482,12.9971087 L9.11926599,12.9930287 L9.11367715,12.9889087 L9.10828792,12.9847287 L9.10269908,12.9805287 L9.09730985,12.9762687 L9.09192061,12.9719687 L9.08653138,12.9676287 L9.08134174,12.9632287 L9.07595251,12.9588087 L9.07076288,12.9543287 L9.06557324,12.9498087 L9.06038361,12.9452487 L9.05519398,12.9406487 L9.05000435,12.9360088 L9.04501431,12.9313288 L9.04002428,12.9265888 L9.03503425,12.9218288 L9.03004422,12.9170088 L9.02505419,12.9121488 L9.02026376,12.9072688 L9.01547333,12.9023288 L9.0106829,12.8973488 L9.00589247,12.8923288 L9.00110204,12.8872688 L8.99651121,12.8821688 L8.99172078,12.8770288 L8.98712995,12.8718488 L8.98253912,12.8666088 L8.97814789,12.8613488 L8.97355706,12.8560488 L8.96916583,12.8507088 L8.96477461,12.8453288 L8.96038338,12.8399088 L8.95619175,12.8344488 L8.95180052,12.8289488 L8.9476089,12.8234088 L8.94341727,12.8178488 L8.93942525,12.8122289 L8.93523362,12.8065689 L8.93124159,12.8008889 L8.92724957,12.7951489 L8.92325754,12.7893889 L8.92126153,12.7864889 L8.91946512,12.7835689 L8.91746911,12.7806689 L8.91547309,12.7777289 L8.91367668,12.7748089 L8.91168067,12.7718489 L8.90988426,12.7689089 L8.90788825,12.7659289 L8.90609183,12.7629689 L8.90429542,12.7599889 L8.90249901,12.7569889 L8.9007026,12.7539889 L8.89870659,12.7509889 L8.89710978,12.7479689 L8.88712971,12.7309689 L7.98772641,11.1699102 L7.98593,11.1668902 L7.98433319,11.1638702 L7.98273638,11.1608302 L7.98093997,11.1577902 L7.97934316,11.1547502 L7.97774635,11.1517102 L7.97435313,11.1455902 L7.97115951,11.1394502 L7.96816549,11.1332702 L7.96497187,11.1270702 L7.96197785,11.1208502 L7.95898383,11.1146103 L7.95598981,11.1083503 L7.95319539,11.1020503 L7.95040098,11.0957503 L7.94760656,11.0894103 L7.94481214,11.0830503 L7.94221732,11.0766703 L7.93962251,11.0702703 L7.93702769,11.0638503 L7.93463248,11.0574103 L7.93203766,11.0509503 L7.92964244,11.0444703 L7.92744683,11.0379703 L7.92505161,11.0314503 L7.922856,11.0249103 L7.92066039,11.0183503 L7.91866437,11.0117703 L7.91646876,11.0051903 L7.91447275,10.9985703 L7.91247674,10.9919504 L7.91068032,10.9853104 L7.90888391,10.9786704 L7.9070875,10.9719904 L7.90529109,10.9653104 L7.90349468,10.9586104 L7.90189787,10.9518904 L7.90030106,10.9451704 L7.89890385,10.9384304 L7.89730704,10.9316904 L7.89590983,10.9249104 L7.89451262,10.9181504 L7.89331501,10.9113504 L7.8919178,10.9045704 L7.8907202,10.8977504 L7.88972219,10.8909304 L7.88852458,10.8841104 L7.88752658,10.8772704 L7.88652857,10.8704305 L7.88553056,10.8635705 L7.88473216,10.8567105 L7.88393375,10.8498505 L7.88313535,10.8429705 L7.88233694,10.8360905 L7.88173814,10.8292105 L7.88093974,10.8223105 L7.88054053,10.8154105 L7.87994173,10.8085105 L7.87954253,10.8015905 L7.87914332,10.7946705 L7.87874412,10.7877705 L7.87854452,10.7808505 L7.87834492,10.7739105 L7.87814532,10.7669905 L7.87794572,10.7600705 L7.87794572,10.7531305 L7.87774611,10.7462106 L7.87794572,10.7392706 L7.87794572,10.7323306 L7.87814532,10.7254106 L7.87834492,10.7184706 L7.87854452,10.7115306 L7.87874412,10.7046106 L7.87914332,10.6976906 L7.87954253,10.6907506 L7.87994173,10.6838306 L7.88054053,10.6769106 L7.88113934,10.6699906 L7.88173814,10.6630706 L7.88233694,10.6561706 L7.88313535,10.6492706 L7.88393375,10.6423706 L7.88473216,10.6354706 L7.88553056,10.6285707 L7.88652857,10.6216907 L7.88752658,10.6148107 L7.88852458,10.6079507 L7.88972219,10.6010907 L7.8909198,10.5942307 L7.89211741,10.5873907 L7.89331501,10.5805507 L7.89471222,10.5737307 L7.89590983,10.5669107 L7.89750664,10.5600907 L7.89890385,10.5532907 L7.90050066,10.5465107 L7.90209747,10.5397307 L7.90369428,10.5329707 L7.90529109,10.5262107 L7.9070875,10.5194707 L7.90888391,10.5127507 L7.91068032,10.5060308 L7.91267634,10.4993308 L7.91467235,10.4926508 L7.91666836,10.4859708 L7.91866437,10.4793308 L7.92085999,10.4726908 L7.9230556,10.4660508 L7.92525122,10.4594508 L7.92744683,10.4528508 L7.92984205,10.4462908 L7.93223726,10.4397308 L7.93463248,10.4331908 L7.93722729,10.4266708 L7.93982211,10.4201508 L7.94241692,10.4136708 L7.94501174,10.4072108 L7.94760656,10.4007708 L7.95040098,10.3943508 L7.95319539,10.3879308 L7.95618941,10.3815509 L7.95898383,10.3751909 L7.96197785,10.3688509 L7.96497187,10.3625509 L7.96816549,10.3562509 L7.97135911,10.3499709 L7.97455273,10.3437309 L7.97774635,10.3375109 L7.98093997,10.3313109 L7.98433319,10.3251309 L7.98772641,10.3189909 L7.99431325,10.3074509 L8.09291628,10.1361111 L8.20030176,9.94947121 L8.3322382,9.7200114 L8.47834632,9.46605161 L8.62804727,9.20599182 L8.77076218,8.95817203 L8.83603179,8.84457212 L8.89571257,8.74093221 L8.89930539,8.73495221 L8.90289821,8.72899221 L8.90649104,8.72307222 L8.91008386,8.71719222 L8.91387628,8.71133223 L8.91766871,8.70549223 L8.92146113,8.69969224 L8.92525356,8.69393224 L8.92904598,8.68819225 L8.933038,8.68247225 L8.93703003,8.67681226 L8.94102206,8.67115226 L8.94521368,8.66555227 L8.94920571,8.65997227 L8.95339733,8.65443228 L8.95758896,8.64891228 L8.96198019,8.64345229 L8.96617181,8.63799229 L8.97056304,8.63259229 L8.97495427,8.6272123 L8.9793455,8.6218723 L8.98373673,8.61657231 L8.98832756,8.61129231 L8.99271878,8.60605232 L8.99750921,8.60085232 L9.00210004,8.59569232 L9.00669087,8.59057233 L9.0114813,8.58547233 L9.01607213,8.58041234 L9.02086256,8.57539234 L9.02585259,8.57041235 L9.03064302,8.56547235 L9.03543345,8.56057235 L9.04042349,8.55569236 L9.04541352,8.55087236 L9.05040355,8.54607237 L9.05559318,8.54133237 L9.06058321,8.53661237 L9.06577285,8.53193238 L9.07076288,8.52731238 L9.07615211,8.52271238 L9.08134174,8.51815239 L9.08653138,8.51363239 L9.09192061,8.5091724 L9.09711024,8.5047324 L9.10249948,8.5003324 L9.10788871,8.49599241 L9.11327795,8.49167241 L9.11886678,8.48741241 L9.12425602,8.48319242 L9.12984485,8.47901242 L9.13543369,8.47487242 L9.14102252,8.47077243 L9.14661136,8.46671243 L9.15220019,8.46271243 L9.15798863,8.45873244 L9.16377707,8.45481244 L9.1693659,8.45093244 L9.17515434,8.44711245 L9.18094278,8.44331245 L9.18693081,8.43957245 L9.19271925,8.43587246 L9.19870729,8.43223246 L9.20449573,8.42861246 L9.21048376,8.42505247 L9.2164718,8.42153247 L9.22245984,8.41807247 L9.22844788,8.41465247 L9.23463552,8.41127248 L9.24062355,8.40795248 L9.24681119,8.40467248 L9.25279923,8.40145248 L9.25898687,8.39827249 L9.26517451,8.39513249 L9.27136215,8.39205249 L9.27754979,8.38901249 L9.28393703,8.3860325 L9.29012467,8.3830925 L9.29651191,8.3802125 L9.30269955,8.3773725 L9.30908679,8.37459251 L9.31547403,8.37185251 L9.32186127,8.36917251 L9.32824851,8.36653251 L9.33463575,8.36395252 L9.34122259,8.36141252 L9.34760983,8.35893252 L9.35419667,8.35651252 L9.36058392,8.35415252 L9.36717076,8.35183253 L9.3737576,8.34955253 L9.38034444,8.34733253 L9.38693128,8.34517253 L9.39351812,8.34307253 L9.40010497,8.34101253 L9.40669181,8.33903254 L9.41327865,8.33707254 L9.42006509,8.33519254 L9.42665193,8.33335254 L9.43343838,8.33157254 L9.44022482,8.32985254 L9.44681166,8.32819254 L9.4535981,8.32657255 L9.46038455,8.32503255 L9.46717099,8.32353255 L9.47395743,8.32209255 L9.48074388,8.32071255 L9.48753032,8.31937255 L9.49451636,8.31811255 L9.50130281,8.31689255 L9.50808925,8.31575256 L9.51507529,8.31465256 L9.51846852,8.31413256 L9.52186174,8.31363256 L9.52525496,8.31313256 L9.52884778,8.31265256 L9.532241,8.31219256 L9.53563422,8.31173256 L9.53922705,8.31129256 L9.54262027,8.31087256 L9.54601349,8.31047256 L9.54960631,8.31007256 L9.55299953,8.30971256 L9.55639276,8.30935256 L9.55998558,8.30899256 L9.5633788,8.30867256 L9.56677202,8.30835256 L9.57036485,8.30805256 L9.57375807,8.30777256 L9.57735089,8.30751256 L9.58074411,8.30725256 L9.58433693,8.30701256 L9.58773016,8.30679256 L9.59132298,8.30657256 L9.5947162,8.30639256 L9.59830902,8.30621256 L9.60170224,8.30605256 L9.60529507,8.30591256 L9.60868829,8.30577256 L9.61228111,8.30565256 L9.61567433,8.30555256 L9.61926716,8.30547256 L9.62266038,8.30541256 L9.6262532,8.30535256 L9.63084403,8.30531256 L9.63563446,8.30523256 L9.64122329,8.30511256 L11.3344408,8.30553256 L11.3344408,8.30553256 Z M20.8789741,13.1652086 L12.7348433,13.1652086 L20.2793719,0.0715993406 L20.9003315,0.033419372 L20.8789741,13.1652086 Z M9.64022529,8.54517237 L9.63403765,8.54529237 L9.62924722,8.54533237 L9.626852,8.54537237 L9.62445679,8.54541237 L9.62186197,8.54547237 L9.61946676,8.54555237 L9.61707154,8.54563237 L9.61467633,8.54571237 L9.61228111,8.54581237 L9.6098859,8.54593237 L9.60729108,8.54605237 L9.60489586,8.54619237 L9.60250065,8.54633237 L9.60010543,8.54649237 L9.59771022,8.54665236 L9.5951154,8.54683236 L9.59272019,8.54701236 L9.59032497,8.54721236 L9.58792976,8.54743236 L9.58553454,8.54765236 L9.58313933,8.54787236 L9.58054451,8.54811236 L9.57814929,8.54837236 L9.57575408,8.54863236 L9.57335886,8.54891236 L9.57096365,8.54919236 L9.56836883,8.54949236 L9.56617322,8.54979236 L9.5635784,8.55011236 L9.56118319,8.55043236 L9.55878797,8.55077236 L9.55639276,8.55111236 L9.55399754,8.55149236 L9.55180193,8.55181236 L9.54661229,8.55261236 L9.54182186,8.55343236 L9.53703143,8.55427236 L9.532241,8.55517236 L9.52745057,8.55611236 L9.52246054,8.55709236 L9.51767011,8.55813236 L9.51287968,8.55919235 L9.50808925,8.56027235 L9.50349842,8.56141235 L9.49850839,8.56261235 L9.49371796,8.56385235 L9.48892753,8.56511235 L9.4843367,8.56641235 L9.47934667,8.56777235 L9.47475584,8.56915235 L9.46996541,8.57057235 L9.46517498,8.57203234 L9.46058415,8.57355234 L9.45579372,8.57513234 L9.45100329,8.57671234 L9.44621286,8.57835234 L9.44162203,8.58001234 L9.4368316,8.58173234 L9.43224077,8.58347233 L9.42745034,8.58525233 L9.42305911,8.58705233 L9.41826868,8.58893233 L9.41347825,8.59089233 L9.40908702,8.59279233 L9.40449619,8.59477233 L9.39970576,8.59681232 L9.39531454,8.59883232 L9.39072371,8.60095232 L9.38613288,8.60311232 L9.38154205,8.60525232 L9.37695122,8.60747231 L9.37236039,8.60975231 L9.36796916,8.61201231 L9.36357793,8.61429231 L9.35918671,8.61661231 L9.35459588,8.61905231 L9.35000505,8.6215323 L9.34561382,8.6239723 L9.34142219,8.6264323 L9.33703097,8.6289523 L9.33263974,8.6315123 L9.32824851,8.63419229 L9.32385728,8.63681229 L9.31966566,8.63947229 L9.31507483,8.64227229 L9.3110828,8.64491228 L9.30669157,8.64769228 L9.30230035,8.65061228 L9.29830832,8.65335228 L9.29411669,8.65625227 L9.28992507,8.65917227 L9.28593304,8.66201227 L9.28174142,8.66501227 L9.27735019,8.66815226 L9.27335816,8.67111226 L9.26936614,8.67421226 L9.26517451,8.67735226 L9.26138209,8.68041225 L9.25719046,8.68363225 L9.25339804,8.68673225 L9.24940601,8.69005225 L9.24561359,8.69323224 L9.24182116,8.69643224 L9.23762954,8.69997224 L9.23383711,8.70327224 L9.23004469,8.70659223 L9.22645186,8.70993223 L9.22265944,8.71331223 L9.21886702,8.71689222 L9.21507459,8.72033222 L9.21128217,8.72397222 L9.20768935,8.72749222 L9.20429612,8.73087221 L9.2005037,8.73461221 L9.19691088,8.73823221 L9.19351766,8.7418722 L9.18992483,8.7455322 L9.18673121,8.7490722 L9.18293879,8.7529922 L9.17954557,8.75675219 L9.17635195,8.76035219 L9.17295873,8.76417219 L9.16976511,8.76803218 L9.16637188,8.77193218 L9.16297866,8.77585218 L9.15978504,8.77981217 L9.15659142,8.78359217 L9.1535974,8.78739217 L9.15040378,8.79143216 L9.14721016,8.79551216 L9.14441574,8.79939216 L9.14122212,8.80353215 L9.13822811,8.80747215 L9.13543369,8.81143215 L9.13243967,8.81565214 L9.12964525,8.81969214 L9.12665123,8.82395214 L9.12385681,8.82803213 L9.1210624,8.83215213 L9.11826798,8.83651213 L9.11567316,8.84065212 L9.11307835,8.84459212 L9.11048353,8.84881212 L9.10768911,8.85327211 L9.1052939,8.85753211 L9.10269908,8.86173211 L9.04361711,8.96453202 L8.97814789,9.07809193 L8.83543299,9.32589172 L8.68593164,9.58593151 L8.53982351,9.8398513 L8.40788708,10.0693111 L8.30050159,10.255951 L8.20209817,10.4269108 L8.19650934,10.4368708 L8.19431372,10.4408308 L8.19191851,10.4450908 L8.18952329,10.4496308 L8.18712808,10.4542108 L8.18493246,10.4585308 L8.18273685,10.4628708 L8.18054123,10.4672508 L8.17834562,10.4718908 L8.17615001,10.4765708 L8.17395439,10.4812708 L8.17195838,10.4857108 L8.16996237,10.4901508 L8.16796635,10.4949108 L8.16616994,10.4994108 L8.16417393,10.5042108 L8.16217792,10.5090107 L8.16038151,10.5135507 L8.1587847,10.5180907 L8.15698829,10.5226707 L8.15519187,10.5275507 L8.15339546,10.5324507 L8.15179865,10.5373707 L8.15020184,10.5419907 L8.14860503,10.5466307 L8.14720782,10.5515907 L8.14561101,10.5562707 L8.1442138,10.5612507 L8.14261699,10.5662707 L8.14141939,10.5709707 L8.14002218,10.5756907 L8.13862497,10.5807307 L8.13742736,10.5854707 L8.13622975,10.5902307 L8.13503215,10.5956307 L8.13383454,10.6003907 L8.13283653,10.6051707 L8.13163892,10.6102907 L8.13064092,10.6150907 L8.12964291,10.6202307 L8.12864491,10.6253707 L8.1276469,10.6301907 L8.12684849,10.6350306 L8.12605009,10.6402106 L8.12525168,10.6450506 L8.12445328,10.6499106 L8.12365487,10.6554306 L8.12305607,10.6602906 L8.12245727,10.6651506 L8.12185846,10.6703706 L8.12125966,10.6752506 L8.12066085,10.6804706 L8.12006205,10.6856906 L8.11966285,10.6905906 L8.11926365,10.6954906 L8.11906404,10.7003906 L8.11866484,10.7056106 L8.11826564,10.7108506 L8.11806604,10.7157506 L8.11786644,10.7210106 L8.11766684,10.7262506 L8.11746723,10.7311506 L8.11746723,10.7409506 L8.11726763,10.7462106 L8.11746723,10.7514506 L8.11746723,10.7615705 L8.11766684,10.7664705 L8.11786644,10.7713705 L8.11806604,10.7765905 L8.11826564,10.7818105 L8.11866484,10.7870305 L8.11886444,10.7919105 L8.11926365,10.7967905 L8.11966285,10.8016505 L8.12006205,10.8068505 L8.12066085,10.8120505 L8.12125966,10.8168905 L8.12165886,10.8217305 L8.12225766,10.8269105 L8.12305607,10.8320705 L8.12365487,10.8368905 L8.12425368,10.8416905 L8.12505208,10.8468305 L8.12585049,10.8519505 L8.12684849,10.8567305 L8.1276469,10.8615105 L8.12864491,10.8666105 L8.12944331,10.8716905 L8.13044132,10.8764304 L8.13143932,10.8811504 L8.13263693,10.8861904 L8.13363494,10.8909104 L8.13483254,10.8956104 L8.13603015,10.9009304 L8.13722776,10.9055904 L8.13842537,10.9102504 L8.13982258,10.9152104 L8.14102018,10.9198504 L8.14241739,10.9247704 L8.1440142,10.9296904 L8.14541141,10.9342704 L8.14680862,10.9388304 L8.14820583,10.9433904 L8.14980264,10.9482304 L8.15159905,10.9530704 L8.15299626,10.9575704 L8.15479267,10.9623504 L8.15638948,10.9668304 L8.15818589,10.9712904 L8.1599823,10.9760104 L8.16177872,10.9807304 L8.16357513,10.9851304 L8.16537154,10.9895104 L8.16736755,10.9941704 L8.16936356,10.9987903 L8.17135958,11.0031103 L8.17335559,11.0074303 L8.1755512,11.0119903 L8.17774682,11.0165303 L8.17974283,11.0207903 L8.18193844,11.0250103 L8.18413406,11.0294703 L8.18632967,11.0336703 L8.18872489,11.0384103 L8.18992249,11.0404103 L8.1909205,11.0422303 L8.19191851,11.0440503 L8.19311611,11.0463503 L8.19451332,11.0486703 L8.19551133,11.0504703 L9.09431583,12.610549 L9.10329788,12.626169 L9.10429589,12.627609 L9.1056931,12.629849 L9.10689071,12.632069 L9.10808831,12.633809 L9.10908632,12.635549 L9.11048353,12.637749 L9.11227994,12.640429 L9.11327795,12.642169 L9.11467516,12.644329 L9.11607237,12.646489 L9.11726763,12.648209 L9.11866718,12.650349 L9.12006439,12.652489 L9.1214616,12.654569 L9.12425602,12.658669 L9.12705043,12.662649 L9.12984485,12.666589 L9.13283887,12.670749 L9.13563329,12.674649 L9.13862731,12.678509 L9.14162133,12.682549 L9.14481495,12.686549 L9.14780897,12.690329 L9.15080299,12.694069 L9.15419621,12.6981689 L9.15719023,12.7018289 L9.16018424,12.7054689 L9.16337787,12.7092689 L9.16677109,12.7130489 L9.17016431,12.7167889 L9.17315833,12.7202889 L9.17675115,12.7239689 L9.18014437,12.7277889 L9.18333799,12.7312089 L9.18693081,12.7347689 L9.19032404,12.7383089 L9.19391686,12.7418089 L9.19731008,12.7452889 L9.2009029,12.7487089 L9.20469533,12.7522689 L9.20828815,12.7556289 L9.21188097,12.7589689 L9.2154738,12.7622689 L9.21906662,12.7655289 L9.22285904,12.7689089 L9.22685107,12.7722489 L9.23044389,12.7754289 L9.23423631,12.7785489 L9.23802874,12.7816489 L9.24202076,12.7848489 L9.24581319,12.7880089 L9.24980521,12.7910089 L9.25379724,12.7941089 L9.25758966,12.7970489 L9.26158169,12.8000689 L9.26577331,12.8030489 L9.26976534,12.8059889 L9.27375736,12.8089089 L9.27774939,12.8116689 L9.28194102,12.8145289 L9.28613264,12.8173088 L9.29052387,12.8201888 L9.2945159,12.8228288 L9.29870752,12.8255288 L9.30309875,12.8282888 L9.30709078,12.8308088 L9.3112824,12.8334088 L9.31587323,12.8360488 L9.32006486,12.8385688 L9.32445609,12.8410488 L9.32884731,12.8435688 L9.33303894,12.8459888 L9.33743017,12.8483688 L9.342021,12.8507688 L9.34641223,12.8531488 L9.35080345,12.8554088 L9.35519468,12.8576288 L9.35978551,12.8599088 L9.36417674,12.8620688 L9.36876757,12.8642488 L9.3733584,12.8663888 L9.37774962,12.8684288 L9.38254005,12.8705088 L9.38713088,12.8725488 L9.39172171,12.8745288 L9.39631254,12.8764888 L9.40090337,12.8783488 L9.4054942,12.8802288 L9.41028463,12.8821288 L9.41507506,12.8839288 L9.41966589,12.8856488 L9.42425672,12.8873688 L9.42904715,12.8890888 L9.43383758,12.8907488 L9.43842841,12.8923488 L9.44321884,12.8939288 L9.44800927,12.8954888 L9.4527997,12.8969888 L9.45759013,12.8984488 L9.46238056,12.8998888 L9.46717099,12.9012688 L9.47196142,12.9026088 L9.47675185,12.9039288 L9.48174188,12.9052288 L9.48653231,12.9064488 L9.49132274,12.9076288 L9.49611317,12.9088088 L9.50110321,12.9099288 L9.50589364,12.9110088 L9.51088367,12.9120688 L9.5156741,12.9130488 L9.52066413,12.9140288 L9.52545456,12.9149488 L9.53044459,12.9158288 L9.53523502,12.9166888 L9.54022505,12.9174888 L9.54521509,12.9182488 L9.55000552,12.9189888 L9.55499555,12.9196688 L9.55998558,12.9203288 L9.56497561,12.9209288 L9.56976604,12.9215088 L9.57475607,12.9220288 L9.5795465,12.9225088 L9.58453653,12.9229688 L9.58952657,12.9233688 L9.5945166,12.9237288 L9.59950663,12.9240688 L9.60429706,12.9243488 L9.60928709,12.9245888 L9.61427712,12.9248088 L9.61926716,12.9249688 L9.62425719,12.9250888 L9.62904762,12.9251688 L9.63423725,12.9252088 L9.68413757,12.9252688 L9.82206204,12.9253688 L9.91747145,12.9254488 L10.0268529,12.9255088 L10.1482105,12.9255688 L10.2787497,12.9255688 L10.4158758,12.9255688 L10.5571935,12.9255688 L10.700108,12.9254488 L10.8420245,12.9253088 L10.9120846,12.9252288 L10.9807474,12.9251288 L11.048013,12.9250088 L11.1134822,12.9248688 L11.1767558,12.9247088 L11.2376342,12.9245488 L11.2957182,12.9243488 L11.3492113,12.9241488 L11.3538022,12.9240688 L11.3587922,12.9239488 L11.3637822,12.9237688 L11.3687722,12.9235688 L11.3735627,12.9233088 L11.3785527,12.9230288 L11.3835427,12.9226888 L11.3885328,12.9223088 L11.3935228,12.9218888 L11.3985128,12.9214288 L11.4035029,12.9209288 L11.4082933,12.9203888 L11.4132833,12.9198088 L11.4182734,12.9191688 L11.4230638,12.9185088 L11.4280538,12.9178088 L11.4330439,12.9170488 L11.4378343,12.9162688 L11.4428243,12.9154488 L11.4476147,12.9145688 L11.4526048,12.9136488 L11.4573952,12.9127088 L11.4623852,12.9117088 L11.4671757,12.9106888 L11.4719661,12.9096288 L11.4769561,12.9085288 L11.4817466,12.9073688 L11.4867366,12.9061488 L11.491527,12.9049288 L11.4963175,12.9036888 L11.5009083,12.9023888 L11.5056987,12.9010488 L11.5106887,12.8996488 L11.5154792,12.8982288 L11.52007,12.8967688 L11.52506,12.8952488 L11.5296509,12.8937488 L11.5342417,12.8921688 L11.5392317,12.8905288 L11.5438226,12.8888688 L11.5484134,12.8872088 L11.5532038,12.8854888 L11.5579942,12.8836888 L11.5625851,12.8819088 L11.5671759,12.8800688 L11.5717667,12.8781888 L11.5763576,12.8763088 L11.581148,12.8742888 L11.5855392,12.8723488 L11.59013,12.8703488 L11.5949205,12.8682088 L11.5993117,12.8661688 L11.6037029,12.8640688 L11.6082938,12.8618688 L11.6128846,12.8596288 L11.6172676,12.8574288 L11.621667,12.8551888 L11.6262579,12.8528288 L11.6306491,12.8505288 L11.6348407,12.8481688 L11.6394316,12.8457088 L11.6436232,12.8432888 L11.6480144,12.8408088 L11.6524056,12.8382288 L11.6567969,12.8357088 L11.6607889,12.8332288 L11.6651801,12.8306088 L11.6695714,12.8278888 L11.673763,12.8252088 L11.6779546,12.8224888 L11.6821462,12.8197488 L11.6863379,12.8169489 L11.6905295,12.8141289 L11.6943219,12.8113889 L11.6985135,12.8085089 L11.7025056,12.8055689 L11.7064976,12.8027289 L11.7106892,12.7997289 L11.7148808,12.7965689 L11.7186733,12.7936089 L11.7224657,12.7906489 L11.7264577,12.7875089 L11.7302501,12.7844489 L11.7342422,12.7812489 L11.7382342,12.7779889 L11.741827,12.7748489 L11.7456194,12.7716689 L11.7494119,12.7683289 L11.7532043,12.7650689 L11.7567971,12.7617889 L11.7605895,12.7583489 L11.7641824,12.7550089 L11.7677752,12.7516289 L11.771368,12.7482289 L11.7749608,12.7447889 L11.7785536,12.7411689 L11.7821465,12.7376689 L11.7853401,12.7343089 L11.7891325,12.7305689 L11.7925257,12.7269689 L11.7957194,12.7235289 L11.7991126,12.7198689 L11.8023062,12.7161689 L11.8056994,12.7124489 L11.8090926,12.7086889 L11.8122863,12.7048889 L11.8154799,12.7010889 L11.8186735,12.6974289 L11.8216675,12.693749 L11.8248611,12.689849 L11.8278552,12.685889 L11.8310488,12.681909 L11.8340428,12.678109 L11.8368372,12.674289 L11.8398312,12.670229 L11.8428253,12.666109 L11.8456197,12.662189 L11.8484141,12.658249 L11.8514081,12.654069 L11.8542025,12.650049 L11.8567973,12.646029 L11.8595918,12.641969 L11.8621866,12.637889 L11.864981,12.633529 L11.8673762,12.629389 L11.869971,12.625209 L11.8725658,12.621009 L11.8749611,12.616829 L11.9314482,12.5189691 L11.9883346,12.4202692 L12.0452209,12.3216693 L12.1023069,12.2230693 L12.2162792,12.0259495 L12.2731656,11.9274296 L12.3300519,11.8289097 L12.3869383,11.7303897 L12.4438247,11.6318698 L12.5005114,11.5333299 L12.5288548,11.4840899 L12.5571982,11.43483 L12.5855416,11.38557 L12.6138849,11.3362701 L12.6422283,11.2869901 L12.6703721,11.2376902 L12.6987155,11.1883902 L12.7268593,11.1391102 L12.755003,11.0897903 L12.782548,11.0416903 L12.7847436,11.0377303 L12.7871388,11.0334303 L12.7893345,11.0291103 L12.7915301,11.0247703 L12.7939253,11.0201703 L12.7961209,11.0157903 L12.7983165,11.0114303 L12.8005121,11.0067703 L12.8027077,11.0023703 L12.8047037,10.9979503 L12.8066998,10.9935104 L12.8086958,10.9887904 L12.8106918,10.9840504 L12.8124882,10.9798704 L12.8142846,10.9753904 L12.8162806,10.9703104 L12.818077,10.9658104 L12.8198734,10.9612904 L12.8214703,10.9567504 L12.8230671,10.9522104 L12.8248635,10.9473704 L12.8264603,10.9428104 L12.8280571,10.9379304 L12.8294543,10.9333504 L12.8308515,10.9287504 L12.8324483,10.9238504 L12.8338455,10.9192304 L12.8352427,10.9142904 L12.83664,10.9096704 L12.8378376,10.9050304 L12.8392348,10.9000704 L12.8402328,10.8954104 L12.8414304,10.8907304 L12.842628,10.8860704 L12.843626,10.8810704 L12.8448236,10.8760504 L12.8458216,10.8713505 L12.8468196,10.8666505 L12.8478176,10.8616105 L12.848616,10.8565705 L12.8494144,10.8521905 L12.8502128,10.8471305 L12.8512108,10.8420705 L12.8518096,10.8376705 L12.8526081,10.8325905 L12.8532069,10.8275105 L12.8538057,10.8227505 L12.8544045,10.8176705 L12.8550033,10.8129105 L12.8554025,10.8081505 L12.8560013,10.8030505 L12.8564005,10.7979305 L12.8567997,10.7931705 L12.8571989,10.7883905 L12.8575981,10.7832705 L12.8577977,10.7785105 L12.8579973,10.7737305 L12.8581969,10.7686105 L12.8583965,10.7634905 L12.8585961,10.7586905 L12.8585961,10.7337706 L12.8583965,10.7289906 L12.8583965,10.7242306 L12.8581969,10.7191106 L12.8579973,10.7139906 L12.8575981,10.7092306 L12.8573985,10.7044706 L12.8569993,10.6993506 L12.8566001,10.6942506 L12.8562009,10.6891706 L12.8558017,10.6844106 L12.8552029,10.6796706 L12.8548037,10.6749306 L12.8542049,10.6698506 L12.8536061,10.6647706 L12.8530073,10.6600506 L12.8522089,10.6549906 L12.8514104,10.6499506 L12.8508116,10.6452306 L12.8500132,10.6405306 L12.8490152,10.6355106 L12.8482168,10.6304906 L12.8472188,10.6258107 L12.8462208,10.6208107 L12.8454224,10.6161507 L12.8442248,10.6111707 L12.8432268,10.6061907 L12.8422288,10.6015507 L12.8410312,10.5965907 L12.8398336,10.5919707 L12.838636,10.5873707 L12.8374384,10.5824507 L12.8358415,10.5772307 L12.8346439,10.5726507 L12.8332467,10.5680707 L12.8318495,10.5632107 L12.8304523,10.5586707 L12.8290551,10.5538307 L12.8274583,10.5489907 L12.8258615,10.5444907 L12.8242647,10.5396907 L12.8226679,10.5348907 L12.8210711,10.5304307 L12.8192746,10.5256707 L12.8174782,10.5209307 L12.8156818,10.5165107 L12.814085,10.5120907 L12.812089,10.5073908 L12.810093,10.5027108 L12.808097,10.4980508 L12.806101,10.4934108 L12.8043045,10.4890708 L12.8021089,10.4844708 L12.8001129,10.4801508 L12.7981169,10.4755908 L12.7957217,10.4710308 L12.7937257,10.4667708 L12.7915301,10.4622508 L12.7891349,10.4577508 L12.7867396,10.4532708 L12.784544,10.4490908 L12.7823484,10.4449108 L12.7799532,10.4404908 L12.7773584,10.4359708 L12.7703723,10.4239508 L11.8733642,8.8671521 L11.8697714,8.86097211 L11.8673762,8.85687211 L11.8647814,8.85255211 L11.8621866,8.84851212 L11.8593922,8.84403212 L11.8565977,8.83979212 L11.8538033,8.83559213 L11.8510089,8.83117213 L11.8482145,8.82703213 L11.8452205,8.82267214 L11.8422264,8.81859214 L11.839432,8.81453214 L11.8362384,8.81027215 L11.8332444,8.80605215 L11.8300508,8.80187215 L11.8270568,8.79791216 L11.8240627,8.79401216 L11.8208691,8.78991216 L11.8174759,8.78583217 L11.8142823,8.78179217 L11.8112883,8.77801217 L11.807895,8.77403218 L11.8043022,8.76989218 L11.8011086,8.76617218 L11.797915,8.76249219 L11.7943221,8.75847219 L11.7909289,8.75465219 L11.7873361,8.7508922 L11.7839429,8.7471522 L11.7803501,8.7434322 L11.7767572,8.73957221 L11.7731644,8.73609221 L11.7697712,8.73249221 L11.7659788,8.72875222 L11.7621863,8.72519222 L11.7583939,8.72153222 L11.7548011,8.71805222 L11.7510087,8.71459223 L11.7472162,8.71103223 L11.7434238,8.70765223 L11.739831,8.70431224 L11.735839,8.70085224 L11.7318469,8.69745224 L11.7280545,8.69419224 L11.7242621,8.69099225 L11.7202701,8.68767225 L11.7158788,8.68427225 L11.7120864,8.68117225 L11.7080944,8.67809226 L11.7041024,8.67493226 L11.7001103,8.67181226 L11.6957191,8.66861226 L11.6917271,8.66567227 L11.6877351,8.66277227 L11.6835434,8.65969227 L11.6793518,8.65675227 L11.6751602,8.65385228 L11.6709686,8.65099228 L11.6667769,8.64817228 L11.6623857,8.64539228 L11.6581941,8.64263229 L11.6538029,8.63983229 L11.6496112,8.63717229 L11.64522,8.63453229 L11.6410284,8.63193229 L11.6366371,8.6293723 L11.6322459,8.6267923 L11.6276551,8.6242123 L11.6232639,8.6217723 L11.6190722,8.61937231 L11.6144814,8.61693231 L11.6098906,8.61453231 L11.6056989,8.61225231 L11.6013077,8.60999231 L11.5967169,8.60771231 L11.5921261,8.60547232 L11.5875352,8.60329232 L11.583144,8.60119232 L11.5785532,8.59907232 L11.5739623,8.59699232 L11.5693715,8.59497233 L11.5647807,8.59297233 L11.5603895,8.59107233 L11.555599,8.58911233 L11.5510082,8.58725233 L11.546617,8.58545233 L11.5418265,8.58363233 L11.5372357,8.58189234 L11.5326449,8.58017234 L11.5280541,8.57851234 L11.5232636,8.57689234 L11.5184732,8.57527234 L11.5138824,8.57373234 L11.5092915,8.57223234 L11.5047007,8.57077235 L11.4999103,8.56933235 L11.4953194,8.56795235 L11.490529,8.56661235 L11.4857386,8.56527235 L11.4811478,8.56401235 L11.4763573,8.56281235 L11.4717665,8.56161235 L11.4669761,8.56047235 L11.4621856,8.55937235 L11.4575948,8.55831236 L11.4528044,8.55731236 L11.4480139,8.55633236 L11.4432235,8.55539236 L11.4386327,8.55449236 L11.4338423,8.55363236 L11.4290518,8.55283236 L11.424461,8.55207236 L11.419471,8.55131236 L11.4172754,8.55099236 L11.4148801,8.55065236 L11.4124849,8.55033236 L11.4102893,8.55003236 L11.4078941,8.54973236 L11.4052993,8.54941236 L11.4029041,8.54913236 L11.4007084,8.54887236 L11.3983132,8.54861236 L11.395918,8.54835236 L11.3935228,8.54811236 L11.3911276,8.54789236 L11.3887324,8.54767236 L11.3863372,8.54745236 L11.3839419,8.54725236 L11.3817463,8.54707236 L11.3793511,8.54689236 L11.3769559,8.54673236 L11.3745607,8.54657237 L11.3721655,8.54643237 L11.3697703,8.54629237 L11.367375,8.54617237 L11.3649798,8.54607237 L11.3625846,8.54595237 L11.3601894,8.54587237 L11.3577942,8.54579237 L11.3555986,8.54571237 L11.3532033,8.54565237 L11.3508081,8.54561237 L11.3484129,8.54557237 L11.3460177,8.54555237 L11.3438221,8.54553237 L11.3344408,8.54553237 L9.64381811,8.54511237 L9.64022529,8.54517237 L9.64022529,8.54517237 Z M20.422486,0.30325915 L13.1498143,12.9252088 L20.6398518,12.9252088 L20.6604107,0.288639162 L20.422486,0.30325915 Z M13.6805541,9.9650712 L8.7903231,1.47801818 L9.56976604,0.125479296 L19.3751782,0.0821393319 L13.6805541,9.9650712 L13.6805541,9.9650712 Z M9.70828932,0.364859099 L9.06697045,1.47801818 L13.6805541,9.48507159 L18.9592092,0.323979133 L9.70828932,0.364859099 L9.70828932,0.364859099 Z M11.3851395,7.54019319 L5.29730096,7.54019319 L8.34122025,2.25743754 L11.3851395,7.54019319 Z M5.71227199,7.30019339 L10.9703681,7.30019339 L8.34122025,2.73743715 L5.71227199,7.30019339 Z" id="形状" fill="url(#linearGradient-4)" mask="url(#mask-2)"></path>
                        </g>
                    </g>
                </g>
            </g>
        </g>
    </g>
</svg>