<svg viewBox="0 0 24 24" fill="currentColor" xmlns="http://www.w3.org/2000/svg"><path d="M19.7486 6.70266C20.3482 6.09168 21.0251 5.88487 21.8216 5.88487 22.4994 5.88487 22.8772 5.51788 23.1687 5.23481 23.3841 5.0256 23.5423 4.86223 23.7495 4.9267 23.9849 4.99995 24.0039 5.27202 23.9849 5.49211 23.8092 7.48319 22.5352 9.10375 20.5089 9.33432 20.3217 9.35326 20.2848 9.41777 20.2886 9.58097 20.2886 12.135 19.3023 14.3682 17.7413 16.3177 17.3773 16.7723 17.4617 17.397 18.0099 17.5934 18.2913 17.6942 18.6306 17.8197 19.0629 18.0261 19.3173 18.1475 19.3664 18.8022 18.6619 18.952 18.2141 19.0446 17.728 19.1012 17.2409 19.0989 16.0407 19.0932 14.7567 19.2619 13.6741 19.7802 12.5444 20.3211 11.5023 20.4276 10.5351 20.4832 6.05234 20.7487 1.91959 17.3891 1.14577 12.9829.4786 9.18832 2.57147 5.07162 6.66325 4.61173 7.14737 4.55719 7.62089 4.53981 8.0848 4.55739 8.87454 4.58733 9.6213 4.41281 10.366 4.23877 11.0506 4.07878 11.7335 3.9192 12.4464 3.9192 13.289 3.9192 13.4518 4.23796 13.1926 4.33093 12.9459 4.42011 12.0002 5.5 12.8219 6.09927 13.5751 6.5753 14.217 7.22865 14.859 7.88213 15.7004 8.73861 16.542 9.59533 17.6349 10.0534 17.8183 10.1293 17.8968 10.0914 17.9488 9.91865 17.984 9.80487 18.021 9.69242 18.0579 9.58018 18.1084 9.42668 18.1588 9.27358 18.2041 9.11798 18.2458 8.98703 18.2118 8.896 18.0803 8.80682 16.5019 7.7348 15.7807 5.49544 16.7241 3.7693 16.9257 3.40591 17.2152 3.45676 17.3454 3.8414 17.5002 4.5 17.6793 4.81997 18.5532 5.2113 19.1972 5.4997 19.6209 5.94937 19.7486 6.70266ZM12.2889 8.15848C10.7532 7.02012 8.79874 6.38384 6.88727 6.59919 5.50456 6.7546 4.48708 7.51265 3.84434 8.54596 4.06732 8.56243 4.31508 8.58934 4.58987 8.62966 6.85894 8.96265 8.79097 9.98777 10.3898 11.5802 11.3587 12.5454 12.1238 13.6898 12.8253 14.6671 13.4051 15.4748 13.9559 16.1921 14.5951 16.7793 15.8396 15.7081 16.6794 14.4169 17.0503 13.8 17.8977 12.3908 17.6928 12.2942 16.853 11.898 16.316 11.6446 15.5193 11.2687 14.5722 10.3488 13.5602 9.36588 13.0771 8.7451 12.2889 8.15848ZM3.11574 12.637C3.70717 16 6.70788 18.473 10.417 18.4867 11.3223 18.4901 12.1492 18.2666 12.8906 17.9119 12.2402 17.2517 11.6978 16.526 11.2006 15.8333 10.4412 14.7753 9.79818 13.8139 8.97846 12.9972 7.66251 11.6866 6.11607 10.8751 4.29954 10.6085 3.72541 10.5242 3.34242 10.5175 3.11076 10.5295 2.99297 11.2236 2.99407 11.9452 3.11574 12.637ZM15.1938 11.1427C14.7189 10.6785 13.9006 9.95702 13.1369 10.3762 12.0002 11 14.354 13.4813 15.472 13.4291 17.254 13.3458 15.7214 11.7533 15.1938 11.1427Z"/></svg>