<svg viewBox="0 0 24 24" fill="currentColor" xmlns="http://www.w3.org/2000/svg"><path d="M12 2C17.5228 2 22 6.47715 22 12C22 17.5228 17.5228 22 12 22C6.47715 22 2 17.5228 2 12C2 6.47715 6.47715 2 12 2ZM12 4C7.58172 4 4 7.58172 4 12C4 16.4183 7.58172 20 12 20C16.4183 20 20 16.4183 20 12C20 7.58172 16.4183 4 12 4ZM13.6787 7.92676H12.1787C11.6216 7.92676 11.2354 8.26989 11.2354 8.78418V9.25586H16.207V17.1416H13.6787V11.3984H11.2354V17.1416H8.70703V11.3984H7.25V9.25586H8.70703V8.6123C8.70725 6.94112 9.95028 5.78418 11.793 5.78418H13.6787V7.92676Z"/></svg>