<svg viewBox="0 0 24 24" fill="currentColor" xmlns="http://www.w3.org/2000/svg"><path d="M12 2C17.5228 2 22 6.47715 22 12C22 17.5228 17.5228 22 12 22C6.47715 22 2 17.5228 2 12C2 6.47715 6.47715 2 12 2ZM12 4C7.58172 4 4 7.58172 4 12C4 16.4183 7.58172 20 12 20C16.4183 20 20 16.4183 20 12C20 7.58172 16.4183 4 12 4ZM17 6.5C17.2761 6.5 17.5 6.72386 17.5 7V8C17.5 8.27614 17.2761 8.5 17 8.5H10C9.17157 8.5 8.5 9.17157 8.5 10V15C8.5 15.2761 8.72386 15.5 9 15.5H14C14.8284 15.5 15.5 14.8284 15.5 14V13H11.5C11.2239 13 11 12.7761 11 12.5V11.5C11 11.2239 11.2239 11 11.5 11H17C17.2761 11 17.5 11.2239 17.5 11.5V14C17.5 15.933 15.933 17.5 14 17.5H7C6.72386 17.5 6.5 17.2761 6.5 17V10C6.5 8.067 8.067 6.5 10 6.5H17Z"/></svg>