<svg xmlns="http://www.w3.org/2000/svg" width="1em" height="1em" viewBox="0 0 24 24"><path fill="currentColor" d="m14.49 20.937l5.381-1.166S17.93 6.633 17.914 6.546c-.016-.086-.086-.144-.158-.144s-1.439-.101-1.439-.101s-.949-.949-1.064-1.05c-.027-.029-.057-.043-.086-.058zm.446-15.772c-.016 0-.043.014-.057.014c-.016 0-.217.059-.533.158c-.318-.919-.879-1.768-1.871-1.768h-.086c-.289-.361-.633-.519-.936-.519c-2.316 0-3.426 2.892-3.77 4.359c-.892.275-1.538.476-1.613.505c-.504.158-.517.172-.574.648c-.057.344-1.367 10.489-1.367 10.489l10.117 1.899zm-2.635.704v.102c-.559.173-1.178.36-1.783.547c.346-1.323.992-1.972 1.553-2.217c.146.375.23.878.23 1.568m-.92-2.2c.1 0 .201.028.303.102c-.732.344-1.539 1.222-1.871 2.978a59.11 59.11 0 0 1-1.411.432c.389-1.339 1.325-3.512 2.979-3.512m.402 7.812s-.604-.315-1.322-.315c-1.08 0-1.123.676-1.123.849c0 .921 2.418 1.28 2.418 3.453c0 1.712-1.08 2.806-2.547 2.806c-1.756 0-2.648-1.094-2.648-1.094l.475-1.554s.922.792 1.697.792a.693.693 0 0 0 .721-.69c0-1.209-1.986-1.268-1.986-3.252c0-1.669 1.195-3.295 3.627-3.295c.936 0 1.395.272 1.395.272zm.922-7.281c.518.06.85.648 1.064 1.311c-.258.087-.547.173-.863.273v-.187c0-.561-.072-1.022-.201-1.397"/></svg>