<svg viewBox="0 0 24 24" fill="currentColor" xmlns="http://www.w3.org/2000/svg"><path d="M12 2C17.5228 2 22 6.47715 22 12C22 17.5228 17.5228 22 12 22C6.47715 22 2 17.5228 2 12C2 6.47715 6.47715 2 12 2ZM12 4C7.58172 4 4 7.58172 4 12C4 16.4183 7.58172 20 12 20C16.4183 20 20 16.4183 20 12C20 7.58172 16.4183 4 12 4ZM16.1523 8.29492C16.5963 8.29097 17.037 8.37633 17.4473 8.5459C17.8573 8.71544 18.2295 8.96522 18.541 9.28125C18.8527 9.59746 19.0972 9.97399 19.2607 10.3867C19.4242 10.7993 19.5036 11.2409 19.4932 11.6846C19.5074 12.1299 19.4312 12.574 19.2695 12.9893C19.1079 13.4045 18.8643 13.7831 18.5527 14.1016C18.241 14.4201 17.8678 14.6721 17.4561 14.8428C17.0443 15.0134 16.6019 15.0984 16.1562 15.0938H16.0176C15.4185 15.0719 14.8359 14.8923 14.3291 14.5723C14.134 14.4507 13.9486 14.314 13.7744 14.1641L13.248 17.3945H11.7305L12.5303 12.835C11.8479 11.8342 11.3426 10.7229 11.0371 9.55078V11.7295C11.0369 13.7074 9.77702 15.0897 7.97852 15.0898C7.55526 15.1007 7.13392 15.0208 6.74414 14.8555C6.35462 14.6902 6.00502 14.4434 5.71875 14.1318C5.13199 13.4579 4.82354 12.5853 4.85742 11.6924V8.46973H6.35059V11.6924C6.35059 12.8671 6.94229 13.7314 7.98242 13.7314C9.02242 13.7313 9.55273 12.863 9.55273 11.6924V8.46973H12.1514C12.3253 9.26142 12.5893 10.0312 12.9385 10.7627C13.0995 10.0371 13.5106 9.39083 14.0996 8.9375C14.6149 8.54097 15.2377 8.31363 15.8828 8.2832L16.1523 8.29492ZM16.1602 9.64453C15.108 9.64469 14.3123 10.3221 14.0391 12.5C14.2656 12.862 14.5767 13.1646 14.9443 13.3818C15.2659 13.5717 15.6233 13.6915 15.9932 13.7344L16.1602 13.7236C17.1961 13.7236 18.0125 12.9081 18.0127 11.6846C18.0127 10.4609 17.2125 9.64453 16.1602 9.64453Z"/></svg>