<svg xmlns="http://www.w3.org/2000/svg" viewBox="0 0 24 24">
    <g>
        <path fill="none" d="M0 0h24v24H0z"/>
        <path fill-rule="nonzero" d="M19.118 9.01L9.346 14.6l-.07.047a.646.646 0 0 1-.3.068.655.655 0 0 1-.58-.344l-.046-.092-1.83-3.95c-.024-.046-.024-.092-.024-.138 0-.184.139-.321.324-.321.07 0 .14.023.209.069l2.155 1.515c.162.092.348.161.556.161a.937.937 0 0 0 .348-.069l8.166-3.6C16.76 6.49 14.494 5.6 12.012 5.6 7.518 5.6 4 8.502 4 11.868c0 1.739.95 3.422 2.609 4.614.437.31.773.752.959 1.255.269-.084.552-.13.851-.13.28 0 .522.04.864.127.847.248 1.77.378 2.705.378 4.494 0 8.012-2.901 8.012-6.267 0-.936-.273-1.861-.796-2.717l-.086-.119zm1.074-1.92l.672.92C21.583 9.157 22 10.466 22 11.844c0 4.57-4.496 8.267-10.012 8.267-1.135 0-2.248-.16-3.267-.459a1.368 1.368 0 0 0-.302-.046c-.185 0-.37.07-.533.161l-2.178 1.263a.265.265 0 0 1-.185.069.315.315 0 0 1-.325-.322c0-.091.023-.183.046-.252 0-.046.487-1.814.487-1.883a.672.672 0 0 0-.278-.529C3.344 16.6 2 14.348 2 11.868 2 7.298 6.496 3.6 12.012 3.6c3.383 0 6.373 1.378 8.18 3.49z"/>
    </g>
</svg>
