<svg xmlns="http://www.w3.org/2000/svg" viewBox="0 0 24 24">
    <g>
        <path fill="none" d="M0 0h24v24H0z"/>
        <path fill-rule="nonzero" d="M8.89 16.11a8.963 8.963 0 0 1-2.581-.365c-.073-.024-.17-.024-.244-.024a.823.823 0 0 0-.414.121l-1.729.996a.347.347 0 0 1-.146.048.27.27 0 0 1-.268-.267c0-.072.292-1.02.414-1.505 0-.048.025-.121.025-.17a.49.49 0 0 0-.22-.437C2.071 13.317 1 11.521 1 9.555 1 5.938 4.531 3 8.89 3c4.175 0 7.591 2.695 7.871 6.102C20.248 9.26 23 11.654 23 14.598c0 1.647-.884 3.146-2.284 4.154a.347.347 0 0 0-.172.368c0 .05 0 .098.025.148.098.417.294 1.081.294 1.106 0 .073.025.122.025.172a.22.22 0 0 1-.221.22c-.033 0-.557-.294-1.572-.884a.799.799 0 0 0-.344-.098c-.073 0-.147 0-.196.024-.688.197-1.4.295-2.161.295-3.059 0-5.62-1.717-6.378-4.06a9.57 9.57 0 0 1-1.126.067zm5.897-6.854C14.587 6.898 12.057 5 8.9 5 5.609 5 3 7.062 3 9.559c0 1.303.732 2.542 1.994 3.403.287.162.419.405.408.884a19.55 19.55 0 0 0 0 .411l.574-.277c.217-.104.402-.16.612-.16.21 0 .293.007.446.08a7.762 7.762 0 0 0 1.866.217c.313 0 .62-.018.918-.054.27-2.345 2.292-4.253 4.97-4.807zm4.338 8.678c-.009-.374.094-.565.318-.692.985-.675 1.557-1.647 1.557-2.668C21 12.617 18.963 11 16.394 11c-2.57 0-4.607 1.617-4.607 3.574 0 1.957 2.037 3.574 4.607 3.574.54 0 1.044-.066 1.456-.17.12-.058.184-.063.348-.063.164 0 .309.043.479.125l.448.217v-.323zM18.2 14.5c-.556 0-1-.444-1-1s.444-1 1-1 1 .444 1 1c0 .528-.444 1-1 1zm-3.6 0c-.556 0-1-.444-1-1s.444-1 1-1 1 .444 1 1c0 .528-.444 1-1 1zM11.25 9A1.24 1.24 0 0 1 10 7.75c0-.698.552-1.25 1.25-1.25s1.25.552 1.25 1.25A1.26 1.26 0 0 1 11.25 9zM6.5 9a1.24 1.24 0 0 1-1.25-1.25c0-.698.552-1.25 1.25-1.25s1.25.552 1.25 1.25A1.26 1.26 0 0 1 6.5 9z"/>
    </g>
</svg>
