<svg xmlns="http://www.w3.org/2000/svg" viewBox="0 0 24 24">
    <g>
        <path fill="none" d="M0 0h24v24H0z"/>
        <path d="M9.277 14.647a.646.646 0 0 1-.301.068.655.655 0 0 1-.58-.344l-.046-.092-1.83-3.95c-.024-.046-.024-.092-.024-.138 0-.184.139-.321.324-.321.07 0 .14.023.209.069l2.155 1.515c.162.092.348.161.556.161a.937.937 0 0 0 .348-.069l10.104-4.455C18.385 4.978 15.395 3.6 12.012 3.6 6.496 3.6 2 7.298 2 11.868c0 2.48 1.344 4.73 3.453 6.246a.672.672 0 0 1 .278.529.665.665 0 0 1-.046.206c-.162.62-.44 1.63-.44 1.677a.819.819 0 0 0-.047.252c0 .184.14.322.325.322.07 0 .139-.023.185-.069l2.178-1.263a1.11 1.11 0 0 1 .533-.16c.093 0 .209.022.302.045 1.02.299 2.132.46 3.267.46 5.516 0 10.012-3.698 10.012-8.268 0-1.378-.417-2.687-1.136-3.836L9.346 14.601l-.07.046z"/>
    </g>
</svg>
