<svg xmlns="http://www.w3.org/2000/svg" viewBox="0 0 24 24">
    <g>
        <path fill="none" d="M0 0h24v24H0z"/>
        <path fill="#000" fill-rule="nonzero" d="M8.793 19.883l-2.667 1.563a1 1 0 0 1-1.463-1.152l.64-2.12C3.24 16.622 2 14.366 2 11.965 2 7.297 6.517 3.6 12 3.6s10 3.697 10 8.364c0 4.666-4.517 8.363-10 8.363a11.41 11.41 0 0 1-3.207-.444zm-2.115-3.18c.445.3.683.776.683 1.315 0 .074-.019.216-.056.427l.493-.28c.294-.173.634-.274.98-.274.089 0 .138 0 .209.006.13.009.251.029.354.063a9.373 9.373 0 0 0 2.659.367c4.457 0 8-2.9 8-6.363C20 8.5 16.457 5.6 12 5.6s-8 2.9-8 6.364c0 1.803.991 3.541 2.678 4.74zM8.5 11.002A1.49 1.49 0 0 1 7 9.5C7 8.663 7.663 8 8.5 8s1.5.663 1.5 1.5c0 .838-.663 1.502-1.5 1.502zm7 0A1.49 1.49 0 0 1 14 9.5C14 8.663 14.663 8 15.5 8s1.5.663 1.5 1.5c0 .838-.663 1.502-1.5 1.502z"/>
    </g>
</svg>
