<svg viewBox="0 0 24 24" fill="currentColor" xmlns="http://www.w3.org/2000/svg"><path d="M19.5 4.7832V7.6709L22 9.11426V14.8867L19.499 16.3311L19.5 19.2178L14.5 22.1045L12 20.6611L9.5 22.1045L4.5 19.2178V16.3311L2 14.8877L2.00098 9.11328L4.5 7.66992V4.78418L9.5 1.89746L11.999 3.34082L14.501 1.89648L19.5 4.7832ZM13 5.07227V8H11V5.07324L9.5 4.20703L6.49902 5.93848V8.8252L4 10.2676V13.7334L6.5 15.1768V18.0635L9.5 19.7959L11 18.9287V16H13L13.001 18.9297L14.5 19.7959L17.5 18.0625V15.1768L20 13.7324V10.2695L17.499 8.8252L17.5 5.9375L14.501 4.20605L13 5.07227Z"/></svg>