<svg viewBox="0 0 24 24" fill="currentColor" xmlns="http://www.w3.org/2000/svg"><path d="M22 12C22 17.5228 17.5228 22 12 22C8.72774 22 5.82382 20.4286 4 18.001V20.5H2V14.5H8V16.5H5.38477C6.82543 18.6137 9.25151 20 12 20C16.4183 20 20 16.4183 20 12H22ZM12 10C13.1046 10 14 10.8954 14 12C14 13.1046 13.1046 14 12 14C10.8954 14 10 13.1046 10 12C10 10.8954 10.8954 10 12 10ZM12 2C15.2723 2 18.1762 3.57144 20 5.99902V3.5H22V9.5H16V7.5H18.6152C17.1746 5.38634 14.7485 4 12 4C7.58172 4 4 7.58172 4 12H2C2 6.47715 6.47715 2 12 2Z"/></svg>