<svg viewBox="0 0 24 24" fill="currentColor" xmlns="http://www.w3.org/2000/svg"><path d="M9.20357 2.39892C11.7282 1.66413 14.541 1.92001 16.9995 3.33935C19.458 4.75876 21.0864 7.06678 21.7124 9.6206C22.304 12.035 22.0012 14.6758 20.6596 16.9995C19.318 19.3233 17.1823 20.9062 14.7954 21.6011C12.2707 22.3359 9.45797 22.0791 6.99947 20.6597C4.54112 19.2402 2.91254 16.9331 2.28658 14.3794C1.69487 11.9648 1.99767 9.32329 3.33931 6.9995C4.68089 4.67595 6.81688 3.09379 9.20357 2.39892ZM15.9995 5.07177C14.3141 4.09871 12.4233 3.80859 10.644 4.11571C10.943 6.24659 10.5611 8.49145 9.40181 10.4995C8.24257 12.5074 6.48928 13.9595 4.49459 14.7661C5.11817 16.4611 6.31372 17.9549 7.99947 18.9282C9.68487 19.9013 11.5756 20.1895 13.3549 19.8823C13.0562 17.7517 13.4389 15.5072 14.5981 13.4995C15.7574 11.4918 17.5097 10.0384 19.5044 9.23192C18.8806 7.53748 17.6848 6.04479 15.9995 5.07177ZM19.9614 11.2095C18.4867 11.8746 17.2002 12.9915 16.3295 14.4995C15.4591 16.0072 15.1353 17.6792 15.2963 19.2886C16.7708 18.6234 18.0576 17.5073 18.9282 15.9995C19.7987 14.4915 20.1227 12.8191 19.9614 11.2095ZM8.7026 4.70946C7.22807 5.37458 5.94238 6.49169 5.07174 7.9995C4.20127 9.50719 3.8775 11.1792 4.03853 12.7886C5.51283 12.1233 6.79891 11.0072 7.66939 9.4995C8.53999 7.99149 8.8639 6.31912 8.7026 4.70946Z"/></svg>