<svg viewBox="0 0 24 24" fill="currentColor" xmlns="http://www.w3.org/2000/svg"><path d="M12 1.99999C12.5523 1.99999 13 2.4477 13 2.99999C12.9999 3.55224 12.5522 3.99999 12 3.99999C7.58172 3.99999 4 7.58171 4 12C4.00004 16.4182 7.58174 20 12 20C16.4182 20 19.9999 16.4182 20 12C20 11.4477 20.4477 11 21 11C21.5523 11 22 11.4477 22 12C21.9999 17.5228 17.5228 22 12 22C6.47717 22 2.00004 17.5228 2 12C2 6.47714 6.47715 1.99999 12 1.99999ZM12 5.99999C12.5523 5.99999 13 6.4477 13 6.99999C12.9999 7.55224 12.5522 7.99999 12 7.99999C9.79085 7.99999 7.99999 9.79085 7.99999 12C8.00004 14.2091 9.79088 16 12 16C14.2091 16 15.9999 14.2091 16 12C16 11.4477 16.4477 11 17 11C17.5523 11 18 11.4477 18 12C17.9999 15.3137 15.3137 18 12 18C8.68631 18 6.00004 15.3137 6 12C6 8.68628 8.68629 5.99999 12 5.99999ZM17.6562 2.10057C18.0468 1.71005 18.6807 1.71005 19.0713 2.10057C19.4614 2.49105 19.4615 3.12419 19.0713 3.51463L18.3633 4.22069L18.3642 4.22167C17.9737 4.61219 17.9737 5.2452 18.3642 5.63573C18.7548 6.02612 19.3878 6.02621 19.7783 5.63573L20.4853 4.9287C20.8759 4.53839 21.5089 4.53826 21.8994 4.9287C22.2899 5.31915 22.2897 5.95222 21.8994 6.34276L19.7783 8.46483C19.5909 8.65223 19.3363 8.75671 19.0713 8.75682H16.6572L12.707 12.707C12.3165 13.0974 11.6834 13.0974 11.293 12.707C10.9025 12.3165 10.9026 11.6835 11.293 11.293L15.2422 7.34374V4.9287C15.2422 4.66356 15.3477 4.40916 15.5351 4.22167L17.6562 2.10057Z"/></svg>