<svg width="40" height="40" viewBox="0 0 40 40" fill="none" xmlns="http://www.w3.org/2000/svg">
<g clip-path="url(#clip0_51_1615)">
<path d="M20 40.0001C31.0457 40.0001 40 31.0458 40 20.0001C40 8.95443 31.0457 0.00012207 20 0.00012207C8.9543 0.00012207 0 8.95443 0 20.0001C0 31.0458 8.9543 40.0001 20 40.0001Z" fill="#F0F0F0"/>
<path d="M39.8307 17.3914H15.6523H15.6522V0.475464C13.8039 0.885308 12.0516 1.5496 10.4348 2.43187V17.3912V17.3913H0.169297C0.0579688 18.2453 0 19.1159 0 20.0001C0 20.8842 0.0579688 21.7548 0.169297 22.6087H10.4347H10.4348V37.5682C12.0516 38.4504 13.8039 39.1148 15.6522 39.5246V22.609V22.6088H39.8307C39.9419 21.7548 40 20.8842 40 20.0001C40 19.1159 39.9419 18.2453 39.8307 17.3914V17.3914Z" fill="#0052B4"/>
</g>
<defs>
<clipPath id="clip0_51_1615">
<rect width="40" height="40" fill="white"/>
</clipPath>
</defs>
</svg>
