<svg width="40" height="40" viewBox="0 0 40 40" fill="none" xmlns="http://www.w3.org/2000/svg">
<g clip-path="url(#clip0_51_1491)">
<path d="M19.9995 0C18.1943 0 16.4455 0.240625 14.782 0.688984L13.043 20L14.7821 39.311C16.4455 39.7594 18.1943 40 19.9995 40C31.0451 40 39.9995 31.0456 39.9995 20C39.9995 8.95437 31.0451 0 19.9995 0Z" fill="#FFDA44"/>
<path d="M13.043 20L14.7821 39.311C16.4455 39.7594 18.1943 40 19.9995 40C31.0451 40 39.9995 31.0456 39.9995 20H13.043Z" fill="#6DA544"/>
<path d="M0 20C0 27.5808 4.21797 34.1761 10.4348 37.5682V2.43176C4.21797 5.82379 0 12.4191 0 20Z" fill="#D80027"/>
<path d="M0 20C0 29.2405 6.26727 37.016 14.7826 39.311V0.688965C6.26727 2.98396 0 10.7594 0 20Z" fill="#D80027"/>
<path d="M7.55715 14.7826L8.85207 18.7682H13.0432L9.65269 21.2317L10.9475 25.2174L7.55715 22.7541L4.1666 25.2174L5.46176 21.2317L2.07129 18.7682H6.26215L7.55715 14.7826Z" fill="black"/>
</g>
<defs>
<clipPath id="clip0_51_1491">
<rect width="40" height="40" fill="white"/>
</clipPath>
</defs>
</svg>
