<svg width="40" height="40" viewBox="0 0 40 40" fill="none" xmlns="http://www.w3.org/2000/svg">
<g clip-path="url(#clip0_51_1384)">
<path d="M20 40C31.0457 40 40 31.0457 40 20C40 8.9543 31.0457 0 20 0C8.9543 0 0 8.9543 0 20C0 31.0457 8.9543 40 20 40Z" fill="#F0F0F0"/>
<path d="M39.9996 20.0001C39.9996 11.4009 34.5721 4.06992 26.9561 1.24414V38.7562C34.5721 35.9302 39.9996 28.5995 39.9996 20.0001V20.0001Z" fill="#FF9811"/>
<path d="M0 20.0001C0 28.5995 5.4275 35.9302 13.0435 38.7562V1.24414C5.4275 4.06992 0 11.4009 0 20.0001V20.0001Z" fill="#6DA544"/>
</g>
<defs>
<clipPath id="clip0_51_1384">
<rect width="40" height="40" fill="white"/>
</clipPath>
</defs>
</svg>
