<svg width="40" height="40" viewBox="0 0 40 40" fill="none" xmlns="http://www.w3.org/2000/svg">
<g clip-path="url(#clip0_51_1366)">
<path d="M20 40C31.0457 40 40 31.0457 40 20C40 8.9543 31.0457 0 20 0C8.9543 0 0 8.9543 0 20C0 31.0457 8.9543 40 20 40Z" fill="#F0F0F0"/>
<path d="M39.9996 19.9999C39.9996 11.4006 34.5721 4.06976 26.9561 1.2439V38.756C34.5721 35.9301 39.9996 28.5992 39.9996 19.9999V19.9999Z" fill="#D80027"/>
<path d="M0 19.9999C0 28.5992 5.4275 35.9301 13.0435 38.7559V1.2439C5.4275 4.06976 0 11.4006 0 19.9999Z" fill="#6DA544"/>
</g>
<defs>
<clipPath id="clip0_51_1366">
<rect width="40" height="40" fill="white"/>
</clipPath>
</defs>
</svg>
