<svg width="40" height="40" viewBox="0 0 40 40" fill="none" xmlns="http://www.w3.org/2000/svg">
<g clip-path="url(#clip0_51_879)">
<path d="M20 40C31.0457 40 40 31.0457 40 20C40 8.9543 31.0457 0 20 0C8.9543 0 0 8.9543 0 20C0 31.0457 8.9543 40 20 40Z" fill="#F0F0F0"/>
<path d="M0 20C0 28.5993 5.4275 35.9301 13.0435 38.756V1.24402C5.4275 4.0698 0 11.4007 0 20V20Z" fill="#01B110"/>
<path d="M40.0005 20C40.0005 11.4007 34.573 4.0698 26.957 1.24402V38.7561C34.573 35.9301 40.0005 28.5993 40.0005 20V20Z" fill="#01B110"/>
</g>
<defs>
<clipPath id="clip0_51_879">
<rect width="40" height="40" fill="white"/>
</clipPath>
</defs>
</svg>
