<svg width="40" height="40" viewBox="0 0 40 40" fill="none" xmlns="http://www.w3.org/2000/svg">
<g clip-path="url(#clip0_51_375)">
<path d="M1.98453 11.3043C0.713125 13.9337 0 16.8835 0 20C0 23.1164 0.713125 26.0662 1.98453 28.6956L20 30.4347L38.0155 28.6956C39.2869 26.0662 40 23.1164 40 20C40 16.8835 39.2869 13.9337 38.0155 11.3043L20 9.56519L1.98453 11.3043Z" fill="#F0F0F0"/>
<path d="M1.98438 28.6956C5.2193 35.3854 12.07 39.9999 19.9991 39.9999C27.9283 39.9999 34.7791 35.3854 38.0139 28.6956H1.98438Z" fill="#6DA544"/>
<path d="M1.98438 11.3044H38.0139C34.7791 4.61453 27.9283 0 19.9991 0C12.07 0 5.2193 4.61453 1.98438 11.3044Z" fill="#D80027"/>
<path d="M16.5215 25.2173H23.478V22.2607L22.0867 22.9563L19.9998 20.8694L17.9128 22.9563L16.5215 22.2607V25.2173Z" fill="#FFDA44"/>
<path d="M12.5414 21.739L12.8652 22.7354H13.9129L13.0652 23.3513L13.3891 24.3477L12.5414 23.7319L11.6938 24.3477L12.0176 23.3513L11.1699 22.7354H12.2176L12.5414 21.739Z" fill="#FFDA44"/>
<path d="M13.5453 18.2607L13.8691 19.2571H14.9168L14.0691 19.873L14.3929 20.8694L13.5453 20.2536L12.6977 20.8694L13.0215 19.873L12.1738 19.2571H13.2215L13.5453 18.2607Z" fill="#FFDA44"/>
<path d="M16.4145 15.6521L16.7383 16.6485H17.7859L16.9384 17.2644L17.262 18.2608L16.4145 17.645L15.5669 18.2608L15.8906 17.2644L15.043 16.6485H16.0907L16.4145 15.6521Z" fill="#FFDA44"/>
<path d="M27.4574 21.739L27.1336 22.7354H26.0859L26.9336 23.3513L26.6098 24.3477L27.4574 23.7319L28.305 24.3477L27.9813 23.3513L28.8289 22.7354H27.7813L27.4574 21.739Z" fill="#FFDA44"/>
<path d="M26.4555 18.2607L26.1316 19.2571H25.084L25.9316 19.873L25.6078 20.8694L26.4555 20.2536L27.3031 20.8694L26.9793 19.873L27.827 19.2571H26.7793L26.4555 18.2607Z" fill="#FFDA44"/>
<path d="M23.5843 15.6521L23.2605 16.6485H22.2129L23.0604 17.2644L22.7366 18.2608L23.5843 17.645L24.4319 18.2608L24.1081 17.2644L24.9557 16.6485H23.908L23.5843 15.6521Z" fill="#FFDA44"/>
<path d="M20.0004 14.3477L20.3242 15.3441H21.3719L20.5242 15.9599L20.848 16.9563L20.0004 16.3405L19.1527 16.9563L19.4766 15.9599L18.6289 15.3441H19.6766L20.0004 14.3477Z" fill="#FFDA44"/>
</g>
<defs>
<clipPath id="clip0_51_375">
<rect width="40" height="40" fill="white"/>
</clipPath>
</defs>
</svg>
