<svg viewBox="0 0 24 24" fill="currentColor" xmlns="http://www.w3.org/2000/svg"><path d="M15.4884 3.33028C17.6222 2.75885 19.8152 4.02569 20.3869 6.15938L22.8459 15.3352C23.4891 17.7356 22.0646 20.2035 19.6642 20.8469C17.2636 21.4901 14.7957 20.0649 14.1525 17.6643C14.067 17.3451 14.0189 17.0246 14.0041 16.7072C13.3685 16.897 12.6955 17.0002 11.9992 17.0002C11.3026 17.0002 10.6292 16.8972 9.99333 16.7072C9.97846 17.0246 9.93134 17.3452 9.84587 17.6643C9.20263 20.0649 6.73475 21.4901 4.33415 20.8469C1.93366 20.2036 0.509287 17.7357 1.15251 15.3352L3.61149 6.15938C4.18323 4.02562 6.37616 2.75872 8.50993 3.33028C10.2418 3.79433 11.4018 5.32689 11.4718 7.02852C11.6453 7.0103 11.8212 7.0002 11.9992 7.0002C12.1769 7.0002 12.3524 7.01036 12.5256 7.02852C12.5956 5.32688 13.7566 3.79434 15.4884 3.33028ZM6.14567 14.0852C4.8122 13.7281 3.44154 14.5193 3.08415 15.8527C2.72681 17.1863 3.51817 18.5578 4.85173 18.9152C6.18539 19.2726 7.55687 18.4804 7.91423 17.1467C8.07561 16.544 8.00253 15.9363 7.75114 15.4152C7.44497 14.7807 6.877 14.2811 6.14567 14.0852ZM20.8351 15.6096C20.3852 14.425 19.1021 13.7501 17.8517 14.0852C17.1205 14.2812 16.5524 14.7808 16.2463 15.4152C15.995 15.9362 15.9228 16.5441 16.0841 17.1467C16.4415 18.4802 17.8122 19.2722 19.1457 18.9152C20.3961 18.5802 21.1708 17.3537 20.9679 16.1027L20.9142 15.8527L20.8351 15.6096ZM18.4552 6.67696C18.1694 5.61012 17.0729 4.97719 16.006 5.2629C15.0057 5.53092 14.3859 6.51123 14.548 7.51192L14.591 7.71212L14.6134 7.81466L14.9338 9.84395L12.9591 10.1565L12.7922 9.10567C12.5402 9.03687 12.2745 9.0002 11.9992 9.0002C11.7236 9.0002 11.4574 9.03671 11.2052 9.10567L11.0392 10.1565L9.06364 9.84395L9.32145 8.21798L9.38493 7.81466L9.40641 7.71212C9.6923 6.64518 9.05929 5.54878 7.99235 5.2629C6.92544 4.97705 5.82901 5.61005 5.54313 6.67696L4.05192 12.2385C4.86672 11.961 5.77035 11.914 6.66423 12.1535C7.87325 12.4776 8.83374 13.2663 9.40739 14.2727C10.1631 14.7322 11.048 15.0002 11.9992 15.0002C12.9501 15.0002 13.8345 14.732 14.59 14.2727C15.1637 13.2661 16.1249 12.4776 17.3342 12.1535C18.2278 11.9141 19.1309 11.9612 19.9455 12.2385L18.4552 6.67696Z"/></svg>