<svg viewBox="0 0 24 24" fill="currentColor" xmlns="http://www.w3.org/2000/svg"><path d="M12 2.00005C12.5523 2.00005 13 2.44776 13 3.00005C12.9999 3.5523 12.5522 4.00005 12 4.00005C7.58172 4.00005 4 7.58177 4 12C4.00004 16.4183 7.58174 20 12 20C16.4182 20 19.9999 16.4183 20 12C20 11.4478 20.4477 11 21 11C21.5523 11 22 11.4478 22 12C21.9999 17.5229 17.5228 22 12 22C6.47717 22 2.00004 17.5229 2 12C2 6.4772 6.47715 2.00005 12 2.00005ZM12 6.00005C12.5523 6.00005 13 6.44776 13 7.00005C12.9999 7.5523 12.5522 8.00005 12 8.00005C9.79085 8.00005 7.99999 9.79091 7.99999 12C8.00004 14.2092 9.79088 16 12 16C14.2091 16 15.9999 14.2092 16 12C16 11.4478 16.4477 11 17 11C17.5523 11 18 11.4478 18 12C17.9999 15.3137 15.3137 18 12 18C8.68631 18 6.00004 15.3137 6 12C6 8.68634 8.68629 6.00005 12 6.00005ZM17.6562 2.10063C18.0468 1.71011 18.6807 1.71011 19.0713 2.10063C19.4614 2.49111 19.4615 3.12425 19.0713 3.51469L18.3633 4.22075L18.3642 4.22173C17.9737 4.61225 17.9737 5.24526 18.3642 5.63579C18.7548 6.02618 19.3878 6.02627 19.7783 5.63579L20.4853 4.92876C20.8759 4.53845 21.5089 4.53832 21.8994 4.92876C22.2899 5.31921 22.2897 5.95228 21.8994 6.34282L19.7783 8.46489C19.5909 8.6523 19.3363 8.75677 19.0713 8.75688H16.6572L12.707 12.7071C12.3165 13.0974 11.6834 13.0975 11.293 12.7071C10.9025 12.3166 10.9026 11.6836 11.293 11.293L15.2422 7.3438V4.92876C15.2422 4.66362 15.3477 4.40922 15.5351 4.22173L17.6562 2.10063Z"/></svg>