<svg viewBox="0 0 24 24" fill="currentColor" xmlns="http://www.w3.org/2000/svg"><path d="M22.0361 16.3789L19.9141 18.5L22.0361 20.6221L20.6221 22.0361L18.5 19.9141L16.3789 22.0361L14.9648 20.6221L17.0859 18.5L14.9648 16.3789L16.3789 14.9648L18.5 17.0859L20.6221 14.9648L22.0361 16.3789ZM12.4785 2.01172C17.7796 2.26189 22 6.63756 22 12V13H10.0332C10.1896 15.5386 10.9356 17.9153 12.1387 19.9961C12.2207 19.9947 12.3024 19.995 12.3838 19.9912C12.5538 19.9832 12.7227 19.9696 12.8896 19.9512L13.1104 21.9395C12.9017 21.9625 12.6907 21.9783 12.4785 21.9883C12.3199 21.9958 12.1603 22 12 22C11.8397 22 11.6801 21.9958 11.5215 21.9883C6.22043 21.7381 2 17.3624 2 12C2 6.63756 6.22043 2.26189 11.5215 2.01172C11.6801 2.00424 11.8397 2 12 2C12.1603 2 12.3199 2.00424 12.4785 2.01172ZM4.06445 13C4.46083 16.1773 6.71821 18.7761 9.71289 19.668C8.74978 17.6256 8.16038 15.3738 8.03027 13H4.06445ZM9.71289 4.33105C6.71807 5.22285 4.46084 7.82258 4.06445 11H8.03027C8.1604 8.62585 8.74956 6.3736 9.71289 4.33105ZM12 4.25195C10.8789 6.27297 10.1835 8.56136 10.0332 11H13.9668C13.8165 8.56136 13.1211 6.27297 12 4.25195ZM14.2861 4.33105C15.2496 6.3737 15.8396 8.6257 15.9697 11H19.9355C19.5391 7.82226 17.2814 5.2226 14.2861 4.33105Z"/></svg>