<svg viewBox="0 0 24 24" fill="currentColor" xmlns="http://www.w3.org/2000/svg"><path d="M19.4999 2C20.0945 1.99965 20.6988 2.15061 21.2499 2.46875C22.924 3.43525 23.4977 5.57598 22.5312 7.25L15.0312 20.2402C14.0647 21.9142 11.924 22.488 10.2499 21.5215C9.41368 21.0386 8.85171 20.2606 8.62005 19.3975L6.85345 12.8037L2.02533 7.97461C0.65837 6.60765 0.658729 4.39208 2.02533 3.02539C2.65755 2.39311 3.53385 2.00011 4.49994 2H19.4999ZM4.49994 4C4.08555 4.00011 3.71182 4.167 3.43939 4.43945C2.85354 5.0254 2.85378 5.97494 3.43939 6.56055L7.914 11.0352L14.8906 7.00684C15.3688 6.7308 15.9806 6.89487 16.2568 7.37305C16.5327 7.85124 16.3687 8.46312 15.8906 8.73926L8.914 12.7676L10.5517 18.8789C10.6515 19.2509 10.8913 19.5819 11.2499 19.7891C11.9673 20.2032 12.8845 19.9575 13.2988 19.2402L20.7988 6.25C21.213 5.53256 20.9674 4.61539 20.2499 4.20117C20.0128 4.06427 19.7555 3.99982 19.5009 4H4.49994Z"/></svg>