<?xml version="1.0" standalone="no"?>
<!DOCTYPE svg PUBLIC "-//W3C//DTD SVG 1.1//EN" "http://www.w3.org/Graphics/SVG/1.1/DTD/svg11.dtd" >
<svg xmlns="http://www.w3.org/2000/svg">
<defs>
  <font id="remixicon" horiz-adv-x="24">
    <font-face font-family="remixicon"
      units-per-em="24" ascent="24"
      descent="0" />
    <missing-glyph horiz-adv-x="0" />
    <glyph glyph-name="account-box-fill"
      unicode="&#xEA01;"
      horiz-adv-x="24" d="M3 19.005C3 20.107 3.893 21 4.995 21H19.005C20.107 21 21 20.107 21 19.005V4.995A1.995 1.995 0 0 0 19.005 3H4.995A1.995 1.995 0 0 0 3 4.995V19.005zM6.357 6H17.847A6.991999999999999 6.991999999999999 0 0 1 12.102 9A6.991999999999999 6.991999999999999 0 0 1 6.357 6zM12 11A3.5 3.5 0 1 1 12 18A3.5 3.5 0 0 1 12 11z" />
    <glyph glyph-name="account-box-line"
      unicode="&#xEA02;"
      horiz-adv-x="24" d="M3 19.005C3 20.107 3.893 21 4.995 21H19.005C20.107 21 21 20.107 21 19.005V4.995A1.995 1.995 0 0 0 19.005 3H4.995A1.995 1.995 0 0 0 3 4.995V19.005zM5 19V5H19V19H5zM7.972 5.82A9.983 9.983 0 0 0 6.221 6.798A6.994000000000001 6.994000000000001 0 0 0 12.102 10C14.502 10 16.619 8.793 17.88 6.953A9.995 9.995 0 0 0 16.156 5.928A4.993000000000001 4.993000000000001 0 0 1 12.102 8C10.387 8 8.872 7.136 7.972 5.82zM12 11A3.5 3.5 0 1 0 12 18A3.5 3.5 0 0 0 12 11zM12 13A1.5 1.5 0 1 1 12 16A1.5 1.5 0 0 1 12 13z" />
    <glyph glyph-name="account-circle-fill"
      unicode="&#xEA03;"
      horiz-adv-x="24" d="M12 22C17.52 22 22 17.52 22 12S17.52 2 12 2S2 6.48 2 12S6.48 22 12 22zM6.023 8.584C7.491 6.394 9.695 5 12.16 5C14.624 5 16.829 6.393 18.296 8.584A8.968 8.968 0 0 1 12.16 11A8.968 8.968 0 0 1 6.023 8.584zM12 13A3 3 0 1 1 12 19A3 3 0 0 1 12 13z" />
    <glyph glyph-name="account-circle-line"
      unicode="&#xEA04;"
      horiz-adv-x="24" d="M12 2C6.477 2 2 6.477 2 12S6.477 22 12 22S22 17.523 22 12S17.523 2 12 2zM7.013 5.744A7.966 7.966 0 0 1 12 4C13.97 4 15.773 4.712 17.167 5.892A6.979 6.979 0 0 1 12.16 8A6.981 6.981 0 0 1 7.013 5.744zM5.616 7.18A8.975 8.975 0 0 0 12.16 10A8.972 8.972 0 0 0 18.522 7.366A8 8 0 1 1 5.616 7.179zM12 11A4 4 0 1 0 12 19A4 4 0 0 0 12 11zM12 13A2 2 0 1 0 12 17A2 2 0 0 0 12 13z" />
    <glyph glyph-name="account-pin-box-fill"
      unicode="&#xEA05;"
      horiz-adv-x="24" d="M14 3L12 1L10 3H4.995A1.995 1.995 0 0 0 3 4.995V19.005C3 20.107 3.893 21 4.995 21H19.005C20.107 21 21 20.107 21 19.005V4.995A1.995 1.995 0 0 0 19.005 3H14zM6.357 6H17.847A6.991999999999999 6.991999999999999 0 0 1 12.102 9A6.991999999999999 6.991999999999999 0 0 1 6.357 6zM12 11A3.5 3.5 0 1 1 12 18A3.5 3.5 0 0 1 12 11z" />
    <glyph glyph-name="account-pin-box-line"
      unicode="&#xEA06;"
      horiz-adv-x="24" d="M14 3L12 1L10 3H4.995A1.995 1.995 0 0 0 3 4.995V19.005C3 20.107 3.893 21 4.995 21H19.005C20.107 21 21 20.107 21 19.005V4.995A1.995 1.995 0 0 0 19.005 3H14zM19 5V19H5V5H10.828L12 3.828L13.172 5H19zM7.972 5.82A9.983 9.983 0 0 0 6.221 6.798A6.994000000000001 6.994000000000001 0 0 0 12.102 10C14.502 10 16.619 8.793 17.88 6.953A9.995 9.995 0 0 0 16.156 5.928A4.993000000000001 4.993000000000001 0 0 1 12.102 8C10.387 8 8.872 7.136 7.972 5.82zM12 11A3.5 3.5 0 1 0 12 18A3.5 3.5 0 0 0 12 11zM12 13A1.5 1.5 0 1 1 12 16A1.5 1.5 0 0 1 12 13z" />
    <glyph glyph-name="account-pin-circle-fill"
      unicode="&#xEA07;"
      horiz-adv-x="24" d="M14.256 2.256L12 0L9.744 2.256C5.31 3.28 2 7.256 2 12C2 17.52 6.48 22 12 22S22 17.52 22 12C22 7.256 18.69 3.28 14.256 2.256zM6.023 8.584C7.491 6.394 9.695 5 12.16 5C14.624 5 16.829 6.393 18.296 8.584A8.968 8.968 0 0 1 12.16 11A8.968 8.968 0 0 1 6.023 8.584zM12 13A3 3 0 1 1 12 19A3 3 0 0 1 12 13z" />
    <glyph glyph-name="account-pin-circle-line"
      unicode="&#xEA08;"
      horiz-adv-x="24" d="M9.745 2.255C5.308 3.278 2 7.253 2 12C2 17.523 6.477 22 12 22S22 17.523 22 12C22 7.253 18.692 3.278 14.255 2.255L12 0L9.745 2.255zM7.012 5.743A7.953 7.953 0 0 1 10.194 4.204L10.754 4.075L12 2.828L13.247 4.075L13.807 4.205A7.956 7.956 0 0 1 17.167 5.891A6.979 6.979 0 0 1 12.16 8C10.124 8 8.29 7.13 7.012 5.743zM5.616 7.18A8.975 8.975 0 0 0 12.16 10A8.972 8.972 0 0 0 18.522 7.366A8 8 0 1 1 5.616 7.179zM12 11A4 4 0 1 0 12 19A4 4 0 0 0 12 11zM12 13A2 2 0 1 1 12 17A2 2 0 0 1 12 13z" />
    <glyph glyph-name="add-box-fill"
      unicode="&#xEA09;"
      horiz-adv-x="24" d="M4 21H20A1 1 0 0 0 21 20V4A1 1 0 0 0 20 3H4A1 1 0 0 0 3 4V20A1 1 0 0 0 4 21zM11 13H7V11H11V7H13V11H17V13H13V17H11V13z" />
    <glyph glyph-name="add-box-line"
      unicode="&#xEA0A;"
      horiz-adv-x="24" d="M4 21H20A1 1 0 0 0 21 20V4A1 1 0 0 0 20 3H4A1 1 0 0 0 3 4V20A1 1 0 0 0 4 21zM5 19V5H19V19H5zM11 13V17H13V13H17V11H13V7H11V11H7V13H11z" />
    <glyph glyph-name="add-circle-fill"
      unicode="&#xEA0B;"
      horiz-adv-x="24" d="M12 2C6.477 2 2 6.477 2 12S6.477 22 12 22S22 17.523 22 12S17.523 2 12 2zM11 13H7V11H11V7H13V11H17V13H13V17H11V13z" />
    <glyph glyph-name="add-circle-line"
      unicode="&#xEA0C;"
      horiz-adv-x="24" d="M11 13V17H13V13H17V11H13V7H11V11H7V13H11zM12 2C6.477 2 2 6.477 2 12S6.477 22 12 22S22 17.523 22 12S17.523 2 12 2zM12 4A8 8 0 1 1 12 20A8 8 0 0 1 12 4z" />
    <glyph glyph-name="add-fill"
      unicode="&#xEA0D;"
      horiz-adv-x="24" d="M11 13V19H13V13H19V11H13V5H11V11H5V13z" />
    <glyph glyph-name="add-line"
      unicode="&#xEA0E;"
      horiz-adv-x="24" d="M11 13V19H13V13H19V11H13V5H11V11H5V13z" />
    <glyph glyph-name="admin-fill"
      unicode="&#xEA0F;"
      horiz-adv-x="24" d="M12 10V2H4A8 8 0 0 0 12 10zM12 11C8.685 11 6 13.685 6 17S8.685 23 12 23S18 20.315 18 17S15.315 11 12 11zM21 7H22V2H14V7H15V8A3 3 0 0 0 21 8V7zM19 7V8A1 1 0 0 1 17 8V7H19z" />
    <glyph glyph-name="admin-line"
      unicode="&#xEA10;"
      horiz-adv-x="24" d="M12 10V8A6 6 0 0 1 6 2H4A8 8 0 0 0 12 10zM12 11C8.685 11 6 13.685 6 17S8.685 23 12 23S18 20.315 18 17S15.315 11 12 11zM12 13C14.21 13 16 14.79 16 17S14.21 21 12 21S8 19.21 8 17S9.79 13 12 13zM21 7H22V2H14V7H15V8A3 3 0 0 0 21 8V7zM19 7V8A1 1 0 0 1 17 8V7H19z" />
    <glyph glyph-name="airplay-fill"
      unicode="&#xEA11;"
      horiz-adv-x="24" d="M12.4 10.467L17.4 3.8A0.5 0.5 0 0 0 17 3H7A0.5 0.5 0 0 0 6.6 3.8L11.6 10.467A0.5 0.5 0 0 0 12.4 10.467zM18 5V7H20V19H4V7H6V5H2.992A0.9940000000000001 0.9940000000000001 0 0 0 2 6V20C2 20.552 2.455 21 2.992 21H21.008C21.556 21 22 20.555 22 20V6C22 5.448 21.545 5 21.008 5H18z" />
    <glyph glyph-name="airplay-line"
      unicode="&#xEA12;"
      horiz-adv-x="24" d="M12.4 10.467L17.4 3.8A0.5 0.5 0 0 0 17 3H7A0.5 0.5 0 0 0 6.6 3.8L11.6 10.467A0.5 0.5 0 0 0 12.4 10.467zM12 7.67L10 5H14L12 7.67zM18 5V7H20V19H4V7H6V5H2.992A0.9940000000000001 0.9940000000000001 0 0 0 2 6V20C2 20.552 2.455 21 2.992 21H21.008C21.556 21 22 20.555 22 20V6C22 5.448 21.545 5 21.008 5H18z" />
    <glyph glyph-name="alarm-fill"
      unicode="&#xEA13;"
      horiz-adv-x="24" d="M12 2A9 9 0 1 0 12 20A9 9 0 0 0 12 2zM13 11V16H11V9H16V11H13zM1.747 17.718L5.282 21.253L6.697 19.839L3.16 16.303L1.747 17.718zM18.717 21.253L22.253 17.718L20.839 16.303L17.303 19.839L18.718 21.253z" />
    <glyph glyph-name="alarm-line"
      unicode="&#xEA14;"
      horiz-adv-x="24" d="M12 2A9 9 0 1 0 12 20A9 9 0 0 0 12 2zM12 4A7 7 0 1 1 12 18A7 7 0 0 1 12 4zM13 11H16V9H11V16H13V11zM1.747 17.718L5.282 21.253L6.697 19.839L3.16 16.303L1.747 17.718zM18.717 21.253L22.253 17.718L20.839 16.303L17.303 19.839L18.718 21.253z" />
    <glyph glyph-name="album-fill"
      unicode="&#xEA15;"
      horiz-adv-x="24" d="M12 22C17.52 22 22 17.52 22 12S17.52 2 12 2S2 6.48 2 12S6.48 22 12 22zM12 8C14.213 8 16 9.787 16 12S14.213 16 12 16S8 14.213 8 12S9.787 8 12 8zM12 13C12.55 13 13 12.55 13 12S12.55 11 12 11S11 11.45 11 12S11.45 13 12 13z" />
    <glyph glyph-name="album-line"
      unicode="&#xEA16;"
      horiz-adv-x="24" d="M12 4A8 8 0 1 1 12 20A8 8 0 0 1 12 4zM12 2C6.477 2 2 6.477 2 12S6.477 22 12 22S22 17.523 22 12S17.523 2 12 2zM12 10A2 2 0 1 1 12 14A2 2 0 0 1 12 10zM12 8A4 4 0 1 0 12 16A4 4 0 0 0 12 8z" />
    <glyph glyph-name="align-bottom"
      unicode="&#xEA17;"
      horiz-adv-x="24" d="M3 5H21V3H3V5zM8 11H11L7 7L3 11H6V21H8V11zM18 11H21L17 7L13 11H16V21H18V11z" />
    <glyph glyph-name="align-center"
      unicode="&#xEA18;"
      horiz-adv-x="24" d="M3 20H21V18H3V20zM5 5H19V3H5V5zM3 10H21V8H3V10zM5 15H19V13H5V15z" />
    <glyph glyph-name="align-justify"
      unicode="&#xEA19;"
      horiz-adv-x="24" d="M3 20H21V18H3V20zM3 5H21V3H3V5zM3 10H21V8H3V10zM3 15H21V13H3V15z" />
    <glyph glyph-name="align-left"
      unicode="&#xEA1A;"
      horiz-adv-x="24" d="M3 20H21V18H3V20zM3 5H17V3H3V5zM3 10H21V8H3V10zM3 15H17V13H3V15z" />
    <glyph glyph-name="align-right"
      unicode="&#xEA1B;"
      horiz-adv-x="24" d="M3 20H21V18H3V20zM7 5H21V3H7V5zM3 10H21V8H3V10zM7 15H21V13H7V15z" />
    <glyph glyph-name="align-top"
      unicode="&#xEA1C;"
      horiz-adv-x="24" d="M3 21H21V19H3V21zM8 13V3H6V13H3L7 17L11 13H8zM18 13V3H16V13H13L17 17L21 13H18z" />
    <glyph glyph-name="align-vertically"
      unicode="&#xEA1D;"
      horiz-adv-x="24" d="M3 13H21V11H3V13zM18 6V3H16V6H13L17 10L21 6H18zM8 6V3H6V6H3L7 10L11 6H8zM18 18H21L17 14L13 18H16V21H18V18zM8 18H11L7 14L3 18H6V21H8V18z" />
    <glyph glyph-name="anchor-fill"
      unicode="&#xEA1E;"
      horiz-adv-x="24" d="M13 14.126V4.072C16.619 4.525 19.487 7.408 19.938 11.044H17L20.704 17A10.041 10.041 0 0 0 22 12.05C22 6.5 17.523 2 12 2S2 6.5 2 12.05C2 13.85 2.471 15.539 3.296 17L7 11.044H4.062C4.513 7.408 7.382 4.525 11 4.072V14.126A4.002 4.002 0 0 0 12 22A4 4 0 0 0 13 14.126zM12 16A2 2 0 1 1 12 20A2 2 0 0 1 12 16z" />
    <glyph glyph-name="anchor-line"
      unicode="&#xEA1F;"
      horiz-adv-x="24" d="M2.05 13H7V11H4.062A8.004 8.004 0 0 1 11 4.062V14.126A4.002 4.002 0 0 0 12 22A4 4 0 0 0 13 14.126V4.062A8.004 8.004 0 0 1 19.938 11H17V13H21.95C21.983 12.671 22 12.337 22 12C22 6.477 17.523 2 12 2S2 6.477 2 12C2 12.337 2.017 12.671 2.05 13zM12 16A2 2 0 1 1 12 20A2 2 0 0 1 12 16z" />
    <glyph glyph-name="apps-2-fill"
      unicode="&#xEA20;"
      horiz-adv-x="24" d="M7 12.5A4.5 4.5 0 1 0 7 21.5A4.5 4.5 0 0 0 7 12.5zM7 2.5A4.5 4.5 0 1 0 7 11.5A4.5 4.5 0 0 0 7 2.5zM17 12.5A4.5 4.5 0 1 0 17 21.5A4.5 4.5 0 0 0 17 12.5zM17 2.5A4.5 4.5 0 1 0 17 11.5A4.5 4.5 0 0 0 17 2.5z" />
    <glyph glyph-name="apps-2-line"
      unicode="&#xEA21;"
      horiz-adv-x="24" d="M6.5 12.5A4.5 4.5 0 1 0 6.5 21.5A4.5 4.5 0 0 0 6.5 12.5zM7 2.5A4.5 4.5 0 1 0 7 11.5A4.5 4.5 0 0 0 7 2.5zM17 12.5A4.5 4.5 0 1 0 17 21.5A4.5 4.5 0 0 0 17 12.5zM17 2.5A4.5 4.5 0 1 0 17 11.5A4.5 4.5 0 0 0 17 2.5zM6.5 14.5A2.5 2.5 0 1 1 6.5 19.5A2.5 2.5 0 0 1 6.5 14.5zM7 4.5A2.5 2.5 0 1 1 7 9.5A2.5 2.5 0 0 1 7 4.5zM17 14.5A2.5 2.5 0 1 1 17 19.5A2.5 2.5 0 0 1 17 14.5zM17 4.5A2.5 2.5 0 1 1 17 9.5A2.5 2.5 0 0 1 17 4.5z" />
    <glyph glyph-name="apps-fill"
      unicode="&#xEA22;"
      horiz-adv-x="24" d="M6.75 21.5A4.25 4.25 0 0 0 11 17.25V13H6.75A4.25 4.25 0 1 0 6.75 21.5zM6.75 11H11V6.75A4.25 4.25 0 1 0 6.75 11zM17.25 21.5A4.25 4.25 0 1 0 17.25 13H13V17.25A4.25 4.25 0 0 0 17.25 21.5zM13 11H17.25A4.25 4.25 0 1 0 13 6.75V11z" />
    <glyph glyph-name="apps-line"
      unicode="&#xEA23;"
      horiz-adv-x="24" d="M6.75 21.5A4.25 4.25 0 0 0 11 17.25V13H6.75A4.25 4.25 0 1 0 6.75 21.5zM9 15V17.25A2.25 2.25 0 1 1 6.75 15H9zM6.75 11H11V6.75A4.25 4.25 0 1 0 6.75 11zM6.75 9A2.25 2.25 0 1 1 9 6.75V9H6.75zM17.25 21.5A4.25 4.25 0 1 0 17.25 13H13V17.25A4.25 4.25 0 0 0 17.25 21.5zM17.25 15A2.25 2.25 0 1 1 15 17.25V15H17.25zM13 11H17.25A4.25 4.25 0 1 0 13 6.75V11zM15 9V6.75A2.25 2.25 0 1 1 17.25 9H15z" />
    <glyph glyph-name="archive-drawer-fill"
      unicode="&#xEA24;"
      horiz-adv-x="24" d="M3 11H21V2.998C21 2.447 20.555 2 20.007 2H3.993A0.9950000000000001 0.9950000000000001 0 0 0 3 2.998V11zM3 21.002C3 21.553 3.445 22 3.993 22H20.007C20.555 22 21 21.554 21 21.002V13H3V21.002zM9 19V17H15V19H9zM9 8V6H15V8H9z" />
    <glyph glyph-name="archive-drawer-line"
      unicode="&#xEA25;"
      horiz-adv-x="24" d="M3 21.008C3 21.556 3.445 22 3.993 22H20.007A1 1 0 0 0 21 21.008V2.992A0.993 0.993 0 0 0 20.007 2H3.993A1 1 0 0 0 3 2.992V21.008zM19 13V20H5V13H19zM19 11H5V4H19V11zM9 18H15V16H9V18zM9 9H15V7H9V9z" />
    <glyph glyph-name="archive-fill"
      unicode="&#xEA26;"
      horiz-adv-x="24" d="M3 14H21V3.996C21 3.446 20.555 3 20.007 3H3.993A0.9940000000000001 0.9940000000000001 0 0 0 3 3.996V14zM9 12V10H15V12H9zM2 20C2 20.552 2.455 21 2.992 21H21.008C21.556 21 22 20.556 22 20V16H2V20z" />
    <glyph glyph-name="archive-line"
      unicode="&#xEA27;"
      horiz-adv-x="24" d="M3 14H2V19.997C2 20.551 2.455 21 2.992 21H21.008A0.99 0.99 0 0 0 22 19.997V14H21V3.999A0.996 0.996 0 0 0 20.007 3H3.993A0.996 0.996 0 0 0 3 3.999V14zM19 14H5V5H19V14zM4 19V16H20V19H4zM9 12H15V10H9V12z" />
    <glyph glyph-name="arrow-down-circle-fill"
      unicode="&#xEA28;"
      horiz-adv-x="24" d="M12 22C17.52 22 22 17.52 22 12S17.52 2 12 2S2 6.48 2 12S6.48 22 12 22zM13 12V16H11V12H8L12 8L16 12H13z" />
    <glyph glyph-name="arrow-down-circle-line"
      unicode="&#xEA29;"
      horiz-adv-x="24" d="M12 22C17.52 22 22 17.52 22 12S17.52 2 12 2S2 6.48 2 12S6.48 22 12 22zM12 4C16.42 4 20 7.58 20 12S16.42 20 12 20S4 16.42 4 12S7.58 4 12 4zM13 12H16L12 8L8 12H11V16H13V12z" />
    <glyph glyph-name="arrow-down-fill"
      unicode="&#xEA2A;"
      horiz-adv-x="24" d="M13 12H20L12 4L4 12H11V20H13z" />
    <glyph glyph-name="arrow-down-line"
      unicode="&#xEA2B;"
      horiz-adv-x="24" d="M13 7.828L18.364 13.192L19.778 11.778L12 4L4.222 11.778L5.636 13.192L11 7.828V20H13V7.828z" />
    <glyph glyph-name="arrow-down-s-fill"
      unicode="&#xEA2C;"
      horiz-adv-x="24" d="M12 8L6 14H18z" />
    <glyph glyph-name="arrow-down-s-line"
      unicode="&#xEA2D;"
      horiz-adv-x="24" d="M12 10.828L16.95 15.778L18.364 14.364L12 8L5.636 14.364L7.05 15.778z" />
    <glyph glyph-name="arrow-drop-down-fill"
      unicode="&#xEA2E;"
      horiz-adv-x="24" d="M12 10L8 14H16z" />
    <glyph glyph-name="arrow-drop-down-line"
      unicode="&#xEA2F;"
      horiz-adv-x="24" d="M12 9L7.757 13.243L9.172 14.657L12 11.828L14.828 14.657L16.243 13.243z" />
    <glyph glyph-name="arrow-drop-left-fill"
      unicode="&#xEA30;"
      horiz-adv-x="24" d="M9 12L13 16V8z" />
    <glyph glyph-name="arrow-drop-left-line"
      unicode="&#xEA31;"
      horiz-adv-x="24" d="M11.828 12L14.657 9.172L13.243 7.757L9 12L13.243 16.243L14.657 14.828L11.828 12z" />
    <glyph glyph-name="arrow-drop-right-fill"
      unicode="&#xEA32;"
      horiz-adv-x="24" d="M14 12L10 8V16z" />
    <glyph glyph-name="arrow-drop-right-line"
      unicode="&#xEA33;"
      horiz-adv-x="24" d="M12.172 12L9.343 14.828L10.757 16.243L15 12L10.757 7.757L9.343 9.172z" />
    <glyph glyph-name="arrow-drop-up-fill"
      unicode="&#xEA34;"
      horiz-adv-x="24" d="M12 14L16 10H8z" />
    <glyph glyph-name="arrow-drop-up-line"
      unicode="&#xEA35;"
      horiz-adv-x="24" d="M12 12.172L9.172 9.343L7.757 10.757L12 15L16.243 10.757L14.828 9.343L12 12.172z" />
    <glyph glyph-name="arrow-go-back-fill"
      unicode="&#xEA36;"
      horiz-adv-x="24" d="M8 17V13L2 18L8 23V19H13A8 8 0 1 0 13 3H4V5H13A6 6 0 1 1 13 17H8z" />
    <glyph glyph-name="arrow-go-back-line"
      unicode="&#xEA37;"
      horiz-adv-x="24" d="M5.828 17L8.364 14.464L6.95 13.05L2 18L6.95 22.95L8.364 21.536L5.828 19H13A8 8 0 1 0 13 3H4V5H13A6 6 0 1 1 13 17H5.828z" />
    <glyph glyph-name="arrow-go-forward-fill"
      unicode="&#xEA38;"
      horiz-adv-x="24" d="M16 17H11A6 6 0 1 1 11 5H20V3H11A8 8 0 1 0 11 19H16V23L22 18L16 13V17z" />
    <glyph glyph-name="arrow-go-forward-line"
      unicode="&#xEA39;"
      horiz-adv-x="24" d="M18.172 17H11A6 6 0 1 1 11 5H20V3H11A8 8 0 1 0 11 19H18.172L15.636 21.536L17.05 22.95L22 18L17.05 13.05L15.636 14.464L18.172 17z" />
    <glyph glyph-name="arrow-left-circle-fill"
      unicode="&#xEA3A;"
      horiz-adv-x="24" d="M12 22C17.52 22 22 17.52 22 12S17.52 2 12 2S2 6.48 2 12S6.48 22 12 22zM12 13V16L8 12L12 8V11H16V13H12z" />
    <glyph glyph-name="arrow-left-circle-line"
      unicode="&#xEA3B;"
      horiz-adv-x="24" d="M12 22C17.52 22 22 17.52 22 12S17.52 2 12 2S2 6.48 2 12S6.48 22 12 22zM12 4C16.42 4 20 7.58 20 12S16.42 20 12 20S4 16.42 4 12S7.58 4 12 4zM12 13H16V11H12V8L8 12L12 16V13z" />
    <glyph glyph-name="arrow-left-down-fill"
      unicode="&#xEA3C;"
      horiz-adv-x="24" d="M12.36 10.95L17.31 6H5.998V17.312L10.948 12.362L16.604 18.019L18.019 16.605z" />
    <glyph glyph-name="arrow-left-down-line"
      unicode="&#xEA3D;"
      horiz-adv-x="24" d="M9 10.41L17.607 19.017L19.021 17.603L10.414 8.996H18V6.996H7V17.996H9V10.411z" />
    <glyph glyph-name="arrow-left-fill"
      unicode="&#xEA3E;"
      horiz-adv-x="24" d="M12 11V4L4 12L12 20V13H20V11z" />
    <glyph glyph-name="arrow-left-line"
      unicode="&#xEA3F;"
      horiz-adv-x="24" d="M7.828 13H20V11H7.828L13.192 5.636L11.778 4.222L4 12L11.778 19.778L13.192 18.364z" />
    <glyph glyph-name="arrow-left-s-fill"
      unicode="&#xEA40;"
      horiz-adv-x="24" d="M8 12L14 18V6z" />
    <glyph glyph-name="arrow-left-s-line"
      unicode="&#xEA41;"
      horiz-adv-x="24" d="M10.828 12L15.778 7.05L14.364 5.636L8 12L14.364 18.364L15.778 16.95z" />
    <glyph glyph-name="arrow-left-up-fill"
      unicode="&#xEA42;"
      horiz-adv-x="24" d="M12.36 13.053L18.018 7.397L16.603 5.982L10.947 11.639L5.997 6.689V18.003H17.31z" />
    <glyph glyph-name="arrow-left-up-line"
      unicode="&#xEA43;"
      horiz-adv-x="24" d="M9.414 16L18.021 7.393L16.607 5.979L8 14.586V7H6V18H17V16z" />
    <glyph glyph-name="arrow-right-circle-fill"
      unicode="&#xEA44;"
      horiz-adv-x="24" d="M12 22C17.52 22 22 17.52 22 12S17.52 2 12 2S2 6.48 2 12S6.48 22 12 22zM12 13H8V11H12V8L16 12L12 16V13z" />
    <glyph glyph-name="arrow-right-circle-line"
      unicode="&#xEA45;"
      horiz-adv-x="24" d="M12 13V16L16 12L12 8V11H8V13H12zM12 22C17.52 22 22 17.52 22 12S17.52 2 12 2S2 6.48 2 12S6.48 22 12 22zM12 4C16.42 4 20 7.58 20 12S16.42 20 12 20S4 16.42 4 12S7.58 4 12 4z" />
    <glyph glyph-name="arrow-right-down-fill"
      unicode="&#xEA46;"
      horiz-adv-x="24" d="M11.637 10.95L5.98 16.605L7.394 18.02L13.051 12.363L18 17.313V6H6.687z" />
    <glyph glyph-name="arrow-right-down-line"
      unicode="&#xEA47;"
      horiz-adv-x="24" d="M14.59 7.996L5.982 16.603L7.396 18.017L16.003 9.411V16.996H18.003V5.996H7.003V7.996z" />
    <glyph glyph-name="arrow-right-fill"
      unicode="&#xEA48;"
      horiz-adv-x="24" d="M12 11H4V13H12V20L20 12L12 4z" />
    <glyph glyph-name="arrow-right-line"
      unicode="&#xEA49;"
      horiz-adv-x="24" d="M16.172 13L10.808 18.364L12.222 19.778L20 12L12.222 4.222L10.808 5.636L16.172 11H4V13z" />
    <glyph glyph-name="arrow-right-s-fill"
      unicode="&#xEA4A;"
      horiz-adv-x="24" d="M16 12L10 6V18z" />
    <glyph glyph-name="arrow-right-s-line"
      unicode="&#xEA4B;"
      horiz-adv-x="24" d="M13.172 12L8.222 16.95L9.636 18.364L16 12L9.636 5.636L8.222 7.05z" />
    <glyph glyph-name="arrow-right-up-fill"
      unicode="&#xEA4C;"
      horiz-adv-x="24" d="M13.05 11.64L7.394 5.982L5.98 7.397L11.637 13.053L6.687 18.003H18V6.69z" />
    <glyph glyph-name="arrow-right-up-line"
      unicode="&#xEA4D;"
      horiz-adv-x="24" d="M16.004 14.586L7.397 5.979L5.983 7.393L14.589 16H7.004V18H18.004V7H16.004V14.586z" />
    <glyph glyph-name="arrow-up-circle-fill"
      unicode="&#xEA4E;"
      horiz-adv-x="24" d="M12 22C17.52 22 22 17.52 22 12S17.52 2 12 2S2 6.48 2 12S6.48 22 12 22zM13 12H16L12 16L8 12H11V8H13V12z" />
    <glyph glyph-name="arrow-up-circle-line"
      unicode="&#xEA4F;"
      horiz-adv-x="24" d="M12 22C17.52 22 22 17.52 22 12S17.52 2 12 2S2 6.48 2 12S6.48 22 12 22zM12 4C16.42 4 20 7.58 20 12S16.42 20 12 20S4 16.42 4 12S7.58 4 12 4zM13 12V8H11V12H8L12 16L16 12H13z" />
    <glyph glyph-name="arrow-up-fill"
      unicode="&#xEA50;"
      horiz-adv-x="24" d="M13 12V4H11V12H4L12 20L20 12z" />
    <glyph glyph-name="arrow-up-line"
      unicode="&#xEA51;"
      horiz-adv-x="24" d="M13 16.172V4H11V16.172L5.636 10.808L4.222 12.222L12 20L19.778 12.222L18.364 10.808L13 16.172z" />
    <glyph glyph-name="arrow-up-s-fill"
      unicode="&#xEA52;"
      horiz-adv-x="24" d="M12 16L18 10H6z" />
    <glyph glyph-name="arrow-up-s-line"
      unicode="&#xEA53;"
      horiz-adv-x="24" d="M12 13.172L7.05 8.222L5.636 9.636L12 16L18.364 9.636L16.95 8.222z" />
    <glyph glyph-name="artboard-2-fill"
      unicode="&#xEA54;"
      horiz-adv-x="24" d="M6 18H18V6H6V18zM6 22H8V19H6V22zM6 5H8V2H6V5zM2 18H5V16H2V18zM2 8H5V6H2V8zM19 18H22V16H19V18zM19 8H22V6H19V8zM16 22H18V19H16V22zM16 5H18V2H16V5z" />
    <glyph glyph-name="artboard-2-line"
      unicode="&#xEA55;"
      horiz-adv-x="24" d="M8 16V8H16V16H8zM6 18H18V6H6V18zM6 22H8V19H6V22zM6 5H8V2H6V5zM2 18H5V16H2V18zM2 8H5V6H2V8zM19 18H22V16H19V18zM19 8H22V6H19V8zM16 22H18V19H16V22zM16 5H18V2H16V5z" />
    <glyph glyph-name="artboard-fill"
      unicode="&#xEA56;"
      horiz-adv-x="24" d="M8.586 7H3V9H21V7H15.414L18.657 3.757L17.243 2.343L13 6.586V4H11V6.586L6.757 2.343L5.343 3.757L8.586 7zM5 21H19A1 1 0 0 0 20 20V10H4V20A1 1 0 0 0 5 21z" />
    <glyph glyph-name="artboard-line"
      unicode="&#xEA57;"
      horiz-adv-x="24" d="M8.586 7H3V9H21V7H15.414L18.657 3.757L17.243 2.343L13 6.586V4H11V6.586L6.757 2.343L5.343 3.757L8.586 7zM5 21H19A1 1 0 0 0 20 20V10H4V20A1 1 0 0 0 5 21zM6 19V12H18V19H6z" />
    <glyph glyph-name="article-fill"
      unicode="&#xEA58;"
      horiz-adv-x="24" d="M20 2H4A1 1 0 0 0 3 3V21A1 1 0 0 0 4 22H20A1 1 0 0 0 21 21V3A1 1 0 0 0 20 2zM7 18V14H11V18H7zM7 12V10H17V12H7zM7 8V6H17V8H7zM13 17V15H17V17H13z" />
    <glyph glyph-name="article-line"
      unicode="&#xEA59;"
      horiz-adv-x="24" d="M20 2H4A1 1 0 0 0 3 3V21A1 1 0 0 0 4 22H20A1 1 0 0 0 21 21V3A1 1 0 0 0 20 2zM19 4V20H5V4H19zM7 18H11V14H7V18zM7 12H17V10H7V12zM7 8H17V6H7V8zM13 17H17V15H13V17z" />
    <glyph glyph-name="at-fill"
      unicode="&#xEA5A;"
      horiz-adv-x="24" d="M12 2C6.477 2 2 6.477 2 12S6.477 22 12 22S22 17.523 22 12S17.523 2 12 2zM20 12A8 8 0 1 1 16.032 5.089L15.024 6.816A6 6 0 1 0 18 12V11A1 1 0 0 0 16 11V15H14.646A4 4 0 1 1 14.712 9.06A3 3 0 0 1 20 11V12zM12 14A2 2 0 1 0 12 10A2 2 0 0 0 12 14z" />
    <glyph glyph-name="at-line"
      unicode="&#xEA5B;"
      horiz-adv-x="24" d="M20 12A8 8 0 1 1 16.438 5.343L17.548 3.679A9.952999999999998 9.952999999999998 0 0 0 12 2C6.477 2 2 6.477 2 12S6.477 22 12 22S22 17.523 22 12V10.5A3.5 3.5 0 0 0 15.604 8.534A5 5 0 1 0 15 16H17V10.5A1.5 1.5 0 0 1 20 10.5V12zM12 15A3 3 0 1 1 12 9A3 3 0 0 1 12 15z" />
    <glyph glyph-name="attachment-fill"
      unicode="&#xEA5C;"
      horiz-adv-x="24" d="M20.997 21.008L21 2.992A1 1 0 0 0 20.007 2H3.993A0.993 0.993 0 0 0 3 2.992V21.008A1 1 0 0 0 3.993 22H20.003C20.552 22 20.997 21.556 20.997 21.008zM9 11V15A1 1 0 1 0 11 15V11A1 1 0 0 1 13 11V15A3 3 0 0 1 7 15V11A5 5 0 0 1 17 11V16H15V11A3 3 0 0 0 9 11z" />
    <glyph glyph-name="attachment-line"
      unicode="&#xEA5D;"
      horiz-adv-x="24" d="M14 10.5V16A4 4 0 1 1 6 16V10.5A6.5 6.5 0 1 1 19 10.5V20H21V10.5A8.5 8.5 0 1 0 4 10.5V16A6 6 0 1 0 16 16V10.5A3.5 3.5 0 0 0 9 10.5V16H11V10.5A1.5 1.5 0 0 1 14 10.5z" />
    <glyph glyph-name="award-fill"
      unicode="&#xEA5E;"
      horiz-adv-x="24" d="M17 8.755V1.883A0.5 0.5 0 0 0 16.243 1.454L12 4L7.757 1.454A0.5 0.5 0 0 0 7 1.884V8.754A8 8 0 1 0 17 8.754zM12 9A6 6 0 1 1 12 21A6 6 0 0 1 12 9zM12 11A4 4 0 1 0 12 19A4 4 0 0 0 12 11z" />
    <glyph glyph-name="award-line"
      unicode="&#xEA5F;"
      horiz-adv-x="24" d="M17 8.755V1.883A0.5 0.5 0 0 0 16.243 1.454L12 4L7.757 1.454A0.5 0.5 0 0 0 7 1.884V8.754A8 8 0 1 0 17 8.754zM9 7.582V4.532L12 6.332L15 4.532V7.582A7.978 7.978 0 0 0 12 7A7.978 7.978 0 0 0 9 7.582zM12 9A6 6 0 1 1 12 21A6 6 0 0 1 12 9z" />
    <glyph glyph-name="ball-pen-fill"
      unicode="&#xEA60;"
      horiz-adv-x="24" d="M17.849 12.192L17.142 12.899L7.242 2.999H3V7.242L14.313 18.556L19.97 12.899A1 1 0 0 0 19.97 11.485L12.9 4.414L11.485 5.828L17.849 12.192zM18.556 21.384L21.385 18.556A1 1 0 0 0 21.385 17.142L19.97 15.727L15.728 19.97L17.142 21.384A1 1 0 0 0 18.556 21.384z" />
    <glyph glyph-name="ball-pen-line"
      unicode="&#xEA61;"
      horiz-adv-x="24" d="M17.849 12.192L17.142 12.899L7.242 2.999H3V7.242L14.313 18.556L19.97 12.899A1 1 0 0 0 19.97 11.485L12.9 4.414L11.485 5.828L17.849 12.192zM15.728 14.313L14.313 15.727L5 6.414V4.999H6.414L15.728 14.313zM18.556 21.384L21.385 18.556A1 1 0 0 0 21.385 17.142L19.97 15.727L15.728 19.97L17.142 21.384A1 1 0 0 0 18.556 21.384z" />
    <glyph glyph-name="bank-card-2-fill"
      unicode="&#xEA62;"
      horiz-adv-x="24" d="M22 13V4A1 1 0 0 0 21 3H3A1 1 0 0 0 2 4V13H22zM22 17H2V20A1 1 0 0 0 3 21H21A1 1 0 0 0 22 20V17z" />
    <glyph glyph-name="bank-card-2-line"
      unicode="&#xEA63;"
      horiz-adv-x="24" d="M3 21H21A1 1 0 0 0 22 20V4A1 1 0 0 0 21 3H3A1 1 0 0 0 2 4V20A1 1 0 0 0 3 21zM20 12H4V5H20V12zM20 16V19H4V16H20z" />
    <glyph glyph-name="bank-card-fill"
      unicode="&#xEA64;"
      horiz-adv-x="24" d="M22 14V4A1 1 0 0 0 21 3H3A1 1 0 0 0 2 4V14H22zM22 16H2V20A1 1 0 0 0 3 21H21A1 1 0 0 0 22 20V16zM15 8V6H19V8H15z" />
    <glyph glyph-name="bank-card-line"
      unicode="&#xEA65;"
      horiz-adv-x="24" d="M3 21H21A1 1 0 0 0 22 20V4A1 1 0 0 0 21 3H3A1 1 0 0 0 2 4V20A1 1 0 0 0 3 21zM20 13H4V5H20V13zM20 15V19H4V15H20zM14 9H18V7H14V9z" />
    <glyph glyph-name="bank-fill"
      unicode="&#xEA66;"
      horiz-adv-x="24" d="M2 4H22V2H2V4zM4 12H6V5H4V12zM9 12H11V5H9V12zM13 12H15V5H13V12zM18 12H20V5H18V12zM2 17L12 22L22 17V13H2V17zM12 16A1 1 0 1 1 12 18A1 1 0 0 1 12 16z" />
    <glyph glyph-name="bank-line"
      unicode="&#xEA67;"
      horiz-adv-x="24" d="M2 4H22V2H2V4zM4 12H6V5H4V12zM9 12H11V5H9V12zM13 12H15V5H13V12zM18 12H20V5H18V12zM2 17L12 22L22 17V13H2V17zM4 15.764V15H20V15.764L12 19.764L4 15.764zM12 16A1 1 0 1 0 12 18A1 1 0 0 0 12 16z" />
    <glyph glyph-name="bar-chart-2-fill"
      unicode="&#xEA68;"
      horiz-adv-x="24" d="M2 11H8V3H2V11zM9 21H15V3H9V21zM16 16H22V3H16V16z" />
    <glyph glyph-name="bar-chart-2-line"
      unicode="&#xEA69;"
      horiz-adv-x="24" d="M2 11H8V3H2V11zM16 16H22V3H16V16zM9 21H15V3H9V21zM4 9V5H6V9H4zM11 19V5H13V19H11zM18 14V5H20V14H18z" />
    <glyph glyph-name="bar-chart-box-fill"
      unicode="&#xEA6A;"
      horiz-adv-x="24" d="M3 21H21A1 1 0 0 0 22 20V4A1 1 0 0 0 21 3H3A1 1 0 0 0 2 4V20A1 1 0 0 0 3 21zM7 11V7H9V11H7zM11 17V7H13V17H11zM15 14V7H17V14H15z" />
    <glyph glyph-name="bar-chart-box-line"
      unicode="&#xEA6B;"
      horiz-adv-x="24" d="M3 21H21A1 1 0 0 0 22 20V4A1 1 0 0 0 21 3H3A1 1 0 0 0 2 4V20A1 1 0 0 0 3 21zM4 19V5H20V19H4zM7 11H9V7H7V11zM11 17H13V7H11V17zM15 14H17V7H15V14z" />
    <glyph glyph-name="bar-chart-fill"
      unicode="&#xEA6C;"
      horiz-adv-x="24" d="M3 12H7V3H3V12zM17 16H21V3H17V16zM10 22H14V3H10V22z" />
    <glyph glyph-name="bar-chart-line"
      unicode="&#xEA6D;"
      horiz-adv-x="24" d="M3 12H5V3H3V12zM19 16H21V3H19V16zM11 22H13V3H11V22z" />
    <glyph glyph-name="barricade-fill"
      unicode="&#xEA6E;"
      horiz-adv-x="24" d="M19.556 5H21V3H3V5H4.444L5.334 9H18.667L19.556 5zM17.333 15L18.223 11H5.777L6.666 15H17.332zM16.889 17H7.11L7.825 20.217A1 1 0 0 0 8.802 21H15.198A1 1 0 0 0 16.174 20.217L16.889 17z" />
    <glyph glyph-name="barricade-line"
      unicode="&#xEA6F;"
      horiz-adv-x="24" d="M6.493 5H17.507L16.84 8H7.16L6.493 5zM19.556 5H21V3H3V5H4.444L7.826 20.217A1 1 0 0 0 8.802 21H15.198A1 1 0 0 0 16.174 20.217L19.556 5zM7.604 10H16.396L15.506 14H8.494L7.605 10zM8.938 16H15.062L14.396 19H9.604L8.938 16z" />
    <glyph glyph-name="battery-2-charge-fill"
      unicode="&#xEA70;"
      horiz-adv-x="24" d="M9 20V21A1 1 0 0 0 10 22H14A1 1 0 0 0 15 21V20H18A1 1 0 0 0 19 19V3A1 1 0 0 0 18 2H6A1 1 0 0 0 5 3V19A1 1 0 0 0 6 20H9zM13 12V17L8 10H11V5L16 12H13z" />
    <glyph glyph-name="battery-2-charge-line"
      unicode="&#xEA71;"
      horiz-adv-x="24" d="M13 12H16L11 5V10H8L13 17V12zM11 18H7V4H17V18H13V20H11V18zM9 20V21A1 1 0 0 0 10 22H14A1 1 0 0 0 15 21V20H18A1 1 0 0 0 19 19V3A1 1 0 0 0 18 2H6A1 1 0 0 0 5 3V19A1 1 0 0 0 6 20H9z" />
    <glyph glyph-name="battery-2-fill"
      unicode="&#xEA72;"
      horiz-adv-x="24" d="M9 20V21A1 1 0 0 0 10 22H14A1 1 0 0 0 15 21V20H18A1 1 0 0 0 19 19V3A1 1 0 0 0 18 2H6A1 1 0 0 0 5 3V19A1 1 0 0 0 6 20H9z" />
    <glyph glyph-name="battery-2-line"
      unicode="&#xEA73;"
      horiz-adv-x="24" d="M11 18H7V4H17V18H13V20H11V18zM9 20V21A1 1 0 0 0 10 22H14A1 1 0 0 0 15 21V20H18A1 1 0 0 0 19 19V3A1 1 0 0 0 18 2H6A1 1 0 0 0 5 3V19A1 1 0 0 0 6 20H9z" />
    <glyph glyph-name="battery-charge-fill"
      unicode="&#xEA74;"
      horiz-adv-x="24" d="M12 13V19L7 11H10V5L15 13H12zM3 19H19A1 1 0 0 0 20 18V6A1 1 0 0 0 19 5H3A1 1 0 0 0 2 6V18A1 1 0 0 0 3 19zM21 15H23V9H21V15z" />
    <glyph glyph-name="battery-charge-line"
      unicode="&#xEA75;"
      horiz-adv-x="24" d="M8 5H3A1 1 0 0 0 2 6V18A1 1 0 0 0 3 19H9.625L8.458 17H4V7H8V5zM12.375 5L13.542 7H18V17H14V19H19A1 1 0 0 0 20 18V6A1 1 0 0 0 19 5H12.375zM21 15H23V9H21V15zM12 13H15L10 5V11H7L12 19V13z" />
    <glyph glyph-name="battery-fill"
      unicode="&#xEA76;"
      horiz-adv-x="24" d="M3 19H19A1 1 0 0 0 20 18V6A1 1 0 0 0 19 5H3A1 1 0 0 0 2 6V18A1 1 0 0 0 3 19zM21 15H23V9H21V15z" />
    <glyph glyph-name="battery-line"
      unicode="&#xEA77;"
      horiz-adv-x="24" d="M4 17V7H18V17H4zM3 19H19A1 1 0 0 0 20 18V6A1 1 0 0 0 19 5H3A1 1 0 0 0 2 6V18A1 1 0 0 0 3 19zM21 15H23V9H21V15z" />
    <glyph glyph-name="battery-low-fill"
      unicode="&#xEA78;"
      horiz-adv-x="24" d="M3 19H19A1 1 0 0 0 20 18V6A1 1 0 0 0 19 5H3A1 1 0 0 0 2 6V18A1 1 0 0 0 3 19zM5 16V8H9V16H5zM21 15H23V9H21V15z" />
    <glyph glyph-name="battery-low-line"
      unicode="&#xEA79;"
      horiz-adv-x="24" d="M4 17V7H18V17H4zM3 19H19A1 1 0 0 0 20 18V6A1 1 0 0 0 19 5H3A1 1 0 0 0 2 6V18A1 1 0 0 0 3 19zM5 16H9V8H5V16zM21 15H23V9H21V15z" />
    <glyph glyph-name="bike-fill"
      unicode="&#xEA7A;"
      horiz-adv-x="24" d="M5.5 12H4V17H2V19H8V17H6V14.205L15.813 16.834L15.233 19H12V21H15.978A1 1 0 0 0 16.966 20.259L18.519 14.463L16.587 13.946L16.331 14.902L5.5 12zM5 3A4 4 0 1 0 5 11A4 4 0 0 0 5 3zM5 6A1 1 0 1 1 5 8A1 1 0 0 1 5 6zM18 3A5 5 0 1 0 18 13A5 5 0 0 0 18 3zM18 7A1 1 0 1 1 18 9A1 1 0 0 1 18 7z" />
    <glyph glyph-name="bike-line"
      unicode="&#xEA7B;"
      horiz-adv-x="24" d="M5.5 12H4V17H2V19H8V17H6V14.205L15.813 16.834L15.233 19H12V21H15.978A1 1 0 0 0 16.966 20.259L18.519 14.463L16.587 13.946L16.331 14.902L5.5 12zM5 5A2 2 0 1 1 5 9A2 2 0 0 1 5 5zM5 3A4 4 0 1 0 5 11A4 4 0 0 0 5 3zM18 5A3 3 0 1 1 18 11A3 3 0 0 1 18 5zM18 3A5 5 0 1 0 18 13A5 5 0 0 0 18 3z" />
    <glyph glyph-name="bill-fill"
      unicode="&#xEA7C;"
      horiz-adv-x="24" d="M20 2H4A1 1 0 0 0 3 3V21A1 1 0 0 0 4 22H20A1 1 0 0 0 21 21V3A1 1 0 0 0 20 2zM8 15V13H16V15H8zM8 11V9H16V11H8z" />
    <glyph glyph-name="bill-line"
      unicode="&#xEA7D;"
      horiz-adv-x="24" d="M20 2H4A1 1 0 0 0 3 3V21A1 1 0 0 0 4 22H20A1 1 0 0 0 21 21V3A1 1 0 0 0 20 2zM19 4V20H5V4H19zM8 15H16V13H8V15zM8 11H16V9H8V11z" />
    <glyph glyph-name="bit-coin-fill"
      unicode="&#xEA7E;"
      horiz-adv-x="24" d="M12 2C6.477 2 2 6.477 2 12S6.477 22 12 22S22 17.523 22 12S17.523 2 12 2zM11 8V6H13V8H14A2.5 2.5 0 0 1 16 12A2.5 2.5 0 0 1 14 16H13V18H11V16H8V8H11zM10 11H14A0.5 0.5 0 1 0 14 10H10V11zM10 14H14A0.5 0.5 0 1 0 14 13H10V14z" />
    <glyph glyph-name="bit-coin-line"
      unicode="&#xEA7F;"
      horiz-adv-x="24" d="M12 2C6.477 2 2 6.477 2 12S6.477 22 12 22S22 17.523 22 12S17.523 2 12 2zM12 4A8 8 0 1 1 12 20A8 8 0 0 1 12 4zM11 8H8V16H11V18H13V16H14A2.5 2.5 0 0 0 16 12A2.5 2.5 0 0 0 14 8H13V6H11V8zM10 11V10H14A0.5 0.5 0 1 1 14 11H10zM10 14V13H14A0.5 0.5 0 1 1 14 14H10z" />
    <glyph glyph-name="bluetooth-connect-fill"
      unicode="&#xEA80;"
      horiz-adv-x="24" d="M14.341 11.97L18.684 7.627L13.028 1.971H11.028V8.657L6.664 4.293L5.249 5.707L11.028 11.485V12.455L5.249 18.235L6.664 19.649L11.028 15.285V21.971H13.028L18.684 16.314L14.341 11.971zM13.028 10.456V4.799L15.856 7.627L13.028 10.456zM13.028 13.486L15.856 16.314L13.028 19.142V13.485zM19.5 10.5A1.5 1.5 0 1 0 19.5 13.5A1.5 1.5 0 0 0 19.5 10.5zM6.5 10.5A1.5 1.5 0 1 0 6.5 13.5A1.5 1.5 0 0 0 6.5 10.5z" />
    <glyph glyph-name="bluetooth-connect-line"
      unicode="&#xEA81;"
      horiz-adv-x="24" d="M14.341 11.97L18.684 7.627L13.028 1.971H11.028V8.657L6.664 4.293L5.249 5.707L11.028 11.485V12.455L5.249 18.235L6.664 19.649L11.028 15.285V21.971H13.028L18.684 16.314L14.341 11.971zM13.028 10.456V4.799L15.856 7.627L13.028 10.456zM13.028 13.486L15.856 16.314L13.028 19.142V13.485zM19.5 10.5A1.5 1.5 0 1 0 19.5 13.5A1.5 1.5 0 0 0 19.5 10.5zM6.5 10.5A1.5 1.5 0 1 0 6.5 13.5A1.5 1.5 0 0 0 6.5 10.5z" />
    <glyph glyph-name="bluetooth-fill"
      unicode="&#xEA82;"
      horiz-adv-x="24" d="M14.341 11.97L18.684 7.627L13.028 1.971H11.028V8.657L6.664 4.293L5.249 5.707L11.028 11.485V12.455L5.249 18.235L6.664 19.649L11.028 15.285V21.971H13.028L18.684 16.314L14.341 11.971zM13.028 10.456V4.799L15.856 7.627L13.028 10.456zM13.028 13.486L15.856 16.314L13.028 19.142V13.485z" />
    <glyph glyph-name="bluetooth-line"
      unicode="&#xEA83;"
      horiz-adv-x="24" d="M14.341 11.97L18.684 7.627L13.028 1.971H11.028V8.657L6.664 4.293L5.249 5.707L11.028 11.485V12.455L5.249 18.235L6.664 19.649L11.028 15.285V21.971H13.028L18.684 16.314L14.341 11.971zM13.028 10.456V4.799L15.856 7.627L13.028 10.456zM13.028 13.486L15.856 16.314L13.028 19.142V13.485z" />
    <glyph glyph-name="blur-off-fill"
      unicode="&#xEA84;"
      horiz-adv-x="24" d="M5.432 17.154L1.393 21.192L2.808 22.607L22.607 2.807L21.192 1.393L18.154 4.433A9 9 0 0 0 5.432 17.152zM8.243 19.97L12 23.728L18.364 17.364A9.002 9.002 0 0 0 20.414 7.8L8.244 19.97z" />
    <glyph glyph-name="blur-off-line"
      unicode="&#xEA85;"
      horiz-adv-x="24" d="M18.154 4.432A9 9 0 0 0 5.432 17.154L1.393 21.192L2.808 22.607L22.607 2.807L21.192 1.393L18.154 4.433zM6.847 15.738A7 7 0 0 1 16.738 5.848L6.848 15.738zM20.414 7.8L18.815 9.399A6.995 6.995 0 0 1 16.95 15.949L12 20.9L9.657 18.557L8.243 19.97L12 23.728L18.364 17.364A9.002 9.002 0 0 0 20.414 7.8z" />
    <glyph glyph-name="bold"
      unicode="&#xEA86;"
      horiz-adv-x="24" d="M8 13H12.5A2.5 2.5 0 1 1 12.5 18H8V13zM18 8.5A4.5 4.5 0 0 0 13.5 4H6V20H12.5A4.5 4.5 0 0 0 15.756 12.394A4.498 4.498 0 0 0 18 8.5zM8 11V6H13.5A2.5 2.5 0 1 1 13.5 11H8z" />
    <glyph glyph-name="book-2-fill"
      unicode="&#xEA87;"
      horiz-adv-x="24" d="M21 6H6A1 1 0 0 1 6 4H21V2H6A3 3 0 0 0 3 5V20A2 2 0 0 0 5 22H21V6zM16 15V17H8V15H16z" />
    <glyph glyph-name="book-2-line"
      unicode="&#xEA88;"
      horiz-adv-x="24" d="M21 6H6A1 1 0 0 1 6 4H21V2H6A3 3 0 0 0 3 5V20A2 2 0 0 0 5 22H21V6zM5 7.95C5.162 7.983 5.329 8 5.5 8H19V20H5V7.95zM16 15H8V17H16V15z" />
    <glyph glyph-name="book-3-fill"
      unicode="&#xEA89;"
      horiz-adv-x="24" d="M21 20H7A2 2 0 1 1 7 16H21V3A1 1 0 0 0 20 2H7A4 4 0 0 0 3 6V18A4 4 0 0 0 7 22H20A1 1 0 0 0 21 21V20zM20 17H7A1 1 0 1 0 7 19H20V17z" />
    <glyph glyph-name="book-3-line"
      unicode="&#xEA8A;"
      horiz-adv-x="24" d="M21 20H7A2 2 0 1 1 7 16H21V3A1 1 0 0 0 20 2H7A4 4 0 0 0 3 6V18A4 4 0 0 0 7 22H20A1 1 0 0 0 21 21V20zM5 6A2 2 0 0 1 7 4H19V14H7A3.9819999999999998 3.9819999999999998 0 0 0 5 14.535V6zM20 17H7A1 1 0 1 0 7 19H20V17z" />
    <glyph glyph-name="book-fill"
      unicode="&#xEA8B;"
      horiz-adv-x="24" d="M20 2H6.5A3.5 3.5 0 0 0 3 5.5V19A3 3 0 0 0 6 22H20A1 1 0 0 0 21 21V3A1 1 0 0 0 20 2zM19 4V7H6.5A1.5 1.5 0 0 1 6.5 4H19z" />
    <glyph glyph-name="book-line"
      unicode="&#xEA8C;"
      horiz-adv-x="24" d="M3 5.5V19A3 3 0 0 0 6 22H20A1 1 0 0 0 21 21V3A1 1 0 0 0 20 2H6.5A3.5 3.5 0 0 0 3 5.5zM19 4V7H6.5A1.5 1.5 0 0 1 6.5 4H19zM5 8.663A3.486 3.486 0 0 0 6.5 9H19V20H6A1 1 0 0 1 5 19V8.663z" />
    <glyph glyph-name="book-mark-fill"
      unicode="&#xEA8D;"
      horiz-adv-x="24" d="M20 2H6.5A3.5 3.5 0 0 0 3 5.5V19A3 3 0 0 0 6 22H20A1 1 0 0 0 21 21V3A1 1 0 0 0 20 2zM19 4V7H6.5A1.5 1.5 0 0 1 6.5 4H19zM10 20V12L13.5 14L17 12V20H10z" />
    <glyph glyph-name="book-mark-line"
      unicode="&#xEA8E;"
      horiz-adv-x="24" d="M3 5.5V19A3 3 0 0 0 6 22H20A1 1 0 0 0 21 21V3A1 1 0 0 0 20 2H6.5A3.5 3.5 0 0 0 3 5.5zM19 4V7H6.5A1.5 1.5 0 0 1 6.5 4H19zM10 20H6A1 1 0 0 1 5 19V8.663A3.486 3.486 0 0 0 6.5 9H19V20H17V12L13.5 14L10 12V20z" />
    <glyph glyph-name="book-open-fill"
      unicode="&#xEA8F;"
      horiz-adv-x="24" d="M21 3H13V18A3 3 0 0 0 16 21H21A1 1 0 0 0 22 20V4A1 1 0 0 0 21 3zM11 3H3A1 1 0 0 0 2 4V20A1 1 0 0 0 3 21H8A3 3 0 0 0 11 18V3zM11 3H13V1H11V3z" />
    <glyph glyph-name="book-open-line"
      unicode="&#xEA90;"
      horiz-adv-x="24" d="M13 3V1H11V3H3A1 1 0 0 0 2 4V20A1 1 0 0 0 3 21H9A3.99 3.99 0 0 0 12 19.646A3.99 3.99 0 0 0 15 21H21A1 1 0 0 0 22 20V4A1 1 0 0 0 21 3H13zM20 5V19H15A2 2 0 0 1 13 17V5H20zM11 5V17A2 2 0 0 1 9 19H4V5H11z" />
    <glyph glyph-name="book-read-fill"
      unicode="&#xEA91;"
      horiz-adv-x="24" d="M2 20.007A1 1 0 0 0 2.992 21H21.008C21.556 21 22 20.555 22 20.007V3.993A1 1 0 0 0 21.008 3H2.992A0.993 0.993 0 0 0 2 3.993V20.007zM12 19V5H20V19H12zM13 17H19V15H13V17zM13 14H19V12H13V14z" />
    <glyph glyph-name="book-read-line"
      unicode="&#xEA92;"
      horiz-adv-x="24" d="M2 20.007A1 1 0 0 0 2.992 21H21.008C21.556 21 22 20.555 22 20.007V3.993A1 1 0 0 0 21.008 3H2.992A0.993 0.993 0 0 0 2 3.993V20.007zM11 19H4V5H11V19zM13 19V5H20V19H13zM14 17H19V15H14V17zM14 14H19V12H14V14z" />
    <glyph glyph-name="bookmark-2-fill"
      unicode="&#xEA93;"
      horiz-adv-x="24" d="M5 22H19A1 1 0 0 0 20 21V1.857A0.5 0.5 0 0 0 19.234 1.433L12 5.97L4.766 1.434A0.5 0.5 0 0 0 4 1.857V21A1 1 0 0 0 5 22zM8 15V13H16V15H8z" />
    <glyph glyph-name="bookmark-2-line"
      unicode="&#xEA94;"
      horiz-adv-x="24" d="M5 22H19A1 1 0 0 0 20 21V1.857A0.5 0.5 0 0 0 19.234 1.433L12 5.97L4.766 1.434A0.5 0.5 0 0 0 4 1.857V21A1 1 0 0 0 5 22zM18 20H6V4.568L12 8.329L18 4.568V20zM8 15H16V13H8V15z" />
    <glyph glyph-name="bookmark-3-fill"
      unicode="&#xEA95;"
      horiz-adv-x="24" d="M4 22H20A1 1 0 0 0 21 21V1.724A0.5 0.5 0 0 0 20.296 1.267L12 4.97L3.704 1.268A0.5 0.5 0 0 0 3 1.724V21A1 1 0 0 0 4 22zM12 10.5L14.939 8.955L14.378 12.227L16.755 14.545L13.469 15.023L12 18L10.53 15.023L7.245 14.545L9.622 12.227L9.062 8.955L12 10.5z" />
    <glyph glyph-name="bookmark-3-line"
      unicode="&#xEA96;"
      horiz-adv-x="24" d="M4 22H20A1 1 0 0 0 21 21V1.724A0.5 0.5 0 0 0 20.296 1.267L12 4.97L3.704 1.268A0.5 0.5 0 0 0 3 1.724V21A1 1 0 0 0 4 22zM19 4.035V20H5V4.035L12 7.159L19 4.035zM12 10.5L9.061 8.955L9.622 12.227L7.245 14.545L10.531 15.023L12 18L13.47 15.023L16.755 14.545L14.378 12.227L14.938 8.955L12 10.5z" />
    <glyph glyph-name="bookmark-fill"
      unicode="&#xEA97;"
      horiz-adv-x="24" d="M5 22H19A1 1 0 0 0 20 21V1.857A0.5 0.5 0 0 0 19.234 1.433L12 5.97L4.766 1.434A0.5 0.5 0 0 0 4 1.857V21A1 1 0 0 0 5 22z" />
    <glyph glyph-name="bookmark-line"
      unicode="&#xEA98;"
      horiz-adv-x="24" d="M5 22H19A1 1 0 0 0 20 21V1.857A0.5 0.5 0 0 0 19.234 1.433L12 5.97L4.766 1.434A0.5 0.5 0 0 0 4 1.857V21A1 1 0 0 0 5 22zM18 20H6V4.568L12 8.329L18 4.568V20z" />
    <glyph glyph-name="briefcase-2-fill"
      unicode="&#xEA99;"
      horiz-adv-x="24" d="M7 19V22A1 1 0 0 0 8 23H16A1 1 0 0 0 17 22V19H21A1 1 0 0 0 22 18V4A1 1 0 0 0 21 3H3A1 1 0 0 0 2 4V18A1 1 0 0 0 3 19H7zM17 11V14H15V11H9V14H7V11H4V5H20V11H17zM9 21V19H15V21H9z" />
    <glyph glyph-name="briefcase-2-line"
      unicode="&#xEA9A;"
      horiz-adv-x="24" d="M7 19V22A1 1 0 0 0 8 23H16A1 1 0 0 0 17 22V19H21A1 1 0 0 0 22 18V4A1 1 0 0 0 21 3H3A1 1 0 0 0 2 4V18A1 1 0 0 0 3 19H7zM20 11H4V5H20V11zM20 17H4V13H7V15H9V13H15V15H17V13H20V17zM9 21V19H15V21H9z" />
    <glyph glyph-name="briefcase-3-fill"
      unicode="&#xEA9B;"
      horiz-adv-x="24" d="M7 19V22A1 1 0 0 0 8 23H16A1 1 0 0 0 17 22V19H21A1 1 0 0 0 22 18V4A1 1 0 0 0 21 3H3A1 1 0 0 0 2 4V18A1 1 0 0 0 3 19H7zM17 17V12H20V17H17zM15 17H9V12H15V17zM7 17H4V12H7V17zM9 21V19H15V21H9z" />
    <glyph glyph-name="briefcase-3-line"
      unicode="&#xEA9C;"
      horiz-adv-x="24" d="M7 19V22A1 1 0 0 0 8 23H16A1 1 0 0 0 17 22V19H21A1 1 0 0 0 22 18V4A1 1 0 0 0 21 3H3A1 1 0 0 0 2 4V18A1 1 0 0 0 3 19H7zM15 17H9V5H15V17zM7 17H4V5H7V17zM17 17V5H20V17H17zM9 21V19H15V21H9z" />
    <glyph glyph-name="briefcase-4-fill"
      unicode="&#xEA9D;"
      horiz-adv-x="24" d="M9 11V8H15V11H22V4A1 1 0 0 0 21 3H3A1 1 0 0 0 2 4V11H9zM11 13H13V10H11V13zM7 19V22A1 1 0 0 0 8 23H16A1 1 0 0 0 17 22V19H21A1 1 0 0 0 22 18V13H15V15H9V13H2V18A1 1 0 0 0 3 19H7zM9 21V19H15V21H9z" />
    <glyph glyph-name="briefcase-4-line"
      unicode="&#xEA9E;"
      horiz-adv-x="24" d="M7 19V22A1 1 0 0 0 8 23H16A1 1 0 0 0 17 22V19H21A1 1 0 0 0 22 18V4A1 1 0 0 0 21 3H3A1 1 0 0 0 2 4V18A1 1 0 0 0 3 19H7zM9 11H4V5H20V11H15V8H9V11zM20 17H4V13H9V15H15V13H20V17zM11 13V10H13V13H11zM9 21V19H15V21H9z" />
    <glyph glyph-name="briefcase-5-fill"
      unicode="&#xEA9F;"
      horiz-adv-x="24" d="M7 19V22A1 1 0 0 0 8 23H16A1 1 0 0 0 17 22V19H21A1 1 0 0 0 22 18V4A1 1 0 0 0 21 3H3A1 1 0 0 0 2 4V18A1 1 0 0 0 3 19H7zM6 11V17H4V11H6zM8 17V11H11V13H13V11H16V17H8zM18 11H20V17H18V11zM9 21V19H15V21H9z" />
    <glyph glyph-name="briefcase-5-line"
      unicode="&#xEAA0;"
      horiz-adv-x="24" d="M7 19V22A1 1 0 0 0 8 23H16A1 1 0 0 0 17 22V19H21A1 1 0 0 0 22 18V4A1 1 0 0 0 21 3H3A1 1 0 0 0 2 4V18A1 1 0 0 0 3 19H7zM16 9H13V8H11V9H8V5H16V9zM8 17V11H11V12H13V11H16V17H8zM6 11V17H4V11H6zM18 11H20V17H18V11zM6 9H4V5H6V9zM18 9V5H20V9H18zM9 21V19H15V21H9z" />
    <glyph glyph-name="briefcase-fill"
      unicode="&#xEAA1;"
      horiz-adv-x="24" d="M7 19V22A1 1 0 0 0 8 23H16A1 1 0 0 0 17 22V19H21A1 1 0 0 0 22 18V4A1 1 0 0 0 21 3H3A1 1 0 0 0 2 4V18A1 1 0 0 0 3 19H7zM4 9V5H20V9H4zM11 13V11H13V13H11zM9 21V19H15V21H9z" />
    <glyph glyph-name="briefcase-line"
      unicode="&#xEAA2;"
      horiz-adv-x="24" d="M7 19V22A1 1 0 0 0 8 23H16A1 1 0 0 0 17 22V19H21A1 1 0 0 0 22 18V4A1 1 0 0 0 21 3H3A1 1 0 0 0 2 4V18A1 1 0 0 0 3 19H7zM4 8V5H20V8H4zM4 10H20V17H4V10zM9 21V19H15V21H9zM11 13H13V11H11V13z" />
    <glyph glyph-name="broadcast-fill"
      unicode="&#xEAA3;"
      horiz-adv-x="24" d="M4.929 21.071L6.343 19.657A7.974999999999999 7.974999999999999 0 0 1 4 14C4 11.79 4.895 9.79 6.343 8.343L4.93 6.93A9.969 9.969 0 0 0 2 14A9.969 9.969 0 0 0 4.929 21.071zM19.071 21.071A9.969 9.969 0 0 0 22 14A9.969 9.969 0 0 0 19.071 6.929L17.657 8.343A7.974999999999999 7.974999999999999 0 0 1 20 14C20 16.21 19.105 18.21 17.657 19.657L19.07 21.07zM7.757 18.243L9.172 16.828A3.987 3.987 0 0 1 8 14C8 12.895 8.448 11.895 9.172 11.172L7.757 9.757A5.981 5.981 0 0 0 6 14C6 15.657 6.672 17.157 7.757 18.243zM16.243 18.243A5.981 5.981 0 0 0 18 14A5.981 5.981 0 0 0 16.243 9.757L14.828 11.172A3.987 3.987 0 0 1 16 14A3.987 3.987 0 0 1 14.828 16.828L16.243 18.243zM12 12A2 2 0 1 0 12 16A2 2 0 0 0 12 12zM12 10C12.58 10 13.077 9.587 13.184 9.017L14.5 2H9.5L10.816 9.017C10.923 9.587 11.42 10 12 10z" />
    <glyph glyph-name="broadcast-line"
      unicode="&#xEAA4;"
      horiz-adv-x="24" d="M4.929 21.071L6.343 19.657A7.974999999999999 7.974999999999999 0 0 1 4 14C4 11.79 4.895 9.79 6.343 8.343L4.93 6.93A9.969 9.969 0 0 0 2 14A9.969 9.969 0 0 0 4.929 21.071zM19.071 21.071A9.969 9.969 0 0 0 22 14A9.969 9.969 0 0 0 19.071 6.929L17.657 8.343A7.974999999999999 7.974999999999999 0 0 1 20 14C20 16.21 19.105 18.21 17.657 19.657L19.07 21.07zM7.757 18.243L9.172 16.828A3.987 3.987 0 0 1 8 14C8 12.895 8.448 11.895 9.172 11.172L7.757 9.757A5.981 5.981 0 0 0 6 14C6 15.657 6.672 17.157 7.757 18.243zM16.243 18.243A5.981 5.981 0 0 0 18 14A5.981 5.981 0 0 0 16.243 9.757L14.828 11.172A3.987 3.987 0 0 1 16 14A3.987 3.987 0 0 1 14.828 16.828L16.243 18.243zM12 12A2 2 0 1 0 12 16A2 2 0 0 0 12 12zM11 10H13V2H11V10z" />
    <glyph glyph-name="brush-2-fill"
      unicode="&#xEAA5;"
      horiz-adv-x="24" d="M16.536 8.05L18.656 10.172L15.475 13.354L19.01 16.889L16.89 19.01L13.354 15.475L10.172 18.657L8.05 16.536L16.536 8.05zM13.354 18.303L16.182 21.132A1 1 0 0 0 17.596 21.132L21.132 17.596A1 1 0 0 0 21.132 16.182L18.303 13.354L20.778 10.879A1 1 0 0 0 20.778 9.464L13 1.686A1 1 0 0 0 11.586 1.686L1.686 11.586A1 1 0 0 0 1.686 13L9.464 20.778A1 1 0 0 0 10.879 20.778L13.354 18.303z" />
    <glyph glyph-name="brush-2-line"
      unicode="&#xEAA6;"
      horiz-adv-x="24" d="M16.536 8.05L18.656 10.172L15.475 13.354L19.01 16.889L16.89 19.01L13.354 15.475L10.172 18.657L8.05 16.536L16.536 8.05zM15.121 6.636L6.636 15.121L3.808 12.293L12.293 3.808L15.121 6.636zM13.354 18.303L16.182 21.132A1 1 0 0 0 17.596 21.132L21.132 17.596A1 1 0 0 0 21.132 16.182L18.303 13.354L20.778 10.879A1 1 0 0 0 20.778 9.464L13 1.686A1 1 0 0 0 11.586 1.686L1.686 11.586A1 1 0 0 0 1.686 13L9.464 20.778A1 1 0 0 0 10.879 20.778L13.354 18.303z" />
    <glyph glyph-name="brush-3-fill"
      unicode="&#xEAA7;"
      horiz-adv-x="24" d="M20 13V16H14V20H10V16H4V13H20zM21 11V3A1 1 0 0 0 20 2H10V8H8V2H4A1 1 0 0 0 3 3V11H2V17A1 1 0 0 0 3 18H8V21A1 1 0 0 0 9 22H15A1 1 0 0 0 16 21V18H21A1 1 0 0 0 22 17V11H21z" />
    <glyph glyph-name="brush-3-line"
      unicode="&#xEAA8;"
      horiz-adv-x="24" d="M8 4V9H10V4H19V11H5V4H8zM4 13H20V16H14V20H10V16H4V13zM3 3V11H2V17A1 1 0 0 0 3 18H8V21A1 1 0 0 0 9 22H15A1 1 0 0 0 16 21V18H21A1 1 0 0 0 22 17V11H21V3A1 1 0 0 0 20 2H4A1 1 0 0 0 3 3z" />
    <glyph glyph-name="brush-4-fill"
      unicode="&#xEAA9;"
      horiz-adv-x="24" d="M20 8H4V6H20V8zM3 10V20A1 1 0 0 0 4 21H7V12.727H9V21H20A1 1 0 0 0 21 20V10H22V5A1 1 0 0 0 21 4H13V1H11V4H3A1 1 0 0 0 2 5V10H3z" />
    <glyph glyph-name="brush-4-line"
      unicode="&#xEAAA;"
      horiz-adv-x="24" d="M9 19V12.727H7V19H5V10H19V19H9zM20 8H4V6H20V8zM3 10V20A1 1 0 0 0 4 21H20A1 1 0 0 0 21 20V10H22V5A1 1 0 0 0 21 4H13V1H11V4H3A1 1 0 0 0 2 5V10H3z" />
    <glyph glyph-name="brush-fill"
      unicode="&#xEAAB;"
      horiz-adv-x="24" d="M13.289 17.784L18.228 21.625A1 1 0 0 0 19.548 21.543L22.543 18.549A1 1 0 0 0 22.625 17.228L18.785 12.29A7.505 7.505 0 0 0 11.502 2.998C8 2.998 3.5 4.5 1 6C4.98 9 4.047 10.81 4.5 12.5C5.558 16.45 9.342 18.757 13.289 17.784zM16.702 15.905C16.767 15.842 16.832 15.777 16.895 15.711L18.03 14.577L20.505 17.759L18.759 19.505L15.577 17.03L16.702 15.905z" />
    <glyph glyph-name="brush-line"
      unicode="&#xEAAC;"
      horiz-adv-x="24" d="M15.456 14.322L15.314 14.464A5.475 5.475 0 0 1 12.924 15.813C10.017 16.591 7.225 14.944 6.432 11.983C6.389 11.823 6.366 11.643 6.328 11.192C6.174 9.322 5.734 7.927 4.528 6.512C6.788 5.624 9.466 4.998 11.502 4.998A5.505 5.505 0 0 1 16.812 9.076A5.497 5.497 0 0 1 15.456 14.322zM13.29 17.784L18.229 21.625A1 1 0 0 0 19.549 21.543L22.544 18.549A1 1 0 0 0 22.626 17.228L18.786 12.29A7.505 7.505 0 0 0 11.503 2.998C8 2.998 3.5 4.5 1 6C4.98 9 4.047 10.81 4.5 12.5C5.558 16.45 9.342 18.757 13.289 17.784zM16.703 15.905C16.768 15.842 16.833 15.777 16.896 15.711L18.031 14.577L20.506 17.759L18.76 19.505L15.578 17.03L16.703 15.905z" />
    <glyph glyph-name="bug-2-fill"
      unicode="&#xEAAD;"
      horiz-adv-x="24" d="M5.07 8A7.06 7.06 0 0 0 5 9V10H3V12H5V13C5 13.34 5.024 13.673 5.07 14H3V16H5.674A7.029999999999999 7.029999999999999 0 0 0 8.514 19.072L7.464 20.122L8.88 21.535L10.563 19.851A7.029999999999999 7.029999999999999 0 0 0 13.439 19.851L15.122 21.535L16.537 20.12L15.487 19.07A7.029999999999999 7.029999999999999 0 0 0 18.326 16H21V14H18.93C18.976 13.673 19 13.34 19 13V12H21V10H19V9C19 8.66 18.976 8.327 18.93 8H21V6H18.326A7 7 0 0 0 5.674 6H3V8H5.07zM9 14V12H15V14H9zM9 10V8H15V10H9z" />
    <glyph glyph-name="bug-2-line"
      unicode="&#xEAAE;"
      horiz-adv-x="24" d="M10.562 19.852A7.029999999999999 7.029999999999999 0 0 0 13.438 19.852L15.121 21.536L16.536 20.121L15.486 19.071A7.029999999999999 7.029999999999999 0 0 0 18.326 16H21V14H18.93C18.976 13.673 19 13.34 19 13V12H21V10H19V9C19 8.66 18.976 8.327 18.93 8H21V6H18.326A7 7 0 0 0 5.674 6H3V8H5.07A7.06 7.06 0 0 0 5 9V10H3V12H5V13C5 13.34 5.024 13.673 5.07 14H3V16H5.674A7.029999999999999 7.029999999999999 0 0 0 8.514 19.072L7.464 20.122L8.88 21.535L10.563 19.851zM12 18A5 5 0 0 1 7 13V9A5 5 0 0 1 17 9V13A5 5 0 0 1 12 18zM9 10H15V8H9V10zM9 14H15V12H9V14z" />
    <glyph glyph-name="bug-fill"
      unicode="&#xEAAF;"
      horiz-adv-x="24" d="M6.056 15.7A7.01 7.01 0 0 0 6.255 16H17.745C17.814 15.902 17.88 15.801 17.944 15.7L19.964 16.866L20.964 15.134L18.751 13.856C18.913 13.266 19 12.643 19 12V11H22V9H19C19 8.047 18.81 7.138 18.464 6.31L20.964 4.866L19.964 3.134L17.438 4.592A6.991999999999999 6.991999999999999 0 0 0 13 2.071V10H11V2.07A6.991999999999999 6.991999999999999 0 0 0 6.562 4.592L4.036 3.134L3.036 4.866L5.536 6.309A6.979 6.979 0 0 0 5 9H2V11H5V12C5 12.643 5.087 13.265 5.249 13.856L3.036 15.134L4.036 16.866L6.056 15.7zM8 18A4 4 0 1 0 16 18H8z" />
    <glyph glyph-name="bug-line"
      unicode="&#xEAB0;"
      horiz-adv-x="24" d="M13 4.1A5.002 5.002 0 0 1 17 9V12A4.98 4.98 0 0 1 16.585 14H7.415A4.98 4.98 0 0 1 7 12V9A5.002 5.002 0 0 1 11 4.1V10H13V4.1zM5.536 6.31A6.979 6.979 0 0 0 5 9H2V11H5V12C5 12.643 5.087 13.265 5.249 13.856L3.036 15.134L4.036 16.866L6.056 15.7A7.01 7.01 0 0 0 6.255 16H17.745C17.814 15.902 17.88 15.801 17.944 15.7L19.964 16.866L20.964 15.134L18.751 13.856C18.913 13.266 19 12.643 19 12V11H22V9H19C19 8.047 18.81 7.138 18.464 6.31L20.964 4.866L19.964 3.134L17.438 4.592A6.986 6.986 0 0 0 12 2A6.986 6.986 0 0 0 6.562 4.592L4.036 3.134L3.036 4.866L5.536 6.309zM8 18A4 4 0 1 0 16 18H8z" />
    <glyph glyph-name="building-2-fill"
      unicode="&#xEAB1;"
      horiz-adv-x="24" d="M12 5H14V18L20.394 15.26A1 1 0 0 0 21 14.34V5H23V3H1V5H3V18.35A1 1 0 0 0 3.594 19.264L11.297 22.688A0.5 0.5 0 0 0 12 22.23V5z" />
    <glyph glyph-name="building-2-line"
      unicode="&#xEAB2;"
      horiz-adv-x="24" d="M3 5V18.3A1 1 0 0 0 3.658 19.24L13.329 22.756A0.5 0.5 0 0 0 14 22.286V17.333L20.316 15.228A1 1 0 0 0 21 14.279V5H23V3H1V5H3zM5 5H12V20.145L5 17.599V5zM19 5V13.558L14 15.225V5H19z" />
    <glyph glyph-name="building-3-fill"
      unicode="&#xEAB3;"
      horiz-adv-x="24" d="M10 13.889V23L21 17V3H3V17z" />
    <glyph glyph-name="building-3-line"
      unicode="&#xEAB4;"
      horiz-adv-x="24" d="M10 13.889V23L21 17V3H3V17L10 13.889zM12 19.631V10.811L5 13.922V5H19V15.813L12 19.63z" />
    <glyph glyph-name="building-4-fill"
      unicode="&#xEAB5;"
      horiz-adv-x="24" d="M21 4H23V2H1V4H3V21A1 1 0 0 0 4 22H20A1 1 0 0 0 21 21V4zM8 13V11H11V13H8zM8 17V15H11V17H8zM8 9V7H11V9H8zM13 9V7H16V9H13zM13 13V11H16V13H13zM13 17V15H16V17H13z" />
    <glyph glyph-name="building-4-line"
      unicode="&#xEAB6;"
      horiz-adv-x="24" d="M21 4H23V2H1V4H3V21A1 1 0 0 0 4 22H20A1 1 0 0 0 21 21V4zM19 4V20H5V4H19zM8 13H11V11H8V13zM8 17H11V15H8V17zM8 9H11V7H8V9zM13 9H16V7H13V9zM13 13H16V11H13V13zM13 17H16V15H13V17z" />
    <glyph glyph-name="building-fill"
      unicode="&#xEAB7;"
      horiz-adv-x="24" d="M21 5H23V3H1V5H3V20A1 1 0 0 0 4 21H14A1 1 0 0 0 15 20V5H17V15H20A1 1 0 0 0 21 14V5zM7 13V11H11V13H7zM7 17V15H11V17H7z" />
    <glyph glyph-name="building-line"
      unicode="&#xEAB8;"
      horiz-adv-x="24" d="M21 5H23V3H1V5H3V20A1 1 0 0 0 4 21H14A1 1 0 0 0 15 20V5H19V13H17V15H20A1 1 0 0 0 21 14V5zM5 19V5H13V19H5zM7 13H11V11H7V13zM7 17H11V15H7V17z" />
    <glyph glyph-name="bus-2-fill"
      unicode="&#xEAB9;"
      horiz-adv-x="24" d="M17 4H7V3A1 1 0 0 0 6 2H4A1 1 0 0 0 3 3V12H2V16H3V19A2 2 0 0 0 5 21H19A2 2 0 0 0 21 19V16H22V12H21V3A1 1 0 0 0 20 2H18A1 1 0 0 0 17 3V4zM5 19V12H19V19H5zM7.5 6A1.5 1.5 0 1 1 7.5 9A1.5 1.5 0 0 1 7.5 6zM16.5 6A1.5 1.5 0 1 1 16.5 9A1.5 1.5 0 0 1 16.5 6z" />
    <glyph glyph-name="bus-2-line"
      unicode="&#xEABA;"
      horiz-adv-x="24" d="M17 4H7V3A1 1 0 0 0 6 2H4A1 1 0 0 0 3 3V12H2V16H3V19A2 2 0 0 0 5 21H19A2 2 0 0 0 21 19V16H22V12H21V3A1 1 0 0 0 20 2H18A1 1 0 0 0 17 3V4zM5 19V13H19V19H5zM19 11H5V6H19V11zM7.5 7A1.5 1.5 0 1 0 7.5 10A1.5 1.5 0 0 0 7.5 7zM16.5 7A1.5 1.5 0 1 0 16.5 10A1.5 1.5 0 0 0 16.5 7z" />
    <glyph glyph-name="bus-fill"
      unicode="&#xEABB;"
      horiz-adv-x="24" d="M17 4H7V3A1 1 0 0 0 6 2H5A1 1 0 0 0 4 3V4H3V12H2V16H3V19A2 2 0 0 0 5 21H19A2 2 0 0 0 21 19V16H22V12H21V4H20V3A1 1 0 0 0 19 2H18A1 1 0 0 0 17 3V4zM5 19V10H19V19H5zM5 8V6H9V8H5zM15 8V6H19V8H15z" />
    <glyph glyph-name="bus-line"
      unicode="&#xEABC;"
      horiz-adv-x="24" d="M17 4H7V3A1 1 0 0 0 6 2H5A1 1 0 0 0 4 3V4H3V12H2V16H3V19A2 2 0 0 0 5 21H19A2 2 0 0 0 21 19V16H22V12H21V4H20V3A1 1 0 0 0 19 2H18A1 1 0 0 0 17 3V4zM19 12V19H5V12H19zM19 10H5V6H19V10zM6 9H10V7H6V9zM14 9H18V7H14V9z" />
    <glyph glyph-name="calculator-fill"
      unicode="&#xEABD;"
      horiz-adv-x="24" d="M4 22H20A1 1 0 0 0 21 21V3A1 1 0 0 0 20 2H4A1 1 0 0 0 3 3V21A1 1 0 0 0 4 22zM7 12V10H9V12H7zM7 8V6H9V8H7zM11 12V10H13V12H11zM11 8V6H13V8H11zM15 12V6H17V12H15zM7 18V14H17V18H7z" />
    <glyph glyph-name="calculator-line"
      unicode="&#xEABE;"
      horiz-adv-x="24" d="M4 22H20A1 1 0 0 0 21 21V3A1 1 0 0 0 20 2H4A1 1 0 0 0 3 3V21A1 1 0 0 0 4 22zM5 20V4H19V20H5zM7 18H17V14H7V18zM7 12H9V10H7V12zM7 8H9V6H7V8zM11 12H13V10H11V12zM11 8H13V6H11V8zM15 12H17V6H15V12z" />
    <glyph glyph-name="calendar-2-fill"
      unicode="&#xEABF;"
      horiz-adv-x="24" d="M17 21H21A1 1 0 0 0 22 20V4A1 1 0 0 0 21 3H3A1 1 0 0 0 2 4V20A1 1 0 0 0 3 21H7V23H9V21H15V23H17V21zM4 15V5H20V15H4zM6 13H8V11H6V13zM11 13H13V11H11V13zM16 13H18V11H16V13z" />
    <glyph glyph-name="calendar-2-line"
      unicode="&#xEAC0;"
      horiz-adv-x="24" d="M17 21H21A1 1 0 0 0 22 20V4A1 1 0 0 0 21 3H3A1 1 0 0 0 2 4V20A1 1 0 0 0 3 21H7V23H9V21H15V23H17V21zM20 13H4V5H20V13zM15 19H9V17H7V19H4V15H20V19H17V17H15V19zM6 11H8V9H6V11zM11 11H13V9H11V11zM16 11H18V9H16V11z" />
    <glyph glyph-name="calendar-event-fill"
      unicode="&#xEAC1;"
      horiz-adv-x="24" d="M17 21H21A1 1 0 0 0 22 20V4A1 1 0 0 0 21 3H3A1 1 0 0 0 2 4V20A1 1 0 0 0 3 21H7V23H9V21H15V23H17V21zM4 15V5H20V15H4zM6 11H11V7H6V11z" />
    <glyph glyph-name="calendar-event-line"
      unicode="&#xEAC2;"
      horiz-adv-x="24" d="M17 21H21A1 1 0 0 0 22 20V4A1 1 0 0 0 21 3H3A1 1 0 0 0 2 4V20A1 1 0 0 0 3 21H7V23H9V21H15V23H17V21zM20 15V19H17V17H15V19H9V17H7V19H4V15H20zM20 13H4V5H20V13zM6 11H11V7H6V11z" />
    <glyph glyph-name="calendar-fill"
      unicode="&#xEAC3;"
      horiz-adv-x="24" d="M2 13H22V4A1 1 0 0 0 21 3H3A1 1 0 0 0 2 4V13zM17 21H21A1 1 0 0 0 22 20V15H2V20A1 1 0 0 0 3 21H7V23H9V21H15V23H17V21z" />
    <glyph glyph-name="calendar-line"
      unicode="&#xEAC4;"
      horiz-adv-x="24" d="M17 21H21A1 1 0 0 0 22 20V4A1 1 0 0 0 21 3H3A1 1 0 0 0 2 4V20A1 1 0 0 0 3 21H7V23H9V21H15V23H17V21zM15 19H9V17H7V19H4V15H20V19H17V17H15V19zM20 13H4V5H20V13z" />
    <glyph glyph-name="calendar-todo-fill"
      unicode="&#xEAC5;"
      horiz-adv-x="24" d="M17 21H21A1 1 0 0 0 22 20V4A1 1 0 0 0 21 3H3A1 1 0 0 0 2 4V20A1 1 0 0 0 3 21H7V23H9V21H15V23H17V21zM4 15V5H20V15H4zM6 13H8V11H6V13zM6 9H8V7H6V9zM10 13H18V11H10V13zM10 9H15V7H10V9z" />
    <glyph glyph-name="calendar-todo-line"
      unicode="&#xEAC6;"
      horiz-adv-x="24" d="M17 21H21A1 1 0 0 0 22 20V4A1 1 0 0 0 21 3H3A1 1 0 0 0 2 4V20A1 1 0 0 0 3 21H7V23H9V21H15V23H17V21zM15 19H9V17H7V19H4V15H20V19H17V17H15V19zM20 13H4V5H20V13zM6 10H8V8H6V10zM10 10H18V8H10V10z" />
    <glyph glyph-name="camera-2-fill"
      unicode="&#xEAC7;"
      horiz-adv-x="24" d="M2 20.007A1 1 0 0 0 2.992 21H21.008C21.556 21 22 20.555 22 20.007V3.993A1 1 0 0 0 21.008 3H2.992A0.993 0.993 0 0 0 2 3.993V20.007zM12 9A3 3 0 1 0 12 15A3 3 0 0 0 12 9zM12 7A5 5 0 1 1 12 17A5 5 0 0 1 12 7zM18 19V17H20V19H18z" />
    <glyph glyph-name="camera-2-line"
      unicode="&#xEAC8;"
      horiz-adv-x="24" d="M2 20.007A1 1 0 0 0 2.992 21H21.008C21.556 21 22 20.555 22 20.007V3.993A1 1 0 0 0 21.008 3H2.992A0.993 0.993 0 0 0 2 3.993V20.007zM4 19V5H20V19H4zM12 9A3 3 0 1 1 12 15A3 3 0 0 1 12 9zM12 7A5 5 0 1 0 12 17A5 5 0 0 0 12 7zM17 18H19V16H17V18z" />
    <glyph glyph-name="camera-3-fill"
      unicode="&#xEAC9;"
      horiz-adv-x="24" d="M2 18C2 18.552 2.455 19 2.992 19H21.008C21.556 19 22 18.555 22 18V4C22 3.448 21.545 3 21.008 3H2.992A0.9940000000000001 0.9940000000000001 0 0 0 2 4V18zM14 6A5 5 0 1 1 14 16A5 5 0 0 1 14 6zM4 17V15H7V17H4zM4 22H10V20H4V22z" />
    <glyph glyph-name="camera-3-line"
      unicode="&#xEACA;"
      horiz-adv-x="24" d="M2 18C2 18.552 2.455 19 2.992 19H21.008C21.556 19 22 18.555 22 18V4C22 3.448 21.545 3 21.008 3H2.992A0.9940000000000001 0.9940000000000001 0 0 0 2 4V18zM4 17V5H20V17H4zM14 8A3 3 0 1 1 14 14A3 3 0 0 1 14 8zM14 6A5 5 0 1 0 14 16A5 5 0 0 0 14 6zM4 22H10V20H4V22z" />
    <glyph glyph-name="camera-fill"
      unicode="&#xEACB;"
      horiz-adv-x="24" d="M9 21H15L17 19H21A1 1 0 0 0 22 18V4A1 1 0 0 0 21 3H3A1 1 0 0 0 2 4V18A1 1 0 0 0 3 19H7L9 21zM12 5A6 6 0 1 1 12 17A6 6 0 0 1 12 5zM12 7A4 4 0 1 0 12 15A4 4 0 0 0 12 7z" />
    <glyph glyph-name="camera-lens-fill"
      unicode="&#xEACC;"
      horiz-adv-x="24" d="M9.827 2.237L14.31 10L17.842 3.883A9.955 9.955 0 0 0 12 2C11.254 2 10.527 2.082 9.827 2.237zM7.89 2.88A10.028 10.028 0 0 0 2.458 9H11.423L7.89 2.881zM2.05 11A9.964 9.964 0 0 0 4.633 18.761L9.112 11H2.05zM6.159 20.117A9.955 9.955 0 0 0 12 22C12.746 22 13.473 21.918 14.173 21.763L9.69 14L6.159 20.117zM16.11 21.12A10.028 10.028 0 0 0 21.542 15H12.577L16.11 21.119zM21.95 13A9.964 9.964 0 0 0 19.367 5.239L14.888 13H21.952z" />
    <glyph glyph-name="camera-lens-line"
      unicode="&#xEACD;"
      horiz-adv-x="24" d="M9.858 4.29L12 8H5.07A8.018 8.018 0 0 1 9.858 4.29zM4.252 10H8.536L5.07 16.001A7.963 7.963 0 0 1 4 12C4 11.31 4.088 10.64 4.252 10zM6.395 17.708L8.535 14L12 20A7.974 7.974 0 0 1 6.395 17.708zM14.142 19.71L12 16H18.93A8.018 8.018 0 0 1 14.142 19.71zM19.748 14H15.464L18.929 7.999A7.963 7.963 0 0 1 20 12C20 12.69 19.912 13.36 19.748 14zM17.605 6.292L15.465 10L12 4A7.974 7.974 0 0 1 17.605 6.292zM12 2C6.477 2 2 6.477 2 12S6.477 22 12 22S22 17.523 22 12S17.523 2 12 2zM13.155 14H10.845L9.691 12L10.845 10H13.155L14.309 12L13.155 14z" />
    <glyph glyph-name="camera-line"
      unicode="&#xEACE;"
      horiz-adv-x="24" d="M9.828 19L7.828 17H4V5H20V17H16.172L14.172 19H9.828zM9 21H15L17 19H21A1 1 0 0 0 22 18V4A1 1 0 0 0 21 3H3A1 1 0 0 0 2 4V18A1 1 0 0 0 3 19H7L9 21zM12 6A5.5 5.5 0 1 0 12 17A5.5 5.5 0 0 0 12 6zM12 8A3.5 3.5 0 1 1 12 15A3.5 3.5 0 0 1 12 8z" />
    <glyph glyph-name="camera-off-fill"
      unicode="&#xEACF;"
      horiz-adv-x="24" d="M19.586 3H3A1 1 0 0 0 2 4V18A1 1 0 0 0 3 19H3.586L1.393 21.192L2.808 22.607L22.607 2.807L21.192 1.393L19.586 3zM7.556 15.03A6 6 0 0 1 16.031 6.555L14.614 7.972A4 4 0 0 0 8.972 13.614L7.555 15.03zM22 6.215L17.955 10.26A6 6 0 0 1 11.26 16.955L8.106 20.108L9 21H15L17 19H21A1 1 0 0 0 22 18V6.214zM13.508 14.707A4.013 4.013 0 0 0 15.706 12.509L13.508 14.707z" />
    <glyph glyph-name="camera-off-line"
      unicode="&#xEAD0;"
      horiz-adv-x="24" d="M19.586 3H3A1 1 0 0 0 2 4V18A1 1 0 0 0 3 19H3.586L1.393 21.192L2.808 22.607L22.607 2.807L21.192 1.393L19.586 3zM5.586 17H4V5H17.586L15.406 7.18A5.5 5.5 0 0 0 7.68 14.906L5.586 17zM9.11 13.475A3.5 3.5 0 0 1 13.975 8.61L9.11 13.475zM22 6.215L20 8.215V17H16.172L14.172 19H9.828L9.521 18.693L8.107 20.107L9 21H15L17 19H21A1 1 0 0 0 22 18V6.214zM11.263 16.95A5.5 5.5 0 0 0 17.451 10.762L15.113 13.1A3.5149999999999997 3.5149999999999997 0 0 1 13.601 14.612L11.263 16.95z" />
    <glyph glyph-name="camera-switch-fill"
      unicode="&#xEAD1;"
      horiz-adv-x="24" d="M9 21H15L17 19H21A1 1 0 0 0 22 18V4A1 1 0 0 0 21 3H3A1 1 0 0 0 2 4V18A1 1 0 0 0 3 19H7L9 21zM14.684 5.632L13.789 7.422A4 4 0 0 0 8 11H10.001L7.839 15.323A6 6 0 0 1 14.684 5.633zM9.316 16.368L10.211 14.578A4 4 0 0 0 16 11H13.999L16.16 6.677A6 6 0 0 1 9.315 16.367z" />
    <glyph glyph-name="camera-switch-line"
      unicode="&#xEAD2;"
      horiz-adv-x="24" d="M9.828 19L7.828 17H4V5H20V17H16.172L14.172 19H9.828zM9 21H15L17 19H21A1 1 0 0 0 22 18V4A1 1 0 0 0 21 3H3A1 1 0 0 0 2 4V18A1 1 0 0 0 3 19H7L9 21zM9.64 16.47A5.5 5.5 0 0 0 15.827 7.55L13.75 11.4H15.499L15.5 11.5A3.5 3.5 0 0 1 10.572 14.696L9.64 16.47zM14.317 6.51A5.5 5.5 0 0 0 8.137 15.415L10.25 11.5H8.5A3.5 3.5 0 0 1 13.386 8.285L14.317 6.511z" />
    <glyph glyph-name="car-fill"
      unicode="&#xEAD3;"
      horiz-adv-x="24" d="M19 4H5V3A1 1 0 0 0 4 2H3A1 1 0 0 0 2 3V12L4.513 18.702A2 2 0 0 0 6.386 20H17.614A2 2 0 0 0 19.487 18.702L22 12V3A1 1 0 0 0 21 2H20A1 1 0 0 0 19 3V4zM4.136 12H19.864L17.614 18H6.386L4.136 12zM6.5 7A1.5 1.5 0 1 1 6.5 10A1.5 1.5 0 0 1 6.5 7zM17.5 7A1.5 1.5 0 1 1 17.5 10A1.5 1.5 0 0 1 17.5 7z" />
    <glyph glyph-name="car-line"
      unicode="&#xEAD4;"
      horiz-adv-x="24" d="M19 4H5V3A1 1 0 0 0 4 2H3A1 1 0 0 0 2 3V13L4.48 18.788A2 2 0 0 0 6.32 20H17.68A2 2 0 0 0 19.518 18.788L22 13V3A1 1 0 0 0 21 2H20A1 1 0 0 0 19 3V4zM20 11H4V6H20V11zM4.176 13H19.824L17.681 18H6.32L4.177 13zM6.5 7A1.5 1.5 0 1 0 6.5 10A1.5 1.5 0 0 0 6.5 7zM17.5 7A1.5 1.5 0 1 0 17.5 10A1.5 1.5 0 0 0 17.5 7z" />
    <glyph glyph-name="car-washing-fill"
      unicode="&#xEAD5;"
      horiz-adv-x="24" d="M19 3H5V2A1 1 0 0 0 4 1H3A1 1 0 0 0 2 2V11L4.417 15.029A2 2 0 0 0 6.132 16H17.868A2 2 0 0 0 19.583 15.029L22 11V2A1 1 0 0 0 21 1H20A1 1 0 0 0 19 2V3zM4.332 11H19.668L17.868 14H6.132L4.332 11zM6.5 6A1.5 1.5 0 1 1 6.5 9A1.5 1.5 0 0 1 6.5 6zM17.5 6A1.5 1.5 0 1 1 17.5 9A1.5 1.5 0 0 1 17.5 6zM5.44 20.56L6.5 21.622L7.56 20.562A1.5 1.5 0 1 0 5.439 20.562zM10.94 20.56L12 21.622L13.06 20.562A1.5 1.5 0 1 0 10.939 20.562zM16.44 20.56L17.5 21.621L18.56 20.561A1.5 1.5 0 1 0 16.439 20.561z" />
    <glyph glyph-name="car-washing-line"
      unicode="&#xEAD6;"
      horiz-adv-x="24" d="M19 3H5V2A1 1 0 0 0 4 1H3A1 1 0 0 0 2 2V12L4.417 16.029A2 2 0 0 0 6.132 17H17.868A2 2 0 0 0 19.583 16.029L22 12V2A1 1 0 0 0 21 1H20A1 1 0 0 0 19 2V3zM20 10H4V5H20V10zM4.332 12H19.668L17.868 15H6.132L4.332 12zM5.44 20.56L6.5 21.622L7.56 20.562A1.5 1.5 0 1 0 5.439 20.562zM10.94 20.56L12 21.622L13.06 20.562A1.5 1.5 0 1 0 10.939 20.562zM16.44 20.56L17.5 21.622L18.56 20.562A1.5 1.5 0 1 0 16.439 20.562zM6.5 6A1.5 1.5 0 1 0 6.5 9A1.5 1.5 0 0 0 6.5 6zM17.5 6A1.5 1.5 0 1 0 17.5 9A1.5 1.5 0 0 0 17.5 6z" />
    <glyph glyph-name="cast-fill"
      unicode="&#xEAD7;"
      horiz-adv-x="24" d="M3 21H21A1 1 0 0 0 22 20V4A1 1 0 0 0 21 3H15A13.1 13.1 0 0 1 14.847 5H20V19H4V15.847A13.1 13.1 0 0 1 2 16V20A1 1 0 0 0 3 21zM13 3H11A9 9 0 0 1 2 12V14C8.075 14 13 9.075 13 3zM9 3H7A5 5 0 0 1 2 8V10A7 7 0 0 0 9 3zM5 3H2V6A3 3 0 0 0 5 3zM14.373 7A13.032 13.032 0 0 1 6 15.373V17H18V7H14.373z" />
    <glyph glyph-name="cast-line"
      unicode="&#xEAD8;"
      horiz-adv-x="24" d="M3 21H21A1 1 0 0 0 22 20V4A1 1 0 0 0 21 3H15A13.1 13.1 0 0 1 14.847 5H20V19H4V15.847A13.1 13.1 0 0 1 2 16V20A1 1 0 0 0 3 21zM13 3H11A9 9 0 0 1 2 12V14C8.075 14 13 9.075 13 3zM9 3H7A5 5 0 0 1 2 8V10A7 7 0 0 0 9 3zM5 3H2V6A3 3 0 0 0 5 3z" />
    <glyph glyph-name="cellphone-fill"
      unicode="&#xEAD9;"
      horiz-adv-x="24" d="M7 22H18A1 1 0 0 0 19 21V3A1 1 0 0 0 18 2H6A1 1 0 0 0 5 3V24H7V22zM7 20V15H17V20H7z" />
    <glyph glyph-name="cellphone-line"
      unicode="&#xEADA;"
      horiz-adv-x="24" d="M7 22H18A1 1 0 0 0 19 21V3A1 1 0 0 0 18 2H6A1 1 0 0 0 5 3V24H7V22zM7 15H17V20H7V15zM7 13V4H17V13H7z" />
    <glyph glyph-name="charging-pile-fill"
      unicode="&#xEADB;"
      horiz-adv-x="24" d="M3 5V20A1 1 0 0 0 4 21H13A1 1 0 0 0 14 20V12H16A2 2 0 0 0 18 10V6A1 1 0 0 1 20 6V13H18A1 1 0 0 0 17 14V17.586L15.343 19.243L16.757 20.657L21.707 15.707A0.997 0.997 0 0 0 22 15V6A3 3 0 0 0 16 6V10H14V5H15V3H2V5H3zM9 13V17L5 11H8V7L12 13H9z" />
    <glyph glyph-name="charging-pile-line"
      unicode="&#xEADC;"
      horiz-adv-x="24" d="M14 5H15V3H2V5H3V20A1 1 0 0 0 4 21H13A1 1 0 0 0 14 20V12H16A2 2 0 0 0 18 10V6A1 1 0 0 1 20 6V13H18A1 1 0 0 0 17 14V17.586L15.343 19.243L16.757 20.657L21.707 15.707A0.997 0.997 0 0 0 22 15V6A3 3 0 0 0 16 6V10H14V5zM5 5H12V19H5V5zM9 13H12L8 7V11H5L9 17V13z" />
    <glyph glyph-name="chat-1-fill"
      unicode="&#xEADD;"
      horiz-adv-x="24" d="M10 21H14A8 8 0 1 0 14 5V1.5C9 3.5 2 6.5 2 13A8 8 0 0 0 10 21z" />
    <glyph glyph-name="chat-1-line"
      unicode="&#xEADE;"
      horiz-adv-x="24" d="M10 21H14A8 8 0 1 0 14 5V1.5C9 3.5 2 6.5 2 13A8 8 0 0 0 10 21zM12 7H14A6 6 0 1 1 14 19H10A6 6 0 0 1 4 13C4 9.39 6.462 7.034 12 4.52V7z" />
    <glyph glyph-name="chat-2-fill"
      unicode="&#xEADF;"
      horiz-adv-x="24" d="M14.45 5L12 1.5L9.55 5H3A1 1 0 0 0 2 6V20A1 1 0 0 0 3 21H21A1 1 0 0 0 22 20V6A1 1 0 0 0 21 5H14.45z" />
    <glyph glyph-name="chat-2-line"
      unicode="&#xEAE0;"
      horiz-adv-x="24" d="M14.45 5L12 1.5L9.55 5H3A1 1 0 0 0 2 6V20A1 1 0 0 0 3 21H21A1 1 0 0 0 22 20V6A1 1 0 0 0 21 5H14.45zM13.409 7H20V19H4V7H10.591L12 4.988L13.409 7z" />
    <glyph glyph-name="chat-3-fill"
      unicode="&#xEAE1;"
      horiz-adv-x="24" d="M7.291 3.176L2 2L3.176 7.291A9.956 9.956 0 0 0 2 12C2 17.523 6.477 22 12 22S22 17.523 22 12S17.523 2 12 2A9.956 9.956 0 0 0 7.291 3.176z" />
    <glyph glyph-name="chat-3-line"
      unicode="&#xEAE2;"
      horiz-adv-x="24" d="M7.291 3.176L2 2L3.176 7.291A9.956 9.956 0 0 0 2 12C2 17.523 6.477 22 12 22S22 17.523 22 12S17.523 2 12 2A9.956 9.956 0 0 0 7.291 3.176zM7.581 5.289L8.234 4.939A7.955 7.955 0 0 1 12 4A8 8 0 1 1 4 12C4 10.666 4.325 9.382 4.94 8.234L5.289 7.581L4.634 4.634L7.581 5.289z" />
    <glyph glyph-name="chat-4-fill"
      unicode="&#xEAE3;"
      horiz-adv-x="24" d="M6.455 5L2 1.5V20A1 1 0 0 0 3 21H21A1 1 0 0 0 22 20V6A1 1 0 0 0 21 5H6.455z" />
    <glyph glyph-name="chat-4-line"
      unicode="&#xEAE4;"
      horiz-adv-x="24" d="M5.763 7H20V19H4V5.615L5.763 7zM6.455 5L2 1.5V20A1 1 0 0 0 3 21H21A1 1 0 0 0 22 20V6A1 1 0 0 0 21 5H6.455z" />
    <glyph glyph-name="chat-check-fill"
      unicode="&#xEAE5;"
      horiz-adv-x="24" d="M6.455 5L2 1.5V20A1 1 0 0 0 3 21H21A1 1 0 0 0 22 20V6A1 1 0 0 0 21 5H6.455zM11.293 11.879L8.818 14.354L7.404 12.939L11.293 9.05L16.95 14.707L15.536 16.121L11.293 11.879z" />
    <glyph glyph-name="chat-check-line"
      unicode="&#xEAE6;"
      horiz-adv-x="24" d="M6.455 5L2 1.5V20A1 1 0 0 0 3 21H21A1 1 0 0 0 22 20V6A1 1 0 0 0 21 5H6.455zM5.763 7H20V19H4V5.615L5.763 7zM11.293 11.879L15.536 16.121L16.95 14.707L11.293 9.05L7.403 12.94L8.818 14.354L11.293 11.879z" />
    <glyph glyph-name="chat-delete-fill"
      unicode="&#xEAE7;"
      horiz-adv-x="24" d="M6.455 5L2 1.5V20A1 1 0 0 0 3 21H21A1 1 0 0 0 22 20V6A1 1 0 0 0 21 5H6.455zM13.415 13L15.889 15.475L14.475 16.889L12 14.414L9.525 16.89L8.111 15.475L10.586 13L8.11 10.525L9.524 9.111L12 11.586L14.475 9.111L15.889 10.525L13.414 13z" />
    <glyph glyph-name="chat-delete-line"
      unicode="&#xEAE8;"
      horiz-adv-x="24" d="M6.455 5L2 1.5V20A1 1 0 0 0 3 21H21A1 1 0 0 0 22 20V6A1 1 0 0 0 21 5H6.455zM4 5.615L5.763 7H20V19H4V5.615zM13.414 13L15.889 10.525L14.475 9.111L12 11.586L9.525 9.11L8.111 10.524L10.586 13L8.11 15.475L9.524 16.889L12 14.414L14.475 16.889L15.889 15.475L13.414 13z" />
    <glyph glyph-name="chat-download-fill"
      unicode="&#xEAE9;"
      horiz-adv-x="24" d="M6.455 5L2 1.5V20A1 1 0 0 0 3 21H21A1 1 0 0 0 22 20V6A1 1 0 0 0 21 5H6.455zM13 13V17H11V13H8L12 9L16 13H13z" />
    <glyph glyph-name="chat-download-line"
      unicode="&#xEAEA;"
      horiz-adv-x="24" d="M6.455 5L2 1.5V20A1 1 0 0 0 3 21H21A1 1 0 0 0 22 20V6A1 1 0 0 0 21 5H6.455zM4 5.615L5.763 7H20V19H4V5.615zM13 13H16L12 9L8 13H11V17H13V13z" />
    <glyph glyph-name="chat-forward-fill"
      unicode="&#xEAEB;"
      horiz-adv-x="24" d="M6.455 5L2 1.5V20A1 1 0 0 0 3 21H21A1 1 0 0 0 22 20V6A1 1 0 0 0 21 5H6.455zM12 14H8V12H12V9L16 13L12 17V14z" />
    <glyph glyph-name="chat-forward-line"
      unicode="&#xEAEC;"
      horiz-adv-x="24" d="M6.455 5L2 1.5V20A1 1 0 0 0 3 21H21A1 1 0 0 0 22 20V6A1 1 0 0 0 21 5H6.455zM4 5.615L5.763 7H20V19H4V5.615zM12 14V17L16 13L12 9V12H8V14H12z" />
    <glyph glyph-name="chat-new-fill"
      unicode="&#xEAED;"
      horiz-adv-x="24" d="M6.455 5L2 1.5V20A1 1 0 0 0 3 21H21A1 1 0 0 0 22 20V6A1 1 0 0 0 21 5H6.455zM11 14H8V12H11V9H13V12H16V14H13V17H11V14z" />
    <glyph glyph-name="chat-new-line"
      unicode="&#xEAEE;"
      horiz-adv-x="24" d="M14 21V19H4V5.615L5.763 7H20V14H22V6A1 1 0 0 0 21 5H6.455L2 1.5V20A1 1 0 0 0 3 21H14zM19 21V24H21V21H24V19H21V16H19V19H16V21H19z" />
    <glyph glyph-name="chat-settings-fill"
      unicode="&#xEAEF;"
      horiz-adv-x="24" d="M6.455 5L2 1.5V20A1 1 0 0 0 3 21H21A1 1 0 0 0 22 20V6A1 1 0 0 0 21 5H6.455zM8.145 11.929L7.17 11.366L8.17 9.634L9.146 10.197C9.647 9.687 10.286 9.31 11 9.126V8H13V9.126A3.9959999999999996 3.9959999999999996 0 0 1 14.854 10.197L15.83 9.634L16.83 11.366L15.855 11.929A4.004 4.004 0 0 1 15.855 14.071L16.83 14.634L15.83 16.366L14.854 15.803A3.9959999999999996 3.9959999999999996 0 0 1 13 16.874V18H11V16.874A3.9959999999999996 3.9959999999999996 0 0 1 9.146 15.803L8.17 16.366L7.17 14.634L8.145 14.071A4.004 4.004 0 0 1 8.145 11.929zM12 11A2 2 0 1 0 12 15A2 2 0 0 0 12 11z" />
    <glyph glyph-name="chat-settings-line"
      unicode="&#xEAF0;"
      horiz-adv-x="24" d="M22 12H20V19H4V5.615L5.763 7H12V5H6.455L2 1.5V20A1 1 0 0 0 3 21H21A1 1 0 0 0 22 20V12zM14.145 4.929A4.004 4.004 0 0 0 14.145 7.071L13.17 7.634L14.17 9.366L15.146 8.803A3.9959999999999996 3.9959999999999996 0 0 0 17 9.874V11H19V9.874C19.715 9.69 20.353 9.314 20.854 8.803L21.83 9.366L22.83 7.634L21.855 7.071A4.004 4.004 0 0 0 21.855 4.929L22.83 4.366L21.83 2.634L20.854 3.197C20.353 2.687 19.714 2.31 19 2.126V1H17V2.126A3.9959999999999996 3.9959999999999996 0 0 0 15.146 3.197L14.17 2.634L13.17 4.366L14.145 4.929zM18 4A2 2 0 1 1 18 8A2 2 0 0 1 18 4z" />
    <glyph glyph-name="chat-smile-2-fill"
      unicode="&#xEAF1;"
      horiz-adv-x="24" d="M7.291 3.176L2 2L3.176 7.291A9.956 9.956 0 0 0 2 12C2 17.523 6.477 22 12 22S22 17.523 22 12S17.523 2 12 2A9.956 9.956 0 0 0 7.291 3.176zM7 12A5 5 0 0 1 17 12H15A3 3 0 0 0 9 12H7z" />
    <glyph glyph-name="chat-smile-2-line"
      unicode="&#xEAF2;"
      horiz-adv-x="24" d="M7.291 3.176L2 2L3.176 7.291A9.956 9.956 0 0 0 2 12C2 17.523 6.477 22 12 22S22 17.523 22 12S17.523 2 12 2A9.956 9.956 0 0 0 7.291 3.176zM7.581 5.289L8.234 4.939A7.955 7.955 0 0 1 12 4A8 8 0 1 1 4 12C4 10.666 4.325 9.382 4.94 8.234L5.289 7.581L4.634 4.634L7.581 5.289zM7 12H9A3 3 0 0 1 15 12H17A5 5 0 0 0 7 12z" />
    <glyph glyph-name="chat-smile-3-fill"
      unicode="&#xEAF3;"
      horiz-adv-x="24" d="M4.929 4.929A9.969 9.969 0 0 0 2 12C2 17.523 6.477 22 12 22S22 17.523 22 12S17.523 2 12 2H2L4.929 4.929zM8 11A4 4 0 1 1 16 11H8z" />
    <glyph glyph-name="chat-smile-3-line"
      unicode="&#xEAF4;"
      horiz-adv-x="24" d="M2 12C2 17.523 6.477 22 12 22S22 17.523 22 12S17.523 2 12 2H2L4.929 4.929A9.969 9.969 0 0 0 2 12zM6.828 4H12A8 8 0 1 1 4 12C4 9.848 4.851 7.835 6.343 6.343L7.757 4.929L6.828 4zM8 11H16A4 4 0 1 0 8 11z" />
    <glyph glyph-name="chat-smile-fill"
      unicode="&#xEAF5;"
      horiz-adv-x="24" d="M6.455 5L2 1.5V20A1 1 0 0 0 3 21H21A1 1 0 0 0 22 20V6A1 1 0 0 0 21 5H6.455zM7 14A5 5 0 0 1 17 14H15A3 3 0 0 0 9 14H7z" />
    <glyph glyph-name="chat-smile-line"
      unicode="&#xEAF6;"
      horiz-adv-x="24" d="M6.455 5L2 1.5V20A1 1 0 0 0 3 21H21A1 1 0 0 0 22 20V6A1 1 0 0 0 21 5H6.455zM5.763 7H20V19H4V5.615L5.763 7zM7 14H9A3 3 0 0 1 15 14H17A5 5 0 0 0 7 14z" />
    <glyph glyph-name="chat-upload-fill"
      unicode="&#xEAF7;"
      horiz-adv-x="24" d="M6.455 5L2 1.5V20A1 1 0 0 0 3 21H21A1 1 0 0 0 22 20V6A1 1 0 0 0 21 5H6.455zM13 13H16L12 17L8 13H11V9H13V13z" />
    <glyph glyph-name="chat-upload-line"
      unicode="&#xEAF8;"
      horiz-adv-x="24" d="M6.455 5L2 1.5V20A1 1 0 0 0 3 21H21A1 1 0 0 0 22 20V6A1 1 0 0 0 21 5H6.455zM4 5.615L5.763 7H20V19H4V5.615zM13 13V9H11V13H8L12 17L16 13H13z" />
    <glyph glyph-name="check-fill"
      unicode="&#xEAF9;"
      horiz-adv-x="24" d="M10 8.828L19.192 18.021L20.607 16.607L10 6L3.636 12.364L5.05 13.778z" />
    <glyph glyph-name="check-line"
      unicode="&#xEAFA;"
      horiz-adv-x="24" d="M10 8.828L19.192 18.021L20.607 16.607L10 6L3.636 12.364L5.05 13.778z" />
    <glyph glyph-name="checkbox-blank-circle-fill"
      unicode="&#xEAFB;"
      horiz-adv-x="24" d="M2 12A10 10 0 0 1 22 12A10 10 0 0 1 2 12" />
    <glyph glyph-name="checkbox-blank-circle-line"
      unicode="&#xEAFC;"
      horiz-adv-x="24" d="M12 2C6.477 2 2 6.477 2 12S6.477 22 12 22S22 17.523 22 12S17.523 2 12 2zM12 4A8 8 0 1 1 12 20A8 8 0 0 1 12 4z" />
    <glyph glyph-name="checkbox-blank-fill"
      unicode="&#xEAFD;"
      horiz-adv-x="24" d="M4 21H20A1 1 0 0 0 21 20V4A1 1 0 0 0 20 3H4A1 1 0 0 0 3 4V20A1 1 0 0 0 4 21z" />
    <glyph glyph-name="checkbox-blank-line"
      unicode="&#xEAFE;"
      horiz-adv-x="24" d="M4 21H20A1 1 0 0 0 21 20V4A1 1 0 0 0 20 3H4A1 1 0 0 0 3 4V20A1 1 0 0 0 4 21zM5 19V5H19V19H5z" />
    <glyph glyph-name="checkbox-circle-fill"
      unicode="&#xEAFF;"
      horiz-adv-x="24" d="M12 2C6.477 2 2 6.477 2 12S6.477 22 12 22S22 17.523 22 12S17.523 2 12 2zM11.003 8L18.073 15.071L16.659 16.485L11.003 10.828L8.174 13.657L6.76 12.243L11.003 8z" />
    <glyph glyph-name="checkbox-circle-line"
      unicode="&#xEB00;"
      horiz-adv-x="24" d="M12 2C6.477 2 2 6.477 2 12S6.477 22 12 22S22 17.523 22 12S17.523 2 12 2zM12 4A8 8 0 1 1 12 20A8 8 0 0 1 12 4zM11.003 8L6.76 12.243L8.174 13.657L11.003 10.828L16.659 16.485L18.074 15.071L11.003 8z" />
    <glyph glyph-name="checkbox-fill"
      unicode="&#xEB01;"
      horiz-adv-x="24" d="M4 21H20A1 1 0 0 0 21 20V4A1 1 0 0 0 20 3H4A1 1 0 0 0 3 4V20A1 1 0 0 0 4 21zM11.003 8L18.073 15.071L16.659 16.485L11.003 10.828L8.174 13.657L6.76 12.243L11.003 8z" />
    <glyph glyph-name="checkbox-indeterminate-fill"
      unicode="&#xEB02;"
      horiz-adv-x="24" d="M4 21H20A1 1 0 0 0 21 20V4A1 1 0 0 0 20 3H4A1 1 0 0 0 3 4V20A1 1 0 0 0 4 21zM7 13V11H17V13H7z" />
    <glyph glyph-name="checkbox-indeterminate-line"
      unicode="&#xEB03;"
      horiz-adv-x="24" d="M4 21H20A1 1 0 0 0 21 20V4A1 1 0 0 0 20 3H4A1 1 0 0 0 3 4V20A1 1 0 0 0 4 21zM5 19V5H19V19H5zM7 13H17V11H7V13z" />
    <glyph glyph-name="checkbox-line"
      unicode="&#xEB04;"
      horiz-adv-x="24" d="M4 21H20A1 1 0 0 0 21 20V4A1 1 0 0 0 20 3H4A1 1 0 0 0 3 4V20A1 1 0 0 0 4 21zM5 19V5H19V19H5zM11.003 8L6.76 12.243L8.174 13.657L11.003 10.828L16.659 16.485L18.074 15.071L11.003 8z" />
    <glyph glyph-name="china-railway-fill"
      unicode="&#xEB05;"
      horiz-adv-x="24" d="M11 5V11L9 12V15H15V12L13 11V5L18 4V2H6V4L11 5zM10 21.777V23H14V21.777A9.003 9.003 0 0 0 16.993 5.511L15.883 7.175A7 7 0 1 1 8.116 7.175L7.007 5.511A9.003 9.003 0 0 0 10 21.777z" />
    <glyph glyph-name="china-railway-line"
      unicode="&#xEB06;"
      horiz-adv-x="24" d="M11 4V11H9V14H15V11H13V4H18V2H6V4H11zM10 21.777V23H14V21.777A9.003 9.003 0 0 0 16.993 5.511L15.883 7.175A7 7 0 1 1 8.116 7.175L7.007 5.511A9.003 9.003 0 0 0 10 21.777z" />
    <glyph glyph-name="clapperboard-fill"
      unicode="&#xEB07;"
      horiz-adv-x="24" d="M17.998 17L20.308 21H21.008C21.556 21 22 20.555 22 20.007V3.993A1 1 0 0 0 21.008 3H2.992A0.993 0.993 0 0 0 2 3.993V20.007A1 1 0 0 0 2.992 21H5.998L3.688 17H5.998L8.308 21H11.998L9.688 17H11.998L14.308 21H17.998L15.688 17H17.998z" />
    <glyph glyph-name="clapperboard-line"
      unicode="&#xEB08;"
      horiz-adv-x="24" d="M5.998 17L8.308 21H11.998L9.688 17H5.998zM11.998 17L14.308 21H17.998L15.688 17H11.998zM17.998 17L20.308 21H21.008C21.556 21 22 20.555 22 20.007V3.993A1 1 0 0 0 21.008 3H2.992A0.993 0.993 0 0 0 2 3.993V20.007A1 1 0 0 0 2.992 21H5.998L4 17.54V5H20V17H17.998z" />
    <glyph glyph-name="clipboard-fill"
      unicode="&#xEB09;"
      horiz-adv-x="24" d="M6 20V16H18V20H20.007C20.555 20 21 19.555 21 19.007V2.993A0.9940000000000001 0.9940000000000001 0 0 0 20.007 2H3.993A0.9940000000000001 0.9940000000000001 0 0 0 3 2.993V19.007C3 19.555 3.445 20 3.993 20H6zM8 22H16V18H8V22z" />
    <glyph glyph-name="clipboard-line"
      unicode="&#xEB0A;"
      horiz-adv-x="24" d="M7 20V22H17V20H20.007C20.555 20 21 19.555 21 19.007V2.993A0.9940000000000001 0.9940000000000001 0 0 0 20.007 2H3.993A0.9940000000000001 0.9940000000000001 0 0 0 3 2.993V19.007C3 19.555 3.445 20 3.993 20H7zM7 18H5V4H19V18H17V16H7V18zM9 20V18H15V20H9z" />
    <glyph glyph-name="close-circle-fill"
      unicode="&#xEB0B;"
      horiz-adv-x="24" d="M12 2C6.477 2 2 6.477 2 12S6.477 22 12 22S22 17.523 22 12S17.523 2 12 2zM12 13.414L9.172 16.243L7.757 14.828L10.586 12L7.757 9.172L9.172 7.757L12 10.586L14.828 7.757L16.243 9.172L13.414 12L16.243 14.828L14.828 16.243L12 13.414z" />
    <glyph glyph-name="close-circle-line"
      unicode="&#xEB0C;"
      horiz-adv-x="24" d="M12 2C6.477 2 2 6.477 2 12S6.477 22 12 22S22 17.523 22 12S17.523 2 12 2zM12 4A8 8 0 1 1 12 20A8 8 0 0 1 12 4zM12 13.414L14.828 16.243L16.243 14.828L13.414 12L16.243 9.172L14.828 7.757L12 10.586L9.172 7.757L7.757 9.172L10.586 12L7.757 14.828L9.172 16.243L12 13.414z" />
    <glyph glyph-name="close-fill"
      unicode="&#xEB0D;"
      horiz-adv-x="24" d="M12 13.414L16.95 18.364L18.364 16.95L13.414 12L18.364 7.05L16.95 5.636L12 10.586L7.05 5.636L5.636 7.05L10.586 12L5.636 16.95L7.05 18.364z" />
    <glyph glyph-name="close-line"
      unicode="&#xEB0E;"
      horiz-adv-x="24" d="M12 13.414L16.95 18.364L18.364 16.95L13.414 12L18.364 7.05L16.95 5.636L12 10.586L7.05 5.636L5.636 7.05L10.586 12L5.636 16.95L7.05 18.364z" />
    <glyph glyph-name="cloud-fill"
      unicode="&#xEB0F;"
      horiz-adv-x="24" d="M17 17A8.003 8.003 0 0 1 9.507 11.81L11.381 11.107A6.002 6.002 0 0 0 23 9A6 6 0 0 0 17 3H7A6 6 0 0 0 5.008 14.661A7 7 0 0 0 18.765 16.804A8.027 8.027 0 0 1 17 17z" />
    <glyph glyph-name="cloud-line"
      unicode="&#xEB10;"
      horiz-adv-x="24" d="M17 3H7A6 6 0 0 0 5.008 14.661A7 7 0 1 0 18.992 14.661A6 6 0 0 0 17 3zM17 15A5 5 0 1 1 7.006 14.757L7.076 13.269L5.672 12.775A4.002 4.002 0 0 1 7 5H17A4 4 0 1 1 13.204 10.265L11.306 10.898A6.003 6.003 0 0 0 17 15z" />
    <glyph glyph-name="code-fill"
      unicode="&#xEB11;"
      horiz-adv-x="24" d="M23 12L15.929 4.929L14.515 6.343L20.172 12L14.515 17.657L15.929 19.071L23 12zM3.828 12L9.485 6.343L8.071 4.929L1 12L8.071 19.071L9.485 17.657L3.828 12z" />
    <glyph glyph-name="code-line"
      unicode="&#xEB12;"
      horiz-adv-x="24" d="M23 12L15.929 4.929L14.515 6.343L20.172 12L14.515 17.657L15.929 19.071L23 12zM3.828 12L9.485 6.343L8.071 4.929L1 12L8.071 19.071L9.485 17.657L3.828 12z" />
    <glyph glyph-name="code-view"
      unicode="&#xEB13;"
      horiz-adv-x="24" d="M16.95 15.536L18.364 16.95L23.314 12L18.364 7.05L16.95 8.464L20.485 12L16.95 15.536zM7.05 15.536L3.515 12L7.05 8.464L5.636 7.05L0.686 12L5.636 16.95L7.05 15.536z" />
    <glyph glyph-name="compass-2-fill"
      unicode="&#xEB14;"
      horiz-adv-x="24" d="M18.328 19.742L10.586 12L12 10.586L19.742 18.328A9.957 9.957 0 0 0 22 12C22 6.48 17.52 2 12 2S2 6.48 2 12S6.48 22 12 22C14.4 22 16.604 21.153 18.328 19.742z" />
    <glyph glyph-name="compass-2-line"
      unicode="&#xEB15;"
      horiz-adv-x="24" d="M16.625 20.867L15.125 19.367A7.98 7.98 0 0 1 12 20C7.58 20 4 16.42 4 12S7.58 4 12 4S20 7.58 20 12A7.98 7.98 0 0 1 19.367 15.125L20.867 16.625A9.951000000000002 9.951000000000002 0 0 0 22 12C22 6.48 17.52 2 12 2S2 6.48 2 12S6.48 22 12 22C13.668 22 15.241 21.59 16.625 20.867zM18.364 19.778L19.778 18.364L12 10.586L10.586 12L18.364 19.778z" />
    <glyph glyph-name="compass-3-fill"
      unicode="&#xEB16;"
      horiz-adv-x="24" d="M12 2C6.477 2 2 6.477 2 12S6.477 22 12 22S22 17.523 22 12S17.523 2 12 2zM16.5 16.5L10 14L7.5 7.5L14 10L16.5 16.5zM12 11A1 1 0 1 0 12 13A1 1 0 0 0 12 11z" />
    <glyph glyph-name="compass-3-line"
      unicode="&#xEB17;"
      horiz-adv-x="24" d="M12 2C6.477 2 2 6.477 2 12S6.477 22 12 22S22 17.523 22 12S17.523 2 12 2zM12 4A8 8 0 1 1 12 20A8 8 0 0 1 12 4zM16.5 16.5L14 10L7.5 7.5L10 14L16.5 16.5zM12 11A1 1 0 1 1 12 13A1 1 0 0 1 12 11z" />
    <glyph glyph-name="compass-4-fill"
      unicode="&#xEB18;"
      horiz-adv-x="24" d="M12 2C6.477 2 2 6.477 2 12S6.477 22 12 22S22 17.523 22 12S17.523 2 12 2zM15.446 14.032A4.02 4.02 0 0 1 14.032 15.446L8.554 9.968A4.02 4.02 0 0 1 9.968 8.554L15.446 14.032z" />
    <glyph glyph-name="compass-4-line"
      unicode="&#xEB19;"
      horiz-adv-x="24" d="M12 2C6.477 2 2 6.477 2 12S6.477 22 12 22S22 17.523 22 12S17.523 2 12 2zM12 4A8 8 0 1 1 12 20A8 8 0 0 1 12 4zM15.446 14.032L9.968 8.554A4.02 4.02 0 0 0 8.554 9.968L14.032 15.446A4.02 4.02 0 0 0 15.446 14.032z" />
    <glyph glyph-name="compass-discover-fill"
      unicode="&#xEB1A;"
      horiz-adv-x="24" d="M13 2C7.477 2 3 6.477 3 12S7.477 22 13 22S23 17.523 23 12S18.523 2 13 2zM8 12.5L12 11L13.5 6.998L17 16L8 12.5z" />
    <glyph glyph-name="compass-discover-line"
      unicode="&#xEB1B;"
      horiz-adv-x="24" d="M12 2C6.477 2 2 6.477 2 12S6.477 22 12 22S22 17.523 22 12S17.523 2 12 2zM12 4A8 8 0 1 1 12 20A8 8 0 0 1 12 4zM7 12.5L16 16L12.5 6.998L11 11L7 12.5z" />
    <glyph glyph-name="compass-fill"
      unicode="&#xEB1C;"
      horiz-adv-x="24" d="M12 2C6.477 2 2 6.477 2 12S6.477 22 12 22S22 17.523 22 12S17.523 2 12 2zM15.5 15.5L10.5 13.5L8.5 8.5L13.5 10.5L15.5 15.5z" />
    <glyph glyph-name="compass-line"
      unicode="&#xEB1D;"
      horiz-adv-x="24" d="M12 2C6.477 2 2 6.477 2 12S6.477 22 12 22S22 17.523 22 12S17.523 2 12 2zM12 4A8 8 0 1 1 12 20A8 8 0 0 1 12 4zM15.5 15.5L13.5 10.5L8.5 8.5L10.5 13.5L15.5 15.5z" />
    <glyph glyph-name="compasses-2-fill"
      unicode="&#xEB1E;"
      horiz-adv-x="24" d="M16.33 10.5A6.988 6.988 0 0 1 19 16H21A8.987 8.987 0 0 0 17.338 8.754L19.866 4.376A2 2 0 0 0 19.134 1.644L15.607 7.752A8.97 8.97 0 0 0 12 7A8.97 8.97 0 0 0 8.393 7.752L4.866 1.644A2 2 0 0 0 4.134 4.376L9.197 13.146A4.002 4.002 0 0 0 11 19.874V22H13V19.874A4.002 4.002 0 0 0 14.803 13.146L16.33 10.5zM14.6 9.498L13.072 12.145A4.004 4.004 0 0 0 10.93 12.145L9.402 9.498C10.206 9.177 11.082 9 12.001 9C12.919 9 13.796 9.177 14.6 9.498zM12 15A1 1 0 1 1 12 17A1 1 0 0 1 12 15z" />
    <glyph glyph-name="compasses-2-line"
      unicode="&#xEB1F;"
      horiz-adv-x="24" d="M16.33 10.5A6.988 6.988 0 0 1 19 16H21A8.987 8.987 0 0 0 17.338 8.754L19.866 4.376A2 2 0 0 0 19.134 1.644L15.607 7.752A8.97 8.97 0 0 0 12 7A8.97 8.97 0 0 0 8.393 7.752L4.866 1.644A2 2 0 0 0 4.134 4.376L9.197 13.146A4.002 4.002 0 0 0 11 19.874V22H13V19.874A4.002 4.002 0 0 0 14.803 13.146L16.33 10.5zM14.6 9.498L13.072 12.145A4.004 4.004 0 0 0 10.93 12.145L9.402 9.498C10.206 9.177 11.082 9 12.001 9C12.919 9 13.796 9.177 14.6 9.498zM12 14A2 2 0 1 1 12 18A2 2 0 0 1 12 14z" />
    <glyph glyph-name="compasses-fill"
      unicode="&#xEB20;"
      horiz-adv-x="24" d="M11 19.874V22H13V19.874A4.002 4.002 0 0 0 14.803 13.146L20.866 2.644L19.134 1.644L13.071 12.145A4.004 4.004 0 0 0 10.929 12.145L4.866 1.644L3.134 2.644L9.197 13.146A4.002 4.002 0 0 0 11 19.874zM12 15A1 1 0 1 1 12 17A1 1 0 0 1 12 15z" />
    <glyph glyph-name="compasses-line"
      unicode="&#xEB21;"
      horiz-adv-x="24" d="M11 19.874V22H13V19.874A4.002 4.002 0 0 0 14.803 13.146L20.866 2.644L19.134 1.644L13.071 12.145A4.004 4.004 0 0 0 10.929 12.145L4.866 1.644L3.134 2.644L9.197 13.146A4.002 4.002 0 0 0 11 19.874zM12 14A2 2 0 1 1 12 18A2 2 0 0 1 12 14z" />
    <glyph glyph-name="computer-fill"
      unicode="&#xEB22;"
      horiz-adv-x="24" d="M13 6V4H17V2H7V4H11V6H2.992A0.9980000000000001 0.9980000000000001 0 0 0 2 7.007V19.993C2 20.549 2.455 21 2.992 21H21.008C21.556 21 22 20.551 22 19.993V7.007C22 6.451 21.545 6 21.008 6H13z" />
    <glyph glyph-name="computer-line"
      unicode="&#xEB23;"
      horiz-adv-x="24" d="M4 8H20V19H4V8zM13 6V4H17V2H7V4H11V6H2.992A0.9980000000000001 0.9980000000000001 0 0 0 2 7.007V19.993C2 20.549 2.455 21 2.992 21H21.008C21.556 21 22 20.551 22 19.993V7.007C22 6.451 21.545 6 21.008 6H13z" />
    <glyph glyph-name="contact-fill"
      unicode="&#xEB24;"
      horiz-adv-x="24" d="M2 2A8 8 0 1 0 18 2H2zM10 11C6.685 11 4 13.685 4 17S6.685 23 10 23S16 20.315 16 17S13.315 11 10 11zM20 7H24V5H20V7zM17 12H24V10H17V12zM19 17H24V15H19V17z" />
    <glyph glyph-name="contacts-book-2-fill"
      unicode="&#xEB25;"
      horiz-adv-x="24" d="M20 2H6A3 3 0 0 0 3 5V19A3 3 0 0 0 6 22H20A1 1 0 0 0 21 21V3A1 1 0 0 0 20 2zM19 4V6H6A1 1 0 0 1 6 4H19zM12 14A2 2 0 1 1 12 18A2 2 0 0 1 12 14zM9 10H15A3 3 0 0 1 9 10z" />
    <glyph glyph-name="contacts-book-2-line"
      unicode="&#xEB26;"
      horiz-adv-x="24" d="M20 2H6A3 3 0 0 0 3 5V19A3 3 0 0 0 6 22H20A1 1 0 0 0 21 21V3A1 1 0 0 0 20 2zM19 4V6H6A1 1 0 0 1 6 4H19zM5 7.83C5.313 7.94 5.65 8 6 8H19V20H6A1 1 0 0 1 5 19V7.83zM12 14A2 2 0 1 0 12 18A2 2 0 0 0 12 14zM9 10A3 3 0 0 0 15 10H9z" />
    <glyph glyph-name="contacts-book-fill"
      unicode="&#xEB27;"
      horiz-adv-x="24" d="M7 22V2H3V22H7zM9 22H19.005C20.107 22 21 21.102 21 20.01V3.99C21 2.891 20.107 2 19.005 2H9V22zM22 18H24V14H22V18zM22 12H24V8H22V12zM15 12A2 2 0 1 1 15 16A2 2 0 0 1 15 12zM12 8H18A3 3 0 0 1 12 8z" />
    <glyph glyph-name="contacts-book-line"
      unicode="&#xEB28;"
      horiz-adv-x="24" d="M3 22H19.005C20.107 22 21 21.102 21 20.01V3.99C21 2.891 20.107 2 19.005 2H3V22zM7 20H5V4H7V20zM9 4H19V20H9V4zM11 8A3 3 0 0 0 17 8H11zM14 12A2 2 0 1 0 14 16A2 2 0 0 0 14 12zM22 18H24V14H22V18zM22 12H24V8H22V12z" />
    <glyph glyph-name="contacts-line"
      unicode="&#xEB29;"
      horiz-adv-x="24" d="M19 17H24V15H19V17zM17 12H24V10H17V12zM20 7H24V5H20V7zM2 2A8 8 0 1 0 18 2H16A6 6 0 1 1 4 2H2zM10 11C6.685 11 4 13.685 4 17S6.685 23 10 23S16 20.315 16 17S13.315 11 10 11zM10 13C12.21 13 14 14.79 14 17S12.21 21 10 21S6 19.21 6 17S7.79 13 10 13z" />
    <glyph glyph-name="contrast-2-fill"
      unicode="&#xEB2A;"
      horiz-adv-x="24" d="M12 2C6.477 2 2 6.477 2 12S6.477 22 12 22S22 17.523 22 12S17.523 2 12 2zM5.329 7.575A8 8 0 1 1 16.425 18.672A8.997 8.997 0 0 0 14.121 9.879A8.997 8.997 0 0 0 5.329 7.575z" />
    <glyph glyph-name="contrast-2-line"
      unicode="&#xEB2B;"
      horiz-adv-x="24" d="M12 2C6.477 2 2 6.477 2 12S6.477 22 12 22S22 17.523 22 12S17.523 2 12 2zM12 4A8 8 0 1 1 12 20A8 8 0 0 1 12 4zM7 8.68A8.965 8.965 0 0 1 12.707 11.293A8.965 8.965 0 0 1 15.32 17A6 6 0 1 0 7 8.68z" />
    <glyph glyph-name="contrast-drop-2-fill"
      unicode="&#xEB2C;"
      horiz-adv-x="24" d="M5.636 17.364L12 23.728L18.364 17.364A9 9 0 1 0 5.636 17.364zM12 20.899L7.05 15.95A6.978 6.978 0 0 1 5 11H19A6.978 6.978 0 0 1 16.95 15.95L12 20.9z" />
    <glyph glyph-name="contrast-drop-2-line"
      unicode="&#xEB2D;"
      horiz-adv-x="24" d="M12 20.9L7.05 15.95A7 7 0 1 1 16.95 15.95L12 20.9zM12 23.728L18.364 17.364A9 9 0 1 0 5.636 17.364L12 23.728zM7 11H17A5 5 0 0 0 7 11z" />
    <glyph glyph-name="contrast-drop-fill"
      unicode="&#xEB2E;"
      horiz-adv-x="24" d="M5.636 17.364L12 23.728L18.364 17.364A9 9 0 1 0 5.636 17.364zM7.05 15.95L12 20.9L12.004 4A7 7 0 0 0 7.05 15.95z" />
    <glyph glyph-name="contrast-drop-line"
      unicode="&#xEB2F;"
      horiz-adv-x="24" d="M12 20.9L7.05 15.95A7 7 0 1 1 16.95 15.95L12 20.9zM12 23.728L18.364 17.364A9 9 0 1 0 5.636 17.364L12 23.728zM12 6V16A5 5 0 0 0 12 6z" />
    <glyph glyph-name="contrast-fill"
      unicode="&#xEB30;"
      horiz-adv-x="24" d="M12 2C6.477 2 2 6.477 2 12S6.477 22 12 22S22 17.523 22 12S17.523 2 12 2zM12 4V20A8 8 0 1 1 12 4z" />
    <glyph glyph-name="contrast-line"
      unicode="&#xEB31;"
      horiz-adv-x="24" d="M12 2C6.477 2 2 6.477 2 12S6.477 22 12 22S22 17.523 22 12S17.523 2 12 2zM12 4A8 8 0 1 1 12 20A8 8 0 0 1 12 4zM12 6V18A6 6 0 1 0 12 6z" />
    <glyph glyph-name="copper-coin-fill"
      unicode="&#xEB32;"
      horiz-adv-x="24" d="M12 2C6.477 2 2 6.477 2 12S6.477 22 12 22S22 17.523 22 12S17.523 2 12 2zM12 16.243L7.757 12L12 7.757L16.243 12L12 16.243z" />
    <glyph glyph-name="copper-coin-line"
      unicode="&#xEB33;"
      horiz-adv-x="24" d="M12 2C6.477 2 2 6.477 2 12S6.477 22 12 22S22 17.523 22 12S17.523 2 12 2zM12 4A8 8 0 1 1 12 20A8 8 0 0 1 12 4zM12 16.95L16.95 12L12 7.05L7.05 12L12 16.95zM12 14.121L9.879 12L12 9.879L14.121 12L12 14.121z" />
    <glyph glyph-name="copper-diamond-fill"
      unicode="&#xEB34;"
      horiz-adv-x="24" d="M12 2C6.477 2 2 6.477 2 12S6.477 22 12 22S22 17.523 22 12S17.523 2 12 2zM9.5 15L7 12.5L12 7.5L17 12.5L14.5 15H9.5z" />
    <glyph glyph-name="copper-diamond-line"
      unicode="&#xEB35;"
      horiz-adv-x="24" d="M12 2C6.477 2 2 6.477 2 12S6.477 22 12 22S22 17.523 22 12S17.523 2 12 2zM12 4A8 8 0 1 1 12 20A8 8 0 0 1 12 4zM9 16H15L17.5 12.5L12 7L6.5 12.5L9 16zM10.03 14L9.11 12.71L12 9.82L14.89 12.71L13.97 14H10.03z" />
    <glyph glyph-name="coupon-2-fill"
      unicode="&#xEB36;"
      horiz-adv-x="24" d="M14 21V3H3A1 1 0 0 0 2 4V9.5A2.5 2.5 0 1 1 2 14.5V20A1 1 0 0 0 3 21H14zM16 21H21A1 1 0 0 0 22 20V14.5A2.5 2.5 0 1 1 22 9.5V4A1 1 0 0 0 21 3H16V21z" />
    <glyph glyph-name="coupon-2-line"
      unicode="&#xEB37;"
      horiz-adv-x="24" d="M2 14.5V20A1 1 0 0 0 3 21H21A1 1 0 0 0 22 20V14.5A2.5 2.5 0 1 1 22 9.5V4A1 1 0 0 0 21 3H3A1 1 0 0 0 2 4V9.5A2.5 2.5 0 1 1 2 14.5zM14 19H4V16.032A4.5 4.5 0 0 0 4 7.968V5H14V19zM16 19V5H20V7.968A4.5 4.5 0 0 0 20 16.032V19H16z" />
    <glyph glyph-name="coupon-3-fill"
      unicode="&#xEB38;"
      horiz-adv-x="24" d="M11 3A1.5 1.5 0 0 1 8 3H3A1 1 0 0 0 2 4V20A1 1 0 0 0 3 21H8A1.5 1.5 0 0 1 11 21H21A1 1 0 0 0 22 20V14.5A2.5 2.5 0 1 1 22 9.5V4A1 1 0 0 0 21 3H11zM9.5 13.5A1.5 1.5 0 1 1 9.5 16.5A1.5 1.5 0 0 1 9.5 13.5zM9.5 7.5A1.5 1.5 0 1 1 9.5 10.5A1.5 1.5 0 0 1 9.5 7.5z" />
    <glyph glyph-name="coupon-3-line"
      unicode="&#xEB39;"
      horiz-adv-x="24" d="M2 20A1 1 0 0 0 3 21H21A1 1 0 0 0 22 20V14.5A2.5 2.5 0 1 1 22 9.5V4A1 1 0 0 0 21 3H3A1 1 0 0 0 2 4V20zM8.085 5A1.5 1.5 0 0 0 10.915 5H20V7.968A4.5 4.5 0 0 0 20 16.032V19H10.915A1.5 1.5 0 0 0 8.085 19H4V5H8.085zM9.5 13A1.5 1.5 0 1 0 9.5 16A1.5 1.5 0 0 0 9.5 13zM9.5 8A1.5 1.5 0 1 0 9.5 11A1.5 1.5 0 0 0 9.5 8z" />
    <glyph glyph-name="coupon-4-fill"
      unicode="&#xEB3A;"
      horiz-adv-x="24" d="M10 3H3A1 1 0 0 0 2 4V20A1 1 0 0 0 3 21H10A2 2 0 1 1 14 21H21A1 1 0 0 0 22 20V4A1 1 0 0 0 21 3H14A2 2 0 1 1 10 3zM6 16V8H8V16H6zM16 16V8H18V16H16z" />
    <glyph glyph-name="coupon-4-line"
      unicode="&#xEB3B;"
      horiz-adv-x="24" d="M10 3H3A1 1 0 0 0 2 4V20A1 1 0 0 0 3 21H10A2 2 0 1 1 14 21H21A1 1 0 0 0 22 20V4A1 1 0 0 0 21 3H14A2 2 0 1 1 10 3zM8.535 5A3.9980000000000007 3.9980000000000007 0 0 0 12 7C13.48 7 14.773 6.196 15.465 5H20V19H15.465A3.9980000000000007 3.9980000000000007 0 0 0 12 17A3.9980000000000007 3.9980000000000007 0 0 0 8.535 19H4V5H8.535zM6 16H8V8H6V16zM16 16H18V8H16V16z" />
    <glyph glyph-name="coupon-5-fill"
      unicode="&#xEB3C;"
      horiz-adv-x="24" d="M21 10V3A1 1 0 0 0 20 2H4A1 1 0 0 0 3 3V10A2 2 0 1 1 3 14V21A1 1 0 0 0 4 22H20A1 1 0 0 0 21 21V14A2 2 0 1 1 21 10zM9 18V16H15V18H9zM9 8V6H15V8H9z" />
    <glyph glyph-name="coupon-5-line"
      unicode="&#xEB3D;"
      horiz-adv-x="24" d="M21 10V3A1 1 0 0 0 20 2H4A1 1 0 0 0 3 3V10A2 2 0 1 1 3 14V21A1 1 0 0 0 4 22H20A1 1 0 0 0 21 21V14A2 2 0 1 1 21 10zM19 8.535A3.9980000000000007 3.9980000000000007 0 0 0 17 12C17 13.48 17.804 14.773 19 15.465V20H5V15.465C6.196 14.773 7 13.48 7 12C7 10.52 6.196 9.227 5 8.535V4H19V8.535zM9 18H15V16H9V18zM9 8H15V6H9V8z" />
    <glyph glyph-name="coupon-fill"
      unicode="&#xEB3E;"
      horiz-adv-x="24" d="M2 14.5V20A1 1 0 0 0 3 21H21A1 1 0 0 0 22 20V14.5A2.5 2.5 0 1 1 22 9.5V4A1 1 0 0 0 21 3H3A1 1 0 0 0 2 4V9.5A2.5 2.5 0 1 1 2 14.5zM9 15V13H15V15H9zM9 11V9H15V11H9z" />
    <glyph glyph-name="coupon-line"
      unicode="&#xEB3F;"
      horiz-adv-x="24" d="M2 14.5V20A1 1 0 0 0 3 21H21A1 1 0 0 0 22 20V14.5A2.5 2.5 0 1 1 22 9.5V4A1 1 0 0 0 21 3H3A1 1 0 0 0 2 4V9.5A2.5 2.5 0 1 1 2 14.5zM4 16.032A4.5 4.5 0 0 0 4 7.968V5H20V7.968A4.5 4.5 0 0 0 20 16.032V19H4V16.032zM9 15H15V13H9V15zM9 11H15V9H9V11z" />
    <glyph glyph-name="cpu-fill"
      unicode="&#xEB40;"
      horiz-adv-x="24" d="M14 4H10V2H8V4H5A1 1 0 0 0 4 5V8H2V10H4V14H2V16H4V19A1 1 0 0 0 5 20H8V22H10V20H14V22H16V20H19A1 1 0 0 0 20 19V16H22V14H20V10H22V8H20V5A1 1 0 0 0 19 4H16V2H14V4zM7 17V13H11V17H7z" />
    <glyph glyph-name="cpu-line"
      unicode="&#xEB41;"
      horiz-adv-x="24" d="M6 6H18V18H6V6zM14 4H10V2H8V4H5A1 1 0 0 0 4 5V8H2V10H4V14H2V16H4V19A1 1 0 0 0 5 20H8V22H10V20H14V22H16V20H19A1 1 0 0 0 20 19V16H22V14H20V10H22V8H20V5A1 1 0 0 0 19 4H16V2H14V4zM8 16H16V8H8V16z" />
    <glyph glyph-name="crop-2-fill"
      unicode="&#xEB42;"
      horiz-adv-x="24" d="M17.586 19L20.142 21.556L21.556 20.142L19 17.586V7H22V5H19V2H17V17H9V19H17.586zM15 7V5H6A1 1 0 0 0 5 6V17H2V19H5V22H7V7H15zM9 15H15V9H9V15z" />
    <glyph glyph-name="crop-2-line"
      unicode="&#xEB43;"
      horiz-adv-x="24" d="M8.414 7H15V5H6A1 1 0 0 0 5 6V17H2V19H5V22H7V8.414L15.586 17H9V19H17.586L20.142 21.556L21.556 20.142L19 17.586V7H22V5H19V2H17V15.586L8.414 7z" />
    <glyph glyph-name="crop-fill"
      unicode="&#xEB44;"
      horiz-adv-x="24" d="M19 7H22V5H19V2H17V5H6A1 1 0 0 0 5 6V17H2V19H5V22H7V19H18A1 1 0 0 0 19 18V7z" />
    <glyph glyph-name="crop-line"
      unicode="&#xEB45;"
      horiz-adv-x="24" d="M15 7V5H6A1 1 0 0 0 5 6V17H2V19H5V22H7V7H15zM17 2V17H9V19H18A1 1 0 0 0 19 18V7H22V5H19V2H17z" />
    <glyph glyph-name="cup-fill"
      unicode="&#xEB46;"
      horiz-adv-x="24" d="M5 21H20A2 2 0 0 0 22 19V16A2 2 0 0 0 20 14H18V11A4 4 0 0 0 14 7H8A4 4 0 0 0 4 11V20A1 1 0 0 0 5 21zM18 19V16H20V19H18zM2 5H20V3H2V5z" />
    <glyph glyph-name="cup-line"
      unicode="&#xEB47;"
      horiz-adv-x="24" d="M16 11V19H6V11A2 2 0 0 1 8 9H14A2 2 0 0 1 16 11zM5 21H20A2 2 0 0 0 22 19V16A2 2 0 0 0 20 14H18V11A4 4 0 0 0 14 7H8A4 4 0 0 0 4 11V20A1 1 0 0 0 5 21zM18 19V16H20V19H18zM2 5H20V3H2V5z" />
    <glyph glyph-name="customer-service-2-fill"
      unicode="&#xEB48;"
      horiz-adv-x="24" d="M21 16A2 2 0 0 0 23 14V10A2 2 0 0 0 21 8H19.938A8.001 8.001 0 0 0 12 1V3A6 6 0 0 1 18 9V15A6 6 0 1 1 6 15V8H3A2 2 0 0 0 1 10V14A2 2 0 0 0 3 16H4.062A8.001 8.001 0 0 0 19.938 16H21zM7.76 8.215L8.82 9.911A5.972 5.972 0 0 1 12 9A5.972 5.972 0 0 1 15.18 9.911L16.24 8.215A7.963 7.963 0 0 0 12 7A7.963 7.963 0 0 0 7.76 8.215z" />
    <glyph glyph-name="customer-service-2-line"
      unicode="&#xEB49;"
      horiz-adv-x="24" d="M19.938 16H21A2 2 0 0 0 23 14V10A2 2 0 0 0 21 8H19.938A8.001 8.001 0 0 0 12 1V3A6 6 0 0 1 18 9V15A6 6 0 1 1 6 15V8H3A2 2 0 0 0 1 10V14A2 2 0 0 0 3 16H4.062A8.001 8.001 0 0 0 19.938 16zM3 14V10H4V14H3zM20 14V10H21V14H20zM7.76 8.215L8.82 9.911A5.972 5.972 0 0 1 12 9A5.972 5.972 0 0 1 15.18 9.911L16.24 8.215A7.963 7.963 0 0 0 12 7A7.963 7.963 0 0 0 7.76 8.215z" />
    <glyph glyph-name="customer-service-fill"
      unicode="&#xEB4A;"
      horiz-adv-x="24" d="M22 6.998A6.002 6.002 0 0 0 17.287 1.138L16.649 3.052A4.003 4.003 0 0 1 19.465 5H17A2 2 0 0 0 15 7V11A2 2 0 0 0 17 13H19.938A8.001 8.001 0 0 1 4.062 13H7A2 2 0 0 0 9 11V7A2 2 0 0 0 7 5H4A2 2 0 0 0 2 7V12C2 17.523 6.477 22 12 22S22 17.523 22 12V6.998z" />
    <glyph glyph-name="customer-service-line"
      unicode="&#xEB4B;"
      horiz-adv-x="24" d="M22 6.998A6.002 6.002 0 0 0 17.287 1.138L16.649 3.052A4.003 4.003 0 0 1 19.465 5H17A2 2 0 0 0 15 7V11A2 2 0 0 0 17 13H19.938A8.001 8.001 0 0 1 4.062 13H7A2 2 0 0 0 9 11V7A2 2 0 0 0 7 5H4A2 2 0 0 0 2 7V12C2 17.523 6.477 22 12 22S22 17.523 22 12V6.998zM20 7V11H17V7H20zM4 11V7H7V11H4z" />
    <glyph glyph-name="dashboard-fill"
      unicode="&#xEB4C;"
      horiz-adv-x="24" d="M3 11H11V21H3V11zM3 3H11V9H3V3zM13 3H21V13H13V3zM13 21V15H21V21H13z" />
    <glyph glyph-name="dashboard-line"
      unicode="&#xEB4D;"
      horiz-adv-x="24" d="M13 3V13H21V3H13zM3 11V21H11V11H3zM9 13V19H5V13H9zM3 3V9H11V3H3zM5 5H9V7H5V5zM15 5H19V11H15V5zM13 21H21V15H13V21zM15 19V17H19V19H15z" />
    <glyph glyph-name="database-fill"
      unicode="&#xEB4E;"
      horiz-adv-x="24" d="M11 17V20A1 1 0 0 0 12 21H21A1 1 0 0 0 22 20V4A1 1 0 0 0 21 3H3A1 1 0 0 0 2 4V16A1 1 0 0 0 3 17H11zM5 8V6H10V8H5zM14 8V6H19V8H14zM14 11V9H19V11H14zM14 14V12H19V14H14zM5 11V9H10V11H5z" />
    <glyph glyph-name="database-line"
      unicode="&#xEB4F;"
      horiz-adv-x="24" d="M11 5V15H4V5H11zM11 17V20A1 1 0 0 0 12 21H21A1 1 0 0 0 22 20V4A1 1 0 0 0 21 3H3A1 1 0 0 0 2 4V16A1 1 0 0 0 3 17H11zM13 19V5H20V19H13zM5 8H10V6H5V8zM14 8H19V6H14V8zM14 11H19V9H14V11zM14 14H19V12H14V14zM5 11H10V9H5V11z" />
    <glyph glyph-name="delete-back-2-fill"
      unicode="&#xEB50;"
      horiz-adv-x="24" d="M6.535 21H21A1 1 0 0 0 22 20V4A1 1 0 0 0 21 3H6.535A1 1 0 0 0 5.703 3.445L0.37 11.445A1 1 0 0 0 0.37 12.555L5.703 20.555A1 1 0 0 0 6.535 21zM13 13.414L10.172 16.243L8.757 14.828L11.586 12L8.757 9.172L10.172 7.757L13 10.586L15.828 7.757L17.243 9.172L14.414 12L17.243 14.828L15.828 16.243L13 13.414z" />
    <glyph glyph-name="delete-back-2-line"
      unicode="&#xEB51;"
      horiz-adv-x="24" d="M6.535 21H21A1 1 0 0 0 22 20V4A1 1 0 0 0 21 3H6.535A1 1 0 0 0 5.703 3.445L0.37 11.445A1 1 0 0 0 0.37 12.555L5.703 20.555A1 1 0 0 0 6.535 21zM7.07 19L2.404 12L7.07 5H20V19H7.07zM13 13.414L15.828 16.243L17.243 14.828L14.414 12L17.243 9.172L15.828 7.757L13 10.586L10.172 7.757L8.757 9.172L11.586 12L8.757 14.828L10.172 16.243L13 13.414z" />
    <glyph glyph-name="delete-back-fill"
      unicode="&#xEB52;"
      horiz-adv-x="24" d="M6.535 21H21A1 1 0 0 0 22 20V4A1 1 0 0 0 21 3H6.535A1 1 0 0 0 5.703 3.445L0.37 11.445A1 1 0 0 0 0.37 12.555L5.703 20.555A1 1 0 0 0 6.535 21zM16 13H9V11H16V13z" />
    <glyph glyph-name="delete-back-line"
      unicode="&#xEB53;"
      horiz-adv-x="24" d="M6.535 21H21A1 1 0 0 0 22 20V4A1 1 0 0 0 21 3H6.535A1 1 0 0 0 5.703 3.445L0.37 11.445A1 1 0 0 0 0.37 12.555L5.703 20.555A1 1 0 0 0 6.535 21zM7.07 19L2.404 12L7.07 5H20V19H7.07zM16 13V11H9V13H16z" />
    <glyph glyph-name="delete-bin-2-fill"
      unicode="&#xEB54;"
      horiz-adv-x="24" d="M7 18V21A1 1 0 0 0 8 22H16A1 1 0 0 0 17 21V18H22V16H20V3A1 1 0 0 0 19 2H5A1 1 0 0 0 4 3V16H2V18H7zM13.414 10L15.182 11.768L13.768 13.182L12 11.414L10.232 13.182L8.818 11.768L10.586 10L8.818 8.232L10.232 6.818L12 8.586L13.768 6.818L15.182 8.232L13.414 10zM9 20V18H15V20H9z" />
    <glyph glyph-name="delete-bin-2-line"
      unicode="&#xEB55;"
      horiz-adv-x="24" d="M17 18H22V16H20V3A1 1 0 0 0 19 2H5A1 1 0 0 0 4 3V16H2V18H7V21A1 1 0 0 0 8 22H16A1 1 0 0 0 17 21V18zM18 16H6V4H18V16zM13.414 10L15.182 8.232L13.768 6.818L12 8.586L10.232 6.818L8.818 8.232L10.586 10L8.818 11.768L10.232 13.182L12 11.414L13.768 13.182L15.182 11.768L13.414 10zM9 20V18H15V20H9z" />
    <glyph glyph-name="delete-bin-3-fill"
      unicode="&#xEB56;"
      horiz-adv-x="24" d="M20 17V3A1 1 0 0 0 19 2H5A1 1 0 0 0 4 3V17H2V19H22V17H20zM11 15V13H13V15H11zM11 12V10H13V12H11zM11 9V7H13V9H11zM7 22H17V20H7V22z" />
    <glyph glyph-name="delete-bin-3-line"
      unicode="&#xEB57;"
      horiz-adv-x="24" d="M20 17V4A2 2 0 0 0 18 2H6A2 2 0 0 0 4 4V17H2V19H22V17H20zM6 17V4H18V17H6zM11 15H13V13H11V15zM11 12H13V10H11V12zM11 9H13V7H11V9zM7 22H17V20H7V22z" />
    <glyph glyph-name="delete-bin-4-fill"
      unicode="&#xEB58;"
      horiz-adv-x="24" d="M20 17V3A1 1 0 0 0 19 2H5A1 1 0 0 0 4 3V17H2V19H22V17H20zM11 14V7H13V14H11zM7 22H17V20H7V22z" />
    <glyph glyph-name="delete-bin-4-line"
      unicode="&#xEB59;"
      horiz-adv-x="24" d="M20 17V3A1 1 0 0 0 19 2H5A1 1 0 0 0 4 3V17H2V19H22V17H20zM6 17V4H18V17H6zM7 22H17V20H7V22zM11 14H13V7H11V14z" />
    <glyph glyph-name="delete-bin-5-fill"
      unicode="&#xEB5A;"
      horiz-adv-x="24" d="M4 16H20V3A1 1 0 0 0 19 2H5A1 1 0 0 0 4 3V16zM7 19V21A1 1 0 0 0 8 22H16A1 1 0 0 0 17 21V19H22V17H2V19H7zM9 20V19H15V20H9zM9 12V6H11V12H9zM13 12V6H15V12H13z" />
    <glyph glyph-name="delete-bin-5-line"
      unicode="&#xEB5B;"
      horiz-adv-x="24" d="M4 16H20V3A1 1 0 0 0 19 2H5A1 1 0 0 0 4 3V16zM6 14V4H18V14H6zM9 12H11V6H9V12zM13 12H15V6H13V12zM7 19V21A1 1 0 0 0 8 22H16A1 1 0 0 0 17 21V19H22V17H2V19H7zM9 20V19H15V20H9z" />
    <glyph glyph-name="delete-bin-6-fill"
      unicode="&#xEB5C;"
      horiz-adv-x="24" d="M17 20H22V18H20V3A1 1 0 0 0 19 2H5A1 1 0 0 0 4 3V18H2V20H7V22H17V20zM9 15V7H11V15H9zM13 15V7H15V15H13z" />
    <glyph glyph-name="delete-bin-6-line"
      unicode="&#xEB5D;"
      horiz-adv-x="24" d="M7 20V22H17V20H22V18H20V3A1 1 0 0 0 19 2H5A1 1 0 0 0 4 3V18H2V20H7zM6 18V4H18V18H6zM9 15H11V7H9V15zM13 15H15V7H13V15z" />
    <glyph glyph-name="delete-bin-7-fill"
      unicode="&#xEB5E;"
      horiz-adv-x="24" d="M7 18V21A1 1 0 0 0 8 22H16A1 1 0 0 0 17 21V18H22V16H20V3A1 1 0 0 0 19 2H5A1 1 0 0 0 4 3V16H2V18H7zM9 20V18H15V20H9z" />
    <glyph glyph-name="delete-bin-7-line"
      unicode="&#xEB5F;"
      horiz-adv-x="24" d="M17 18H22V16H20V3A1 1 0 0 0 19 2H5A1 1 0 0 0 4 3V16H2V18H7V21A1 1 0 0 0 8 22H16A1 1 0 0 0 17 21V18zM18 16H6V4H18V16zM9 20V18H15V20H9z" />
    </font>
</defs>
</svg>
