<svg xmlns="http://www.w3.org/2000/svg" viewBox="0 0 24 24">
    <g>
        <path fill="none" d="M0 0h24v24H0z"/>
        <path d="M4.044 3H7.58a.5.5 0 0 1 .498.45c.023.23.044.413.064.552a13.901 13.901 0 0 0 1.206 4c.095.2.033.44-.147.569l-2.99 2.135a14.053 14.053 0 0 0 7.083 7.082l2.133-2.986a.462.462 0 0 1 .574-.149 13.901 13.901 0 0 0 4.125 1.222 1 1 0 0 1 .874.992v3.09a1 1 0 0 1-.93.997c-.437.03-.794.046-1.07.046-8.837 0-16-7.163-16-16 0-.276.015-.633.046-1.07A1 1 0 0 1 4.044 3z"/>
    </g>
</svg>
