<svg viewBox="0 0 24 24" fill="currentColor" xmlns="http://www.w3.org/2000/svg"><path d="M12 1.99995C12.8632 1.99995 13.701 2.10972 14.5 2.31538L14 4.2519C13.3608 4.08738 12.6906 3.99995 12 3.99995C7.58174 3.99995 4.00002 7.5817 4 12C4 14.1523 4.85088 16.1653 6.34277 17.6572L7.75781 19.0713L6.82812 20H12C16.4183 20 20 16.4183 20 12C20 11.6769 19.9806 11.3579 19.9434 11.0449L21.9297 10.8095C21.976 11.1999 22 11.5971 22 12C22 17.5228 17.5228 22 12 22H2L4.92871 19.0713C3.11908 17.2616 2 14.7614 2 12C2.00002 6.47713 6.47717 1.99995 12 1.99995ZM16 13C16 15.2091 14.2091 17 12 17C9.79086 17 8 15.2091 8 13H16ZM19.5293 1.31928C19.7058 0.893498 20.2942 0.893484 20.4707 1.31928L20.7236 1.93061C21.1555 2.97341 21.9615 3.80612 22.9746 4.25679L23.6914 4.57612C24.1022 4.75881 24.1022 5.35633 23.6914 5.53902L22.9326 5.87691C21.945 6.31619 21.1534 7.11942 20.7139 8.12789L20.4668 8.69332C20.2863 9.10745 19.7136 9.10745 19.5332 8.69332L19.2861 8.12789C18.8466 7.11941 18.0551 6.31619 17.0674 5.87691L16.3076 5.53902C15.8974 5.35616 15.8974 4.75893 16.3076 4.57612L17.0254 4.25679C18.0384 3.80612 18.8445 2.97342 19.2764 1.93061L19.5293 1.31928Z"/></svg>