<svg viewBox="0 0 24 24" fill="currentColor" xmlns="http://www.w3.org/2000/svg"><path d="M12 1.99996C12.8632 1.99996 13.701 2.10973 14.5 2.31539L14 4.25192C13.3608 4.0874 12.6906 3.99997 12 3.99997C7.58174 3.99997 4.00002 7.58172 4 12C4 13.3344 4.3255 14.6174 4.93945 15.7656L5.28906 16.4189L4.63379 19.3662L7.58105 18.7109L8.23438 19.0605C9.38255 19.6745 10.6656 20 12 20C16.4183 20 20 16.4183 20 12C20 11.6771 19.9805 11.3587 19.9434 11.0459L21.9297 10.8095C21.976 11.1999 22 11.5972 22 12C22 17.5228 17.5228 22 12 22C10.2975 22 8.69425 21.5746 7.29102 20.8242L2 22L3.17578 16.709C2.42541 15.3057 2 13.7025 2 12C2.00002 6.47714 6.47717 1.99996 12 1.99996ZM19.5293 1.3193C19.7058 0.893513 20.2942 0.8935 20.4707 1.3193L20.7236 1.93063C21.1555 2.97343 21.9615 3.80614 22.9746 4.2568L23.6914 4.57614C24.1022 4.75882 24.1022 5.35635 23.6914 5.53903L22.9326 5.87692C21.945 6.3162 21.1534 7.11943 20.7139 8.1279L20.4668 8.69333C20.2863 9.10747 19.7136 9.10747 19.5332 8.69333L19.2861 8.1279C18.8466 7.11942 18.0551 6.3162 17.0674 5.87692L16.3076 5.53903C15.8974 5.35618 15.8974 4.75895 16.3076 4.57614L17.0254 4.2568C18.0384 3.80614 18.8445 2.97343 19.2764 1.93063L19.5293 1.3193Z"/></svg>