<svg viewBox="0 0 24 24" fill="currentColor" xmlns="http://www.w3.org/2000/svg"><path d="M18 3C20.2091 3 22 4.79086 22 7V17C22 19.2091 20.2091 21 18 21H6C3.79086 21 2 19.2091 2 17V7C2 4.79086 3.79086 3 6 3H18ZM6 5C4.89543 5 4 5.89543 4 7V17C4 18.1046 4.89543 19 6 19H18C19.1046 19 20 18.1046 20 17V7C20 5.89543 19.1046 5 18 5H6ZM11.4121 7.39941C11.6327 6.86708 12.3673 6.86706 12.5879 7.39941L12.9043 8.16309C13.4442 9.46657 14.4522 10.5081 15.7188 11.0713L16.6152 11.4697C17.1284 11.6982 17.1285 12.4455 16.6152 12.6738L15.665 13.0957C14.4305 13.6448 13.4409 14.6486 12.8916 15.9092L12.584 16.6162C12.3584 17.1338 11.6416 17.1338 11.416 16.6162L11.1084 15.9092C10.5591 14.6486 9.56954 13.6448 8.33496 13.0957L7.38477 12.6738C6.87153 12.4455 6.87165 11.6982 7.38477 11.4697L8.28125 11.0713C9.54772 10.5081 10.5548 9.46657 11.0947 8.16309L11.4121 7.39941Z"/></svg>