<svg viewBox="0 0 24 24" fill="currentColor" xmlns="http://www.w3.org/2000/svg"><path d="M14 3.99699H10V7.997H4V10.997H20V9.99993H22V12.997H21V20.997C20.9997 21.5491 20.5521 21.997 20 21.997H4C3.44788 21.997 3.00026 21.5491 3 20.997V12.997H2V6.997C2.00005 6.44476 2.44775 5.997 3 5.997H8V2.99699C8.00005 2.44475 8.44775 1.99601 9 1.99601H14V3.99699ZM5 19.997H8V14.997H10V19.997H19V12.997H5V19.997ZM18.5293 1.31925C18.7059 0.893466 19.2942 0.893455 19.4707 1.31925L19.7236 1.93058C20.1556 2.97338 20.9616 3.80609 21.9746 4.25676L22.6924 4.57609C23.1026 4.75892 23.1026 5.35611 22.6924 5.53899L21.9326 5.87688C20.9449 6.31616 20.1534 7.11938 19.7139 8.12786L19.4668 8.69329C19.2864 9.10742 18.7137 9.10742 18.5332 8.69329L18.2871 8.12786C17.8476 7.11922 17.0552 6.31621 16.0674 5.87688L15.3076 5.53899C14.8974 5.35613 14.8974 4.7589 15.3076 4.57609L16.0254 4.25676C17.0385 3.8061 17.8445 2.97339 18.2764 1.93058L18.5293 1.31925Z"/></svg>