<svg viewBox="0 0 24 24" fill="currentColor" xmlns="http://www.w3.org/2000/svg"><path d="M3.52561 3.5254C4.89246 2.15872 7.10805 2.15861 8.47483 3.5254L8.64671 3.6963C8.84198 3.89145 9.15851 3.89152 9.35374 3.6963L9.52561 3.5254C10.8082 2.24294 12.8376 2.16412 14.2131 3.28809L12.9475 4.83594C12.3592 4.35525 11.4888 4.39054 10.9397 4.93946L10.7678 5.11133C9.7916 6.08721 8.20889 6.08713 7.23265 5.11133L7.06077 4.93946C6.47504 4.35373 5.52548 4.35383 4.93968 4.93946C4.35389 5.52525 4.35389 6.47477 4.93968 7.06055L5.11155 7.23243C6.0873 8.20862 6.08727 9.79137 5.11155 10.7676L4.93968 10.9395C4.35389 11.5252 4.35389 12.4748 4.93968 13.0606L5.11155 13.2324C6.0873 14.2086 6.08727 15.7914 5.11155 16.7676L4.93968 16.9395C4.35389 17.5252 4.35389 18.4748 4.93968 19.0606C5.52547 19.6462 6.47502 19.6463 7.06077 19.0606L7.23265 18.8887C8.20889 17.9129 9.79162 17.9128 10.7678 18.8887L10.9397 19.0606C11.5255 19.6462 12.475 19.6463 13.0608 19.0606L13.2326 18.8887C14.2089 17.9129 15.7916 17.9128 16.7678 18.8887L16.9397 19.0606C17.5255 19.6462 18.475 19.6463 19.0608 19.0606C19.6464 18.4748 19.6464 17.5252 19.0608 16.9395L18.8889 16.7676C17.913 15.7914 17.913 14.2087 18.8889 13.2324L19.0608 13.0606C19.6097 12.5115 19.6449 11.641 19.1643 11.0527L20.7121 9.78712C21.836 11.1626 21.7573 13.192 20.4748 14.4746L20.3039 14.6465C20.1087 14.8418 20.1087 15.1583 20.3039 15.3535L20.4748 15.5254C21.8415 16.8922 21.8415 19.1078 20.4748 20.4746C19.108 21.8414 16.8925 21.8413 15.5256 20.4746L15.3537 20.3037C15.1585 20.1085 14.842 20.1086 14.6467 20.3037L14.4748 20.4746C13.108 21.8414 10.8925 21.8413 9.52561 20.4746L9.35374 20.3037C9.15853 20.1085 8.84198 20.1086 8.64671 20.3037L8.47483 20.4746C7.10803 21.8414 4.89246 21.8413 3.52561 20.4746C2.15878 19.1078 2.15878 16.8922 3.52561 15.5254L3.69651 15.3535C3.89158 15.1583 3.89161 14.8417 3.69651 14.6465L3.52561 14.4746C2.15878 13.1078 2.15878 10.8922 3.52561 9.5254L3.69651 9.35352C3.89158 9.15828 3.89161 8.84171 3.69651 8.64649L3.52561 8.47462C2.15878 7.10778 2.15878 4.89223 3.52561 3.5254ZM14.5002 7.50001C15.6047 7.50015 16.5002 8.39555 16.5002 9.50001V14.5C16.5002 15.6045 15.6047 16.4999 14.5002 16.5H9.50022C8.39565 16.5 7.50022 15.6046 7.50022 14.5V9.50001C7.50025 8.39546 8.39567 7.50001 9.50022 7.50001H14.5002ZM9.50022 14.5H14.5002V9.50001H9.50022V14.5ZM18.5295 1.31934C18.7062 0.89362 19.2945 0.893484 19.4709 1.31934L19.7239 1.93067C20.1558 2.97354 20.9617 3.8062 21.9748 4.25684L22.6916 4.57618C23.1024 4.75887 23.1024 5.35638 22.6916 5.53907L21.9319 5.87696C20.9442 6.3163 20.1526 7.11944 19.7131 8.12794L19.467 8.69337C19.2866 9.1075 18.7139 9.1075 18.5334 8.69337L18.2864 8.12794C17.8468 7.11943 17.0553 6.31625 16.0676 5.87696L15.3078 5.53907C14.8974 5.35629 14.8973 4.7589 15.3078 4.57618L16.0256 4.25684C17.0386 3.80616 17.8438 2.9734 18.2756 1.93067L18.5295 1.31934Z"/></svg>