<svg viewBox="0 0 24 24" fill="currentColor" xmlns="http://www.w3.org/2000/svg"><path d="M18.5293 15.3193C18.7058 14.8934 19.2942 14.8934 19.4707 15.3193L19.7236 15.9307C20.1556 16.9735 20.9615 17.8062 21.9746 18.2568L22.6914 18.5762C23.1022 18.7589 23.1022 19.3564 22.6914 19.5391L21.9326 19.877C20.9449 20.3163 20.1534 21.1194 19.7139 22.1279L19.4668 22.6934C19.2863 23.1075 18.7136 23.1075 18.5332 22.6934L18.2861 22.1279C17.8466 21.1194 17.0551 20.3163 16.0674 19.877L15.3076 19.5391C14.8974 19.3562 14.8974 18.759 15.3076 18.5762L16.0254 18.2568C17.0385 17.8062 17.8444 16.9735 18.2764 15.9307L18.5293 15.3193ZM16.4346 3.21193C16.8251 2.82141 17.4591 2.82141 17.8496 3.21193L20.6777 6.04103C21.0681 6.43157 21.0682 7.06464 20.6777 7.45509L7.24219 20.8897H3V16.6475L16.4346 3.21193ZM5 17.4756V18.8897H6.41406L15.7275 9.57618L14.3135 8.16212L5 17.4756ZM15.7275 6.74806L17.1426 8.16212L18.5566 6.74806L17.1426 5.334L15.7275 6.74806Z"/></svg>