<svg viewBox="0 0 24 24" fill="currentColor" xmlns="http://www.w3.org/2000/svg"><path d="M19.0375 6.37823C19.2671 6.14869 19.5939 6.04506 19.9138 6.09994C20.2337 6.15486 20.5066 6.36161 20.6465 6.65444C21.8888 9.25501 21.4352 12.4656 19.2792 14.6218C17.4463 16.4548 14.851 17.0568 12.5175 16.4338L8.67263 20.2787C7.30579 21.6455 5.08972 21.6455 3.72288 20.2787C2.35605 18.9118 2.35605 16.6958 3.72288 15.3289L7.56777 11.484C6.94478 9.15056 7.54679 6.55527 9.37973 4.72233C11.536 2.56631 14.7465 2.11277 17.3471 3.35507C17.6399 3.49498 17.8467 3.76787 17.9016 4.08773C17.9565 4.40767 17.8529 4.73448 17.6233 4.96402L15.0366 7.55076C14.6461 7.94128 14.6461 8.57444 15.0366 8.96497C15.4271 9.35549 16.0603 9.35549 16.4508 8.96497L19.0375 6.37823ZM17.865 10.3792C16.6934 11.5508 14.7939 11.5508 13.6224 10.3792C12.4508 9.20761 12.4508 7.30811 13.6224 6.13654L15.0373 4.72164C13.5328 4.50775 11.9501 4.98056 10.7939 6.13654C9.36815 7.56234 8.98139 9.63694 9.64076 11.415C9.7766 11.7813 9.68699 12.1931 9.41081 12.4694L5.13709 16.7431C4.55131 17.3289 4.55131 18.2787 5.13709 18.8645C5.72288 19.4503 6.67263 19.4503 7.25841 18.8645L11.5321 14.5907C11.8085 14.3146 12.2202 14.225 12.5866 14.3608C14.3646 15.0202 16.4392 14.6334 17.865 13.2076C19.021 12.0515 19.4938 10.4688 19.2799 8.96428L17.865 10.3792Z"/></svg>