<svg width="560" height="140" viewBox="0 0 560 140" fill="none" xmlns="http://www.w3.org/2000/svg">
<g clip-path="url(#clip0_4083_4950)">
<rect width="560" height="140" rx="12" fill="#FCEDF4" style="fill:#FCEDF4;fill:color(display-p3 0.9900 0.9306 0.9585);fill-opacity:1;"/>
<g style="mix-blend-mode:plus-lighter">
<rect x="375" y="-47" width="192" height="312" stroke="#E1E6F0" style="stroke:#E1E6F0;stroke:color(display-p3 0.8836 0.9024 0.9400);stroke-opacity:1;"/>
<circle cx="567" cy="79" r="126" stroke="#E1E6F0" style="stroke:#E1E6F0;stroke:color(display-p3 0.8836 0.9024 0.9400);stroke-opacity:1;"/>
<path fill-rule="evenodd" clip-rule="evenodd" d="M375 -47H376.5L687 265H375V-47Z" stroke="#E1E6F0" style="stroke:#E1E6F0;stroke:color(display-p3 0.8836 0.9024 0.9400);stroke-opacity:1;"/>
<path d="M689.975 51.4302L690.463 51.3213L690.32 50.6841L689.742 50.9874L689.975 51.4302ZM570.465 -46.9533L570.944 -46.8109L571.129 -47.4355L570.478 -47.4531L570.465 -46.9533ZM375 -47V-47.5H374.5V-47H375ZM375 265H374.5V265.5H375V265ZM687 265V265.5H688.203L687.354 264.647L687 265ZM617.019 194.681L616.821 194.222L616.147 194.514L616.665 195.034L617.019 194.681ZM689.742 50.9874C678.164 57.0627 664.984 60.5 651 60.5V61.5C665.15 61.5 678.489 58.0217 690.207 51.8729L689.742 50.9874ZM651 60.5C604.884 60.5 567.5 23.1158 567.5 -23H566.5C566.5 23.6681 604.332 61.5 651 61.5V60.5ZM567.5 -23C567.5 -31.2739 568.703 -39.2659 570.944 -46.8109L569.985 -47.0956C567.717 -39.4591 566.5 -31.3713 566.5 -23H567.5ZM567 -46.5C568.154 -46.5 569.305 -46.4844 570.451 -46.4535L570.478 -47.4531C569.323 -47.4843 568.163 -47.5 567 -47.5V-46.5ZM376.5 -46.5H567V-47.5H376.5V-46.5ZM375 -46.5H376.5V-47.5H375V-46.5ZM375.5 265V-47H374.5V265H375.5ZM567 264.5H375V265.5H567V264.5ZM687 264.5H567V265.5H687V264.5ZM616.665 195.034L686.646 265.353L687.354 264.647L617.374 194.329L616.665 195.034ZM692.5 79C692.5 130.609 661.348 174.943 616.821 194.222L617.218 195.14C662.098 175.708 693.5 131.022 693.5 79H692.5ZM689.487 51.5391C691.459 60.3769 692.5 69.5666 692.5 79H693.5C693.5 69.4928 692.451 60.23 690.463 51.3213L689.487 51.5391Z" fill="#E1E6F0" style="fill:#E1E6F0;fill:color(display-p3 0.8836 0.9024 0.9400);fill-opacity:1;"/>
</g>
<g style="mix-blend-mode:plus-lighter">
<rect x="-32" y="-77" width="192" height="312" stroke="#E1E6F0" style="stroke:#E1E6F0;stroke:color(display-p3 0.8836 0.9024 0.9400);stroke-opacity:1;"/>
<circle cx="244" cy="-53" r="84" stroke="#E1E6F0" style="stroke:#E1E6F0;stroke:color(display-p3 0.8836 0.9024 0.9400);stroke-opacity:1;"/>
<circle cx="160" cy="49" r="126" stroke="#E1E6F0" style="stroke:#E1E6F0;stroke:color(display-p3 0.8836 0.9024 0.9400);stroke-opacity:1;"/>
<path fill-rule="evenodd" clip-rule="evenodd" d="M-32 -77H-30.5L280 235H-32V-77Z" stroke="#E1E6F0" style="stroke:#E1E6F0;stroke:color(display-p3 0.8836 0.9024 0.9400);stroke-opacity:1;"/>
<path d="M282.975 21.4302L283.463 21.3213L283.32 20.6841L282.742 20.9874L282.975 21.4302ZM163.465 -76.9533L163.944 -76.8109L164.129 -77.4355L163.478 -77.4531L163.465 -76.9533ZM-32 -77V-77.5H-32.5V-77H-32ZM-32 235H-32.5V235.5H-32V235ZM280 235V235.5H281.203L280.354 234.647L280 235ZM210.019 164.681L209.821 164.222L209.147 164.514L209.665 165.034L210.019 164.681ZM282.742 20.9874C271.164 27.0627 257.984 30.5 244 30.5V31.5C258.15 31.5 271.489 28.0217 283.207 21.8729L282.742 20.9874ZM244 30.5C197.884 30.5 160.5 -6.88422 160.5 -53H159.5C159.5 -6.33194 197.332 31.5 244 31.5V30.5ZM160.5 -53C160.5 -61.2739 161.703 -69.2659 163.944 -76.8109L162.985 -77.0956C160.717 -69.4591 159.5 -61.3713 159.5 -53H160.5ZM160 -76.5C161.154 -76.5 162.305 -76.4844 163.451 -76.4535L163.478 -77.4531C162.323 -77.4843 161.163 -77.5 160 -77.5V-76.5ZM-30.5 -76.5H160V-77.5H-30.5V-76.5ZM-32 -76.5H-30.5V-77.5H-32V-76.5ZM-31.5 235V-77H-32.5V235H-31.5ZM160 234.5H-32V235.5H160V234.5ZM280 234.5H160V235.5H280V234.5ZM209.665 165.034L279.646 235.353L280.354 234.647L210.374 164.329L209.665 165.034ZM285.5 49C285.5 100.609 254.348 144.943 209.821 164.222L210.218 165.14C255.098 145.708 286.5 101.022 286.5 49H285.5ZM282.487 21.5391C284.459 30.3769 285.5 39.5666 285.5 49H286.5C286.5 39.4928 285.451 30.23 283.463 21.3213L282.487 21.5391Z" fill="#E1E6F0" style="fill:#E1E6F0;fill:color(display-p3 0.8836 0.9024 0.9400);fill-opacity:1;"/>
</g>
<path d="M104.471 117.979L237.25 108.694V114.044C237.25 117.957 240.567 121.051 244.471 120.778L453.471 106.163C457.007 105.916 459.75 102.975 459.75 99.4293V62.7985C459.75 58.8852 456.433 55.7919 452.529 56.0649L263.75 69.2656V62.8956C263.75 58.9823 260.433 55.8891 256.529 56.1621L103.529 66.8609C99.9926 67.1082 97.25 70.0492 97.25 73.5944V111.245C97.25 115.158 100.567 118.252 104.471 117.979Z" fill="#F5CEE0" stroke="#1A2947" style="fill:#F5CEE0;fill:color(display-p3 0.9608 0.8071 0.8792);fill-opacity:1;stroke:#1A2947;stroke:color(display-p3 0.1008 0.1605 0.2800);stroke-opacity:1;" stroke-width="1.5" stroke-linejoin="round"/>
<path d="M133.325 56.6484V45.4484L138.161 45.1102C139.161 45.0403 140.023 45.1454 140.747 45.4254C141.47 45.6948 142.029 46.1198 142.422 46.7002C142.816 47.2807 143.013 47.9923 143.013 48.8349C143.013 49.6669 142.816 50.4007 142.422 51.0362C142.029 51.6611 141.47 52.1588 140.747 52.5294C140.023 52.9 139.161 53.1203 138.161 53.1902L134.761 53.428L135.91 52.2116V56.4676L133.325 56.6484ZM140.427 56.1518L137.634 52.2831L140.395 52.09L143.221 55.9564L140.427 56.1518ZM135.91 52.4996L134.761 51.364L138.017 51.1363C138.815 51.0805 139.411 50.8681 139.805 50.4993C140.199 50.1198 140.395 49.626 140.395 49.018C140.395 48.3993 140.199 47.9331 139.805 47.6193C139.411 47.3055 138.815 47.1765 138.017 47.2323L134.761 47.46L135.91 46.1476V52.4996Z" fill="#E64F96" style="fill:#E64F96;fill:color(display-p3 0.9036 0.3101 0.5887);fill-opacity:1;"/>
<path d="M147.44 48.9734L152.819 48.5973V50.6133L147.44 50.9894V48.9734ZM147.631 53.568L153.713 53.1428V55.2228L145.062 55.8277V44.6277L153.505 44.0373V46.1173L147.631 46.528V53.568Z" fill="#E64F96" style="fill:#E64F96;fill:color(display-p3 0.9036 0.3101 0.5887);fill-opacity:1;"/>
<path d="M155.77 55.0789V43.8789L157.909 43.7293L162.665 51.3007L161.532 51.38L166.208 43.149L168.331 43.0005L168.363 54.1983L165.937 54.3679L165.921 46.8971L166.368 46.8658L162.633 53.415L161.468 53.4965L157.653 47.4752L158.196 47.4373V54.9093L155.77 55.0789Z" fill="#E64F96" style="fill:#E64F96;fill:color(display-p3 0.9036 0.3101 0.5887);fill-opacity:1;"/>
<path d="M171.014 54.0129V42.8129L173.6 42.6321V53.8321L171.014 54.0129Z" fill="#E64F96" style="fill:#E64F96;fill:color(display-p3 0.9036 0.3101 0.5887);fill-opacity:1;"/>
<path d="M174.974 53.736L179.779 46.7601V48.6481L175.182 42.5215L178.119 42.3161L181.295 46.59L180.066 46.692L183.194 41.9612L186.003 41.7648L181.438 48.42V46.564L186.275 52.9458L183.29 53.1545L180.002 48.6324L181.183 48.5498L177.943 53.5284L174.974 53.736Z" fill="#E64F96" style="fill:#E64F96;fill:color(display-p3 0.9036 0.3101 0.5887);fill-opacity:1;"/>
<path d="M192.165 52.5339V41.3339L194.751 41.1531V52.3531L192.165 52.5339Z" fill="#E64F96" style="fill:#E64F96;fill:color(display-p3 0.9036 0.3101 0.5887);fill-opacity:1;"/>
<path d="M202.75 51.9858C201.888 52.046 201.084 51.9635 200.339 51.7383C199.605 51.5016 198.967 51.1409 198.424 50.6562C197.881 50.1715 197.456 49.5879 197.147 48.9055C196.849 48.2224 196.7 47.4594 196.7 46.6168C196.7 45.7741 196.849 44.9904 197.147 44.2655C197.456 43.5399 197.881 42.8968 198.424 42.3362C198.977 41.7749 199.621 41.3299 200.355 41.0012C201.09 40.6618 201.893 40.4617 202.766 40.4006C203.734 40.3329 204.606 40.4426 205.383 40.7296C206.171 41.0052 206.83 41.4497 207.362 42.0632L205.702 43.7153C205.319 43.3047 204.894 43.0092 204.425 42.8286C203.957 42.6373 203.447 42.561 202.893 42.5997C202.372 42.6362 201.893 42.755 201.457 42.9562C201.02 43.1573 200.643 43.4291 200.323 43.7714C200.004 44.1137 199.754 44.5099 199.573 44.9599C199.403 45.4091 199.318 45.9004 199.318 46.4337C199.318 46.9671 199.403 47.4464 199.573 47.8719C199.754 48.2966 200.004 48.6577 200.323 48.9554C200.643 49.2531 201.02 49.472 201.457 49.6122C201.893 49.7523 202.372 49.8042 202.893 49.7677C203.447 49.729 203.957 49.5866 204.425 49.3406C204.894 49.0838 205.319 48.7181 205.702 48.2433L207.362 49.6632C206.83 50.3511 206.171 50.8932 205.383 51.2896C204.606 51.6853 203.729 51.9173 202.75 51.9858Z" fill="#E64F96" style="fill:#E64F96;fill:color(display-p3 0.9036 0.3101 0.5887);fill-opacity:1;"/>
<path d="M214.301 51.178C213.418 51.2397 212.599 51.153 211.843 50.9179C211.099 50.682 210.449 50.322 209.896 49.838C209.353 49.3533 208.928 48.7697 208.619 48.0873C208.321 47.4042 208.172 46.6466 208.172 45.8146C208.172 44.9826 208.321 44.2042 208.619 43.4793C208.928 42.7537 209.359 42.1103 209.912 41.5489C210.465 40.9876 211.114 40.5368 211.859 40.1967C212.604 39.8567 213.413 39.6561 214.285 39.5951C215.169 39.5333 215.977 39.6208 216.711 39.8575C217.456 40.0934 218.1 40.4537 218.643 40.9384C219.196 41.4224 219.627 42.0056 219.936 42.688C220.244 43.3598 220.398 44.117 220.398 44.9596C220.398 45.7916 220.244 46.5758 219.936 47.312C219.627 48.0376 219.196 48.681 218.643 49.2424C218.1 49.7924 217.456 50.2374 216.711 50.5775C215.977 50.9168 215.174 51.117 214.301 51.178ZM214.285 48.9711C214.785 48.9361 215.243 48.8188 215.658 48.6191C216.084 48.4187 216.456 48.1473 216.775 47.805C217.095 47.4627 217.339 47.0669 217.51 46.6176C217.69 46.1677 217.781 45.676 217.781 45.1427C217.781 44.6093 217.69 44.1303 217.51 43.7056C217.339 43.2802 217.095 42.9187 216.775 42.621C216.467 42.3226 216.1 42.1029 215.674 41.962C215.248 41.8211 214.785 41.7681 214.285 41.8031C213.785 41.8381 213.322 41.9558 212.897 42.1562C212.482 42.3559 212.115 42.6269 211.795 42.9692C211.476 43.3115 211.226 43.7077 211.045 44.1577C210.875 44.6069 210.79 45.0982 210.79 45.6315C210.79 46.1542 210.875 46.6336 211.045 47.0697C211.226 47.4944 211.471 47.8559 211.78 48.1543C212.099 48.452 212.471 48.6713 212.897 48.8122C213.322 48.9531 213.785 49.0061 214.285 48.9711Z" fill="#E64F96" style="fill:#E64F96;fill:color(display-p3 0.9036 0.3101 0.5887);fill-opacity:1;"/>
<path d="M222.342 50.4237V39.2237L224.48 39.0742L231.072 46.6772L230.035 46.7498V38.6858L232.589 38.5072V49.7072L230.466 49.8557L223.858 42.2537L224.895 42.1812V50.2452L222.342 50.4237Z" fill="#E64F96" style="fill:#E64F96;fill:color(display-p3 0.9036 0.3101 0.5887);fill-opacity:1;"/>
<path d="M239.752 49.2063V38.0063L242.338 37.8255V49.0255L239.752 49.2063Z" fill="#E64F96" style="fill:#E64F96;fill:color(display-p3 0.9036 0.3101 0.5887);fill-opacity:1;"/>
<path d="M248.661 48.7754C247.767 48.8379 246.91 48.7804 246.091 48.603C245.272 48.415 244.612 48.1465 244.112 47.7974L244.99 45.7841C245.468 46.0919 246.032 46.3351 246.681 46.5138C247.341 46.681 248.006 46.7411 248.677 46.6942C249.187 46.6585 249.597 46.5819 249.906 46.4643C250.225 46.3353 250.459 46.1749 250.608 45.9832C250.757 45.7914 250.831 45.5782 250.831 45.3436C250.831 45.0449 250.714 44.8184 250.48 44.6641C250.246 44.4992 249.937 44.3767 249.554 44.2969C249.171 44.2063 248.746 44.1294 248.278 44.0661C247.82 43.9915 247.357 43.8958 246.889 43.7792C246.431 43.6619 246.011 43.4993 245.628 43.2914C245.245 43.0835 244.931 42.7962 244.686 42.4293C244.452 42.0616 244.335 41.5792 244.335 40.9818C244.335 40.3418 244.505 39.7486 244.846 39.2021C245.197 38.6442 245.718 38.1864 246.41 37.8287C247.112 37.4596 247.99 37.2382 249.044 37.1646C249.746 37.1155 250.438 37.1524 251.119 37.2755C251.8 37.3879 252.401 37.5911 252.922 37.8854L252.124 39.9092C251.603 39.647 251.081 39.4647 250.56 39.3625C250.039 39.2497 249.528 39.2107 249.028 39.2457C248.528 39.2807 248.118 39.368 247.799 39.5076C247.479 39.6473 247.251 39.8179 247.112 40.0196C246.974 40.2106 246.905 40.4288 246.905 40.6741C246.905 40.9621 247.022 41.1886 247.256 41.3536C247.49 41.5079 247.799 41.625 248.182 41.7048C248.565 41.7847 248.985 41.862 249.443 41.9367C249.911 42.0106 250.374 42.1009 250.831 42.2076C251.299 42.3135 251.725 42.4704 252.108 42.6783C252.491 42.8862 252.8 43.1739 253.034 43.5415C253.279 43.9084 253.401 44.3852 253.401 44.9719C253.401 45.6012 253.225 46.1895 252.874 46.7367C252.523 47.2839 251.996 47.7421 251.294 48.1112C250.602 48.4796 249.725 48.7009 248.661 48.7754Z" fill="#E64F96" style="fill:#E64F96;fill:color(display-p3 0.9036 0.3101 0.5887);fill-opacity:1;"/>
<path d="M308.102 58.8976V54.3216L308.692 55.8483L303.776 48L306.522 47.8081L310.289 53.8327L308.708 53.9432L312.491 47.3907L315.029 47.2132L310.113 55.749L310.688 54.1408V58.7168L308.102 58.8976Z" fill="#E64F96" style="fill:#E64F96;fill:color(display-p3 0.9036 0.3101 0.5887);fill-opacity:1;"/>
<path d="M318.396 51.4898L323.774 51.1137V53.1297L318.396 53.5058V51.4898ZM318.587 56.0844L324.668 55.6592V57.7392L316.017 58.3441V47.1441L324.461 46.5537V48.6337L318.587 49.0444V56.0844Z" fill="#E64F96" style="fill:#E64F96;fill:color(display-p3 0.9036 0.3101 0.5887);fill-opacity:1;"/>
<path d="M325.257 57.698L330.237 46.1497L332.791 45.9712L337.787 56.8218L335.073 57.0116L330.987 47.4093L332.009 47.3379L327.907 57.5127L325.257 57.698ZM327.747 55.1239L328.433 53.1079L334.179 52.7061L334.882 54.625L327.747 55.1239Z" fill="#E64F96" style="fill:#E64F96;fill:color(display-p3 0.9036 0.3101 0.5887);fill-opacity:1;"/>
<path d="M338.946 56.7408V45.5408L343.782 45.2026C344.782 45.1326 345.644 45.2377 346.368 45.5178C347.091 45.7872 347.65 46.2121 348.044 46.7926C348.437 47.3731 348.634 48.0846 348.634 48.9273C348.634 49.7593 348.437 50.4931 348.044 51.1286C347.65 51.7535 347.091 52.2512 346.368 52.6218C345.644 52.9924 344.782 53.2127 343.782 53.2826L340.382 53.5203L341.531 52.304V56.56L338.946 56.7408ZM346.048 56.2441L343.255 52.3754L346.016 52.1823L348.842 56.0488L346.048 56.2441ZM341.531 52.592L340.382 51.4563L343.638 51.2286C344.436 51.1728 345.032 50.9605 345.426 50.5916C345.82 50.2121 346.016 49.7183 346.016 49.1103C346.016 48.4917 345.82 48.0254 345.426 47.7116C345.032 47.3978 344.436 47.2688 343.638 47.3246L340.382 47.5523L341.531 46.24V52.592Z" fill="#E64F96" style="fill:#E64F96;fill:color(display-p3 0.9036 0.3101 0.5887);fill-opacity:1;"/>
<path d="M354.354 55.8553C353.46 55.9178 352.603 55.8604 351.784 55.683C350.965 55.495 350.305 55.2265 349.805 54.8774L350.683 52.864C351.162 53.1719 351.725 53.4151 352.375 53.5937C353.034 53.7609 353.699 53.8211 354.37 53.7742C354.88 53.7385 355.29 53.6619 355.599 53.5443C355.918 53.4153 356.152 53.2549 356.301 53.0632C356.45 52.8714 356.524 52.6582 356.524 52.4235C356.524 52.1249 356.407 51.8984 356.173 51.7441C355.939 51.5791 355.631 51.4567 355.248 51.3768C354.864 51.2863 354.439 51.2094 353.971 51.1461C353.513 51.0715 353.05 50.9758 352.582 50.8592C352.125 50.7419 351.704 50.5793 351.321 50.3714C350.938 50.1635 350.624 49.8761 350.379 49.5092C350.145 49.1416 350.028 48.6591 350.028 48.0618C350.028 47.4218 350.199 46.8286 350.539 46.2821C350.89 45.7242 351.412 45.2664 352.103 44.9087C352.806 44.5396 353.683 44.3182 354.737 44.2446C355.439 44.1954 356.131 44.2324 356.812 44.3555C357.493 44.4678 358.094 44.6711 358.615 44.9653L357.817 46.9891C357.296 46.7269 356.774 46.5447 356.253 46.4425C355.732 46.3296 355.221 46.2907 354.721 46.3257C354.221 46.3606 353.811 46.448 353.492 46.5876C353.173 46.7273 352.944 46.8979 352.806 47.0996C352.667 47.2906 352.598 47.5088 352.598 47.7541C352.598 48.0421 352.715 48.2686 352.949 48.4336C353.183 48.5879 353.492 48.7049 353.875 48.7848C354.258 48.8647 354.678 48.942 355.136 49.0167C355.604 49.0906 356.067 49.1809 356.524 49.2875C356.993 49.3935 357.418 49.5504 357.801 49.7583C358.184 49.9661 358.493 50.2539 358.727 50.6215C358.972 50.9884 359.094 51.4652 359.094 52.0519C359.094 52.6812 358.919 53.2695 358.567 53.8167C358.216 54.3639 357.69 54.8221 356.987 55.1912C356.296 55.5595 355.418 55.7809 354.354 55.8553Z" fill="#E64F96" style="fill:#E64F96;fill:color(display-p3 0.9036 0.3101 0.5887);fill-opacity:1;"/>
<path d="M370.808 54.7048C369.925 54.7665 369.105 54.6798 368.35 54.4446C367.605 54.2087 366.956 53.8488 366.403 53.3648C365.86 52.8801 365.434 52.2965 365.126 51.6141C364.828 50.9309 364.679 50.1733 364.679 49.3413C364.679 48.5093 364.828 47.7309 365.126 47.0061C365.434 46.2805 365.865 45.637 366.419 45.0757C366.972 44.5143 367.621 44.0636 368.366 43.7235C369.111 43.3834 369.919 43.1829 370.792 43.1219C371.675 43.0601 372.484 43.1476 373.218 43.3842C373.963 43.6201 374.607 43.9805 375.149 44.4652C375.703 44.9491 376.134 45.5323 376.442 46.2148C376.751 46.8865 376.905 47.6437 376.905 48.4864C376.905 49.3184 376.751 50.1025 376.442 50.8388C376.134 51.5643 375.703 52.2078 375.149 52.7692C374.607 53.3191 373.963 53.7641 373.218 54.1042C372.484 54.4436 371.68 54.6437 370.808 54.7048ZM370.792 52.4979C371.292 52.4629 371.75 52.3456 372.165 52.1459C372.59 51.9455 372.963 51.6741 373.282 51.3318C373.601 50.9894 373.846 50.5937 374.016 50.1444C374.197 49.6944 374.287 49.2028 374.287 48.6694C374.287 48.1361 374.197 47.6571 374.016 47.2324C373.846 46.807 373.601 46.4454 373.282 46.1478C372.973 45.8493 372.606 45.6297 372.181 45.4888C371.755 45.3479 371.292 45.2949 370.792 45.3299C370.292 45.3648 369.829 45.4825 369.403 45.683C368.988 45.8827 368.621 46.1537 368.302 46.496C367.983 46.8383 367.733 47.2345 367.552 47.6844C367.382 48.1337 367.297 48.625 367.297 49.1583C367.297 49.681 367.382 50.1603 367.552 50.5964C367.733 51.0211 367.978 51.3827 368.286 51.6811C368.605 51.9788 368.978 52.1981 369.403 52.339C369.829 52.4799 370.292 52.5328 370.792 52.4979Z" fill="#E64F96" style="fill:#E64F96;fill:color(display-p3 0.9036 0.3101 0.5887);fill-opacity:1;"/>
<path d="M378.848 53.9505V42.7505L381.434 42.5697V51.6577L387.036 51.266V53.378L378.848 53.9505Z" fill="#E64F96" style="fill:#E64F96;fill:color(display-p3 0.9036 0.3101 0.5887);fill-opacity:1;"/>
<path d="M388.481 53.2769V42.0769L393.557 41.722C394.77 41.6372 395.839 41.7971 396.765 42.2017C397.691 42.5956 398.414 43.1903 398.935 43.9859C399.457 44.7814 399.718 45.7499 399.718 46.8912C399.718 48.0219 399.457 49.0268 398.935 49.9059C398.414 50.7743 397.691 51.4756 396.765 52.0097C395.839 52.5331 394.77 52.8372 393.557 52.922L388.481 53.2769ZM391.067 50.9681L393.429 50.8029C394.174 50.7508 394.818 50.5672 395.36 50.2519C395.914 49.9252 396.339 49.4901 396.637 48.9466C396.946 48.4024 397.1 47.7782 397.1 47.0742C397.1 46.3596 396.946 45.757 396.637 45.2666C396.339 44.7648 395.914 44.3945 395.36 44.1559C394.818 43.9058 394.174 43.8068 393.429 43.8589L391.067 44.0241V50.9681Z" fill="#E64F96" style="fill:#E64F96;fill:color(display-p3 0.9036 0.3101 0.5887);fill-opacity:1;"/>
<path d="M132.321 78.006L139.432 77.5088V102.709L132.321 103.206V78.006ZM122.625 103.884L115.514 104.381V79.1813L122.625 78.684V103.884ZM132.824 93.3429L122.122 94.0912V88.1872L132.824 87.4389V93.3429Z" fill="#1A2947" style="fill:#1A2947;fill:color(display-p3 0.1008 0.1605 0.2800);fill-opacity:1;"/>
<path d="M141.431 102.569L152.527 76.593L159.53 76.1033L170.663 100.525L163.265 101.042L154.574 79.9419L157.376 79.746L148.685 102.062L141.431 102.569ZM147.5 97.2486L149.331 91.8645L161.613 91.0057L163.445 96.1336L147.5 97.2486Z" fill="#1A2947" style="fill:#1A2947;fill:color(display-p3 0.1008 0.1605 0.2800);fill-opacity:1;"/>
<path d="M172.679 100.384V75.1839L184.171 74.3803C186.469 74.2196 188.445 74.4535 190.096 75.0819C191.772 75.7088 193.065 76.6983 193.975 78.0507C194.885 79.3791 195.34 81.0033 195.34 82.9233C195.34 84.8193 194.885 86.4951 193.975 87.9507C193.065 89.4063 191.772 90.5768 190.096 91.4619C188.445 92.3215 186.469 92.8316 184.171 92.9923L176.629 93.5197L179.79 90.2027V99.8867L172.679 100.384ZM179.79 90.9587L176.629 87.9037L183.74 87.4064C185.224 87.3026 186.326 86.9016 187.044 86.2034C187.786 85.5035 188.157 84.5776 188.157 83.4256C188.157 82.2496 187.786 81.3635 187.044 80.7674C186.326 80.1696 185.224 79.9226 183.74 80.0264L176.629 80.5237L179.79 77.0267V90.9587Z" fill="#1A2947" style="fill:#1A2947;fill:color(display-p3 0.1008 0.1605 0.2800);fill-opacity:1;"/>
<path d="M198.807 98.5569V73.3569L210.299 72.5533C212.597 72.3926 214.572 72.6264 216.224 73.2549C217.9 73.8817 219.193 74.8713 220.103 76.2237C221.012 77.5521 221.467 79.1763 221.467 81.0963C221.467 82.9923 221.012 84.6681 220.103 86.1237C219.193 87.5793 217.9 88.7497 216.224 89.6349C214.572 90.4944 212.597 91.0046 210.299 91.1653L202.757 91.6926L205.917 88.3756V98.0596L198.807 98.5569ZM205.917 89.1316L202.757 86.0766L209.868 85.5794C211.352 85.4756 212.453 85.0746 213.172 84.3764C213.914 83.6765 214.285 82.7505 214.285 81.5985C214.285 80.4225 213.914 79.5365 213.172 78.9404C212.453 78.3426 211.352 78.0956 209.868 78.1994L202.757 78.6966L205.917 75.1996V89.1316Z" fill="#1A2947" style="fill:#1A2947;fill:color(display-p3 0.1008 0.1605 0.2800);fill-opacity:1;"/>
<path d="M231.291 96.2854V85.6294L232.943 89.7978L221.702 71.7559L229.208 71.231L237.324 84.3075L232.979 84.6113L241.131 70.3973L248.026 69.9151L236.821 89.5266L238.401 85.1321V95.7881L231.291 96.2854Z" fill="#1A2947" style="fill:#1A2947;fill:color(display-p3 0.1008 0.1605 0.2800);fill-opacity:1;"/>
<path d="M250.514 108.776V83.5758L263.371 82.6768C266.674 82.4457 269.14 82.8853 270.768 83.9955C272.396 85.0816 273.21 86.6087 273.21 88.5767C273.21 89.8727 272.863 91.037 272.169 92.0695C271.499 93.0764 270.541 93.9114 269.296 94.5744C268.075 95.2118 266.615 95.5899 264.915 95.7088L265.633 93.9306C267.405 93.8067 268.949 93.9747 270.266 94.4346C271.582 94.8705 272.6 95.5794 273.318 96.5612C274.06 97.5173 274.432 98.7273 274.432 100.191C274.432 102.375 273.546 104.141 271.774 105.489C270.026 106.811 267.465 107.59 264.089 107.827L250.514 108.776ZM257.553 103.136L263.514 102.719C264.735 102.633 265.657 102.365 266.279 101.913C266.926 101.436 267.249 100.766 267.249 99.9016C267.249 99.0376 266.926 98.4242 266.279 98.0614C265.657 97.6729 264.735 97.5213 263.514 97.6067L257.05 98.0588V93.1268L262.437 92.7501C263.634 92.6664 264.532 92.3996 265.13 91.9497C265.729 91.4999 266.028 90.8669 266.028 90.0509C266.028 89.2349 265.729 88.6559 265.13 88.3137C264.532 87.9476 263.634 87.8064 262.437 87.8901L257.553 88.2316V103.136Z" fill="#1A2947" style="fill:#1A2947;fill:color(display-p3 0.1008 0.1605 0.2800);fill-opacity:1;"/>
<path d="M278.114 106.846V81.6458L285.225 81.1486V106.349L278.114 106.846Z" fill="#1A2947" style="fill:#1A2947;fill:color(display-p3 0.1008 0.1605 0.2800);fill-opacity:1;"/>
<path d="M290.284 105.995V80.7948L301.776 79.9912C304.074 79.8305 306.049 80.0644 307.701 80.6929C309.377 81.3197 310.67 82.3093 311.58 83.6616C312.49 84.99 312.945 86.6142 312.945 88.5342C312.945 90.4302 312.49 92.106 311.58 93.5616C310.67 94.9933 309.377 96.1397 307.701 97.0009C306.049 97.8364 304.074 98.3345 301.776 98.4952L294.234 99.0226L297.395 95.8136V105.498L290.284 105.995ZM305.834 104.907L299.585 96.1644L307.163 95.6345L313.447 104.375L305.834 104.907ZM297.395 96.5696L294.234 93.5146L301.345 93.0173C302.829 92.9135 303.931 92.5125 304.649 91.8143C305.391 91.1144 305.762 90.1885 305.762 89.0365C305.762 87.8605 305.391 86.9744 304.649 86.3783C303.931 85.7805 302.829 85.5335 301.345 85.6373L294.234 86.1346L297.395 82.6376V96.5696Z" fill="#1A2947" style="fill:#1A2947;fill:color(display-p3 0.1008 0.1605 0.2800);fill-opacity:1;"/>
<path d="M321.868 103.786V84.2382L314.147 84.7782V79.1262L336.664 77.5516V83.2036L328.978 83.741V103.289L321.868 103.786Z" fill="#1A2947" style="fill:#1A2947;fill:color(display-p3 0.1008 0.1605 0.2800);fill-opacity:1;"/>
<path d="M356.12 76.1911L363.23 75.6939V100.894L356.12 101.391V76.1911ZM346.423 102.069L339.313 102.566V77.3664L346.423 76.8692V102.069ZM356.622 91.528L345.921 92.2763V86.3723L356.622 85.624V91.528Z" fill="#1A2947" style="fill:#1A2947;fill:color(display-p3 0.1008 0.1605 0.2800);fill-opacity:1;"/>
<path d="M368.246 100.543V75.3432L380.133 74.512C382.91 74.3177 385.352 74.663 387.459 75.5477C389.566 76.4323 391.206 77.7697 392.379 79.5596C393.576 81.3479 394.175 83.5381 394.175 86.1301C394.175 88.6981 393.576 90.9719 392.379 92.9516C391.206 94.9057 389.566 96.4723 387.459 97.6517C385.352 98.831 382.91 99.5178 380.133 99.712L368.246 100.543ZM375.357 94.3579L379.846 94.044C381.282 93.9436 382.527 93.5925 383.581 92.9909C384.658 92.3635 385.496 91.5129 386.094 90.4391C386.693 89.3412 386.992 88.0723 386.992 86.6323C386.992 85.1683 386.693 83.9412 386.094 82.9511C385.496 81.9609 384.658 81.2395 383.581 80.7869C382.527 80.3085 381.282 80.1196 379.846 80.22L375.357 80.5339V94.3579Z" fill="#1A2947" style="fill:#1A2947;fill:color(display-p3 0.1008 0.1605 0.2800);fill-opacity:1;"/>
<path d="M394.548 98.7039L405.645 72.728L412.648 72.2383L423.781 96.6598L416.383 97.1771L407.692 76.0768L410.493 75.8809L401.803 98.1967L394.548 98.7039ZM400.618 93.3835L402.449 87.9995L414.731 87.1406L416.563 92.2685L400.618 93.3835Z" fill="#1A2947" style="fill:#1A2947;fill:color(display-p3 0.1008 0.1605 0.2800);fill-opacity:1;"/>
<path d="M430.575 96.1847V85.5287L432.227 89.6972L420.987 71.6552L428.492 71.1303L436.608 84.2068L432.263 84.5107L440.415 70.2966L447.31 69.8145L436.106 89.426L437.686 85.0315V95.6875L430.575 96.1847Z" fill="#1A2947" style="fill:#1A2947;fill:color(display-p3 0.1008 0.1605 0.2800);fill-opacity:1;"/>
<circle cx="86" cy="66" r="23.5" fill="#ADB6FF" stroke="#1A2947" style="fill:#ADB6FF;fill:color(display-p3 0.6784 0.7137 1.0000);fill-opacity:1;stroke:#1A2947;stroke:color(display-p3 0.1008 0.1605 0.2800);stroke-opacity:1;" stroke-width="2"/>
<path fill-rule="evenodd" clip-rule="evenodd" d="M82.6076 52.8799C82.0553 51.9233 80.8321 51.5956 79.8755 52.1479C78.9189 52.7001 78.5912 53.9233 79.1435 54.8799L82.8935 61.3751C83.4457 62.3317 84.6689 62.6594 85.6255 62.1071C86.5821 61.5549 86.9098 60.3317 86.3576 59.3751L82.6076 52.8799ZM92.3503 47.2549C91.7981 46.2983 90.5749 45.9706 89.6183 46.5229C88.6617 47.0751 88.334 48.2983 88.8862 49.2549L92.6362 55.7501C93.1885 56.7067 94.4117 57.0344 95.3683 56.4821C96.3249 55.9299 96.6526 54.7067 96.1003 53.7501L92.3503 47.2549ZM76.6495 69.3086C76.0972 68.352 76.4249 67.1288 77.3815 66.5766C78.3381 66.0243 79.5613 66.352 80.1136 67.3086C82.1501 70.836 86.6606 72.0446 90.188 70.0081C91.1446 69.4558 92.3678 69.7835 92.9201 70.7401C93.4723 71.6967 93.1446 72.9199 92.188 73.4722C86.7474 76.6133 79.7906 74.7492 76.6495 69.3086Z" fill="#1A2947" style="fill:#1A2947;fill:color(display-p3 0.1008 0.1605 0.2800);fill-opacity:1;"/>
<path d="M468.65 26.0982C465.887 25.5669 463.177 27.2394 462.413 29.9476L459.13 41.5894C458.642 43.3199 459.571 45.1339 461.261 45.7483C462.734 46.284 464.383 45.754 465.268 44.4604L472.098 34.4775C474.301 31.2576 472.482 26.835 468.65 26.0982Z" fill="#67BBEB" style="fill:#67BBEB;fill:color(display-p3 0.4039 0.7333 0.9216);fill-opacity:1;"/>
<path d="M478.201 44.1208C476.769 43.2614 474.935 43.4872 473.754 44.6683L466.949 51.4736C465.998 52.4244 465.94 53.9469 466.815 54.9678C467.647 55.9385 469.065 56.1511 470.145 55.4671L478.276 50.3176C480.565 48.8679 480.524 45.5149 478.201 44.1208Z" fill="#67BBEB" style="fill:#67BBEB;fill:color(display-p3 0.4039 0.7333 0.9216);fill-opacity:1;"/>
<path d="M388.454 127.083V125.952L392.059 122.268C392.362 121.961 392.586 121.694 392.733 121.467C392.88 121.24 392.976 121.034 393.019 120.849C393.071 120.655 393.097 120.475 393.097 120.311C393.097 119.895 392.954 119.584 392.669 119.378C392.383 119.164 391.964 119.077 391.411 119.115C390.97 119.146 390.568 119.252 390.205 119.434C389.85 119.615 389.543 119.874 389.284 120.213L388.104 119.386C388.458 118.884 388.934 118.483 389.53 118.181C390.135 117.87 390.81 117.688 391.553 117.636C392.21 117.59 392.781 117.659 393.265 117.842C393.758 118.015 394.134 118.288 394.393 118.66C394.661 119.031 394.795 119.485 394.795 120.023C394.795 120.317 394.757 120.615 394.679 120.915C394.601 121.206 394.454 121.52 394.238 121.856C394.022 122.191 393.706 122.573 393.291 123.001L390.192 126.169L389.842 125.556L395.146 125.185V126.615L388.454 127.083Z" fill="#1A2947" style="fill:#1A2947;fill:color(display-p3 0.1008 0.1605 0.2800);fill-opacity:1;"/>
<path d="M399.905 126.412C399.188 126.463 398.539 126.326 397.96 126.002C397.389 125.678 396.94 125.181 396.611 124.511C396.283 123.832 396.119 122.994 396.119 121.997C396.119 121.001 396.283 120.144 396.611 119.428C396.94 118.703 397.389 118.138 397.96 117.734C398.539 117.33 399.188 117.103 399.905 117.052C400.632 117.002 401.28 117.138 401.851 117.462C402.421 117.786 402.871 118.288 403.199 118.967C403.536 119.637 403.705 120.47 403.705 121.467C403.705 122.463 403.536 123.324 403.199 124.05C402.871 124.766 402.421 125.326 401.851 125.73C401.28 126.134 400.632 126.362 399.905 126.412ZM399.905 124.943C400.329 124.914 400.696 124.775 401.008 124.528C401.319 124.273 401.561 123.9 401.734 123.412C401.915 122.922 402.006 122.313 402.006 121.585C402.006 120.849 401.915 120.253 401.734 119.798C401.561 119.333 401.319 118.999 401.008 118.795C400.696 118.583 400.329 118.492 399.905 118.521C399.499 118.55 399.136 118.692 398.816 118.949C398.505 119.196 398.258 119.564 398.077 120.053C397.904 120.533 397.817 121.142 397.817 121.878C397.817 122.606 397.904 123.203 398.077 123.667C398.258 124.131 398.505 124.469 398.816 124.682C399.136 124.885 399.499 124.972 399.905 124.943Z" fill="#1A2947" style="fill:#1A2947;fill:color(display-p3 0.1008 0.1605 0.2800);fill-opacity:1;"/>
<path d="M406.284 125.836V117.386L407.023 118.102L404.365 118.288V116.871L407.97 116.618V125.718L406.284 125.836Z" fill="#1A2947" style="fill:#1A2947;fill:color(display-p3 0.1008 0.1605 0.2800);fill-opacity:1;"/>
<path d="M413.415 125.468C412.663 125.52 412.01 125.453 411.457 125.267C410.903 125.08 410.475 124.794 410.173 124.407C409.87 124.013 409.719 123.538 409.719 122.983C409.719 122.428 409.866 121.95 410.16 121.548C410.454 121.146 410.877 120.826 411.431 120.588C411.984 120.35 412.645 120.205 413.415 120.151C414.184 120.097 414.846 120.15 415.399 120.311C415.961 120.471 416.389 120.736 416.683 121.105C416.986 121.465 417.137 121.918 417.137 122.464C417.137 123.019 416.981 123.515 416.67 123.953C416.367 124.382 415.935 124.728 415.373 124.993C414.82 125.257 414.167 125.415 413.415 125.468ZM413.415 124.142C414.037 124.098 414.53 123.934 414.893 123.648C415.256 123.363 415.438 122.991 415.438 122.531C415.438 122.081 415.256 121.738 414.893 121.503C414.53 121.269 414.037 121.173 413.415 121.217C412.792 121.26 412.304 121.424 411.949 121.709C411.595 121.994 411.418 122.362 411.418 122.812C411.418 123.272 411.595 123.619 411.949 123.854C412.304 124.089 412.792 124.185 413.415 124.142ZM413.415 121.035C412.715 121.084 412.114 121.035 411.612 120.888C411.111 120.732 410.722 120.486 410.445 120.15C410.177 119.805 410.043 119.381 410.043 118.878C410.043 118.358 410.181 117.902 410.458 117.51C410.743 117.109 411.141 116.787 411.651 116.543C412.161 116.299 412.749 116.154 413.415 116.108C414.089 116.061 414.681 116.123 415.192 116.295C415.702 116.468 416.099 116.735 416.385 117.096C416.67 117.449 416.813 117.885 416.813 118.405C416.813 118.908 416.674 119.351 416.398 119.734C416.13 120.108 415.741 120.408 415.23 120.635C414.72 120.852 414.115 120.986 413.415 121.035ZM413.415 119.995C413.951 119.957 414.375 119.815 414.686 119.568C414.997 119.312 415.153 118.989 415.153 118.599C415.153 118.192 414.993 117.887 414.673 117.684C414.353 117.481 413.934 117.397 413.415 117.434C412.896 117.47 412.481 117.612 412.17 117.859C411.859 118.106 411.703 118.433 411.703 118.84C411.703 119.23 411.854 119.532 412.157 119.745C412.468 119.948 412.888 120.032 413.415 119.995Z" fill="#1A2947" style="fill:#1A2947;fill:color(display-p3 0.1008 0.1605 0.2800);fill-opacity:1;"/>
<path d="M419.369 125.012C419.075 125.033 418.824 124.951 418.617 124.766C418.409 124.572 418.305 124.32 418.305 124.008C418.305 123.678 418.409 123.411 418.617 123.206C418.824 122.992 419.075 122.875 419.369 122.854C419.663 122.834 419.913 122.916 420.121 123.101C420.328 123.277 420.432 123.53 420.432 123.859C420.432 124.171 420.328 124.438 420.121 124.661C419.913 124.875 419.663 124.992 419.369 125.012Z" fill="#1A2947" style="fill:#1A2947;fill:color(display-p3 0.1008 0.1605 0.2800);fill-opacity:1;"/>
<path d="M422.786 124.682V116.232L423.525 116.948L420.867 117.134V115.717L424.472 115.465V124.565L422.786 124.682Z" fill="#1A2947" style="fill:#1A2947;fill:color(display-p3 0.1008 0.1605 0.2800);fill-opacity:1;"/>
<path d="M426.156 124.447V123.316L429.761 119.632C430.064 119.325 430.288 119.057 430.435 118.831C430.582 118.604 430.677 118.398 430.721 118.213C430.773 118.018 430.798 117.839 430.798 117.674C430.798 117.258 430.656 116.947 430.37 116.742C430.085 116.528 429.666 116.44 429.113 116.479C428.672 116.51 428.27 116.616 427.907 116.797C427.552 116.978 427.245 117.238 426.986 117.577L425.806 116.749C426.16 116.248 426.636 115.846 427.232 115.545C427.837 115.234 428.512 115.052 429.255 115C429.912 114.954 430.483 115.023 430.967 115.205C431.46 115.379 431.836 115.652 432.095 116.023C432.363 116.395 432.497 116.849 432.497 117.386C432.497 117.681 432.458 117.978 432.381 118.279C432.303 118.57 432.156 118.884 431.94 119.219C431.724 119.555 431.408 119.937 430.993 120.365L427.894 123.532L427.543 122.92L432.847 122.549V123.979L426.156 124.447Z" fill="#1A2947" style="fill:#1A2947;fill:color(display-p3 0.1008 0.1605 0.2800);fill-opacity:1;"/>
<path d="M434.959 123.922C434.665 123.943 434.414 123.861 434.206 123.676C433.999 123.482 433.895 123.23 433.895 122.918C433.895 122.588 433.999 122.321 434.206 122.116C434.414 121.902 434.665 121.785 434.959 121.764C435.253 121.744 435.503 121.826 435.711 122.011C435.918 122.187 436.022 122.44 436.022 122.769C436.022 123.081 435.918 123.348 435.711 123.571C435.503 123.784 435.253 123.902 434.959 123.922Z" fill="#1A2947" style="fill:#1A2947;fill:color(display-p3 0.1008 0.1605 0.2800);fill-opacity:1;"/>
<path d="M438.376 123.592V115.142L439.115 115.858L436.456 116.043V114.626L440.062 114.374V123.474L438.376 123.592Z" fill="#1A2947" style="fill:#1A2947;fill:color(display-p3 0.1008 0.1605 0.2800);fill-opacity:1;"/>
<path d="M445.792 123.204C444.97 123.261 444.266 123.137 443.678 122.832C443.09 122.517 442.64 122.037 442.329 121.392C442.018 120.746 441.862 119.934 441.862 118.954C441.862 117.914 442.048 117.022 442.42 116.276C442.8 115.531 443.323 114.948 443.989 114.529C444.664 114.109 445.437 113.868 446.311 113.807C446.769 113.775 447.205 113.793 447.62 113.859C448.044 113.925 448.403 114.047 448.697 114.226L448.074 115.543C447.823 115.396 447.551 115.302 447.257 115.262C446.972 115.213 446.669 115.199 446.349 115.222C445.493 115.282 444.815 115.593 444.313 116.157C443.812 116.721 443.561 117.518 443.561 118.55C443.561 118.714 443.566 118.909 443.574 119.134C443.583 119.35 443.613 119.569 443.665 119.79L443.146 119.255C443.302 118.888 443.514 118.579 443.782 118.326C444.058 118.064 444.383 117.86 444.754 117.712C445.135 117.564 445.545 117.475 445.986 117.444C446.583 117.402 447.115 117.482 447.581 117.684C448.048 117.876 448.42 118.175 448.697 118.581C448.973 118.977 449.112 119.457 449.112 120.021C449.112 120.619 448.965 121.149 448.671 121.611C448.377 122.074 447.979 122.444 447.478 122.722C446.976 123 446.414 123.16 445.792 123.204ZM445.701 121.884C446.047 121.86 446.354 121.778 446.622 121.638C446.89 121.489 447.097 121.292 447.244 121.048C447.4 120.803 447.478 120.525 447.478 120.213C447.478 119.736 447.313 119.371 446.985 119.116C446.656 118.862 446.215 118.754 445.662 118.793C445.299 118.818 444.979 118.91 444.702 119.068C444.434 119.217 444.218 119.414 444.054 119.659C443.898 119.904 443.821 120.178 443.821 120.482C443.821 120.759 443.894 121.009 444.041 121.233C444.188 121.457 444.4 121.628 444.676 121.748C444.962 121.866 445.303 121.912 445.701 121.884Z" fill="#1A2947" style="fill:#1A2947;fill:color(display-p3 0.1008 0.1605 0.2800);fill-opacity:1;"/>
<path d="M453.006 119.488V118.422L465.975 117.515V118.581L453.006 119.488Z" fill="#1A2947" style="fill:#1A2947;fill:color(display-p3 0.1008 0.1605 0.2800);fill-opacity:1;"/>
<path d="M470.013 121.38V120.249L473.618 116.565C473.92 116.258 474.145 115.991 474.292 115.764C474.439 115.537 474.534 115.331 474.577 115.146C474.629 114.952 474.655 114.772 474.655 114.607C474.655 114.191 474.513 113.881 474.227 113.675C473.942 113.461 473.523 113.374 472.969 113.412C472.528 113.443 472.126 113.549 471.763 113.731C471.409 113.911 471.102 114.171 470.843 114.51L469.662 113.683C470.017 113.181 470.492 112.779 471.089 112.478C471.694 112.167 472.368 111.985 473.112 111.933C473.769 111.887 474.34 111.956 474.824 112.139C475.317 112.312 475.693 112.585 475.952 112.957C476.22 113.328 476.354 113.782 476.354 114.32C476.354 114.614 476.315 114.912 476.237 115.212C476.16 115.503 476.013 115.817 475.796 116.153C475.58 116.488 475.265 116.87 474.85 117.298L471.75 120.466L471.4 119.853L476.704 119.482V120.912L470.013 121.38Z" fill="#1A2947" style="fill:#1A2947;fill:color(display-p3 0.1008 0.1605 0.2800);fill-opacity:1;"/>
<path d="M481.464 120.709C480.746 120.759 480.098 120.623 479.519 120.299C478.948 119.975 478.499 119.478 478.17 118.808C477.842 118.129 477.677 117.291 477.677 116.294C477.677 115.297 477.842 114.441 478.17 113.725C478.499 113 478.948 112.435 479.519 112.031C480.098 111.627 480.746 111.399 481.464 111.349C482.19 111.298 482.839 111.435 483.409 111.759C483.98 112.083 484.429 112.585 484.758 113.264C485.095 113.934 485.264 114.767 485.264 115.764C485.264 116.76 485.095 117.621 484.758 118.347C484.429 119.063 483.98 119.623 483.409 120.027C482.839 120.431 482.19 120.658 481.464 120.709ZM481.464 119.24C481.888 119.211 482.255 119.072 482.566 118.825C482.878 118.569 483.12 118.197 483.293 117.708C483.474 117.219 483.565 116.61 483.565 115.882C483.565 115.146 483.474 114.55 483.293 114.094C483.12 113.63 482.878 113.296 482.566 113.092C482.255 112.88 481.888 112.789 481.464 112.818C481.058 112.847 480.695 112.989 480.375 113.245C480.063 113.493 479.817 113.861 479.635 114.35C479.463 114.83 479.376 115.439 479.376 116.175C479.376 116.903 479.463 117.5 479.635 117.964C479.817 118.428 480.063 118.766 480.375 118.978C480.695 119.181 481.058 119.269 481.464 119.24Z" fill="#1A2947" style="fill:#1A2947;fill:color(display-p3 0.1008 0.1605 0.2800);fill-opacity:1;"/>
<path d="M486.274 120.243V119.112L489.879 115.428C490.181 115.121 490.406 114.854 490.553 114.627C490.7 114.4 490.795 114.194 490.838 114.009C490.89 113.814 490.916 113.635 490.916 113.47C490.916 113.054 490.774 112.744 490.488 112.538C490.203 112.324 489.784 112.236 489.23 112.275C488.789 112.306 488.387 112.412 488.024 112.594C487.67 112.774 487.363 113.034 487.104 113.373L485.923 112.545C486.278 112.044 486.753 111.642 487.35 111.341C487.955 111.03 488.63 110.848 489.373 110.796C490.03 110.75 490.601 110.819 491.085 111.001C491.578 111.175 491.954 111.448 492.213 111.82C492.481 112.191 492.615 112.645 492.615 113.182C492.615 113.477 492.576 113.775 492.498 114.075C492.421 114.366 492.274 114.68 492.058 115.015C491.841 115.351 491.526 115.733 491.111 116.161L488.011 119.328L487.661 118.716L492.965 118.345V119.775L486.274 120.243Z" fill="#1A2947" style="fill:#1A2947;fill:color(display-p3 0.1008 0.1605 0.2800);fill-opacity:1;"/>
<path d="M493.619 117.662V116.492L498.093 110.316L499.895 110.19L495.486 116.362L494.643 116.161L501.841 115.657V117.087L493.619 117.662ZM498.599 119.381V117.314L498.65 115.88V114.047L500.233 113.937V119.267L498.599 119.381Z" fill="#1A2947" style="fill:#1A2947;fill:color(display-p3 0.1008 0.1605 0.2800);fill-opacity:1;"/>
<path d="M503.815 119.107C503.521 119.128 503.27 119.046 503.063 118.861C502.855 118.667 502.752 118.415 502.752 118.103C502.752 117.773 502.855 117.506 503.063 117.301C503.27 117.087 503.521 116.97 503.815 116.949C504.109 116.929 504.36 117.011 504.567 117.196C504.775 117.372 504.878 117.625 504.878 117.954C504.878 118.266 504.775 118.533 504.567 118.756C504.36 118.97 504.109 119.087 503.815 119.107Z" fill="#1A2947" style="fill:#1A2947;fill:color(display-p3 0.1008 0.1605 0.2800);fill-opacity:1;"/>
<path d="M507.232 118.777V110.327L507.971 111.043L505.313 111.229V109.812L508.918 109.559V118.659L507.232 118.777Z" fill="#1A2947" style="fill:#1A2947;fill:color(display-p3 0.1008 0.1605 0.2800);fill-opacity:1;"/>
<path d="M510.602 118.542V117.411L514.207 113.727C514.51 113.419 514.735 113.152 514.881 112.925C515.028 112.699 515.124 112.493 515.167 112.308C515.219 112.113 515.245 111.934 515.245 111.769C515.245 111.353 515.102 111.042 514.817 110.837C514.531 110.623 514.112 110.535 513.559 110.574C513.118 110.605 512.716 110.711 512.353 110.892C511.998 111.073 511.691 111.333 511.432 111.672L510.252 110.844C510.606 110.343 511.082 109.941 511.678 109.639C512.283 109.328 512.958 109.147 513.701 109.095C514.358 109.049 514.929 109.117 515.413 109.3C515.906 109.474 516.282 109.747 516.541 110.118C516.809 110.49 516.943 110.944 516.943 111.481C516.943 111.776 516.905 112.073 516.827 112.373C516.749 112.665 516.602 112.979 516.386 113.314C516.17 113.65 515.854 114.032 515.439 114.459L512.34 117.627L511.99 117.015L517.294 116.644V118.074L510.602 118.542Z" fill="#1A2947" style="fill:#1A2947;fill:color(display-p3 0.1008 0.1605 0.2800);fill-opacity:1;"/>
<path d="M519.405 118.017C519.111 118.038 518.86 117.956 518.653 117.771C518.445 117.577 518.341 117.325 518.341 117.013C518.341 116.683 518.445 116.416 518.653 116.211C518.86 115.997 519.111 115.88 519.405 115.859C519.699 115.839 519.949 115.921 520.157 116.106C520.364 116.282 520.468 116.534 520.468 116.864C520.468 117.176 520.364 117.443 520.157 117.666C519.949 117.879 519.699 117.997 519.405 118.017Z" fill="#1A2947" style="fill:#1A2947;fill:color(display-p3 0.1008 0.1605 0.2800);fill-opacity:1;"/>
<path d="M522.822 117.687V109.237L523.561 109.953L520.903 110.138V108.721L524.508 108.469V117.569L522.822 117.687Z" fill="#1A2947" style="fill:#1A2947;fill:color(display-p3 0.1008 0.1605 0.2800);fill-opacity:1;"/>
<path d="M530.238 117.299C529.417 117.356 528.712 117.232 528.124 116.926C527.536 116.612 527.087 116.132 526.775 115.487C526.464 114.841 526.309 114.029 526.309 113.049C526.309 112.009 526.494 111.117 526.866 110.371C527.247 109.625 527.77 109.043 528.435 108.624C529.11 108.204 529.883 107.963 530.757 107.902C531.215 107.87 531.651 107.887 532.066 107.954C532.49 108.019 532.849 108.142 533.143 108.321L532.52 109.638C532.27 109.491 531.997 109.397 531.703 109.357C531.418 109.308 531.115 109.294 530.796 109.317C529.94 109.377 529.261 109.688 528.76 110.252C528.258 110.816 528.007 111.613 528.007 112.645C528.007 112.809 528.012 113.004 528.02 113.229C528.029 113.445 528.059 113.664 528.111 113.885L527.592 113.35C527.748 112.983 527.96 112.674 528.228 112.421C528.504 112.159 528.829 111.955 529.2 111.807C529.581 111.659 529.992 111.57 530.432 111.539C531.029 111.497 531.561 111.577 532.028 111.779C532.494 111.971 532.866 112.27 533.143 112.676C533.419 113.072 533.558 113.552 533.558 114.115C533.558 114.714 533.411 115.244 533.117 115.706C532.823 116.169 532.425 116.539 531.924 116.817C531.422 117.094 530.86 117.255 530.238 117.299ZM530.147 115.979C530.493 115.955 530.8 115.873 531.068 115.733C531.336 115.584 531.543 115.387 531.69 115.143C531.846 114.898 531.924 114.62 531.924 114.308C531.924 113.831 531.76 113.466 531.431 113.211C531.102 112.957 530.662 112.849 530.108 112.888C529.745 112.913 529.425 113.005 529.149 113.163C528.881 113.312 528.664 113.509 528.5 113.754C528.345 113.999 528.267 114.273 528.267 114.576C528.267 114.854 528.34 115.104 528.487 115.328C528.634 115.552 528.846 115.723 529.123 115.843C529.408 115.961 529.749 116.007 530.147 115.979Z" fill="#1A2947" style="fill:#1A2947;fill:color(display-p3 0.1008 0.1605 0.2800);fill-opacity:1;"/>
<path d="M285.632 50.71L285.633 50.7124C286.368 53.8601 286.517 57.3214 285.745 60.424C285.389 61.8276 284.775 63.4409 283.889 64.6851C283.001 65.9313 281.924 66.7006 280.634 66.7006C278.244 66.7006 276.548 64.6944 275.489 62.1338C274.062 58.6207 273.684 54.6443 273.684 50.7432C273.684 50.5264 273.685 50.3073 273.688 50.0864C273.712 48.2353 274.23 46.2471 275.179 44.7454C276.122 43.252 277.432 42.3142 279.065 42.3142C280.817 42.3142 282.23 43.4032 283.355 45.0874C284.477 46.7675 285.22 48.9157 285.632 50.71ZM295.104 15.282C289.022 15.5186 282.923 17.0662 277.524 20.1799C267.085 26.0979 260.25 37.7964 260.25 50.4211C260.25 62.0758 268.082 72.7498 279.685 72.7498C289.992 72.7498 299.083 63.9299 299.083 52.7159C299.083 43.3028 291.563 35.5 282.75 35.5C281.402 35.5 280.049 34.8068 279.247 33.8403C278.459 32.8907 278.286 31.8147 278.947 30.8723C280.273 28.9817 281.821 27.2687 283.533 25.7861C286.968 22.8121 291.099 20.781 295.436 20.0398C296.589 19.8426 297.514 18.8604 297.514 17.631C297.514 16.324 296.449 15.2297 295.104 15.282Z" fill="#ADB6FF" stroke="black" style="fill:#ADB6FF;fill:color(display-p3 0.6784 0.7137 1.0000);fill-opacity:1;stroke:black;stroke-opacity:1;" stroke-width="1.5"/>
</g>
<defs>
<clipPath id="clip0_4083_4950">
<rect width="560" height="140" rx="12" fill="white" style="fill:white;fill-opacity:1;"/>
</clipPath>
</defs>
</svg>
