<svg width="560" height="90" viewBox="0 0 560 90" fill="none" xmlns="http://www.w3.org/2000/svg">
<g clip-path="url(#clip0_4375_2968)">
<rect width="560" height="80" rx="12" fill="#EBEDFF"/>
<g style="mix-blend-mode:plus-lighter">
<rect x="375" y="-37" width="192" height="312" stroke="#E1E6F0"/>
<circle cx="567" cy="89" r="126" stroke="#E1E6F0"/>
<path fill-rule="evenodd" clip-rule="evenodd" d="M375 -37H376.5L687 275H375V-37Z" stroke="#E1E6F0"/>
<path d="M689.975 61.4302L690.463 61.3213L690.32 60.6841L689.742 60.9874L689.975 61.4302ZM570.465 -36.9533L570.944 -36.8109L571.129 -37.4355L570.478 -37.4531L570.465 -36.9533ZM375 -37V-37.5H374.5V-37H375ZM375 275H374.5V275.5H375V275ZM687 275V275.5H688.203L687.354 274.647L687 275ZM617.019 204.681L616.821 204.222L616.147 204.514L616.665 205.034L617.019 204.681ZM689.975 61.4302L689.742 60.9874C678.164 67.0627 664.984 70.5 651 70.5V71V71.5C665.15 71.5 678.489 68.0217 690.207 61.8729L689.975 61.4302ZM651 71V70.5C604.884 70.5 567.5 33.1158 567.5 -13H567H566.5C566.5 33.6681 604.332 71.5 651 71.5V71ZM567 -13H567.5C567.5 -21.2739 568.703 -29.2659 570.944 -36.8109L570.465 -36.9533L569.985 -37.0956C567.717 -29.4591 566.5 -21.3713 566.5 -13H567ZM567 -37V-36.5C568.154 -36.5 569.305 -36.4844 570.451 -36.4535L570.465 -36.9533L570.478 -37.4531C569.323 -37.4843 568.163 -37.5 567 -37.5V-37ZM376.5 -37V-36.5H567V-37V-37.5H376.5V-37ZM375 -37V-36.5H376.5V-37V-37.5H375V-37ZM375 275H375.5V-37H375H374.5V275H375ZM567 275V274.5H375V275V275.5H567V275ZM687 275V274.5H567V275V275.5H687V275ZM617.019 204.681L616.665 205.034L686.646 275.353L687 275L687.354 274.647L617.374 204.329L617.019 204.681ZM693 89H692.5C692.5 140.609 661.348 184.943 616.821 204.222L617.019 204.681L617.218 205.14C662.098 185.708 693.5 141.022 693.5 89H693ZM689.975 61.4302L689.487 61.5391C691.459 70.3769 692.5 79.5666 692.5 89H693H693.5C693.5 79.4928 692.451 70.23 690.463 61.3213L689.975 61.4302Z" fill="#E1E6F0"/>
</g>
<g style="mix-blend-mode:plus-lighter">
<rect x="-32" y="-77" width="192" height="312" stroke="#E1E6F0"/>
<circle cx="244" cy="-53" r="84" stroke="#E1E6F0"/>
<circle cx="160" cy="49" r="126" stroke="#E1E6F0"/>
<path fill-rule="evenodd" clip-rule="evenodd" d="M-32 -77H-30.5L280 235H-32V-77Z" stroke="#E1E6F0"/>
<path d="M282.975 21.4302L283.463 21.3213L283.32 20.6841L282.742 20.9874L282.975 21.4302ZM163.465 -76.9533L163.944 -76.8109L164.129 -77.4355L163.478 -77.4531L163.465 -76.9533ZM-32 -77V-77.5H-32.5V-77H-32ZM-32 235H-32.5V235.5H-32V235ZM280 235V235.5H281.203L280.354 234.647L280 235ZM210.019 164.681L209.821 164.222L209.147 164.514L209.665 165.034L210.019 164.681ZM282.975 21.4302L282.742 20.9874C271.164 27.0627 257.984 30.5 244 30.5V31V31.5C258.15 31.5 271.489 28.0217 283.207 21.8729L282.975 21.4302ZM244 31V30.5C197.884 30.5 160.5 -6.88422 160.5 -53H160H159.5C159.5 -6.33194 197.332 31.5 244 31.5V31ZM160 -53H160.5C160.5 -61.2739 161.703 -69.2659 163.944 -76.8109L163.465 -76.9533L162.985 -77.0956C160.717 -69.4591 159.5 -61.3713 159.5 -53H160ZM160 -77V-76.5C161.154 -76.5 162.305 -76.4844 163.451 -76.4535L163.465 -76.9533L163.478 -77.4531C162.323 -77.4843 161.163 -77.5 160 -77.5V-77ZM-30.5 -77V-76.5H160V-77V-77.5H-30.5V-77ZM-32 -77V-76.5H-30.5V-77V-77.5H-32V-77ZM-32 235H-31.5V-77H-32H-32.5V235H-32ZM160 235V234.5H-32V235V235.5H160V235ZM280 235V234.5H160V235V235.5H280V235ZM210.019 164.681L209.665 165.034L279.646 235.353L280 235L280.354 234.647L210.374 164.329L210.019 164.681ZM286 49H285.5C285.5 100.609 254.348 144.943 209.821 164.222L210.019 164.681L210.218 165.14C255.098 145.708 286.5 101.022 286.5 49H286ZM282.975 21.4302L282.487 21.5391C284.459 30.3769 285.5 39.5666 285.5 49H286H286.5C286.5 39.4928 285.451 30.23 283.463 21.3213L282.975 21.4302Z" fill="#E1E6F0"/>
</g>
<path d="M85.4 54.1069L-48.6934 24.6536L49.0266 -77.9131L170.287 -49.5864L85.4 54.1069Z" fill="black" stroke="black" stroke-width="0.5" stroke-miterlimit="10" stroke-linecap="round" stroke-linejoin="round"/>
<path d="M85.6667 45.0933L40.1533 43.7867L-49 24.2867L30.36 -67.5867L41.48 -86C41.48 -86 50.2733 -77.4 60.1 -75.2533C69.9267 -73.1067 170.48 -50.16 170.48 -50.16C170.48 -50.16 98.48 38.84 96.2133 41.1467C92.6 44.8467 85.6667 45.0933 85.6667 45.0933Z" fill="url(#paint0_linear_4375_2968)" stroke="black" stroke-width="0.75" stroke-miterlimit="10" stroke-linecap="round" stroke-linejoin="round"/>
<path fill-rule="evenodd" clip-rule="evenodd" d="M80.4014 31.9858C81.3021 31.8409 82.1809 31.8595 83.0371 32.0415C83.4863 32.137 83.8839 32.2648 84.2295 32.4243C84.5835 32.5856 84.8409 32.7729 85.001 32.9868L83.5713 33.8335C83.4313 33.6551 83.2365 33.5115 82.9873 33.4038C82.7522 33.2912 82.4776 33.2019 82.1641 33.1352C81.3249 32.9569 80.4896 33.0175 79.6582 33.3178C78.8267 33.6183 78.0789 34.1636 77.416 34.9536C77.4127 34.9576 77.4087 34.9612 77.4053 34.9653C77.5243 34.9188 77.6448 34.8767 77.7666 34.8403C78.1937 34.7121 78.6289 34.6409 79.0713 34.6255C79.522 34.6118 79.9634 34.6508 80.3955 34.7426C80.9804 34.867 81.427 35.0676 81.7344 35.3442C82.0471 35.614 82.2028 35.94 82.2012 36.3227C82.205 36.699 82.026 37.1032 81.6641 37.5346C81.2797 37.9927 80.8009 38.3608 80.2285 38.6381C79.6562 38.9154 79.046 39.0949 78.3984 39.1762C77.7509 39.2576 77.122 39.2337 76.5117 39.104C75.7066 38.9328 75.1271 38.653 74.7734 38.2651C74.4254 37.8704 74.3128 37.3841 74.4365 36.8081C74.5604 36.2321 74.937 35.5689 75.5664 34.8188C76.2349 34.0222 76.9827 33.3871 77.8096 32.9135C78.6449 32.4418 79.5091 32.1325 80.4014 31.9858ZM79.2256 35.6909C78.8697 35.6152 78.5116 35.6014 78.1514 35.6499C77.805 35.6936 77.4755 35.788 77.1641 35.9331C76.8612 36.0799 76.6119 36.2692 76.417 36.5014C76.2388 36.7138 76.147 36.9254 76.1406 37.1352C76.1343 37.3451 76.2222 37.5319 76.4043 37.6958C76.5949 37.8615 76.8854 37.9859 77.2754 38.0688C77.6144 38.1408 77.9542 38.1586 78.2949 38.1215C78.6412 38.0778 78.9614 37.9811 79.2559 37.8325C79.5588 37.6857 79.8112 37.4933 80.0117 37.2544C80.3181 36.8892 80.3988 36.5656 80.2549 36.2846C80.1109 36.004 79.7678 35.8061 79.2256 35.6909Z" fill="#AFB7C7"/>
<path d="M76.8262 30.8383L70.9766 37.809L69.3232 37.4585L74.2607 31.5717L72.3799 31.1723L73.291 30.0874L76.8262 30.8383Z" fill="#AFB7C7"/>
<path d="M66.3721 35.2348C66.7037 35.1254 67.0135 35.1013 67.3018 35.1626C67.5899 35.2238 67.7714 35.3524 67.8467 35.5483C67.9275 35.7376 67.8621 35.9582 67.6504 36.2104C67.45 36.4492 67.1815 36.6266 66.8447 36.7426C66.5133 36.8521 66.2032 36.8761 65.915 36.8149C65.6268 36.7536 65.4445 36.6251 65.3691 36.4292C65.2996 36.2267 65.365 36.0059 65.5654 35.7671C65.7771 35.5148 66.0461 35.3376 66.3721 35.2348Z" fill="#AFB7C7"/>
<path d="M64.0713 28.3735C64.8372 28.2939 65.5846 28.3319 66.3135 28.4868C66.9577 28.6237 67.4477 28.8254 67.7832 29.0922C68.1327 29.3543 68.3089 29.6623 68.3125 30.0151C68.3245 30.3696 68.1578 30.753 67.8125 31.1645C67.6232 31.3901 67.3954 31.6075 67.1299 31.8169C66.8698 32.0197 66.5312 32.2218 66.1133 32.4223C65.6952 32.6229 65.1543 32.8323 64.4912 33.0512L60.6211 34.3169L64.8223 35.2104L63.9033 36.3061L57.3418 34.9116L58.0684 34.0454L63.8096 32.1674C64.29 32.0115 64.6717 31.8653 64.9551 31.7299C65.2385 31.5946 65.4607 31.4619 65.6201 31.3315C65.7932 31.1965 65.9324 31.0658 66.0381 30.9399C66.3054 30.6214 66.372 30.3458 66.2373 30.1137C66.108 29.875 65.772 29.6978 65.2295 29.5825C64.7972 29.4906 64.3528 29.4664 63.8965 29.5102C63.4487 29.5558 62.9945 29.6742 62.5342 29.8657L61.9619 28.9233C62.6159 28.632 63.3192 28.4483 64.0713 28.3735Z" fill="#AFB7C7"/>
<path d="M61.54 27.5893L55.6904 34.56L54.0371 34.2094L58.9746 28.3237L57.0938 27.9233L58.0049 26.8383L61.54 27.5893Z" fill="#AFB7C7"/>
<path d="M51.0859 31.9858C51.4175 31.8764 51.7274 31.8523 52.0156 31.9135C52.3037 31.9748 52.4852 32.1034 52.5605 32.2993C52.6413 32.4886 52.5759 32.7092 52.3643 32.9614C52.1637 33.2003 51.8947 33.3775 51.5576 33.4936C51.2261 33.603 50.9161 33.6271 50.6279 33.5659C50.3399 33.5046 50.1583 33.376 50.083 33.1801C50.0134 32.9776 50.0789 32.7569 50.2793 32.518C50.491 32.2658 50.76 32.0886 51.0859 31.9858Z" fill="#AFB7C7"/>
<path fill-rule="evenodd" clip-rule="evenodd" d="M48.8516 25.0571C49.4854 25.0041 50.1295 25.0473 50.7822 25.186C51.443 25.3265 51.9569 25.5289 52.3232 25.7944C52.6897 26.06 52.8902 26.3696 52.9248 26.7212C52.9648 27.066 52.8175 27.4372 52.4834 27.8354C52.1603 28.2204 51.7464 28.5234 51.2412 28.7446C50.9024 28.8938 50.5322 28.9997 50.1309 29.0649C50.4296 29.3022 50.5956 29.5697 50.627 29.8696C50.6785 30.2247 50.5286 30.6116 50.1777 31.0297C49.8212 31.4546 49.3568 31.7945 48.7842 32.0483C48.2257 32.2973 47.5982 32.4498 46.9023 32.5053C46.2152 32.5626 45.5029 32.5126 44.7656 32.3559C44.0282 32.1992 43.4602 31.9768 43.0625 31.6889C42.6648 31.401 42.448 31.0689 42.4131 30.6938C42.3839 30.3122 42.5479 29.9086 42.9043 29.4838C43.2608 29.059 43.706 28.7313 44.2393 28.5005C44.6856 28.3073 45.1801 28.1822 45.7227 28.1245C45.5407 27.936 45.4336 27.73 45.4043 27.5044C45.3755 27.1697 45.5226 26.8093 45.8457 26.4243C46.1798 26.0261 46.6027 25.7136 47.1133 25.4858C47.6381 25.2532 48.2178 25.1101 48.8516 25.0571ZM47.498 29.0991C46.8879 28.9694 46.3251 28.9671 45.8105 29.0922C45.2959 29.2175 44.8932 29.4531 44.6035 29.7983C44.3083 30.1502 44.2512 30.4628 44.4316 30.7358C44.6121 31.0087 45.0071 31.2106 45.6172 31.3403C46.2276 31.47 46.7952 31.4726 47.3184 31.3491C47.8413 31.2256 48.2507 30.988 48.5459 30.6362C48.8354 30.2911 48.8851 29.9813 48.6963 29.7065C48.5074 29.4317 48.1083 29.2288 47.498 29.0991ZM49.9297 26.2016C49.4211 26.0935 48.9412 26.0929 48.4912 26.2006C48.0413 26.3084 47.6856 26.5186 47.4238 26.8305C47.1732 27.1292 47.1205 27.3998 47.2666 27.6421C47.4269 27.8795 47.7661 28.0536 48.2832 28.1635C48.8088 28.2752 49.2971 28.2771 49.7471 28.1694C50.2024 28.055 50.555 27.8479 50.8057 27.5493C51.0675 27.2372 51.1141 26.9614 50.9453 26.7221C50.7765 26.4831 50.4379 26.3097 49.9297 26.2016Z" fill="#AFB7C7"/>
<path d="M45.3594 24.1499L39.5098 31.1206L37.8564 30.77L42.7939 24.8833L40.9131 24.4838L41.8242 23.3989L45.3594 24.1499Z" fill="#AFB7C7"/>
<path fill-rule="evenodd" clip-rule="evenodd" d="M35.2764 22.3823C36.0783 22.2242 36.8315 22.22 37.5352 22.3696C38.2472 22.5209 38.7663 22.7951 39.0918 23.1928C39.4173 23.5906 39.5148 24.0934 39.3857 24.6997C39.2706 25.3009 38.8933 25.9833 38.2529 26.7465C37.6123 27.51 36.9009 28.1257 36.1191 28.5932C35.3515 29.0558 34.5707 29.3669 33.7773 29.5268C32.9839 29.6867 32.2306 29.6909 31.5186 29.5395C30.815 29.39 30.2959 29.1158 29.9619 28.7163C29.6364 28.3186 29.5357 27.8197 29.6592 27.2202C29.7883 26.614 30.1729 25.9289 30.8135 25.1655C31.4541 24.402 32.159 23.7893 32.9268 23.3266C33.7 22.8574 34.483 22.5422 35.2764 22.3823ZM36.5908 23.4946C36.1924 23.4099 35.7609 23.424 35.2969 23.5366C34.847 23.6443 34.3798 23.8617 33.8955 24.1889C33.4252 24.5114 32.953 24.9548 32.4795 25.519C32.0116 26.0766 31.7091 26.5563 31.5723 26.9575C31.4439 27.3605 31.4575 27.6841 31.6123 27.9282C31.7811 28.1675 32.0645 28.3298 32.4629 28.4145C32.8782 28.5028 33.3108 28.4929 33.7607 28.3852C34.2163 28.2708 34.6823 28.0492 35.1582 27.7202C35.6426 27.3929 36.119 26.9497 36.5869 26.3921C37.0602 25.8279 37.3586 25.3479 37.4814 24.9516C37.6183 24.5506 37.6065 24.2311 37.4463 23.9936C37.2915 23.7495 37.0062 23.5829 36.5908 23.4946Z" fill="#AFB7C7"/>
<path d="M27.1025 20.5151C27.8686 20.4354 28.6167 20.4734 29.3457 20.6284C29.9899 20.7653 30.48 20.967 30.8154 21.2338C31.1649 21.4959 31.3411 21.8039 31.3447 22.1567C31.3567 22.5112 31.19 22.8946 30.8447 23.3061C30.6554 23.5317 30.4277 23.7491 30.1621 23.9585C29.902 24.1613 29.5626 24.3633 29.1445 24.5639C28.7266 24.7644 28.1862 24.974 27.5234 25.1928L23.6533 26.4585L27.8545 27.352L26.9346 28.4477L20.373 27.0532L21.1006 26.187L26.8418 24.309C27.3223 24.153 27.7039 24.0069 27.9873 23.8715C28.2706 23.7362 28.492 23.6035 28.6514 23.4731C28.8246 23.338 28.9645 23.2075 29.0703 23.0815C29.3376 22.763 29.4041 22.4873 29.2695 22.2553C29.1402 22.0167 28.8041 21.8394 28.2617 21.7241C27.8295 21.6322 27.3849 21.608 26.9287 21.6518C26.481 21.6974 26.0267 21.8158 25.5664 22.0073L24.9941 21.0649C25.648 20.7737 26.3506 20.59 27.1025 20.5151Z" fill="#AFB7C7"/>
<path d="M84.44 45.0806C84.44 45.0806 70.0867 44.6406 64.8067 34.6406L40.1533 43.7806L84.44 45.0806Z" fill="#D3D7FF" stroke="black" stroke-width="0.75" stroke-miterlimit="10" stroke-linecap="round" stroke-linejoin="round"/>
</g>
<path d="M382.487 28.1864L435.727 13.1064L470.373 47.0065L446.747 53.6331L409.613 55.9198L382.487 28.1864Z" fill="#001E01" stroke="#001E01" stroke-width="0.5" stroke-miterlimit="10" stroke-linecap="round" stroke-linejoin="round"/>
<path d="M382.2 23.8533L436.593 8L445.04 19.2333L470.973 45.3133L448.213 51.9467L408.5 53.04L391.02 35.4667L382.2 23.8533Z" fill="#F8C6DF" stroke="black" stroke-width="0.75" stroke-miterlimit="10" stroke-linecap="round" stroke-linejoin="round"/>
<g style="mix-blend-mode:plus-darker" opacity="0.8">
<path d="M422.625 25.3974C422.626 25.8073 422.633 26.2399 422.645 26.6951C422.847 31.3683 424.165 35.8783 426.601 40.2249C427.694 42.1803 428.287 43.326 428.378 43.6619C428.638 44.5529 428.18 45.1671 427.003 45.5045C426.678 45.5978 426.338 45.659 425.984 45.688C424.552 45.7849 423.4 45.3668 422.53 44.4335C422.228 44.1098 421.971 43.749 421.759 43.3512C421.154 42.1246 420.908 39.9382 421.02 36.7922C421.178 31.6538 421.25 28.7367 421.235 28.0408L412.298 30.6034C411.748 30.7613 411.34 30.9024 411.075 31.0266C410.413 31.3372 410.226 31.8855 410.515 32.6716L411.065 34.1796L410.126 34.4488L405.379 29.2563L421.826 24.5404L422.625 25.3974Z" fill="#1A2947"/>
</g>
<g style="mix-blend-mode:plus-darker" opacity="0.8">
<path d="M428.58 36.3765L428.303 36.0794L429.34 35.7823L428.327 34.6966L430.011 33.9097L431.247 35.2353L433.23 34.6668L433.507 34.9639L431.524 35.5324L434.753 38.9949C434.845 39.0939 434.944 39.1863 435.049 39.272C435.499 39.6451 435.909 39.7786 436.279 39.6724C436.34 39.6552 436.396 39.6341 436.449 39.6093C436.783 39.4364 436.762 39.0126 436.387 38.3381L436.835 38.2676C437.046 38.6029 437.17 38.8859 437.208 39.1165C437.273 39.5807 436.92 39.9233 436.149 40.1444C436.028 40.1789 435.905 40.2095 435.777 40.2364C434.476 40.4742 433.311 40.0409 432.281 38.9362L429.617 36.0794L428.58 36.3765ZM441.221 38.1539C441.282 38.1367 441.34 38.1247 441.397 38.118C441.542 38.0959 441.696 38.1724 441.859 38.3477L438.329 39.3598L438.052 39.0627C438.122 39.0426 438.189 39.0186 438.252 38.9909C438.674 38.8313 438.718 38.5724 438.384 38.2143L432.566 31.975L431.68 32.2291L431.403 31.932L434.196 31.1309L437.34 34.502C437.311 34.3752 437.296 34.2442 437.297 34.1088C437.337 33.4986 437.763 33.0773 438.574 32.8447C438.834 32.7701 439.103 32.7316 439.38 32.7294C440.484 32.7024 441.48 33.1651 442.369 34.1173L445.097 37.0427L445.592 36.9006C445.652 36.8834 445.716 36.87 445.783 36.8604C445.927 36.8383 446.081 36.9148 446.245 37.0901L442.88 38.0548L442.603 37.7577C442.773 37.7089 442.891 37.6511 442.955 37.5843C443.026 37.4965 442.919 37.3002 442.635 36.9955L440.28 34.47C440.209 34.3939 440.14 34.3267 440.073 34.2687C439.47 33.7174 438.863 33.5293 438.252 33.7045C438.092 33.7504 437.959 33.8321 437.853 33.9494C437.518 34.3254 437.663 34.8486 438.288 35.519L440.846 38.2616L441.221 38.1539Z" fill="#1A2947"/>
</g>
<path d="M408.5 53.0401L448.213 51.9467L423.267 48.2334C423.267 48.2334 418.86 50.6267 416.787 51.4201C413.787 52.5734 408.5 53.0401 408.5 53.0401Z" fill="#CC83A7" stroke="black" stroke-width="0.5" stroke-miterlimit="10" stroke-linecap="round" stroke-linejoin="round"/>
<path d="M443.92 82.1461L502.24 52.2595C503.68 51.5261 521.827 45.1928 523.673 45.8928C525.66 46.6461 525.353 48.5328 523.92 49.2728L449.393 86.7261C448.753 87.0528 440.487 89.0128 440.487 89.0128C440.06 89.1261 438.973 88.6461 439.267 88.1195C439.493 87.7128 443.2 82.5195 443.92 82.1461Z" fill="black"/>
<path d="M522.433 46.8335C522.433 46.8335 525.547 45.4069 526.333 44.9402C527.12 44.4735 528.92 45.1202 527.727 45.8469C526.533 46.5669 522.78 48.4602 522.78 48.4602" fill="black"/>
<path d="M521.347 44.1136L521.38 44.1736C521.667 44.7336 522.36 44.9602 522.92 44.6736L529.38 41.3669C529.94 41.0802 530.167 40.3869 529.88 39.8269L529.847 39.7669C529.56 39.2069 528.867 38.9802 528.307 39.2669L521.847 42.5736C521.28 42.8602 521.06 43.5536 521.347 44.1136Z" fill="#F8C6DF" stroke="black" stroke-width="0.75" stroke-miterlimit="10" stroke-linecap="round" stroke-linejoin="round"/>
<path d="M447.173 78.2133L519.313 41.2599C521.093 40.3466 523.266 41.0533 524.179 42.8266C525.093 44.6066 524.386 46.7799 522.613 47.6933L450.473 84.6466C448.693 85.5599 446.519 84.8533 445.606 83.0799C444.693 81.3066 445.399 79.1266 447.173 78.2133Z" fill="#4C5FD5" stroke="black" stroke-width="0.75" stroke-miterlimit="10" stroke-linecap="round" stroke-linejoin="round"/>
<path d="M488.193 55.7804L516.253 42.7338C516.546 42.5804 517.026 42.5938 517.319 42.7604L519.293 42.4404C519.586 42.6071 519.366 44.1738 519.066 44.3204L491.226 58.5804C490.933 58.7338 490.453 58.7204 490.159 58.5538L488.406 57.5671C488.119 57.4004 487.899 55.9338 488.193 55.7804Z" fill="black" stroke="black" stroke-width="0.5" stroke-miterlimit="10" stroke-linecap="round" stroke-linejoin="round"/>
<path d="M448.52 85.3997L449.347 85.0063C450.667 84.013 450.093 82.0463 449.647 81.093C449.2 80.1397 447.64 78.653 446.32 79.0063L445.213 79.853L438.767 85.5263C438.327 85.913 438.207 86.5463 438.473 87.0663C438.747 87.5997 439.36 87.873 439.94 87.7197L448.52 85.3997Z" fill="white" stroke="black" stroke-width="0.75" stroke-miterlimit="10" stroke-linecap="round" stroke-linejoin="round"/>
<path d="M488.419 55.58L516.259 41.32C516.553 41.1667 517.033 41.18 517.326 41.3467L519.079 42.3333C519.373 42.5 519.366 42.7534 519.073 42.9067L491.233 57.1667C490.939 57.32 490.459 57.3067 490.166 57.14L488.413 56.1534C488.119 55.9934 488.119 55.7333 488.419 55.58Z" fill="white" stroke="black" stroke-width="0.75" stroke-miterlimit="10" stroke-linecap="round" stroke-linejoin="round"/>
<path d="M436.527 88.1339C436.667 88.4139 437.013 88.5206 437.287 88.3806L439.427 87.2272C439.707 87.0872 439.813 86.7406 439.673 86.4672C439.533 86.1872 439.187 86.0806 438.913 86.2206L436.773 87.3739C436.493 87.5139 436.387 87.8539 436.527 88.1339Z" fill="black" stroke="black" stroke-width="0.5" stroke-miterlimit="10" stroke-linecap="round" stroke-linejoin="round"/>
<path d="M206.379 50.2524C207.081 50.2033 207.773 50.2407 208.454 50.3637C209.135 50.4761 209.736 50.6798 210.258 50.9741L209.46 52.9975C208.938 52.7353 208.417 52.5528 207.895 52.4506C207.374 52.3378 206.863 52.2994 206.363 52.3344C205.863 52.3694 205.453 52.4565 205.134 52.5961C204.815 52.7357 204.586 52.9063 204.448 53.1078C204.31 53.2988 204.24 53.5169 204.24 53.7621C204.24 54.0501 204.357 54.2769 204.592 54.4418C204.826 54.5961 205.134 54.7135 205.517 54.7934C205.9 54.8732 206.321 54.9502 206.778 55.0248C207.246 55.0988 207.709 55.1897 208.167 55.2963C208.635 55.4022 209.06 55.5592 209.443 55.767C209.826 55.9748 210.135 56.2619 210.369 56.6293C210.614 56.9962 210.736 57.4734 210.736 58.06C210.736 58.6892 210.561 59.2775 210.21 59.8246C209.859 60.3718 209.332 60.8305 208.63 61.1996C207.938 61.568 207.06 61.7893 205.996 61.8637C205.102 61.9262 204.246 61.8682 203.427 61.6909C202.607 61.5028 201.947 61.2351 201.447 60.8862L202.325 58.8725C202.804 59.1802 203.367 59.4234 204.016 59.602C204.676 59.7692 205.341 59.8295 206.011 59.7826C206.522 59.7469 206.932 59.6698 207.241 59.5522C207.56 59.4232 207.794 59.2633 207.943 59.0717C208.092 58.88 208.167 58.6666 208.167 58.4321C208.167 58.1334 208.049 57.9067 207.815 57.7524C207.581 57.5875 207.272 57.465 206.889 57.3852C206.506 57.2947 206.081 57.218 205.613 57.1547C205.156 57.0801 204.693 56.9842 204.224 56.8676C203.767 56.7503 203.347 56.5872 202.964 56.3793C202.581 56.1715 202.266 55.8848 202.021 55.518C201.787 55.1504 201.671 54.6671 201.671 54.0698C201.671 53.4299 201.841 52.8368 202.181 52.2905C202.533 51.7326 203.054 51.2751 203.746 50.9174C204.448 50.5484 205.325 50.3261 206.379 50.2524Z" fill="#1A2947"/>
<path d="M220.946 51.5063L215.073 51.9174V54.3491L220.26 53.9858V56.0024L215.073 56.3647V58.9575L221.154 58.5317V60.6118L212.503 61.2162V50.017L220.946 49.4262V51.5063Z" fill="#1A2947"/>
<path d="M228.961 60.0659L226.407 60.2446L221.587 49.3823L224.38 49.1869L227.777 56.9487L231.227 48.7075L233.797 48.5278L228.961 60.0659Z" fill="#1A2947"/>
<path d="M243.174 49.9526L237.3 50.3637V52.7953L242.487 52.4321V54.4487L237.3 54.811V57.4037L243.381 56.978V59.058L234.73 59.6625V48.4633L243.174 47.8725V49.9526Z" fill="#1A2947"/>
<path d="M255.685 58.1977L253.562 58.3461L247.992 51.936V58.7358L245.438 58.9135V47.7143L247.577 47.5639L253.132 53.9711V47.1762L255.685 46.9975V58.1977Z" fill="#1A2947"/>
<path d="M268.212 53.3569V57.3217L265.626 57.5024V53.5092L261.301 46.6049L264.046 46.4125L267.023 51.1752L270.015 45.9955L272.553 45.8178L268.212 53.3569Z" fill="#1A2947"/>
<path d="M281.985 47.2377L276.111 47.6489V50.0805L281.299 49.7172V51.7338L276.111 52.0961V54.6889L282.192 54.2631V56.3432L273.542 56.9477V45.7485L281.985 45.1576V47.2377Z" fill="#1A2947"/>
<path fill-rule="evenodd" clip-rule="evenodd" d="M295.31 55.4262L292.597 55.6166L291.605 53.2856L286.426 53.6479L285.43 56.1176L282.781 56.3022L287.761 44.7543L290.315 44.5756L295.31 55.4262ZM287.242 51.6225L290.792 51.3744L289.02 47.2114L287.242 51.6225Z" fill="#1A2947"/>
<path fill-rule="evenodd" clip-rule="evenodd" d="M301.306 43.8071C302.306 43.7372 303.168 43.8426 303.891 44.1225C304.615 44.3919 305.174 44.8165 305.568 45.3969C305.962 45.9773 306.158 46.6892 306.158 47.5317C306.158 48.3637 305.962 49.0983 305.568 49.7338C305.174 50.3586 304.615 50.8564 303.891 51.227C303.884 51.2307 303.876 51.2331 303.869 51.2367L306.366 54.6537L303.573 54.8491L301.426 51.8754C301.386 51.8787 301.346 51.8843 301.306 51.8871L299.055 52.0444V55.1645L296.47 55.3451V44.1459L301.306 43.8071ZM301.163 45.9291L299.055 46.0756V49.9799L301.163 49.8334C301.961 49.7776 302.556 49.5654 302.95 49.1967C303.344 48.8172 303.541 48.3232 303.541 47.7153C303.541 47.0966 303.344 46.6306 302.95 46.3168C302.556 46.0031 301.961 45.8734 301.163 45.9291Z" fill="#1A2947"/>
<path d="M312.261 42.8481C312.964 42.799 313.655 42.8364 314.336 42.9594C315.017 43.0718 315.618 43.2756 316.139 43.5698L315.342 45.5932C314.82 45.331 314.298 45.1485 313.777 45.0463C313.256 44.9335 312.745 44.8951 312.245 44.9301C311.745 44.9651 311.336 45.0522 311.016 45.1918C310.697 45.3315 310.468 45.5019 310.33 45.7035C310.192 45.8945 310.122 46.1126 310.122 46.3578C310.122 46.6458 310.239 46.8726 310.473 47.0375C310.707 47.1918 311.016 47.3092 311.399 47.3891C311.782 47.469 312.202 47.5459 312.66 47.6205C313.128 47.6945 313.591 47.7854 314.049 47.892C314.517 47.998 314.943 48.1548 315.326 48.3627C315.709 48.5706 316.018 48.8576 316.252 49.225C316.496 49.5919 316.619 50.0691 316.619 50.6557C316.619 51.285 316.443 51.8732 316.092 52.4203C315.74 52.9676 315.214 53.4262 314.511 53.7953C313.82 54.1637 312.942 54.385 311.878 54.4594C310.984 54.5219 310.128 54.4639 309.308 54.2866C308.489 54.0985 307.829 53.8309 307.329 53.4819L308.207 51.4682C308.686 51.776 309.25 52.0191 309.899 52.1977C310.559 52.3648 311.224 52.4252 311.894 52.3784C312.405 52.3426 312.814 52.2654 313.123 52.1479C313.442 52.019 313.676 51.859 313.825 51.6674C313.974 51.4757 314.049 51.2623 314.049 51.0278C314.049 50.7292 313.932 50.5024 313.698 50.3481C313.464 50.1832 313.155 50.0608 312.772 49.9809C312.389 49.8903 311.963 49.8137 311.495 49.7504C311.037 49.6758 310.574 49.5799 310.106 49.4633C309.649 49.346 309.228 49.1829 308.845 48.975C308.463 48.7672 308.149 48.4803 307.904 48.1137C307.67 47.7461 307.552 47.2628 307.552 46.6655C307.553 46.0256 307.723 45.4325 308.063 44.8862C308.414 44.3283 308.936 43.8708 309.628 43.5131C310.33 43.144 311.208 42.9217 312.261 42.8481Z" fill="#1A2947"/>
<path fill-rule="evenodd" clip-rule="evenodd" d="M328.316 41.726C329.199 41.6643 330.008 41.7521 330.742 41.9887C331.487 42.2246 332.131 42.5842 332.674 43.0688C333.227 43.5528 333.658 44.1364 333.967 44.8188C334.275 45.4905 334.429 46.2477 334.429 47.0903C334.429 47.9222 334.275 48.7066 333.967 49.4428C333.658 50.1684 333.227 50.8121 332.674 51.3735C332.131 51.9234 331.487 52.3684 330.742 52.7084C330.008 53.0477 329.204 53.248 328.332 53.309C327.449 53.3707 326.629 53.2834 325.874 53.0483C325.129 52.8124 324.48 52.453 323.927 51.9692C323.384 51.4845 322.959 50.9006 322.65 50.2182C322.352 49.5351 322.203 48.7776 322.203 47.9457C322.203 47.1137 322.352 46.3346 322.65 45.6098C322.959 44.8844 323.39 44.2414 323.943 43.6801C324.496 43.1188 325.146 42.6677 325.89 42.3276C326.635 41.9875 327.444 41.787 328.316 41.726ZM329.705 44.0932C329.279 43.9523 328.816 43.899 328.316 43.934C327.816 43.969 327.353 44.0862 326.927 44.2866C326.513 44.4862 326.145 44.7577 325.826 45.1C325.507 45.4423 325.257 45.8386 325.076 46.2885C324.906 46.7377 324.821 47.2289 324.821 47.7621C324.821 48.2848 324.906 48.7645 325.076 49.2006C325.257 49.6253 325.502 49.9872 325.81 50.2856C326.129 50.5831 326.502 50.8019 326.927 50.9428C327.353 51.0837 327.816 51.1369 328.316 51.102C328.816 51.067 329.274 50.9491 329.689 50.7494C330.115 50.549 330.487 50.2782 330.806 49.936C331.126 49.5937 331.371 49.1977 331.541 48.7485C331.722 48.2986 331.811 47.807 331.811 47.2739C331.811 46.7406 331.722 46.261 331.541 45.8364C331.371 45.4109 331.126 45.0491 330.806 44.7514C330.498 44.453 330.13 44.2341 329.705 44.0932Z" fill="#1A2947"/>
<path d="M338.958 50.2621L344.56 49.8696V51.9819L336.373 52.5541V41.3549L338.958 41.1733V50.2621Z" fill="#1A2947"/>
<path fill-rule="evenodd" clip-rule="evenodd" d="M351.081 40.3266C352.294 40.2418 353.363 40.4016 354.289 40.8061C355.214 41.2 355.938 41.7948 356.46 42.5903C356.981 43.3857 357.242 44.3544 357.242 45.4955C357.242 46.626 356.981 47.6312 356.46 48.5102C355.938 49.3786 355.215 50.0806 354.289 50.6147C353.363 51.138 352.294 51.442 351.081 51.5268L346.006 51.8813V40.6821L351.081 40.3266ZM350.953 42.4633L348.591 42.6293V49.5727L350.953 49.4076C351.698 49.3556 352.342 49.1721 352.885 48.8569C353.438 48.5302 353.863 48.0947 354.161 47.5512C354.469 47.007 354.624 46.3831 354.624 45.6791C354.624 44.9645 354.469 44.3619 354.161 43.8715C353.863 43.3697 353.438 42.9988 352.885 42.7602C352.342 42.5101 351.698 42.4112 350.953 42.4633Z" fill="#1A2947"/>
<path fill-rule="evenodd" clip-rule="evenodd" d="M175.161 30.9496C176.161 30.8797 177.023 30.985 177.747 31.2651C178.47 31.5344 179.029 31.9592 179.423 32.5395C179.816 33.1199 180.013 33.8318 180.013 34.6742C180.013 35.5062 179.816 36.2409 179.423 36.8764C179.029 37.5011 178.47 37.999 177.747 38.3696C177.739 38.3734 177.731 38.3755 177.723 38.3793L180.22 41.7963L177.427 41.9916L175.281 39.018C175.241 39.0213 175.201 39.0269 175.161 39.0297L172.91 39.1869V42.3071L170.325 42.4877V31.2885L175.161 30.9496ZM175.017 33.0717L172.91 33.2182V37.1225L175.017 36.976C175.815 36.9202 176.411 36.7079 176.804 36.3393C177.198 35.9598 177.395 35.4658 177.395 34.8578C177.395 34.2392 177.198 33.7732 176.804 33.4594C176.411 33.1457 175.815 33.0159 175.017 33.0717Z" fill="#1A2947"/>
<path d="M190.506 31.9565L184.632 32.3676V34.7992L189.819 34.436V36.4526L184.632 36.8149V39.4076L190.713 38.9819V41.0619L182.062 41.6664V30.4672L190.506 29.8764V31.9565Z" fill="#1A2947"/>
<path d="M205.363 40.0375L202.937 40.2065L202.923 33.4838L199.634 39.2543L198.469 39.3354L195.196 34.1703V40.7485L192.77 40.9174V29.7182L194.909 29.5678L199.094 36.2299L203.209 28.9877L205.332 28.8393L205.363 40.0375Z" fill="#1A2947"/>
<path d="M210.599 39.6713L208.014 39.852V28.6528L210.599 28.4711V39.6713Z" fill="#1A2947"/>
<path d="M219.106 33.2846L223.275 38.7846L220.29 38.9936L217.596 35.2895L214.943 39.3676L211.974 39.5746L216.1 33.5825L212.181 28.3608L215.119 28.1547L217.679 31.602L220.194 27.8002L223.004 27.6039L219.106 33.2846Z" fill="#1A2947"/>
<path d="M231.751 38.1918L229.166 38.3725V27.1733L231.751 26.9916V38.1918Z" fill="#1A2947"/>
<path d="M239.765 26.2397C240.734 26.172 241.607 26.2818 242.384 26.5688C243.171 26.8444 243.83 27.2894 244.362 27.9028L242.703 29.5551C242.32 29.1446 241.894 28.849 241.426 28.6684C240.957 28.4771 240.447 28.4002 239.893 28.4389C239.372 28.4754 238.893 28.5942 238.457 28.7953C238.021 28.9965 237.643 29.2685 237.324 29.6108C237.005 29.9531 236.754 30.3493 236.573 30.7993C236.403 31.2484 236.318 31.7397 236.318 32.2729C236.318 32.8062 236.403 33.2859 236.573 33.7114C236.754 34.136 237.005 34.4967 237.324 34.7944C237.643 35.092 238.021 35.3114 238.457 35.4516C238.893 35.5918 239.372 35.6433 239.893 35.6069C240.447 35.5682 240.957 35.4261 241.426 35.1801C241.894 34.9234 242.32 34.5572 242.703 34.0825L244.362 35.5024C243.83 36.1902 243.171 36.7329 242.384 37.1293C241.607 37.525 240.729 37.7562 239.75 37.8246C238.888 37.8849 238.084 37.8028 237.34 37.5776C236.605 37.3409 235.967 36.9802 235.425 36.4955C234.882 36.0108 234.456 35.427 234.147 34.7446C233.849 34.0616 233.701 33.2989 233.701 32.4565C233.701 31.6138 233.849 30.8297 234.147 30.1049C234.456 29.3793 234.882 28.7358 235.425 28.1752C235.978 27.6141 236.621 27.1689 237.355 26.8403C238.089 26.501 238.893 26.3007 239.765 26.2397Z" fill="#1A2947"/>
<path fill-rule="evenodd" clip-rule="evenodd" d="M251.286 25.434C252.169 25.3723 252.978 25.4601 253.712 25.6967C254.456 25.9326 255.1 26.2923 255.642 26.7768C256.196 27.2607 256.627 27.8444 256.935 28.5268C257.244 29.1985 257.398 29.9557 257.398 30.7983C257.398 31.6303 257.244 32.4146 256.935 33.1508C256.627 33.8763 256.196 34.5201 255.642 35.0815C255.1 35.6312 254.456 36.0764 253.712 36.4164C252.977 36.7558 252.174 36.956 251.302 37.017C250.418 37.0788 249.599 36.9915 248.844 36.7563C248.099 36.5204 247.45 36.1611 246.896 35.6772C246.354 35.1925 245.927 34.6086 245.619 33.9262C245.321 33.2432 245.173 32.4856 245.173 31.6537C245.173 30.8217 245.321 30.0426 245.619 29.3178C245.927 28.5924 246.359 27.9494 246.912 27.3881C247.465 26.8268 248.114 26.3757 248.859 26.0356C249.604 25.6955 250.413 25.495 251.286 25.434ZM252.674 27.8012C252.248 27.6604 251.786 27.6071 251.286 27.642C250.786 27.677 250.323 27.7943 249.897 27.9946C249.482 28.1942 249.115 28.4657 248.796 28.808C248.476 29.1503 248.227 29.5466 248.046 29.9965C247.875 30.4457 247.79 30.9369 247.79 31.4701C247.79 31.9928 247.875 32.4725 248.046 32.9086C248.227 33.3332 248.472 33.6952 248.78 33.9936C249.099 34.291 249.472 34.51 249.897 34.6508C250.323 34.7916 250.786 34.845 251.286 34.81C251.786 34.775 252.243 34.6571 252.658 34.4575C253.083 34.2571 253.456 33.9862 253.775 33.644C254.094 33.3017 254.339 32.9057 254.51 32.4565C254.69 32.0066 254.781 31.5151 254.781 30.9819C254.781 30.4485 254.69 29.9691 254.51 29.5444C254.339 29.119 254.094 28.7571 253.775 28.4594C253.467 28.1611 253.099 27.9421 252.674 27.8012Z" fill="#1A2947"/>
<path d="M269.589 35.5463L267.466 35.6948L261.895 29.2846V36.0844L259.342 36.2621V25.0629L261.48 24.9125L267.035 31.3198V24.5248L269.589 24.3461V35.5463Z" fill="#1A2947"/>
<path d="M279.338 34.8647L276.753 35.0453V23.8461L279.338 23.6645V34.8647Z" fill="#1A2947"/>
<path d="M286.044 23.0034C286.746 22.9542 287.438 22.9916 288.119 23.1147C288.8 23.2271 289.401 23.4308 289.923 23.725L289.124 25.7485C288.603 25.4864 288.082 25.3038 287.56 25.2016C287.039 25.0887 286.528 25.0504 286.028 25.0854C285.528 25.1204 285.118 25.2074 284.799 25.3471C284.48 25.4867 284.25 25.6572 284.112 25.8588C283.974 26.0497 283.905 26.268 283.905 26.5131C283.905 26.8011 284.022 27.0278 284.257 27.1928C284.491 27.3469 284.799 27.4645 285.181 27.5444C285.564 27.6242 285.986 27.7011 286.443 27.7758C286.911 27.8497 287.374 27.9406 287.832 28.0473C288.3 28.1532 288.725 28.3102 289.108 28.518C289.491 28.7258 289.8 29.0129 290.034 29.3803C290.279 29.7472 290.401 30.2244 290.401 30.811C290.401 31.4402 290.226 32.0285 289.875 32.5756C289.524 33.1228 288.997 33.5815 288.295 33.9506C287.603 34.319 286.725 34.5403 285.661 34.6147C284.767 34.6772 283.91 34.6192 283.091 34.4418C282.272 34.2538 281.612 33.986 281.112 33.6371L281.99 31.6235C282.469 31.9312 283.033 32.1744 283.681 32.353C284.341 32.5201 285.006 32.5805 285.677 32.5336C286.187 32.4979 286.597 32.4207 286.906 32.3032C287.225 32.1742 287.459 32.0143 287.608 31.8227C287.757 31.631 287.832 31.4176 287.832 31.183C287.832 30.8844 287.714 30.6576 287.48 30.5034C287.246 30.3384 286.937 30.216 286.554 30.1362C286.172 30.0457 285.746 29.9689 285.278 29.9057C284.821 29.831 284.357 29.7351 283.889 29.6186C283.432 29.5012 283.011 29.3382 282.628 29.1303C282.245 28.9225 281.931 28.6356 281.686 28.269C281.452 27.9013 281.336 27.4181 281.336 26.8207C281.336 26.1809 281.506 25.5878 281.846 25.0414C282.198 24.4837 282.719 24.026 283.41 23.6684C284.112 23.2993 284.99 23.077 286.044 23.0034Z" fill="#1A2947"/>
<defs>
<linearGradient id="paint0_linear_4375_2968" x1="-1.00001" y1="-56" x2="88.5" y2="56" gradientUnits="userSpaceOnUse">
<stop stop-color="#EBEDFF"/>
<stop offset="1" stop-color="white"/>
</linearGradient>
<clipPath id="clip0_4375_2968">
<rect width="560" height="80" rx="12" fill="white"/>
</clipPath>
</defs>
</svg>
