<svg width="560" height="140" viewBox="0 0 560 140" fill="none" xmlns="http://www.w3.org/2000/svg">
<g clip-path="url(#clip0_3812_6987)">
<rect width="560" height="140" rx="12" fill="#F5F7FC"/>
<rect x="375" y="-47" width="192" height="312" stroke="#E1E6F0"/>
<circle cx="567" cy="79" r="126" stroke="#E1E6F0"/>
<path fill-rule="evenodd" clip-rule="evenodd" d="M375 -47H376.5L687 265H375V-47Z" stroke="#E1E6F0"/>
<path d="M689.975 51.4302L690.463 51.3213L690.32 50.6841L689.742 50.9874L689.975 51.4302ZM570.465 -46.9533L570.944 -46.8109L571.129 -47.4355L570.478 -47.4531L570.465 -46.9533ZM375 -47V-47.5H374.5V-47H375ZM375 265H374.5V265.5H375V265ZM687 265V265.5H688.203L687.354 264.647L687 265ZM617.019 194.681L616.821 194.222L616.147 194.514L616.665 195.034L617.019 194.681ZM689.742 50.9874C678.164 57.0627 664.984 60.5 651 60.5V61.5C665.15 61.5 678.489 58.0217 690.207 51.8729L689.742 50.9874ZM651 60.5C604.884 60.5 567.5 23.1158 567.5 -23H566.5C566.5 23.6681 604.332 61.5 651 61.5V60.5ZM567.5 -23C567.5 -31.2739 568.703 -39.2659 570.944 -46.8109L569.985 -47.0956C567.717 -39.4591 566.5 -31.3713 566.5 -23H567.5ZM567 -46.5C568.154 -46.5 569.305 -46.4844 570.451 -46.4535L570.478 -47.4531C569.323 -47.4843 568.163 -47.5 567 -47.5V-46.5ZM376.5 -46.5H567V-47.5H376.5V-46.5ZM375 -46.5H376.5V-47.5H375V-46.5ZM375.5 265V-47H374.5V265H375.5ZM567 264.5H375V265.5H567V264.5ZM687 264.5H567V265.5H687V264.5ZM616.665 195.034L686.646 265.353L687.354 264.647L617.374 194.329L616.665 195.034ZM692.5 79C692.5 130.609 661.348 174.943 616.821 194.222L617.218 195.14C662.098 175.708 693.5 131.022 693.5 79H692.5ZM689.487 51.5391C691.459 60.3769 692.5 69.5666 692.5 79H693.5C693.5 69.4928 692.451 60.23 690.463 51.3213L689.487 51.5391Z" fill="#E1E6F0"/>
<rect x="-32" y="-77" width="192" height="312" stroke="#E1E6F0"/>
<circle cx="244" cy="-53" r="84" stroke="#E1E6F0"/>
<circle cx="160" cy="49" r="126" stroke="#E1E6F0"/>
<path fill-rule="evenodd" clip-rule="evenodd" d="M-32 -77H-30.5L280 235H-32V-77Z" stroke="#E1E6F0"/>
<path d="M282.975 21.4302L283.463 21.3213L283.32 20.6841L282.742 20.9874L282.975 21.4302ZM163.465 -76.9533L163.944 -76.8109L164.129 -77.4355L163.478 -77.4531L163.465 -76.9533ZM-32 -77V-77.5H-32.5V-77H-32ZM-32 235H-32.5V235.5H-32V235ZM280 235V235.5H281.203L280.354 234.647L280 235ZM210.019 164.681L209.821 164.222L209.147 164.514L209.665 165.034L210.019 164.681ZM282.742 20.9874C271.164 27.0627 257.984 30.5 244 30.5V31.5C258.15 31.5 271.489 28.0217 283.207 21.8729L282.742 20.9874ZM244 30.5C197.884 30.5 160.5 -6.88422 160.5 -53H159.5C159.5 -6.33194 197.332 31.5 244 31.5V30.5ZM160.5 -53C160.5 -61.2739 161.703 -69.2659 163.944 -76.8109L162.985 -77.0956C160.717 -69.4591 159.5 -61.3713 159.5 -53H160.5ZM160 -76.5C161.154 -76.5 162.305 -76.4844 163.451 -76.4535L163.478 -77.4531C162.323 -77.4843 161.163 -77.5 160 -77.5V-76.5ZM-30.5 -76.5H160V-77.5H-30.5V-76.5ZM-32 -76.5H-30.5V-77.5H-32V-76.5ZM-31.5 235V-77H-32.5V235H-31.5ZM160 234.5H-32V235.5H160V234.5ZM280 234.5H160V235.5H280V234.5ZM209.665 165.034L279.646 235.353L280.354 234.647L210.374 164.329L209.665 165.034ZM285.5 49C285.5 100.609 254.348 144.943 209.821 164.222L210.218 165.14C255.098 145.708 286.5 101.022 286.5 49H285.5ZM282.487 21.5391C284.459 30.3769 285.5 39.5666 285.5 49H286.5C286.5 39.4928 285.451 30.23 283.463 21.3213L282.487 21.5391Z" fill="#E1E6F0"/>
<path d="M263.5 69.5337V56.4614V55.9252L262.965 55.9626L97.9651 67.5005L97.5 67.5331V67.9993V117.679V118.215L98.0349 118.178L237.5 108.426V120.478V121.014L238.035 120.977L459.035 105.523L459.5 105.491V105.024V56.3643V55.8281L458.965 55.8655L263.5 69.5337Z" fill="#F8C6DF" stroke="#1A2947"/>
<path d="M139.431 77.5087V102.709L132.321 103.206V93.3779L122.624 94.056V103.884L115.514 104.381V79.1812L122.624 78.684V88.152L132.321 87.4739V78.0059L139.431 77.5087Z" fill="#1A2947"/>
<path d="M161.29 96.2842L150.66 97.0275L148.685 102.062L141.43 102.569L152.527 76.5929L159.53 76.1032L170.663 100.525L163.265 101.042L161.29 96.2842ZM159.207 91.1739L155.975 83.3359L152.743 91.6259L159.207 91.1739Z" fill="#1A2947"/>
<path d="M184.171 74.3802C186.445 74.2212 188.42 74.467 190.096 75.1179C191.772 75.7447 193.065 76.7343 193.975 78.0866C194.885 79.415 195.339 81.0272 195.339 82.9232C195.339 84.8192 194.885 86.495 193.975 87.9506C193.065 89.4063 191.772 90.5767 190.096 91.4619C188.42 92.323 186.445 92.8332 184.171 92.9922L179.789 93.2986V99.8866L172.679 100.384V75.1838L184.171 74.3802ZM183.74 87.4063C185.2 87.3042 186.302 86.9152 187.044 86.2393C187.786 85.5394 188.157 84.6015 188.157 83.4255C188.157 82.2495 187.786 81.3634 187.044 80.7673C186.302 80.1712 185.2 79.9242 183.74 80.0263L179.789 80.3026V87.6826L183.74 87.4063Z" fill="#1A2947"/>
<path d="M210.298 72.5532C212.573 72.3941 214.548 72.64 216.224 73.2908C217.9 73.9176 219.193 74.9072 220.102 76.2596C221.012 77.588 221.467 79.2002 221.467 81.0962C221.467 82.9922 221.012 84.668 220.102 86.1236C219.193 87.5792 217.9 88.7496 216.224 89.6348C214.548 90.496 212.573 91.0061 210.298 91.1652L205.917 91.4716V98.0596L198.806 98.5568V73.3568L210.298 72.5532ZM209.867 85.5793C211.328 85.4772 212.429 85.0882 213.171 84.4123C213.913 83.7124 214.285 82.7744 214.285 81.5984C214.285 80.4224 213.913 79.5364 213.171 78.9403C212.429 78.3442 211.328 78.0972 209.867 78.1993L205.917 78.4756V85.8556L209.867 85.5793Z" fill="#1A2947"/>
<path d="M238.401 86.7521V95.7881L231.29 96.2853V87.1413L221.702 71.7558L229.208 71.2309L235.169 80.8221L241.13 70.3972L248.026 69.915L238.401 86.7521Z" fill="#1A2947"/>
<path d="M143.443 56.1512L141.289 53.1819L138.91 53.3482V56.4682L136.325 56.649V45.449L141.161 45.1108C142.15 45.0416 143.007 45.147 143.731 45.4271C144.465 45.7064 145.029 46.1363 145.422 46.7168C145.816 47.2973 146.013 48.0035 146.013 48.8355C146.013 49.6675 145.811 50.4016 145.407 51.0379C145.013 51.6628 144.449 52.1609 143.715 52.5322L146.221 55.957L143.443 56.1512ZM143.395 49.0185C143.395 48.3892 143.193 47.9233 142.789 47.6209C142.385 47.3079 141.794 47.1785 141.017 47.2328L138.91 47.3802V51.2842L141.017 51.1368C141.794 51.0825 142.385 50.8706 142.789 50.5009C143.193 50.1313 143.395 49.6372 143.395 49.0185Z" fill="#6F42C1"/>
<path d="M156.713 53.1433V55.2233L148.062 55.8282V44.6282L156.505 44.0378V46.1178L150.631 46.5286V48.9606L155.819 48.5978V50.6138L150.631 50.9766V53.5686L156.713 53.1433Z" fill="#6F42C1"/>
<path d="M168.937 54.3685L168.921 47.6496L165.633 53.4155L164.468 53.497L161.196 48.3338V54.9098L158.77 55.0795V43.8795L160.909 43.7299L165.09 50.3975L169.208 43.1495L171.331 43.0011L171.363 54.1988L168.937 54.3685Z" fill="#6F42C1"/>
<path d="M174.014 42.8135L176.6 42.6327V53.8327L174.014 54.0135V42.8135Z" fill="#6F42C1"/>
<path d="M186.29 53.1551L183.593 49.4557L180.943 53.529L177.974 53.7366L182.108 47.7515L178.182 42.522L181.119 42.3167L183.688 45.769L186.21 41.9606L189.003 41.7653L185.109 47.4457L189.275 52.9464L186.29 53.1551Z" fill="#6F42C1"/>
<path d="M195.165 41.3344L197.751 41.1536V52.3536L195.165 52.5344V41.3344Z" fill="#6F42C1"/>
<path d="M205.75 51.9863C204.611 52.0659 203.579 51.8928 202.653 51.4668C201.738 51.0295 201.014 50.3921 200.482 49.5546C199.961 48.7058 199.7 47.7267 199.7 46.6173C199.7 45.508 199.961 44.4978 200.482 43.5866C201.014 42.6641 201.738 41.9255 202.653 41.3708C203.579 40.8048 204.616 40.4816 205.766 40.4012C206.734 40.3335 207.606 40.4431 208.383 40.7302C209.171 41.0164 209.83 41.461 210.362 42.0638L208.702 43.7158C207.947 42.894 207.01 42.5221 205.893 42.6003C205.202 42.6486 204.584 42.8465 204.042 43.1937C203.499 43.5304 203.073 43.9814 202.765 44.547C202.467 45.1119 202.318 45.7409 202.318 46.4343C202.318 47.1276 202.467 47.7359 202.765 48.259C203.073 48.7814 203.499 49.1784 204.042 49.4497C204.584 49.7105 205.202 49.8166 205.893 49.7683C207.01 49.6901 207.947 49.182 208.702 48.2438L210.362 49.6638C209.83 50.3516 209.171 50.8938 208.383 51.2902C207.596 51.6866 206.718 51.9186 205.75 51.9863Z" fill="#6F42C1"/>
<path d="M217.285 51.1797C216.126 51.2608 215.077 51.0834 214.141 50.6475C213.215 50.2109 212.486 49.5739 211.954 48.7364C211.433 47.8876 211.172 46.9138 211.172 45.8151C211.172 44.7165 211.433 43.7116 211.954 42.8004C212.486 41.8779 213.215 41.1336 214.141 40.5675C215.077 40.0007 216.126 39.6768 217.285 39.5956C218.445 39.5145 219.488 39.6923 220.414 40.1289C221.339 40.5655 222.068 41.2079 222.6 42.056C223.132 42.8935 223.398 43.8615 223.398 44.9602C223.398 46.0588 223.132 47.0695 222.6 47.992C222.068 48.9039 221.339 49.6428 220.414 50.2089C219.488 50.775 218.445 51.0985 217.285 51.1797ZM217.285 48.9717C217.945 48.9255 218.541 48.7345 219.073 48.3986C219.605 48.0521 220.02 47.5964 220.318 47.0316C220.627 46.466 220.781 45.8366 220.781 45.1432C220.781 44.4499 220.627 43.842 220.318 43.3196C220.02 42.7964 219.605 42.4041 219.073 42.1426C218.541 41.8705 217.945 41.7575 217.285 41.8036C216.626 41.8498 216.03 42.0461 215.498 42.3927C214.966 42.7285 214.545 43.1792 214.237 43.7448C213.939 44.3097 213.79 44.9387 213.79 45.6321C213.79 46.3254 213.939 46.9337 214.237 47.4568C214.545 47.9792 214.966 48.3765 215.498 48.6487C216.03 48.9101 216.626 49.0178 217.285 48.9717Z" fill="#6F42C1"/>
<path d="M235.589 38.5078V49.7078L233.466 49.8562L227.895 43.4457V50.2457L225.342 50.4243V39.2243L227.48 39.0747L233.035 45.4863V38.6863L235.589 38.5078Z" fill="#6F42C1"/>
<path d="M242.752 38.0068L245.338 37.826V49.026L242.752 49.2068V38.0068Z" fill="#6F42C1"/>
<path d="M251.661 48.7759C250.777 48.8377 249.921 48.7802 249.091 48.6036C248.272 48.4156 247.612 48.147 247.112 47.798L247.99 45.7846C248.468 46.1031 249.038 46.346 249.697 46.5132C250.357 46.6804 251.017 46.7409 251.677 46.6948C252.411 46.6434 252.953 46.4988 253.305 46.2609C253.656 46.0124 253.831 45.7068 253.831 45.3441C253.831 45.0774 253.725 44.8662 253.512 44.7104C253.31 44.5432 253.044 44.4178 252.714 44.3342C252.395 44.2499 251.959 44.1631 251.405 44.0738C250.554 43.9306 249.857 43.7767 249.314 43.612C248.772 43.4473 248.303 43.1547 247.91 42.7342C247.527 42.313 247.335 41.729 247.335 40.9824C247.335 40.3317 247.511 39.7328 247.862 39.1855C248.213 38.6276 248.74 38.1695 249.442 37.811C250.155 37.4519 251.022 37.2365 252.044 37.1651C252.757 37.1153 253.454 37.1519 254.135 37.2749C254.816 37.398 255.411 37.6016 255.922 37.8859L255.124 39.9097C254.092 39.3952 253.06 39.1741 252.028 39.2462C251.304 39.2968 250.767 39.4517 250.416 39.711C250.075 39.9694 249.905 40.2907 249.905 40.6747C249.905 41.0587 250.102 41.3329 250.495 41.4974C250.9 41.6504 251.512 41.789 252.331 41.913C253.182 42.0562 253.879 42.2101 254.422 42.3748C254.965 42.5395 255.427 42.8272 255.81 43.2377C256.204 43.6475 256.401 44.2258 256.401 44.9724C256.401 45.6124 256.22 46.2117 255.858 46.7704C255.507 47.3176 254.975 47.7708 254.262 48.13C253.549 48.4892 252.682 48.7045 251.661 48.7759Z" fill="#6F42C1"/>
<path d="M308.687 55.7489V59.7169L306.102 59.8977V55.8977L301.776 49.0002L304.522 48.8082L307.506 53.5755L310.491 48.3908L313.029 48.2133L308.687 55.7489Z" fill="#6F42C1"/>
<path d="M322.653 56.6604V58.7404L314.002 59.3453V48.1453L322.445 47.5549V49.6349L316.571 50.0456V52.4776L321.759 52.1149V54.1309L316.571 54.4936V57.0856L322.653 56.6604Z" fill="#6F42C1"/>
<path d="M332.068 55.682L326.881 56.0447L325.891 58.5139L323.241 58.6992L328.221 47.151L330.775 46.9724L335.771 57.823L333.057 58.0128L332.068 55.682ZM331.254 53.7709L329.482 49.6068L327.711 54.0187L331.254 53.7709Z" fill="#6F42C1"/>
<path d="M344.049 57.2442L341.894 54.2749L339.516 54.4412V57.5612L336.93 57.742V46.542L341.766 46.2038C342.756 46.1346 343.612 46.24 344.336 46.5201C345.07 46.7994 345.634 47.2293 346.028 47.8098C346.422 48.3903 346.618 49.0965 346.618 49.9285C346.618 50.7605 346.416 51.4947 346.012 52.1309C345.618 52.7558 345.054 53.2539 344.32 53.6252L346.826 57.05L344.049 57.2442ZM344.001 50.1116C344.001 49.4822 343.799 49.0164 343.394 48.714C342.99 48.4009 342.399 48.2715 341.623 48.3259L339.516 48.4732V52.3772L341.623 52.2299C342.399 52.1755 342.99 51.9636 343.394 51.594C343.799 51.2244 344.001 50.7302 344.001 50.1116Z" fill="#6F42C1"/>
<path d="M352.338 56.8566C351.455 56.9183 350.598 56.8609 349.768 56.6843C348.949 56.4962 348.289 56.2277 347.789 55.8786L348.667 53.8653C349.146 54.1838 349.715 54.4266 350.375 54.5938C351.035 54.761 351.694 54.8216 352.354 54.7754C353.088 54.7241 353.631 54.5795 353.982 54.3416C354.333 54.093 354.509 53.7874 354.509 53.4248C354.509 53.1581 354.402 52.9469 354.19 52.7911C353.987 52.6239 353.721 52.4985 353.391 52.4149C353.072 52.3306 352.636 52.2437 352.083 52.1544C351.231 52.0113 350.534 51.8573 349.992 51.6926C349.449 51.5279 348.981 51.2353 348.587 50.8148C348.204 50.3936 348.013 49.8097 348.013 49.063C348.013 48.4124 348.188 47.8134 348.539 47.2662C348.89 46.7083 349.417 46.2501 350.119 45.8917C350.832 45.5325 351.7 45.3172 352.721 45.2458C353.434 45.1959 354.131 45.2325 354.812 45.3556C355.493 45.4786 356.089 45.6823 356.6 45.9666L355.802 47.9904C354.769 47.4759 353.737 47.2547 352.705 47.3269C351.982 47.3775 351.444 47.5324 351.093 47.7916C350.753 48.0501 350.582 48.3713 350.582 48.7553C350.582 49.1393 350.779 49.4136 351.173 49.578C351.577 49.7311 352.189 49.8696 353.008 49.9937C353.86 50.1368 354.557 50.2908 355.099 50.4555C355.642 50.6202 356.105 50.9078 356.488 51.3184C356.882 51.7282 357.078 52.3064 357.078 53.0531C357.078 53.6931 356.898 54.2924 356.536 54.851C356.185 55.3982 355.653 55.8514 354.94 56.2106C354.227 56.5698 353.36 56.7851 352.338 56.8566Z" fill="#6F42C1"/>
<path d="M368.776 55.7071C367.616 55.7882 366.568 55.6108 365.632 55.175C364.706 54.7384 363.977 54.1013 363.445 53.2639C362.924 52.415 362.663 51.4412 362.663 50.3426C362.663 49.2439 362.924 48.239 363.445 47.3279C363.977 46.4053 364.706 45.661 365.632 45.095C366.568 44.5281 367.616 44.2042 368.776 44.1231C369.936 44.042 370.979 44.2197 371.905 44.6563C372.83 45.0929 373.559 45.7353 374.091 46.5834C374.623 47.4209 374.889 48.3889 374.889 49.4876C374.889 50.5863 374.623 51.5969 374.091 52.5194C373.559 53.4313 372.83 54.1703 371.905 54.7363C370.979 55.3024 369.936 55.626 368.776 55.7071ZM368.776 53.4991C369.436 53.453 370.032 53.262 370.564 52.9261C371.096 52.5795 371.511 52.1239 371.809 51.559C372.117 50.9934 372.272 50.364 372.272 49.6707C372.272 48.9773 372.117 48.3694 371.809 47.847C371.511 47.3239 371.096 46.9315 370.564 46.6701C370.032 46.398 369.436 46.285 368.776 46.3311C368.117 46.3772 367.521 46.5736 366.989 46.9201C366.457 47.256 366.036 47.7067 365.728 48.2723C365.43 48.8371 365.281 49.4662 365.281 50.1595C365.281 50.8528 365.43 51.4611 365.728 51.9843C366.036 52.5067 366.457 52.904 366.989 53.1761C367.521 53.4376 368.117 53.5452 368.776 53.4991Z" fill="#6F42C1"/>
<path d="M376.833 43.7517L379.418 43.5709V52.6589L385.021 52.2672V54.3792L376.833 54.9517V43.7517Z" fill="#6F42C1"/>
<path d="M386.465 43.0781L391.541 42.7232C392.754 42.6384 393.823 42.7983 394.749 43.2029C395.685 43.5961 396.409 44.1961 396.92 45.0031C397.441 45.8093 397.702 46.7724 397.702 47.8924C397.702 49.0124 397.441 50.012 396.92 50.8911C396.409 51.7695 395.685 52.4761 394.749 53.0109C393.823 53.5343 392.754 53.8384 391.541 53.9232L386.465 54.2781V43.0781ZM391.413 51.8042C392.531 51.726 393.419 51.3546 394.079 50.6898C394.749 50.0136 395.084 49.1421 395.084 48.0754C395.084 47.0088 394.749 46.1896 394.079 45.6178C393.419 45.0346 392.531 44.782 391.413 44.8602L389.051 45.0253V51.9693L391.413 51.8042Z" fill="#6F42C1"/>
<path d="M269.834 94.2848C271.271 94.6883 272.396 95.4016 273.21 96.4247C274.024 97.4238 274.431 98.6793 274.431 100.191C274.431 102.399 273.545 104.165 271.774 105.489C270.002 106.813 267.44 107.592 264.089 107.827L250.514 108.776V83.5758L263.37 82.6768C266.578 82.4524 269.02 82.8817 270.696 83.9645C272.372 85.0233 273.21 86.5607 273.21 88.5767C273.21 89.7767 272.911 90.8776 272.312 91.8795C271.738 92.8557 270.912 93.6574 269.834 94.2848ZM257.552 88.2316V93.0916L262.437 92.7501C264.831 92.5827 266.028 91.6829 266.028 90.0509C266.028 88.4429 264.831 87.7227 262.437 87.8901L257.552 88.2316ZM263.514 102.719C266.004 102.545 267.249 101.606 267.249 99.9016C267.249 98.1976 266.004 97.4326 263.514 97.6067L257.552 98.0236V103.136L263.514 102.719Z" fill="#1A2947"/>
<path d="M278.114 81.6458L285.225 81.1486V106.349L278.114 106.846V81.6458Z" fill="#1A2947"/>
<path d="M301.273 98.5304L297.394 98.8016V105.498L290.284 105.995V80.7948L301.776 79.9912C304.05 79.8322 306.025 80.078 307.701 80.7289C309.377 81.3557 310.67 82.3453 311.58 83.6976C312.49 85.026 312.944 86.6382 312.944 88.5342C312.944 90.3582 312.513 91.9843 311.652 93.4126C310.814 94.8152 309.605 95.9558 308.024 96.8343L313.447 104.375L305.834 104.907L301.273 98.5304ZM305.762 89.0365C305.762 87.8605 305.391 86.9744 304.649 86.3783C303.906 85.7822 302.805 85.5352 301.345 85.6373L297.394 85.9136V93.2936L301.345 93.0173C302.805 92.9152 303.906 92.5262 304.649 91.8503C305.391 91.1504 305.762 90.2125 305.762 89.0365Z" fill="#1A2947"/>
<path d="M321.868 84.2382L314.146 84.7782V79.1262L336.663 77.5516V83.2036L328.978 83.741V103.289L321.868 103.786V84.2382Z" fill="#1A2947"/>
<path d="M363.23 75.6939V100.894L356.119 101.391V91.5631L346.423 92.2412V102.069L339.312 102.566V77.3664L346.423 76.8692V86.3372L356.119 85.6591V76.1911L363.23 75.6939Z" fill="#1A2947"/>
<path d="M368.246 75.3432L380.133 74.512C382.886 74.3194 385.328 74.6647 387.459 75.5477C389.59 76.4307 391.242 77.7791 392.415 79.5931C393.588 81.4071 394.174 83.5861 394.174 86.1301C394.174 88.6741 393.588 90.9351 392.415 92.9131C391.242 94.8911 389.59 96.4707 387.459 97.6517C385.328 98.8327 382.886 99.5194 380.133 99.712L368.246 100.543V75.3432ZM379.845 94.044C382 93.8934 383.724 93.1608 385.017 91.8464C386.334 90.5303 386.992 88.7923 386.992 86.6323C386.992 84.4723 386.334 82.8263 385.017 81.6944C383.724 80.5608 382 80.0694 379.845 80.22L375.356 80.5339V94.3579L379.845 94.044Z" fill="#1A2947"/>
<path d="M414.408 92.4192L403.778 93.1625L401.802 98.1967L394.548 98.7039L405.645 72.728L412.648 72.2383L423.781 96.6598L416.383 97.1771L414.408 92.4192ZM412.325 87.3089L409.093 79.4709L405.86 87.7609L412.325 87.3089Z" fill="#1A2947"/>
<path d="M437.686 86.6515V95.6875L430.575 96.1847V87.0407L420.986 71.6552L428.492 71.1303L434.453 80.7215L440.415 70.2966L447.31 69.8145L437.686 86.6515Z" fill="#1A2947"/>
<path d="M459 80.5C472.531 80.5 483.5 69.531 483.5 56C483.5 42.469 472.531 31.5 459 31.5C445.469 31.5 434.5 42.469 434.5 56C434.5 69.531 445.469 80.5 459 80.5Z" fill="#BCFF93" stroke="#1A2947"/>
<path d="M445.763 56.5001C445.763 58.0188 444.697 58.6345 443.382 57.8751C442.066 57.1157 441 55.2688 441 53.7501C441 52.2313 442.066 51.6157 443.382 52.3751C444.697 53.1345 445.763 54.9813 445.763 56.5001Z" fill="#1A2947"/>
<path d="M449.732 72.5417C446.71 70.797 444.182 66.8997 443.539 63.2639C443.405 62.5059 444.215 62.0229 444.882 62.4078L454.583 68.0091C455.511 68.5449 456.149 69.5528 455.884 70.5913C455.179 73.3484 452.692 74.2506 449.732 72.5417Z" fill="#1A2947"/>
<path d="M457.339 65.5204C456.975 65.5718 456.544 65.4746 456.083 65.2084C455.69 64.9813 455.319 64.657 454.992 64.2733C454.787 64.0482 454.595 63.7962 454.421 63.5202C453.393 61.8894 453.398 60.0388 454.432 59.3868C455.467 58.7348 457.139 59.5282 458.167 61.159C459.195 62.7898 459.189 64.6403 458.155 65.2924C457.913 65.4452 457.635 65.5186 457.339 65.5204Z" fill="#1A2947"/>
<path d="M100.5 57.5L95 38L82 40.5L95 59.5L100.5 57.5Z" fill="#1A2947"/>
<path d="M93.5 66L83 55.5L75.5 60L90.5 69.5L93.5 66Z" fill="#1A2947"/>
<path d="M266.76 20.6795L266.352 20.708L266.299 21.1125L262.549 49.3588L262.468 49.9661L263.079 49.9233C263.712 49.8791 264.376 49.8216 265.063 49.7622C267.522 49.5495 270.269 49.3119 272.847 49.569C276.129 49.8964 278.985 51.0136 280.538 53.8941L280.538 53.8941L280.543 53.9018C281.669 55.9055 281.711 58.2099 281.017 60.3673C280.323 62.5285 278.9 64.5074 277.16 65.8179L277.157 65.8202C273.083 68.9363 267.581 69.8408 262.464 70.1986L262.015 70.23L261.999 70.68L261.698 79.3054L261.679 79.8604L262.233 79.8217C273.728 79.0178 287.152 75.7224 293.913 65.249L293.915 65.2462C296.142 61.7458 297.365 57.4769 297.065 53.4404C296.765 49.392 294.929 45.5723 291.046 43.0431C286.115 39.7194 279.728 39.2174 274.055 39.5523L275.403 29.682L295.894 28.2491L296.274 28.2225L296.349 27.8495L298.115 19.1216L298.245 18.4779L297.59 18.5237L266.76 20.6795Z" fill="#BCFF93" stroke="#1A2947"/>
<path d="M395.145 126.184V127.614L388.454 128.082V126.951L392.059 123.267C392.465 122.849 392.738 122.492 392.876 122.196C393.023 121.891 393.096 121.596 393.096 121.31C393.096 120.885 392.954 120.57 392.668 120.364C392.383 120.159 391.964 120.076 391.41 120.114C390.485 120.179 389.776 120.545 389.284 121.212L388.104 120.385C388.458 119.883 388.933 119.482 389.53 119.18C390.135 118.869 390.81 118.687 391.553 118.635C392.539 118.567 393.325 118.746 393.913 119.172C394.501 119.599 394.795 120.216 394.795 121.022C394.795 121.516 394.691 121.987 394.484 122.435C394.276 122.882 393.879 123.404 393.291 124L390.866 126.484L395.145 126.184Z" fill="#5D667A"/>
<path d="M399.867 127.414C399.141 127.465 398.492 127.328 397.922 127.004C397.351 126.671 396.902 126.165 396.573 125.486C396.245 124.799 396.08 123.97 396.08 122.999C396.08 122.028 396.245 121.18 396.573 120.455C396.902 119.722 397.351 119.153 397.922 118.749C398.492 118.337 399.141 118.105 399.867 118.054C400.593 118.003 401.242 118.144 401.812 118.477C402.392 118.801 402.846 119.306 403.174 119.994C403.503 120.673 403.667 121.498 403.667 122.468C403.667 123.439 403.503 124.291 403.174 125.025C402.846 125.75 402.392 126.319 401.812 126.732C401.242 127.136 400.593 127.363 399.867 127.414ZM399.867 125.945C400.516 125.9 401.026 125.595 401.397 125.032C401.778 124.468 401.968 123.653 401.968 122.587C401.968 121.521 401.778 120.733 401.397 120.222C401.026 119.711 400.516 119.478 399.867 119.523C399.227 119.568 398.717 119.872 398.337 120.436C397.965 120.999 397.779 121.814 397.779 122.88C397.779 123.946 397.965 124.735 398.337 125.246C398.717 125.757 399.227 125.99 399.867 125.945Z" fill="#5D667A"/>
<path d="M407.881 117.624V126.724L406.195 126.842V119.159L404.276 119.293V117.876L407.881 117.624Z" fill="#5D667A"/>
<path d="M415.57 121.402C416.045 121.585 416.408 121.855 416.659 122.21C416.918 122.556 417.048 122.976 417.048 123.47C417.048 124.024 416.892 124.521 416.581 124.958C416.278 125.395 415.846 125.746 415.284 126.011C414.722 126.267 414.07 126.421 413.326 126.473C412.582 126.525 411.93 126.462 411.368 126.285C410.814 126.098 410.387 125.807 410.084 125.413C409.781 125.018 409.63 124.543 409.63 123.988C409.63 123.494 409.755 123.057 410.006 122.675C410.257 122.285 410.616 121.965 411.082 121.716C410.719 121.542 410.438 121.302 410.24 120.995C410.049 120.679 409.954 120.308 409.954 119.884C409.954 119.372 410.093 118.916 410.369 118.516C410.655 118.114 411.052 117.792 411.562 117.548C412.072 117.305 412.66 117.159 413.326 117.113C414 117.066 414.593 117.128 415.103 117.301C415.613 117.473 416.01 117.74 416.296 118.101C416.581 118.463 416.724 118.899 416.724 119.41C416.724 119.835 416.624 120.215 416.425 120.549C416.227 120.884 415.941 121.168 415.57 121.402ZM413.326 118.439C412.799 118.476 412.379 118.618 412.068 118.865C411.765 119.111 411.614 119.438 411.614 119.846C411.614 120.236 411.765 120.537 412.068 120.75C412.379 120.953 412.799 121.037 413.326 121C413.862 120.962 414.286 120.82 414.597 120.573C414.908 120.317 415.064 119.994 415.064 119.604C415.064 119.197 414.904 118.892 414.584 118.689C414.273 118.485 413.853 118.402 413.326 118.439ZM413.326 125.147C413.948 125.103 414.441 124.939 414.804 124.654C415.168 124.368 415.349 123.996 415.349 123.536C415.349 123.086 415.168 122.743 414.804 122.509C414.441 122.274 413.948 122.178 413.326 122.222C412.704 122.265 412.215 122.43 411.861 122.714C411.506 122.999 411.329 123.367 411.329 123.818C411.329 124.277 411.506 124.624 411.861 124.859C412.215 125.095 412.704 125.19 413.326 125.147Z" fill="#5D667A"/>
<path d="M418.284 121.706L421.851 121.457V122.809L418.284 123.058V121.706Z" fill="#5D667A"/>
<path d="M426.017 116.356V125.456L424.331 125.573V117.89L422.411 118.025V116.608L426.017 116.356Z" fill="#5D667A"/>
<path d="M434.392 123.44V124.87L427.701 125.338V124.207L431.306 120.523C431.712 120.104 431.984 119.747 432.123 119.452C432.27 119.147 432.343 118.851 432.343 118.565C432.343 118.14 432.201 117.825 431.915 117.62C431.63 117.415 431.211 117.331 430.657 117.37C429.732 117.435 429.023 117.801 428.531 118.468L427.35 117.64C427.705 117.139 428.18 116.737 428.777 116.436C429.382 116.125 430.057 115.943 430.8 115.891C431.786 115.822 432.572 116.001 433.16 116.428C433.748 116.855 434.042 117.471 434.042 118.277C434.042 118.771 433.938 119.242 433.731 119.69C433.523 120.138 433.126 120.66 432.538 121.256L430.113 123.739L434.392 123.44Z" fill="#5D667A"/>
<path d="M435.445 120.506L439.011 120.257V121.609L435.445 121.858V120.506Z" fill="#5D667A"/>
<path d="M443.177 115.156V124.256L441.491 124.373V116.69L439.572 116.825V115.408L443.177 115.156Z" fill="#5D667A"/>
<path d="M449.101 118.225C449.698 118.184 450.234 118.263 450.71 118.464C451.185 118.656 451.557 118.955 451.825 119.361C452.093 119.767 452.227 120.247 452.227 120.802C452.227 121.391 452.08 121.921 451.786 122.393C451.492 122.855 451.094 123.225 450.593 123.503C450.091 123.781 449.529 123.941 448.907 123.985C447.662 124.072 446.694 123.75 446.002 123.018C445.319 122.286 444.978 121.192 444.978 119.736C444.978 118.713 445.163 117.829 445.535 117.084C445.907 116.33 446.426 115.743 447.091 115.324C447.766 114.895 448.544 114.65 449.426 114.589C449.893 114.556 450.329 114.577 450.736 114.653C451.15 114.719 451.509 114.837 451.812 115.007L451.189 116.324C450.74 116.061 450.165 115.954 449.465 116.003C448.591 116.064 447.908 116.38 447.416 116.952C446.923 117.524 446.676 118.317 446.676 119.331V119.344C446.944 119.013 447.286 118.755 447.701 118.57C448.116 118.377 448.583 118.262 449.101 118.225ZM448.816 122.665C449.344 122.628 449.772 122.46 450.1 122.159C450.429 121.85 450.593 121.462 450.593 120.994C450.593 120.517 450.429 120.152 450.1 119.897C449.772 119.643 449.331 119.535 448.777 119.574C448.233 119.612 447.787 119.791 447.442 120.109C447.104 120.428 446.936 120.812 446.936 121.263C446.936 121.705 447.1 122.062 447.429 122.333C447.766 122.596 448.228 122.706 448.816 122.665Z" fill="#5D667A"/>
<path d="M456.122 119.203L469.09 118.297V119.363L456.122 120.269V119.203Z" fill="#5D667A"/>
<path d="M479.819 120.263V121.693L473.128 122.161V121.03L476.733 117.346C477.139 116.928 477.412 116.571 477.55 116.275C477.697 115.97 477.77 115.675 477.77 115.389C477.77 114.964 477.628 114.649 477.342 114.443C477.057 114.238 476.638 114.155 476.085 114.193C475.159 114.258 474.451 114.624 473.958 115.291L472.778 114.464C473.132 113.962 473.608 113.561 474.204 113.259C474.809 112.948 475.484 112.766 476.227 112.714C477.213 112.646 478 112.825 478.587 113.251C479.175 113.678 479.469 114.295 479.469 115.101C479.469 115.595 479.366 116.066 479.158 116.514C478.951 116.961 478.553 117.483 477.965 118.079L475.54 120.563L479.819 120.263Z" fill="#5D667A"/>
<path d="M484.541 121.493C483.815 121.544 483.167 121.407 482.596 121.083C482.025 120.75 481.576 120.244 481.247 119.565C480.919 118.878 480.754 118.049 480.754 117.078C480.754 116.107 480.919 115.259 481.247 114.534C481.576 113.801 482.025 113.232 482.596 112.828C483.167 112.416 483.815 112.184 484.541 112.133C485.267 112.082 485.916 112.223 486.486 112.556C487.066 112.88 487.52 113.385 487.848 114.073C488.177 114.752 488.341 115.577 488.341 116.547C488.341 117.518 488.177 118.37 487.848 119.104C487.52 119.829 487.066 120.398 486.486 120.811C485.916 121.215 485.267 121.442 484.541 121.493ZM484.541 120.024C485.19 119.979 485.7 119.674 486.071 119.111C486.452 118.547 486.642 117.732 486.642 116.666C486.642 115.6 486.452 114.812 486.071 114.301C485.7 113.79 485.19 113.557 484.541 113.602C483.901 113.647 483.391 113.951 483.011 114.515C482.639 115.078 482.453 115.893 482.453 116.959C482.453 118.025 482.639 118.814 483.011 119.325C483.391 119.836 483.901 120.069 484.541 120.024Z" fill="#5D667A"/>
<path d="M495.992 119.132V120.562L489.3 121.03V119.899L492.905 116.215C493.312 115.797 493.584 115.44 493.722 115.144C493.869 114.839 493.943 114.544 493.943 114.258C493.943 113.833 493.8 113.518 493.515 113.313C493.23 113.107 492.81 113.024 492.257 113.063C491.332 113.127 490.623 113.493 490.13 114.16L488.95 113.333C489.305 112.831 489.78 112.43 490.377 112.128C490.982 111.817 491.656 111.636 492.4 111.584C493.385 111.515 494.172 111.694 494.76 112.121C495.348 112.547 495.642 113.164 495.642 113.97C495.642 114.464 495.538 114.935 495.33 115.383C495.123 115.83 494.725 116.352 494.137 116.948L491.712 119.432L495.992 119.132Z" fill="#5D667A"/>
<path d="M500.829 114.881C501.668 114.926 502.308 115.168 502.749 115.605C503.19 116.042 503.41 116.612 503.41 117.314C503.41 117.842 503.276 118.333 503.008 118.785C502.74 119.237 502.334 119.612 501.789 119.91C501.253 120.199 500.596 120.37 499.818 120.425C499.169 120.47 498.543 120.423 497.937 120.283C497.341 120.134 496.831 119.91 496.407 119.61L497.133 118.247C497.462 118.501 497.86 118.694 498.327 118.826C498.802 118.949 499.291 118.993 499.792 118.958C500.389 118.916 500.855 118.762 501.193 118.496C501.538 118.22 501.711 117.87 501.711 117.445C501.711 117.021 501.547 116.703 501.218 116.492C500.899 116.272 500.406 116.185 499.74 116.231L498.91 116.289V115.132L500.972 112.531L496.848 112.82V111.403L503.034 110.97V112.101L500.829 114.881Z" fill="#5D667A"/>
<path d="M504.655 115.667L508.222 115.417V116.769L504.655 117.019V115.667Z" fill="#5D667A"/>
<path d="M512.388 110.316V119.416L510.702 119.534V111.851L508.782 111.985V110.568L512.388 110.316Z" fill="#5D667A"/>
<path d="M520.763 117.4V118.83L514.072 119.298V118.167L517.677 114.483C518.083 114.065 518.356 113.708 518.494 113.412C518.641 113.107 518.714 112.811 518.714 112.525C518.714 112.101 518.572 111.786 518.286 111.58C518.001 111.375 517.582 111.292 517.029 111.33C516.103 111.395 515.394 111.761 514.902 112.428L513.722 111.601C514.076 111.099 514.552 110.698 515.148 110.396C515.753 110.085 516.428 109.903 517.171 109.851C518.157 109.782 518.943 109.961 519.531 110.388C520.119 110.815 520.413 111.432 520.413 112.238C520.413 112.732 520.309 113.203 520.102 113.65C519.894 114.098 519.497 114.62 518.909 115.216L516.484 117.699L520.763 117.4Z" fill="#5D667A"/>
<path d="M521.816 114.467L525.382 114.217V115.569L521.816 115.819V114.467Z" fill="#5D667A"/>
<path d="M529.548 109.116V118.216L527.862 118.334V110.651L525.943 110.785V109.368L529.548 109.116Z" fill="#5D667A"/>
<path d="M535.473 112.186C536.069 112.144 536.605 112.223 537.081 112.424C537.556 112.616 537.928 112.915 538.196 113.321C538.464 113.727 538.598 114.207 538.598 114.762C538.598 115.351 538.451 115.882 538.157 116.353C537.863 116.815 537.465 117.186 536.964 117.463C536.463 117.741 535.901 117.902 535.278 117.945C534.033 118.032 533.065 117.71 532.373 116.978C531.69 116.246 531.349 115.152 531.349 113.696C531.349 112.673 531.535 111.789 531.906 111.044C532.278 110.29 532.797 109.703 533.463 109.284C534.137 108.856 534.915 108.611 535.797 108.549C536.264 108.516 536.7 108.538 537.107 108.613C537.522 108.68 537.88 108.798 538.183 108.967L537.561 110.285C537.111 110.021 536.536 109.914 535.836 109.963C534.963 110.024 534.28 110.341 533.787 110.913C533.294 111.484 533.048 112.277 533.048 113.291V113.304C533.316 112.973 533.657 112.716 534.072 112.531C534.487 112.337 534.954 112.222 535.473 112.186ZM535.187 116.626C535.715 116.589 536.143 116.42 536.471 116.12C536.8 115.811 536.964 115.422 536.964 114.954C536.964 114.478 536.8 114.112 536.471 113.858C536.143 113.603 535.702 113.496 535.148 113.534C534.604 113.572 534.158 113.751 533.813 114.07C533.475 114.388 533.307 114.772 533.307 115.223C533.307 115.665 533.471 116.022 533.8 116.294C534.137 116.556 534.599 116.667 535.187 116.626Z" fill="#5D667A"/>
</g>
<defs>
<clipPath id="clip0_3812_6987">
<rect width="560" height="140" rx="12" fill="white"/>
</clipPath>
</defs>
</svg>
