<svg height="64" viewBox="0 0 320 64" width="320" xmlns="http://www.w3.org/2000/svg" xmlns:xlink="http://www.w3.org/1999/xlink"><linearGradient id="a" x1="50%" x2="50%" y1="0%" y2="100%"><stop offset="0" stop-color="#08b1fa"/><stop offset="1" stop-color="#4f8eff"/></linearGradient><linearGradient id="b" x1="50%" x2="50%" y1="0%" y2="100%"><stop offset="0" stop-color="#0090ff"/><stop offset="1" stop-color="#0059ff"/></linearGradient><linearGradient id="c" x1="50%" x2="50%" y1="0%" y2="100%"><stop offset="0" stop-color="#ff3a50"/><stop offset="1" stop-color="#ed306b"/></linearGradient><g fill="none" fill-rule="evenodd"><path d="m0 0h320v64h-320z"/><path d="m90.732 17.977h2.593c1.739 0 2.998-.323 3.78-.968.78-.645 1.17-1.603 1.17-2.873 0-1.29-.421-2.217-1.265-2.78-.843-.562-2.113-.843-3.81-.843h-2.468zm0 3.092v9.119h-3.732v-22.829h6.45c2.946 0 5.127.552 6.543 1.655 1.416 1.104 2.124 2.77 2.124 4.997 0 2.842-1.478 4.867-4.435 6.074l6.45 10.103h-4.248l-5.466-9.12h-3.686zm29.626 9.119h-12.916v-22.829h12.916v3.154h-9.183v6.215h8.605v3.123h-8.605v7.167h9.183zm14.804 0-6.621-19.066h-.125c.177 2.832.265 5.486.265 7.964v11.102h-3.388v-22.829h5.262l6.34 18.16h.095l6.527-18.16h5.279v22.829h-3.592v-11.29c0-1.134.029-2.612.086-4.434s.107-2.925.148-3.31h-.125l-6.855 19.034zm19.646 0v-22.829h3.733v22.829zm26.58 0h-4.294l-5.716-9.338-5.763 9.338h-3.998l7.575-11.836-7.09-10.993h4.154l5.278 8.635 5.279-8.635h4.029l-7.137 11.055zm11.385 0v-22.829h3.732v22.829zm19.474-19.956c-2.144 0-3.831.76-5.06 2.28-1.228 1.52-1.842 3.617-1.842 6.293 0 2.8.59 4.918 1.772 6.355 1.182 1.436 2.892 2.155 5.13 2.155.969 0 1.906-.097 2.811-.29.906-.192 1.848-.44 2.827-.74v3.2c-1.79.677-3.821 1.015-6.09 1.015-3.343 0-5.909-1.012-7.7-3.037-1.79-2.025-2.686-4.921-2.686-8.69 0-2.373.435-4.45 1.304-6.23.87-1.78 2.127-3.144 3.772-4.09 1.645-.948 3.576-1.422 5.794-1.422 2.332 0 4.487.49 6.465 1.468l-1.343 3.107a20.054 20.054 0 0 0 -2.444-.96 8.807 8.807 0 0 0 -2.71-.414zm30.828 8.51c0 3.716-.93 6.605-2.788 8.666s-4.49 3.092-7.894 3.092c-3.446 0-6.093-1.023-7.941-3.068-1.848-2.046-2.772-4.953-2.772-8.721s.929-6.662 2.787-8.682c1.859-2.019 4.511-3.029 7.957-3.029 3.394 0 6.018 1.025 7.871 3.076 1.853 2.05 2.78 4.94 2.78 8.666zm-17.428 0c0 2.81.567 4.942 1.702 6.394 1.135 1.453 2.816 2.179 5.044 2.179 2.218 0 3.891-.719 5.02-2.155 1.13-1.437 1.695-3.576 1.695-6.418 0-2.8-.56-4.924-1.679-6.37-1.119-1.448-2.787-2.171-5.005-2.171-2.238 0-3.927.723-5.067 2.17s-1.71 3.571-1.71 6.371zm41.353 11.446h-4.576l-11.228-18.191h-.125l.078 1.015c.146 1.936.219 3.705.219 5.309v11.867h-3.39v-22.829h4.53l11.197 18.097h.094c-.021-.239-.063-1.11-.125-2.615a90.363 90.363 0 0 1 -.094-3.521v-11.96h3.42z" fill="#4a4a4a"/><g transform="translate(1 1)"><path d="m32.665 4.01a15.324 15.324 0 0 0 -.665 4.51c0 7.212 6.268 13.48 14.519 13.48 2.127 0 4.172-.545 5.998-1.499.316 1.45.483 2.955.483 4.499 0 11.598-9.402 21-21 21v10h-32v-52h32c.222 0 .444.003.665.01z" fill="url(#a)"/><path d="m0 4 52 52h-52z" fill="url(#b)"/><circle cx="46" cy="8" fill="url(#c)" r="8"/></g><path d="m95.75 56.156-1.422-3.633h-4.578l-1.406 3.633h-1.344l4.516-11.468h1.117l4.492 11.468zm-1.836-4.828-1.328-3.539a18.956 18.956 0 0 1 -.531-1.648c-.115.5-.279 1.05-.493 1.648l-1.343 3.54h3.695zm10.445 4.828v-5.539c0-.698-.158-1.219-.476-1.562-.318-.344-.815-.516-1.492-.516-.896 0-1.552.242-1.97.727-.416.484-.624 1.283-.624 2.398v4.492h-1.297v-8.562h1.055l.21 1.172h.063a2.648 2.648 0 0 1 1.117-.98 3.63 3.63 0 0 1 1.602-.349c1.031 0 1.807.25 2.328.747.52.497.781 1.293.781 2.386v5.586zm18.227-5.726c0 1.828-.462 3.265-1.387 4.312-.924 1.047-2.21 1.57-3.855 1.57-1.683 0-2.98-.514-3.895-1.542-.914-1.03-1.37-2.48-1.37-4.356 0-1.86.457-3.3 1.374-4.324s2.219-1.535 3.906-1.535c1.641 0 2.922.52 3.844 1.562s1.383 2.48 1.383 4.313zm-9.102 0c0 1.547.33 2.72.989 3.52.659.799 1.616 1.198 2.87 1.198 1.266 0 2.222-.398 2.868-1.195s.969-1.971.969-3.523c0-1.537-.322-2.702-.965-3.496-.643-.795-1.595-1.192-2.856-1.192-1.265 0-2.227.4-2.886 1.2-.66.799-.989 1.962-.989 3.488zm15.438 5.883a3.706 3.706 0 0 1 -1.527-.31 2.872 2.872 0 0 1 -1.16-.948h-.094c.062.5.093.974.093 1.422v3.523h-1.296v-12.406h1.054l.18 1.172h.062c.334-.47.722-.808 1.164-1.016.443-.208.951-.313 1.524-.313 1.135 0 2.012.389 2.629 1.165s.926 1.864.926 3.265c0 1.406-.314 2.499-.942 3.278-.627.778-1.499 1.167-2.613 1.167zm-.188-7.774c-.875 0-1.507.242-1.898.727-.39.484-.591 1.255-.602 2.312v.29c0 1.202.2 2.063.602 2.581.401.518 1.044.778 1.93.778.74 0 1.319-.3 1.738-.899.42-.599.629-1.424.629-2.476 0-1.068-.21-1.887-.63-2.457-.418-.57-1.008-.856-1.769-.856zm9.625 7.773c-1.265 0-2.264-.385-2.996-1.156-.731-.77-1.097-1.84-1.097-3.21 0-1.38.34-2.477 1.02-3.29.679-.812 1.592-1.218 2.737-1.218 1.073 0 1.922.352 2.547 1.058s.938 1.637.938 2.793v.82h-5.899c.026 1.006.28 1.769.762 2.29.482.52 1.16.78 2.035.78.922 0 1.834-.192 2.735-.577v1.156c-.459.198-.892.34-1.301.426a7.31 7.31 0 0 1 -1.48.129zm-.351-7.789c-.688 0-1.236.224-1.645.672s-.65 1.068-.722 1.86h4.476c0-.818-.182-1.444-.547-1.88-.364-.434-.885-.652-1.562-.652zm11.57 7.633v-5.539c0-.698-.159-1.219-.476-1.562-.318-.344-.816-.516-1.493-.516-.895 0-1.552.242-1.968.727-.417.484-.625 1.283-.625 2.398v4.492h-1.297v-8.562h1.054l.211 1.172h.063a2.648 2.648 0 0 1 1.117-.98 3.63 3.63 0 0 1 1.602-.349c1.03 0 1.807.25 2.328.747.52.497.781 1.293.781 2.386v5.586zm3.242-3.695v-1.188h3.836v1.188zm12.508.656c0 1.005-.364 1.79-1.094 2.352-.729.562-1.718.843-2.968.843-1.355 0-2.396-.174-3.125-.523v-1.281c.468.198.979.354 1.53.469a8.056 8.056 0 0 0 1.642.171c.885 0 1.552-.168 2-.503.447-.336.671-.804.671-1.403 0-.396-.08-.72-.238-.972-.159-.253-.424-.486-.797-.7-.372-.213-.939-.455-1.699-.726-1.063-.38-1.822-.831-2.277-1.352-.456-.52-.684-1.2-.684-2.039 0-.88.33-1.58.992-2.101s1.537-.782 2.625-.782c1.136 0 2.18.209 3.133.625l-.414 1.157c-.943-.396-1.86-.594-2.75-.594-.703 0-1.253.15-1.648.453-.396.302-.594.721-.594 1.258 0 .396.073.72.219.972.145.253.391.485.738.696.346.21.876.444 1.59.699 1.198.427 2.022.885 2.472 1.375s.676 1.125.676 1.906zm9.531-1.25c0 1.396-.351 2.486-1.054 3.27s-1.675 1.175-2.914 1.175c-.766 0-1.446-.18-2.04-.539-.593-.359-1.052-.875-1.374-1.546-.323-.672-.485-1.459-.485-2.36 0-1.396.35-2.483 1.047-3.262.698-.778 1.667-1.167 2.906-1.167 1.198 0 2.15.398 2.856 1.195s1.058 1.875 1.058 3.234zm-6.523 0c0 1.094.219 1.927.656 2.5.438.573 1.08.86 1.93.86.849 0 1.493-.286 1.933-.856s.66-1.405.66-2.504c0-1.088-.22-1.915-.66-2.48s-1.09-.848-1.949-.848c-.849 0-1.49.279-1.922.836s-.648 1.388-.648 2.492zm10.016-4.273v5.554c0 .698.158 1.22.476 1.563.318.344.815.516 1.492.516.896 0 1.551-.245 1.965-.735s.621-1.289.621-2.398v-4.5h1.297v8.562h-1.07l-.188-1.148h-.07a2.585 2.585 0 0 1 -1.105.969c-.472.224-1.01.336-1.614.336-1.041 0-1.821-.248-2.34-.743-.518-.494-.777-1.286-.777-2.375v-5.601zm12.507-.157c.38 0 .722.032 1.024.094l-.18 1.203a4.418 4.418 0 0 0 -.937-.117c-.693 0-1.286.281-1.778.844-.492.562-.738 1.263-.738 2.102v4.593h-1.297v-8.562h1.07l.149 1.586h.062c.318-.558.7-.987 1.149-1.29.448-.301.94-.453 1.476-.453zm6.047 8.876c-1.24 0-2.199-.382-2.879-1.145s-1.02-1.842-1.02-3.238c0-1.433.346-2.54 1.036-3.32.69-.782 1.673-1.172 2.95-1.172.41 0 .822.044 1.234.132.411.089.734.193.968.313l-.398 1.101a6.098 6.098 0 0 0 -.938-.285 4.186 4.186 0 0 0 -.898-.113c-1.74 0-2.61 1.11-2.61 3.328 0 1.052.213 1.86.637 2.422.425.562 1.054.844 1.887.844.714 0 1.445-.154 2.195-.461v1.148c-.573.297-1.294.446-2.164.446zm7.813 0c-1.266 0-2.265-.386-2.996-1.157-.732-.77-1.098-1.84-1.098-3.21 0-1.38.34-2.477 1.02-3.29.68-.812 1.592-1.218 2.738-1.218 1.073 0 1.922.352 2.547 1.058s.937 1.637.937 2.793v.82h-5.898c.026 1.006.28 1.769.761 2.29.482.52 1.16.78 2.036.78.922 0 1.833-.192 2.734-.577v1.156c-.458.198-.892.34-1.3.426a7.31 7.31 0 0 1 -1.481.129zm-.352-7.79c-.687 0-1.235.224-1.644.672-.41.448-.65 1.068-.723 1.86h4.477c0-.818-.183-1.444-.547-1.88-.365-.434-.886-.652-1.563-.652zm10.219 7.633v-11.422h1.328v11.422zm7.687.157c-1.24 0-2.199-.382-2.878-1.145-.68-.763-1.02-1.842-1.02-3.238 0-1.433.345-2.54 1.035-3.32.69-.782 1.673-1.172 2.95-1.172.41 0 .822.044 1.234.132.411.089.734.193.969.313l-.399 1.101a6.098 6.098 0 0 0 -.937-.285 4.186 4.186 0 0 0 -.899-.113c-1.74 0-2.61 1.11-2.61 3.328 0 1.052.213 1.86.637 2.422.425.562 1.054.844 1.887.844.714 0 1.445-.154 2.196-.461v1.148c-.573.297-1.295.446-2.165.446zm11.586-4.446c0 1.396-.351 2.486-1.054 3.27s-1.675 1.175-2.914 1.175c-.766 0-1.446-.18-2.04-.539-.593-.359-1.052-.875-1.374-1.546-.323-.672-.485-1.459-.485-2.36 0-1.396.35-2.483 1.047-3.262.698-.778 1.667-1.167 2.906-1.167 1.198 0 2.15.398 2.856 1.195s1.058 1.875 1.058 3.234zm-6.523 0c0 1.094.219 1.927.656 2.5.438.573 1.08.86 1.93.86.849 0 1.493-.286 1.933-.856s.66-1.405.66-2.504c0-1.088-.22-1.915-.66-2.48s-1.09-.848-1.949-.848c-.849 0-1.49.279-1.922.836s-.648 1.388-.648 2.492zm14.656 4.29v-5.54c0-.698-.159-1.219-.476-1.562-.318-.344-.815-.516-1.493-.516-.895 0-1.552.242-1.968.727-.417.484-.625 1.283-.625 2.398v4.492h-1.297v-8.562h1.054l.211 1.172h.063a2.648 2.648 0 0 1 1.117-.98 3.63 3.63 0 0 1 1.602-.349c1.03 0 1.807.25 2.328.747.52.497.781 1.293.781 2.386v5.586h-1.297zm8.313 0v-11.424h1.328v10.22h5.039v1.202h-6.367zm9.406 0h-1.297v-8.563h1.297v8.562zm-1.406-10.884c0-.296.073-.514.218-.652a.764.764 0 0 1 .547-.207c.209 0 .388.07.54.211.15.14.226.357.226.648 0 .292-.076.51-.227.653a.757.757 0 0 1 -.539.215.75.75 0 0 1 -.547-.215c-.145-.143-.218-.36-.218-.653zm8.14 2.18c1.125 0 1.999.384 2.621 1.152.623.769.934 1.856.934 3.262s-.314 2.499-.941 3.278c-.628.778-1.5 1.167-2.614 1.167a3.705 3.705 0 0 1 -1.527-.308 2.872 2.872 0 0 1 -1.16-.95h-.094l-.273 1.102h-.93v-12.156h1.297v2.953c0 .662-.021 1.255-.063 1.781h.063c.604-.854 1.5-1.28 2.687-1.28zm-.187 1.086c-.886 0-1.524.254-1.914.762s-.586 1.363-.586 2.566.2 2.064.601 2.582 1.045.778 1.93.778c.797 0 1.39-.29 1.781-.872.39-.58.586-1.415.586-2.503 0-1.115-.195-1.946-.586-2.493-.39-.547-.994-.82-1.812-.82zm9.914-1.102c.38 0 .721.032 1.023.094l-.18 1.203a4.418 4.418 0 0 0 -.937-.117c-.693 0-1.285.281-1.777.844-.492.562-.738 1.263-.738 2.102v4.593h-1.297v-8.562h1.07l.148 1.586h.063c.318-.558.7-.987 1.148-1.29.448-.301.94-.453 1.477-.453zm7.89 8.72-.257-1.22h-.063c-.427.537-.853.9-1.277 1.09-.425.19-.955.285-1.59.285-.849 0-1.514-.218-1.996-.656-.482-.437-.723-1.06-.723-1.867 0-1.73 1.383-2.635 4.149-2.719l1.453-.047v-.53c0-.673-.145-1.169-.434-1.49-.289-.32-.751-.48-1.387-.48-.713 0-1.52.22-2.421.657l-.399-.992c.422-.23.884-.41 1.387-.54a6.006 6.006 0 0 1 1.512-.195c1.02 0 1.777.227 2.27.68.491.453.737 1.18.737 2.18v5.843h-.96zm-2.93-.915c.808 0 1.442-.221 1.903-.664s.692-1.062.692-1.86v-.773l-1.297.055c-1.032.036-1.775.197-2.23.48-.457.284-.684.726-.684 1.325 0 .468.142.825.425 1.07.284.245.681.367 1.192.367zm10.47-7.804c.38 0 .72.03 1.023.093l-.18 1.203a4.418 4.418 0 0 0 -.937-.117c-.693 0-1.285.281-1.778.844-.492.562-.738 1.263-.738 2.102v4.593h-1.297v-8.562h1.07l.15 1.586h.062c.317-.558.7-.987 1.148-1.29.448-.301.94-.453 1.477-.453zm1.265.156h1.39l1.876 4.883c.411 1.114.666 1.919.765 2.414h.063c.068-.266.21-.72.426-1.364.216-.643.923-2.62 2.12-5.933h1.391l-3.68 9.75c-.364.963-.79 1.647-1.277 2.05-.487.404-1.084.606-1.793.606-.395 0-.786-.044-1.171-.133v-1.039c.286.063.606.094.96.094.891 0 1.527-.5 1.907-1.5l.476-1.219-3.453-8.61z" fill="#9aa7b9"/></g></svg>