<svg xmlns="http://www.w3.org/2000/svg" width="899" height="192" viewBox="0 0 899 192">
    <defs>
        <linearGradient id="a" x1="50%" x2="50%" y1="0%" y2="100%">
            <stop offset="0%" stop-color="#FFF" stop-opacity="0"/>
            <stop offset="100%" stop-color="#FFF" stop-opacity=".916"/>
            <stop offset="100%" stop-color="#FFF"/>
        </linearGradient>
    </defs>
    <g fill="none" fill-rule="evenodd">
        <path fill="#FFF" d="M0 0h900v192H0z"/>
        <path fill="#FFF" d="M0 0h900v192H0z"/>
        <path d="M864 48h24v24h-24z"/>
        <path fill="#000" d="M866.821 60.794a6.5 6.5 0 0 1 7.413-10.24h-.002l-4.242 4.243 1.414 1.414 4.242-4.242a6.5 6.5 0 0 1 9.193 9.192L876 70l-9.192-9.192.013-.014z"/>
        <path d="M864 0h24v24h-24z"/>
        <path fill="#000" fill-rule="nonzero" d="M885.179 12.794l.013.014L876 22l-9.192-9.192.013-.014A6.5 6.5 0 0 1 876 3.64a6.5 6.5 0 0 1 9.179 9.154zm-16.604-7.411a4.5 4.5 0 0 0 0 6.364L876 19.172l7.425-7.425a4.5 4.5 0 0 0-6.364-6.364l-4.243 4.243-1.414-1.415 3.162-3.162a4.5 4.5 0 0 0-5.99.334z"/>
        <path d="M864 144h24v24h-24z"/>
        <path fill="#000" d="M876 162.26l-7.053 3.948 1.575-7.928-5.935-5.488 8.027-.952L876 144.5l3.386 7.34 8.027.952-5.935 5.488 1.575 7.928z"/>
        <path d="M864 96h24v24h-24z"/>
        <path fill="#000" fill-rule="nonzero" d="M876 114.26l-7.053 3.948 1.575-7.928-5.935-5.488 8.027-.952L876 96.5l3.386 7.34 8.027.952-5.935 5.488 1.575 7.928L876 114.26zm0-2.292l4.247 2.377-.949-4.773 3.573-3.305-4.833-.573-2.038-4.419-2.038 4.42-4.833.572 3.573 3.305-.949 4.773 4.247-2.377z"/>
        <path d="M432 48h24v24h-24z"/>
        <path fill="#000" fill-rule="nonzero" d="M449 57.2l5.213-3.65a.5.5 0 0 1 .787.41v12.08a.5.5 0 0 1-.787.41L449 62.8V67a1 1 0 0 1-1 1h-14a1 1 0 0 1-1-1V53a1 1 0 0 1 1-1h14a1 1 0 0 1 1 1v4.2zM437 56v2h2v-2h-2z"/>
        <path d="M384 48h24v24h-24z"/>
        <path fill="#000" d="M401.998 55l2.31-4h.7c.548 0 .992.445.992.993v16.014a1 1 0 0 1-.992.993h-18.016a.993.993 0 0 1-.992-.993V51.993a1 1 0 0 1 .992-.993h3.006l-2.31 4h2.31l2.31-4h3.69l-2.31 4h2.31l2.31-4h3.69l-2.31 4h2.31z"/>
        <path d="M336 48h24v24h-24z"/>
        <path fill="#000" fill-rule="nonzero" d="M338 51.993a1 1 0 0 1 .992-.993h18.016c.548 0 .992.445.992.993v16.014a1 1 0 0 1-.992.993h-18.016a.993.993 0 0 1-.992-.993V51.993zM340 53v2h2v-2h-2zm14 0v2h2v-2h-2zm-14 4v2h2v-2h-2zm14 0v2h2v-2h-2zm-14 4v2h2v-2h-2zm14 0v2h2v-2h-2zm-14 4v2h2v-2h-2zm14 0v2h2v-2h-2z"/>
        <path d="M288 48h24v24h-24z"/>
        <path fill="#000" fill-rule="nonzero" d="M306.001 68H308v2h-8c-5.523 0-10-4.477-10-10s4.477-10 10-10 10 4.477 10 10a9.985 9.985 0 0 1-3.999 8zM300 58a2 2 0 1 0 0-4 2 2 0 0 0 0 4zm-4 4a2 2 0 1 0 0-4 2 2 0 0 0 0 4zm8 0a2 2 0 1 0 0-4 2 2 0 0 0 0 4zm-4 4a2 2 0 1 0 0-4 2 2 0 0 0 0 4z"/>
        <path d="M240 48h24v24h-24z"/>
        <path fill="#000" fill-rule="nonzero" d="M242 51.993a1 1 0 0 1 .992-.993h18.016c.548 0 .992.445.992.993v16.014a1 1 0 0 1-.992.993h-18.016a.993.993 0 0 1-.992-.993V51.993zm8.622 4.422a.4.4 0 0 0-.622.332v6.506a.4.4 0 0 0 .622.332l4.879-3.252a.4.4 0 0 0 0-.666l-4.88-3.252z"/>
        <path d="M192 48h24v24h-24z"/>
        <path fill="#000" fill-rule="nonzero" d="M195 51.993c0-.548.445-.993.993-.993h16.014c.548 0 .993.445.993.993v16.014a.994.994 0 0 1-.993.993h-16.014a.994.994 0 0 1-.993-.993V51.993zm7.622 4.422a.4.4 0 0 0-.622.332v6.506a.4.4 0 0 0 .622.332l4.879-3.252a.4.4 0 0 0 0-.666l-4.88-3.252z"/>
        <path d="M144 48h24v24h-24z"/>
        <path fill="#000" fill-rule="nonzero" d="M161.409 67c-.776-2.399-2.277-3.885-4.266-5.602A10.954 10.954 0 0 1 164 59v-8h1.008c.548 0 .992.445.992.993v16.014a1 1 0 0 1-.992.993h-18.016a.993.993 0 0 1-.992-.993V51.993a1 1 0 0 1 .992-.993H150v-2h2v4h-4v7c5.22 0 9.662 2.462 11.313 7h2.096zM162 49v4h-8v-2h6v-2h2zm-1.5 9a1.5 1.5 0 1 1 0-3 1.5 1.5 0 0 1 0 3z"/>
        <path d="M96 48h24v24H96z"/>
        <path fill="#000" fill-rule="nonzero" d="M101 59.1l2-2 5.5 5.5 3.5-3.5 3 3V53h-14v6.1zm-1-8.1h16a1 1 0 0 1 1 1v16a1 1 0 0 1-1 1h-16a1 1 0 0 1-1-1V52a1 1 0 0 1 1-1zm11.5 7a1.5 1.5 0 1 1 0-3 1.5 1.5 0 0 1 0 3z"/>
        <path d="M48 48h24v24H48z"/>
        <path fill="#000" fill-rule="nonzero" d="M68 53H52v14l9.292-9.294a1 1 0 0 1 1.414 0L68 63.01V53zm-18-1.007a1 1 0 0 1 .992-.993h18.016c.548 0 .992.445.992.993v16.014a1 1 0 0 1-.992.993H50.992a.993.993 0 0 1-.992-.993V51.993zM56 59a2 2 0 1 1 0-4 2 2 0 0 1 0 4z"/>
        <path d="M0 48h24v24H0z"/>
        <path fill="#000" fill-rule="nonzero" d="M16 69l-4.762-8.73L15 54l8 15h-7zM8 58l6 11H2l6-11zm-2.5-2a2.5 2.5 0 1 1 0-5 2.5 2.5 0 0 1 0 5z"/>
        <path d="M432 0h24v24h-24z"/>
        <path fill="#000" fill-rule="nonzero" d="M449 9.2l5.213-3.65a.5.5 0 0 1 .787.41v12.08a.5.5 0 0 1-.787.41L449 14.8V19a1 1 0 0 1-1 1h-14a1 1 0 0 1-1-1V5a1 1 0 0 1 1-1h14a1 1 0 0 1 1 1v4.2zm0 3.159l4 2.8V8.84l-4 2.8v.718zM435 6v12h12V6h-12zm2 2h2v2h-2V8z"/>
        <path d="M384 0h24v24h-24z"/>
        <path fill="#000" fill-rule="nonzero" d="M389.998 7l2.31-4h3.69l-2.31 4h-3.69zm6 0l2.31-4h3.69l-2.31 4h-3.69zm6 0l2.31-4h.7c.548 0 .992.445.992.993v16.014a1 1 0 0 1-.992.993h-18.016a.993.993 0 0 1-.992-.993V3.993a1 1 0 0 1 .992-.993h3.006L388 6.46V19h16V7h-2.002z"/>
        <path d="M336 0h24v24h-24z"/>
        <path fill="#000" fill-rule="nonzero" d="M338 3.993a1 1 0 0 1 .992-.993h18.016c.548 0 .992.445.992.993v16.014a1 1 0 0 1-.992.993h-18.016a.993.993 0 0 1-.992-.993V3.993zM344 5v14h8V5h-8zm-4 0v2h2V5h-2zm14 0v2h2V5h-2zm-14 4v2h2V9h-2zm14 0v2h2V9h-2zm-14 4v2h2v-2h-2zm14 0v2h2v-2h-2zm-14 4v2h2v-2h-2zm14 0v2h2v-2h-2z"/>
        <path d="M288 0h24v24h-24z"/>
        <path fill="#000" fill-rule="nonzero" d="M300 20h8v2h-8c-5.523 0-10-4.477-10-10s4.477-10 10-10 10 4.477 10 10a9.956 9.956 0 0 1-2 6h-2.708A8 8 0 1 0 300 20zm0-10a2 2 0 1 1 0-4 2 2 0 0 1 0 4zm-4 4a2 2 0 1 1 0-4 2 2 0 0 1 0 4zm8 0a2 2 0 1 1 0-4 2 2 0 0 1 0 4zm-4 4a2 2 0 1 1 0-4 2 2 0 0 1 0 4z"/>
        <path d="M240 0h24v24h-24z"/>
        <path fill="#000" fill-rule="nonzero" d="M242 3.993a1 1 0 0 1 .992-.993h18.016c.548 0 .992.445.992.993v16.014a1 1 0 0 1-.992.993h-18.016a.993.993 0 0 1-.992-.993V3.993zM244 5v14h16V5h-16zm6.622 3.415l4.879 3.252a.4.4 0 0 1 0 .666l-4.88 3.252a.4.4 0 0 1-.621-.332V8.747a.4.4 0 0 1 .622-.332z"/>
        <path d="M192 0h24v24h-24z"/>
        <path fill="#000" fill-rule="nonzero" d="M195 3.993c0-.548.445-.993.993-.993h16.014c.548 0 .993.445.993.993v16.014a.994.994 0 0 1-.993.993h-16.014a.994.994 0 0 1-.993-.993V3.993zM197 5v14h14V5h-14zm5.622 3.415l4.879 3.252a.4.4 0 0 1 0 .666l-4.88 3.252a.4.4 0 0 1-.621-.332V8.747a.4.4 0 0 1 .622-.332z"/>
        <path d="M144 0h24v24h-24z"/>
        <path fill="#000" fill-rule="nonzero" d="M164 13c-1.678 0-3.249.46-4.593 1.259a14.984 14.984 0 0 1 2.74 4.741H164v-6zm-3.996 6c-1.96-4.698-6.596-8-12.004-8v8h12.004zM148 9c3.83 0 7.323 1.435 9.974 3.796A10.949 10.949 0 0 1 164 11V3h1.008c.548 0 .992.445.992.993v16.014a1 1 0 0 1-.992.993h-18.016a.993.993 0 0 1-.992-.993V3.993a1 1 0 0 1 .992-.993H150V1h2v4h-4v4zm14-8v4h-8V3h6V1h2zm-1.5 9a1.5 1.5 0 1 1 0-3 1.5 1.5 0 0 1 0 3z"/>
        <path d="M96 0h24v24H96z"/>
        <path fill="#000" fill-rule="nonzero" d="M101 11.1l2-2 5.5 5.5 3.5-3.5 3 3V5h-14v6.1zm0 2.829V19h3.1l2.986-2.985L103 11.929l-2 2zM106.929 19H115v-2.071l-3-3L106.929 19zM100 3h16a1 1 0 0 1 1 1v16a1 1 0 0 1-1 1h-16a1 1 0 0 1-1-1V4a1 1 0 0 1 1-1zm11.5 7a1.5 1.5 0 1 1 0-3 1.5 1.5 0 0 1 0 3z"/>
        <path d="M48 0h24v24H48z"/>
        <path fill="#000" fill-rule="nonzero" d="M52.828 21l-.02.02-.021-.02h-1.795a.993.993 0 0 1-.992-.993V3.993A1 1 0 0 1 50.992 3h18.016c.548 0 .992.445.992.993v16.014a1 1 0 0 1-.992.993h-16.18zM68 15V5H52v14L62 9l6 6zm0 2.828l-6-6L54.828 19H68v-1.172zM56 11a2 2 0 1 1 0-4 2 2 0 0 1 0 4z"/>
        <path d="M0 0h24v24H0z"/>
        <path fill="#000" fill-rule="nonzero" d="M11.27 12.216L15 6l8 15H2L9 8l2.27 4.216zm1.12 2.022L14.987 19h4.68l-4.77-8.942-2.507 4.18zM5.348 19h7.304L9 12.219 5.348 19zM5.5 8a2.5 2.5 0 1 1 0-5 2.5 2.5 0 0 1 0 5z"/>
        <path d="M720 48h24v24h-24z"/>
        <path fill="#000" d="M721.946 57.315c-.522-.174-.527-.455.01-.634l19.087-6.362c.529-.176.832.12.684.638l-5.454 19.086c-.15.529-.455.547-.679.045L732 62l6-8-8 6-8.054-2.685z"/>
        <path d="M672 48h24v24h-24z"/>
        <path fill="#000" fill-rule="nonzero" d="M676 51h16l2 4v13a1 1 0 0 1-1 1h-18a1 1 0 0 1-1-1V55.004L676 51zm9 11v-4h-2v4h-3l4 4 4-4h-3zm6.764-7l-1-2h-13.527l-1 2h15.527z"/>
        <path d="M624 48h24v24h-24z"/>
        <path fill="#000" fill-rule="nonzero" d="M627 51h18a1 1 0 0 1 1 1v16a1 1 0 0 1-1 1h-18a1 1 0 0 1-1-1V52a1 1 0 0 1 1-1zm6 9a3 3 0 0 0 6 0h5v-7h-16v7h5z"/>
        <path d="M576 48h24v24h-24z"/>
        <path fill="#000" fill-rule="nonzero" d="M578 51.993a1 1 0 0 1 .992-.993h18.016c.548 0 .992.445.992.993v16.014a1 1 0 0 1-.992.993h-18.016a.993.993 0 0 1-.992-.993V51.993zM582 63v2h12v-2h-12zm0-8v6h6v-6h-6zm8 0v2h4v-2h-4zm0 4v2h4v-2h-4zm-6-2h2v2h-2v-2z"/>
        <path d="M528 48h24v24h-24z"/>
        <path fill="#000" fill-rule="nonzero" d="M548.997 50.992L549 69.008a1 1 0 0 1-.993.992h-16.014a.993.993 0 0 1-.993-.992V50.992a1 1 0 0 1 .993-.992h16.01c.549 0 .994.444.994.992zM537 61v-4a1 1 0 1 1 2 0v4a1 1 0 0 0 2 0v-4a3 3 0 0 0-6 0v4a5 5 0 0 0 10 0v-5h-2v5a3 3 0 0 1-6 0z"/>
        <path d="M480 48h24v24h-24z"/>
        <path fill="#000" d="M497 55a8.003 8.003 0 0 0-7.493 5.19l1.874.703A6.002 6.002 0 0 1 503 63a6 6 0 0 1-6 6h-10a6 6 0 0 1-1.992-11.661 7 7 0 0 1 13.757-2.143A8.027 8.027 0 0 0 497 55z"/>
        <path d="M816 48h24v24h-24z"/>
        <path fill="#000" fill-rule="nonzero" d="M818 53.5v-1.507a1 1 0 0 1 .992-.993h18.016c.548 0 .992.445.992.993v16.014a1 1 0 0 1-.992.993h-18.016a.993.993 0 0 1-.992-.993V67h18V55.3l-8 7.2-10-9zm-2 4.5h5v2h-5v-2zm0 5h8v2h-8v-2z"/>
        <path d="M768 48h24v24h-24z"/>
        <path fill="#000" fill-rule="nonzero" d="M786.803 56.493A5.023 5.023 0 0 0 790 56.9V68a1 1 0 0 1-1 1h-18a1 1 0 0 1-1-1V52a1 1 0 0 1 1-1h13.1c-.066.323-.1.658-.1 1a4.98 4.98 0 0 0 1.193 3.241l-5.132 4.442-6.414-5.445-1.294 1.524 7.72 6.555 6.73-5.824zM789 55a3 3 0 1 1 0-6 3 3 0 0 1 0 6z"/>
        <path d="M720 0h24v24h-24z"/>
        <path fill="#000" fill-rule="nonzero" d="M721.923 9.37c-.51-.205-.504-.51.034-.689l19.086-6.362c.529-.176.832.12.684.638l-5.454 19.086c-.15.529-.475.553-.717.07L731 13l-9.077-3.63zm4.89-.2l5.636 2.255 3.04 6.082 3.546-12.41-12.223 4.074z"/>
        <path d="M672 0h24v24h-24z"/>
        <path fill="#000" fill-rule="nonzero" d="M676 3h16l2 4v13a1 1 0 0 1-1 1h-18a1 1 0 0 1-1-1V7.004L676 3zm16 6h-16v10h16V9zm-.236-2l-1-2h-13.527l-1 2h15.527zM685 14h3l-4 4-4-4h3v-4h2v4z"/>
        <path d="M624 0h24v24h-24z"/>
        <path fill="#000" fill-rule="nonzero" d="M627 3h18a1 1 0 0 1 1 1v16a1 1 0 0 1-1 1h-18a1 1 0 0 1-1-1V4a1 1 0 0 1 1-1zm17 11h-3.416a5.001 5.001 0 0 1-9.168 0H628v5h16v-5zm0-2V5h-16v7h5a3 3 0 0 0 6 0h5z"/>
        <path d="M576 0h24v24h-24z"/>
        <path fill="#000" fill-rule="nonzero" d="M578 3.993a1 1 0 0 1 .992-.993h18.016c.548 0 .992.445.992.993v16.014a1 1 0 0 1-.992.993h-18.016a.993.993 0 0 1-.992-.993V3.993zM580 5v14h16V5h-16zm2 2h6v6h-6V7zm2 2v2h2V9h-2zm-2 6h12v2h-12v-2zm8-8h4v2h-4V7zm0 4h4v2h-4v-2z"/>
        <path d="M528 0h24v24h-24z"/>
        <path fill="#000" d="M542 13.5V8a4 4 0 1 0-8 0v5.5a6.5 6.5 0 1 0 13 0V4h2v9.5a8.5 8.5 0 1 1-17 0V8a6 6 0 1 1 12 0v5.5a3.5 3.5 0 0 1-7 0V8h2v5.5a1.5 1.5 0 0 0 3 0z"/>
        <path d="M480 0h24v24h-24z"/>
        <path fill="#000" fill-rule="nonzero" d="M497 21h-10a6 6 0 0 1-1.992-11.661 7 7 0 1 1 13.984 0A6 6 0 0 1 497 21zm0-12a5 5 0 1 0-9.994.243l.07 1.488-1.404.494A4.002 4.002 0 0 0 487 19h10a4 4 0 1 0-3.796-5.265l-1.898-.633A6.003 6.003 0 0 1 497 9z"/>
        <path d="M816 0h24v24h-24z"/>
        <path fill="#000" fill-rule="nonzero" d="M838 20.007a1 1 0 0 1-.992.993h-18.016a.993.993 0 0 1-.992-.993V19h18V7.3l-8 7.2-10-9V4a1 1 0 0 1 1-1h18a1 1 0 0 1 1 1v16.007zM820.434 5L828 11.81 835.566 5h-15.132zM816 15h8v2h-8v-2zm0-5h5v2h-5v-2z"/>
        <g>
            <path d="M768 0h24v24h-24z"/>
            <path fill="#000" fill-rule="nonzero" d="M784.1 3a5.023 5.023 0 0 0 0 2h-11.589l7.55 6.662 5.049-4.52c.426.527.958.966 1.563 1.285l-6.601 5.911L772 7.216V19h16V8.9a5.023 5.023 0 0 0 2 0V20a1 1 0 0 1-1 1h-18a1 1 0 0 1-1-1V4a1 1 0 0 1 1-1h13.1zm4.9 4a3 3 0 1 1 0-6 3 3 0 0 1 0 6z"/>
        </g>
        <g>
            <path d="M432 144h24v24h-24z"/>
            <path fill="#000" fill-rule="nonzero" d="M438 147v-2h2v2h13.008c.548 0 .992.445.992.993v16.014a1 1 0 0 1-.992.993h-18.016a.993.993 0 0 1-.992-.993v-16.014a1 1 0 0 1 .992-.993H438zm3 12a3 3 0 1 0 0-6 3 3 0 0 0 0 6zm5-6v2h4v-2h-4zm0 4v2h4v-2h-4z"/>
        </g>
        <g>
            <path d="M384 144h24v24h-24z"/>
            <path fill="#000" fill-rule="nonzero" d="M401 154h3v-4h-16v4h11v-2h2v2zm-11-7v-2h2v2h13.008c.548 0 .992.445.992.993v16.014a1 1 0 0 1-.992.993h-18.016a.993.993 0 0 1-.992-.993v-16.014a1 1 0 0 1 .992-.993H390zm1 16a3 3 0 1 0 0-6 3 3 0 0 0 0 6z"/>
        </g>
        <g>
            <path d="M336 144h24v24h-24z"/>
            <path fill="#000" d="M340 156h3a2 2 0 0 1 2 2v5a2 2 0 0 1-2 2h-3a2 2 0 0 1-2-2v-7c0-5.523 4.477-10 10-10s10 4.477 10 10v7a2 2 0 0 1-2 2h-3a2 2 0 0 1-2-2v-5a2 2 0 0 1 2-2h3a8 8 0 1 0-16 0z"/>
        </g>
        <g>
            <path d="M288 144h24v24h-24z"/>
            <path fill="#000" fill-rule="nonzero" d="M301 155v-5l-5 7h3v5l5-7h-3zm-1 11c-5.523 0-10-4.477-10-10s4.477-10 10-10 10 4.477 10 10-4.477 10-10 10z"/>
        </g>
        <g>
            <path d="M240 144h24v24h-24z"/>
            <path fill="#000" fill-rule="nonzero" d="M252 146c5.52 0 10 4.48 10 10s-4.48 10-10 10-10-4.48-10-10 4.48-10 10-10zm0 14c2.213 0 4-1.787 4-4s-1.787-4-4-4-4 1.787-4 4 1.787 4 4 4zm0-5c.55 0 1 .45 1 1s-.45 1-1 1-1-.45-1-1 .45-1 1-1z"/>
        </g>
        <g>
            <path d="M192 144h24v24h-24z"/>
            <path fill="#000" d="M205 153.17a3 3 0 1 0 2 2.83v-9.542c4.057 1.274 7 5.064 7 9.542 0 5.523-4.477 10-10 10s-10-4.477-10-10 4.477-10 10-10c.337 0 .671.017 1 .05v7.12z"/>
        </g>
        <g>
            <path d="M144 144h24v24h-24z"/>
            <path fill="#000" d="M164 147v14a4 4 0 1 1-2-3.465V150h-9v11a4 4 0 1 1-2-3.465V147h13z"/>
        </g>
        <g>
            <path d="M96 144h24v24H96z"/>
            <path fill="#000" d="M108 157.535V147h8v3h-6v11a4 4 0 1 1-2-3.465z"/>
        </g>
        <g>
            <path d="M48 144h24v24H48z"/>
            <path fill="#000" fill-rule="nonzero" d="M50 147.993a1 1 0 0 1 .992-.993h18.016c.548 0 .992.445.992.993v16.014a1 1 0 0 1-.992.993H50.992a.993.993 0 0 1-.992-.993v-16.014zm10 8.178a3 3 0 1 0 2 2.83v-7.001h3v-2h-5v6.17z"/>
        </g>
        <g>
            <path d="M0 144h24v24H0z"/>
            <path fill="#000" fill-rule="nonzero" d="M11 165v-1.07A7.002 7.002 0 0 1 5 157v-5a7 7 0 1 1 14 0v5a7.002 7.002 0 0 1-6 6.93V165h4v2H7v-2h4zm1-12a1 1 0 1 1 0-2 1 1 0 0 1 0 2zm0 2a3 3 0 1 0 0-6 3 3 0 0 0 0 6z"/>
        </g>
        <g>
            <path d="M432 96h24v24h-24z"/>
            <path fill="#000" fill-rule="nonzero" d="M438 99v-2h2v2h13.008c.548 0 .992.445.992.993v16.014a1 1 0 0 1-.992.993h-18.016a.993.993 0 0 1-.992-.993V99.993a1 1 0 0 1 .992-.993H438zm-2 2v14h16v-14h-16zm5 10a3 3 0 1 1 0-6 3 3 0 0 1 0 6zm5-6h4v2h-4v-2zm0 4h4v2h-4v-2z"/>
        </g>
        <g>
            <path d="M384 96h24v24h-24z"/>
            <path fill="#000" fill-rule="nonzero" d="M401 106v-2h-2v2h-10v-4h14v4h-2zm-11-7v-2h2v2h13.008c.548 0 .992.445.992.993v16.014a1 1 0 0 1-.992.993h-18.016a.993.993 0 0 1-.992-.993V99.993a1 1 0 0 1 .992-.993H390zm-2 2v14h16v-14h-16zm4 13a3 3 0 1 1 0-6 3 3 0 0 1 0 6z"/>
        </g>
        <g>
            <path d="M336 96h24v24h-24z"/>
            <path fill="#000" fill-rule="nonzero" d="M348 100a8 8 0 0 0-8 8h3a2 2 0 0 1 2 2v5a2 2 0 0 1-2 2h-3a2 2 0 0 1-2-2v-7c0-5.523 4.477-10 10-10s10 4.477 10 10v7a2 2 0 0 1-2 2h-3a2 2 0 0 1-2-2v-5a2 2 0 0 1 2-2h3a8 8 0 0 0-8-8zm-8 10v5h3v-5h-3zm13 0v5h3v-5h-3z"/>
        </g>
        <g>
            <path d="M288 96h24v24h-24z"/>
            <path fill="#000" fill-rule="nonzero" d="M300 118c-5.523 0-10-4.477-10-10s4.477-10 10-10 10 4.477 10 10-4.477 10-10 10zm0-2a8 8 0 1 0 0-16 8 8 0 0 0 0 16zm1-9h3l-5 7v-5h-3l5-7v5z"/>
        </g>
        <g>
            <path d="M240 96h24v24h-24z"/>
            <path fill="#000" fill-rule="nonzero" d="M252 116a8 8 0 1 0 0-16 8 8 0 0 0 0 16zm0 2c-5.523 0-10-4.477-10-10s4.477-10 10-10 10 4.477 10 10-4.477 10-10 10zm0-8a2 2 0 1 0 0-4 2 2 0 0 0 0 4zm0 2a4 4 0 1 1 0-8 4 4 0 0 1 0 8z"/>
        </g>
        <g>
            <path d="M192 96h24v24h-24z"/>
            <path fill="#000" d="M207 100.582V108a3 3 0 1 1-2-2.83v-7.12c5.053.501 9 4.765 9 9.95 0 5.523-4.477 10-10 10s-10-4.477-10-10c0-5.185 3.947-9.449 9-9.95v2.012A8.001 8.001 0 0 0 204 116a8 8 0 0 0 3-15.418z"/>
        </g>
        <g>
            <path d="M144 96h24v24h-24z"/>
            <path fill="#000" fill-rule="nonzero" d="M164 99v14a4 4 0 1 1-2-3.465V101h-9v12a4 4 0 1 1-2-3.465V99h13zm-15 16a2 2 0 1 0 0-4 2 2 0 0 0 0 4zm11 0a2 2 0 1 0 0-4 2 2 0 0 0 0 4z"/>
        </g>
        <g>
            <path d="M96 96h24v24H96z"/>
            <path fill="#000" fill-rule="nonzero" d="M108 109.535V99h8v2h-6v12a4 4 0 1 1-2-3.465zM106 115a2 2 0 1 0 0-4 2 2 0 0 0 0 4z"/>
        </g>
        <g>
            <path d="M48 96h24v24H48z"/>
            <path fill="#000" fill-rule="nonzero" d="M50 99.993a1 1 0 0 1 .992-.993h18.016c.548 0 .992.445.992.993v16.014a1 1 0 0 1-.992.993H50.992a.993.993 0 0 1-.992-.993V99.993zM52 101v14h16v-14H52zm8 7.17V102h5v2h-3v7a3 3 0 1 1-2-2.83z"/>
        </g>
        <g>
            <path d="M0 96h24v24H0z"/>
            <path fill="#000" fill-rule="nonzero" d="M11 117v-1.07A7.002 7.002 0 0 1 5 109v-5a7 7 0 1 1 14 0v5a7.002 7.002 0 0 1-6 6.93V117h4v2H7v-2h4zm1-18a5 5 0 0 0-5 5v5a5 5 0 0 0 10 0v-5a5 5 0 0 0-5-5zm0 6a1 1 0 1 0 0-2 1 1 0 0 0 0 2zm0 2a3 3 0 1 1 0-6 3 3 0 0 1 0 6z"/>
        </g>
        <g>
            <path d="M816 144h24v24h-24z"/>
            <path fill="#000" fill-rule="nonzero" d="M820 146h16a1 1 0 0 1 1 1v18a1 1 0 0 1-1 1h-16a1 1 0 0 1-1-1v-18a1 1 0 0 1 1-1zm8 18a5 5 0 1 0 0-10 5 5 0 0 0 0 10zm0-12a1.5 1.5 0 1 0 0-3 1.5 1.5 0 0 0 0 3zm0 10a3 3 0 1 1 0-6 3 3 0 0 1 0 6z"/>
        </g>
        <g>
            <path d="M768 144h24v24h-24z"/>
            <path fill="#000" fill-rule="nonzero" d="M773.889 160H770a1 1 0 0 1-1-1v-6a1 1 0 0 1 1-1h3.889l5.294-4.332a.5.5 0 0 1 .817.387v15.89a.5.5 0 0 1-.817.387L773.89 160zm14.525-4l3.536 3.536-1.414 1.414-3.536-3.536-3.536 3.536-1.414-1.414 3.536-3.536-3.536-3.536 1.414-1.414 3.536 3.536 3.536-3.536 1.414 1.414-3.536 3.536z"/>
        </g>
        <g>
            <path d="M720 144h24v24h-24z"/>
            <path fill="#000" fill-rule="nonzero" d="M725.889 160H722a1 1 0 0 1-1-1v-6a1 1 0 0 1 1-1h3.889l5.294-4.332a.5.5 0 0 1 .817.387v15.89a.5.5 0 0 1-.817.387L725.89 160zm13.517 4.134l-1.416-1.416A8.978 8.978 0 0 0 741 156a8.982 8.982 0 0 0-3.304-6.968l1.42-1.42A10.976 10.976 0 0 1 743 156c0 3.223-1.386 6.122-3.594 8.134zm-3.543-3.543l-1.422-1.422A3.993 3.993 0 0 0 736 156c0-1.43-.75-2.685-1.88-3.392l1.439-1.439A5.991 5.991 0 0 1 738 156c0 1.842-.83 3.49-2.137 4.591z"/>
        </g>
        <g>
            <path d="M672 144h24v24h-24z"/>
            <path fill="#000" fill-rule="nonzero" d="M680.889 160H677a1 1 0 0 1-1-1v-6a1 1 0 0 1 1-1h3.889l5.294-4.332a.5.5 0 0 1 .817.387v15.89a.5.5 0 0 1-.817.387L680.89 160zm9.974.591l-1.422-1.422A3.993 3.993 0 0 0 691 156c0-1.43-.75-2.685-1.88-3.392l1.439-1.439A5.991 5.991 0 0 1 693 156c0 1.842-.83 3.49-2.137 4.591z"/>
        </g>
        <g>
            <path d="M624 144h24v24h-24z"/>
            <path fill="#000" fill-rule="nonzero" d="M636 145a5 5 0 0 1 5 5v6a5 5 0 0 1-10 0v-6a5 5 0 0 1 5-5zm-9.808 12.962l1.962-.393a8.003 8.003 0 0 0 15.692 0l1.962.393C644.896 162.545 640.85 166 636 166s-8.896-3.455-9.808-8.038z"/>
        </g>
        <g>
            <path d="M576 144h24v24h-24z"/>
            <path fill="#000" fill-rule="nonzero" d="M592.425 161.839a8.941 8.941 0 0 1-3.425 1.106V167h-2v-4.055a9.004 9.004 0 0 1-7.945-7.945h2.016a7.002 7.002 0 0 0 9.87 5.354l-1.551-1.55A5 5 0 0 1 583 154v-1.586l-5.607-5.606 1.415-1.415 19.799 19.8-1.415 1.414-4.767-4.768zm2.95-2.679l-1.443-1.442c.509-.81.856-1.73.997-2.718h2.016a8.95 8.95 0 0 1-1.57 4.16zm-2.91-2.909l-8.78-8.78A5 5 0 0 1 593 150l.001 4a4.98 4.98 0 0 1-.534 2.251z"/>
        </g>
        <g>
            <path d="M528 144h24v24h-24z"/>
            <path fill="#000" fill-rule="nonzero" d="M540 145a5 5 0 0 1 5 5v4a5 5 0 0 1-10 0v-4a5 5 0 0 1 5-5zm-8.945 10h2.016a7.002 7.002 0 0 0 13.858 0h2.016a9.004 9.004 0 0 1-7.945 7.945V167h-2v-4.055a9.004 9.004 0 0 1-7.945-7.945z"/>
        </g>
        <g>
            <path d="M480 144h24v24h-24z"/>
            <path fill="#000" fill-rule="nonzero" d="M490.83 157a3 3 0 1 0-2.83 2h8a3 3 0 1 0-2.83-2h-2.34zM483 147h18a1 1 0 0 1 1 1v16a1 1 0 0 1-1 1h-18a1 1 0 0 1-1-1v-16a1 1 0 0 1 1-1zm13 10a1 1 0 1 1 0-2 1 1 0 0 1 0 2zm-8 0a1 1 0 1 1 0-2 1 1 0 0 1 0 2z"/>
        </g>
        <g>
            <path d="M816 96h24v24h-24z"/>
            <path fill="#000" fill-rule="nonzero" d="M821 100v16h14v-16h-14zm-1-2h16a1 1 0 0 1 1 1v18a1 1 0 0 1-1 1h-16a1 1 0 0 1-1-1V99a1 1 0 0 1 1-1zm8 15a2.5 2.5 0 1 0 0-5 2.5 2.5 0 0 0 0 5zm0 2a4.5 4.5 0 1 1 0-9 4.5 4.5 0 0 1 0 9zm0-10.5a1.5 1.5 0 1 1 0-3 1.5 1.5 0 0 1 0 3z"/>
        </g>
        <g>
            <path d="M768 96h24v24h-24z"/>
            <path fill="#000" fill-rule="nonzero" d="M778 103.22l-3.397 2.78H771v4h3.603l3.397 2.78v-9.56zm-4.111 8.78H770a1 1 0 0 1-1-1v-6a1 1 0 0 1 1-1h3.889l5.294-4.332a.5.5 0 0 1 .817.387v15.89a.5.5 0 0 1-.817.387L773.89 112zm14.525-4l3.536 3.536-1.414 1.414-3.536-3.536-3.536 3.536-1.414-1.414 3.536-3.536-3.536-3.536 1.414-1.414 3.536 3.536 3.536-3.536 1.414 1.414-3.536 3.536z"/>
        </g>
        <g>
            <path d="M720 96h24v24h-24z"/>
            <path fill="#000" fill-rule="nonzero" d="M730 103.22l-3.397 2.78H723v4h3.603l3.397 2.78v-9.56zm-4.111 8.78H722a1 1 0 0 1-1-1v-6a1 1 0 0 1 1-1h3.889l5.294-4.332a.5.5 0 0 1 .817.387v15.89a.5.5 0 0 1-.817.387L725.89 112zm13.517 4.134l-1.416-1.416A8.978 8.978 0 0 0 741 108a8.982 8.982 0 0 0-3.304-6.968l1.42-1.42A10.976 10.976 0 0 1 743 108c0 3.223-1.386 6.122-3.594 8.134zm-3.543-3.543l-1.422-1.422A3.993 3.993 0 0 0 736 108c0-1.43-.75-2.685-1.88-3.392l1.439-1.439A5.991 5.991 0 0 1 738 108c0 1.842-.83 3.49-2.137 4.591z"/>
        </g>
        <g>
            <path d="M672 96h24v24h-24z"/>
            <path fill="#000" fill-rule="nonzero" d="M685 103.22l-3.397 2.78H678v4h3.603l3.397 2.78v-9.56zm-4.111 8.78H677a1 1 0 0 1-1-1v-6a1 1 0 0 1 1-1h3.889l5.294-4.332a.5.5 0 0 1 .817.387v15.89a.5.5 0 0 1-.817.387L680.89 112zm9.974.591l-1.422-1.422A3.993 3.993 0 0 0 691 108c0-1.43-.75-2.685-1.88-3.392l1.439-1.439A5.991 5.991 0 0 1 693 108c0 1.842-.83 3.49-2.137 4.591z"/>
        </g>
        <g>
            <path d="M624 96h24v24h-24z"/>
            <path fill="#000" fill-rule="nonzero" d="M636 99a3 3 0 0 0-3 3v6a3 3 0 0 0 6 0v-6a3 3 0 0 0-3-3zm0-2a5 5 0 0 1 5 5v6a5 5 0 0 1-10 0v-6a5 5 0 0 1 5-5zm-9.808 12.962l1.962-.393a8.003 8.003 0 0 0 15.692 0l1.962.393C644.896 114.545 640.85 118 636 118s-8.896-3.455-9.808-8.038z"/>
        </g>
        <g>
            <path d="M576 96h24v24h-24z"/>
            <path fill="#000" fill-rule="nonzero" d="M592.425 113.839a8.941 8.941 0 0 1-3.425 1.106V119h-2v-4.055a9.004 9.004 0 0 1-7.945-7.945h2.016a7.002 7.002 0 0 0 9.87 5.354l-1.551-1.55A5 5 0 0 1 583 106v-1.586l-5.607-5.606 1.415-1.415 19.799 19.8-1.415 1.414-4.767-4.768zm-7.392-7.392l2.52 2.52a3.002 3.002 0 0 1-2.52-2.52zm10.342 4.713l-1.443-1.442c.509-.81.856-1.73.997-2.718h2.016a8.95 8.95 0 0 1-1.57 4.16zm-2.91-2.909l-1.548-1.548c.054-.226.083-.46.083-.703v-4a3 3 0 0 0-5.818-1.032l-1.496-1.497A5 5 0 0 1 593 102v4a4.98 4.98 0 0 1-.534 2.251z"/>
        </g>
        <g>
            <path d="M528 96h24v24h-24z"/>
            <path fill="#000" fill-rule="nonzero" d="M540 99a3 3 0 0 0-3 3v4a3 3 0 0 0 6 0v-4a3 3 0 0 0-3-3zm0-2a5 5 0 0 1 5 5v4a5 5 0 0 1-10 0v-4a5 5 0 0 1 5-5zm-8.945 10h2.016a7.002 7.002 0 0 0 13.858 0h2.016a9.004 9.004 0 0 1-7.945 7.945V119h-2v-4.055a9.004 9.004 0 0 1-7.945-7.945z"/>
        </g>
        <g>
            <path d="M480 96h24v24h-24z"/>
            <path fill="#000" fill-rule="nonzero" d="M490.83 109h2.34a3 3 0 1 1 2.83 2h-8a3 3 0 1 1 2.83-2zm-6.83-8v14h16v-14h-16zm-1-2h18a1 1 0 0 1 1 1v16a1 1 0 0 1-1 1h-18a1 1 0 0 1-1-1v-16a1 1 0 0 1 1-1zm5 10a1 1 0 1 0 0-2 1 1 0 0 0 0 2zm8 0a1 1 0 1 0 0-2 1 1 0 0 0 0 2z"/>
        </g>
        <path fill="url(#a)" d="M0 72h900v96H0z"/>
        <path fill="url(#a)" d="M0 72h900v120H0z"/>
    </g>
</svg>
