<svg width="386" height="28" viewBox="0 0 386 28" fill="none" xmlns="http://www.w3.org/2000/svg">
<rect width="386" height="28" rx="14" fill="#EBEFF7"/>
<rect x="2" y="2" width="175" height="24" rx="12" fill="#131313"/>
<path d="M16.1348 16.6211C16.1348 17.1289 16.0117 17.5703 15.7656 17.9453C15.5195 18.3203 15.1602 18.6094 14.6875 18.8125C14.2188 19.0156 13.6484 19.1172 12.9766 19.1172C12.6797 19.1172 12.3887 19.0977 12.1035 19.0586C11.8223 19.0195 11.5508 18.9629 11.2891 18.8887C11.0312 18.8105 10.7852 18.7148 10.5508 18.6016V16.9141C10.957 17.0938 11.3789 17.2559 11.8164 17.4004C12.2539 17.5449 12.6875 17.6172 13.1172 17.6172C13.4141 17.6172 13.6523 17.5781 13.832 17.5C14.0156 17.4219 14.1484 17.3145 14.2305 17.1777C14.3125 17.041 14.3535 16.8848 14.3535 16.709C14.3535 16.4941 14.2812 16.3105 14.1367 16.1582C13.9922 16.0059 13.793 15.8633 13.5391 15.7305C13.2891 15.5977 13.0059 15.4551 12.6895 15.3027C12.4902 15.209 12.2734 15.0957 12.0391 14.9629C11.8047 14.8262 11.582 14.6602 11.3711 14.4648C11.1602 14.2695 10.9863 14.0332 10.8496 13.7559C10.7168 13.4746 10.6504 13.1387 10.6504 12.748C10.6504 12.2363 10.7676 11.7988 11.002 11.4355C11.2363 11.0723 11.5703 10.7949 12.0039 10.6035C12.4414 10.4082 12.957 10.3105 13.5508 10.3105C13.9961 10.3105 14.4199 10.3633 14.8223 10.4688C15.2285 10.5703 15.6523 10.7188 16.0938 10.9141L15.5078 12.3262C15.1133 12.166 14.7598 12.043 14.4473 11.957C14.1348 11.8672 13.8164 11.8223 13.4922 11.8223C13.2656 11.8223 13.0723 11.8594 12.9121 11.9336C12.752 12.0039 12.6309 12.1055 12.5488 12.2383C12.4668 12.3672 12.4258 12.5176 12.4258 12.6895C12.4258 12.8926 12.4844 13.0645 12.6016 13.2051C12.7227 13.3418 12.9023 13.4746 13.1406 13.6035C13.3828 13.7324 13.6836 13.8828 14.043 14.0547C14.4805 14.2617 14.8535 14.4785 15.1621 14.7051C15.4746 14.9277 15.7148 15.1914 15.8828 15.4961C16.0508 15.7969 16.1348 16.1719 16.1348 16.6211ZM20.4238 10.4336C21.5293 10.4336 22.3359 10.6719 22.8438 11.1484C23.3516 11.6211 23.6055 12.2734 23.6055 13.1055C23.6055 13.4805 23.5488 13.8398 23.4355 14.1836C23.3223 14.5234 23.1367 14.8262 22.8789 15.0918C22.625 15.3574 22.2852 15.5684 21.8594 15.7246C21.4336 15.877 20.9082 15.9531 20.2832 15.9531H19.5039V19H17.6875V10.4336H20.4238ZM20.3301 11.9219H19.5039V14.4648H20.1016C20.4414 14.4648 20.7363 14.4199 20.9863 14.3301C21.2363 14.2402 21.4297 14.0996 21.5664 13.9082C21.7031 13.7168 21.7715 13.4707 21.7715 13.1699C21.7715 12.748 21.6543 12.4355 21.4199 12.2324C21.1855 12.0254 20.8223 11.9219 20.3301 11.9219ZM32.998 14.7051C32.998 15.3652 32.916 15.9668 32.752 16.5098C32.5879 17.0488 32.3379 17.5137 32.002 17.9043C31.6699 18.2949 31.248 18.5957 30.7363 18.8066C30.2246 19.0137 29.6191 19.1172 28.9199 19.1172C28.2207 19.1172 27.6152 19.0137 27.1035 18.8066C26.5918 18.5957 26.168 18.2949 25.832 17.9043C25.5 17.5137 25.252 17.0469 25.0879 16.5039C24.9238 15.9609 24.8418 15.3574 24.8418 14.6934C24.8418 13.8066 24.9863 13.0352 25.2754 12.3789C25.5684 11.7188 26.0176 11.207 26.623 10.8438C27.2285 10.4805 27.998 10.2988 28.9316 10.2988C29.8613 10.2988 30.625 10.4805 31.2227 10.8438C31.8242 11.207 32.2695 11.7188 32.5586 12.3789C32.8516 13.0391 32.998 13.8145 32.998 14.7051ZM26.7461 14.7051C26.7461 15.3027 26.8203 15.8184 26.9688 16.252C27.1211 16.6816 27.3574 17.0137 27.6777 17.248C27.998 17.4785 28.4121 17.5938 28.9199 17.5938C29.4355 17.5938 29.8535 17.4785 30.1738 17.248C30.4941 17.0137 30.7266 16.6816 30.8711 16.252C31.0195 15.8184 31.0938 15.3027 31.0938 14.7051C31.0938 13.8066 30.9258 13.0996 30.5898 12.584C30.2539 12.0684 29.7012 11.8105 28.9316 11.8105C28.4199 11.8105 28.002 11.9277 27.6777 12.1621C27.3574 12.3926 27.1211 12.7246 26.9688 13.1582C26.8203 13.5879 26.7461 14.1035 26.7461 14.7051ZM42.373 19H40.0645L36.3379 12.5195H36.2852C36.3008 12.7891 36.3145 13.0605 36.3262 13.334C36.3379 13.6074 36.3496 13.8809 36.3613 14.1543C36.373 14.4238 36.3848 14.6953 36.3965 14.9688V19H34.7734V10.4336H37.0645L40.7852 16.8496H40.8262C40.8184 16.584 40.8086 16.3203 40.7969 16.0586C40.7852 15.7969 40.7734 15.5352 40.7617 15.2734C40.7539 15.0117 40.7461 14.75 40.7383 14.4883V10.4336H42.373V19ZM49.5918 16.6211C49.5918 17.1289 49.4688 17.5703 49.2227 17.9453C48.9766 18.3203 48.6172 18.6094 48.1445 18.8125C47.6758 19.0156 47.1055 19.1172 46.4336 19.1172C46.1367 19.1172 45.8457 19.0977 45.5605 19.0586C45.2793 19.0195 45.0078 18.9629 44.7461 18.8887C44.4883 18.8105 44.2422 18.7148 44.0078 18.6016V16.9141C44.4141 17.0938 44.8359 17.2559 45.2734 17.4004C45.7109 17.5449 46.1445 17.6172 46.5742 17.6172C46.8711 17.6172 47.1094 17.5781 47.2891 17.5C47.4727 17.4219 47.6055 17.3145 47.6875 17.1777C47.7695 17.041 47.8105 16.8848 47.8105 16.709C47.8105 16.4941 47.7383 16.3105 47.5938 16.1582C47.4492 16.0059 47.25 15.8633 46.9961 15.7305C46.7461 15.5977 46.4629 15.4551 46.1465 15.3027C45.9473 15.209 45.7305 15.0957 45.4961 14.9629C45.2617 14.8262 45.0391 14.6602 44.8281 14.4648C44.6172 14.2695 44.4434 14.0332 44.3066 13.7559C44.1738 13.4746 44.1074 13.1387 44.1074 12.748C44.1074 12.2363 44.2246 11.7988 44.459 11.4355C44.6934 11.0723 45.0273 10.7949 45.4609 10.6035C45.8984 10.4082 46.4141 10.3105 47.0078 10.3105C47.4531 10.3105 47.877 10.3633 48.2793 10.4688C48.6855 10.5703 49.1094 10.7188 49.5508 10.9141L48.9648 12.3262C48.5703 12.166 48.2168 12.043 47.9043 11.957C47.5918 11.8672 47.2734 11.8223 46.9492 11.8223C46.7227 11.8223 46.5293 11.8594 46.3691 11.9336C46.209 12.0039 46.0879 12.1055 46.0059 12.2383C45.9238 12.3672 45.8828 12.5176 45.8828 12.6895C45.8828 12.8926 45.9414 13.0645 46.0586 13.2051C46.1797 13.3418 46.3594 13.4746 46.5977 13.6035C46.8398 13.7324 47.1406 13.8828 47.5 14.0547C47.9375 14.2617 48.3105 14.4785 48.6191 14.7051C48.9316 14.9277 49.1719 15.1914 49.3398 15.4961C49.5078 15.7969 49.5918 16.1719 49.5918 16.6211ZM58.9199 14.7051C58.9199 15.3652 58.8379 15.9668 58.6738 16.5098C58.5098 17.0488 58.2598 17.5137 57.9238 17.9043C57.5918 18.2949 57.1699 18.5957 56.6582 18.8066C56.1465 19.0137 55.541 19.1172 54.8418 19.1172C54.1426 19.1172 53.5371 19.0137 53.0254 18.8066C52.5137 18.5957 52.0898 18.2949 51.7539 17.9043C51.4219 17.5137 51.1738 17.0469 51.0098 16.5039C50.8457 15.9609 50.7637 15.3574 50.7637 14.6934C50.7637 13.8066 50.9082 13.0352 51.1973 12.3789C51.4902 11.7188 51.9395 11.207 52.5449 10.8438C53.1504 10.4805 53.9199 10.2988 54.8535 10.2988C55.7832 10.2988 56.5469 10.4805 57.1445 10.8438C57.7461 11.207 58.1914 11.7188 58.4805 12.3789C58.7734 13.0391 58.9199 13.8145 58.9199 14.7051ZM52.668 14.7051C52.668 15.3027 52.7422 15.8184 52.8906 16.252C53.043 16.6816 53.2793 17.0137 53.5996 17.248C53.9199 17.4785 54.334 17.5938 54.8418 17.5938C55.3574 17.5938 55.7754 17.4785 56.0957 17.248C56.416 17.0137 56.6484 16.6816 56.793 16.252C56.9414 15.8184 57.0156 15.3027 57.0156 14.7051C57.0156 13.8066 56.8477 13.0996 56.5117 12.584C56.1758 12.0684 55.623 11.8105 54.8535 11.8105C54.3418 11.8105 53.9238 11.9277 53.5996 12.1621C53.2793 12.3926 53.043 12.7246 52.8906 13.1582C52.7422 13.5879 52.668 14.1035 52.668 14.7051ZM63.1914 10.4336C63.9688 10.4336 64.6094 10.5273 65.1133 10.7148C65.6211 10.9023 65.998 11.1855 66.2441 11.5645C66.4902 11.9434 66.6133 12.4219 66.6133 13C66.6133 13.3906 66.5391 13.7324 66.3906 14.0254C66.2422 14.3184 66.0469 14.5664 65.8047 14.7695C65.5625 14.9727 65.3008 15.1387 65.0195 15.2676L67.5391 19H65.5234L63.4785 15.7129H62.5117V19H60.6953V10.4336H63.1914ZM63.0625 11.9219H62.5117V14.2363H63.0977C63.6992 14.2363 64.1289 14.1367 64.3867 13.9375C64.6484 13.7344 64.7793 13.4375 64.7793 13.0469C64.7793 12.6406 64.6387 12.3516 64.3574 12.1797C64.0801 12.0078 63.6484 11.9219 63.0625 11.9219ZM68.2246 18.1621C68.2246 17.7949 68.3242 17.5371 68.5234 17.3887C68.7266 17.2402 68.9707 17.166 69.2559 17.166C69.5332 17.166 69.7715 17.2402 69.9707 17.3887C70.1738 17.5371 70.2754 17.7949 70.2754 18.1621C70.2754 18.5137 70.1738 18.7676 69.9707 18.9238C69.7715 19.0801 69.5332 19.1582 69.2559 19.1582C68.9707 19.1582 68.7266 19.0801 68.5234 18.9238C68.3242 18.7676 68.2246 18.5137 68.2246 18.1621ZM68.2246 13.3223C68.2246 12.9551 68.3242 12.6973 68.5234 12.5488C68.7266 12.4004 68.9707 12.3262 69.2559 12.3262C69.5332 12.3262 69.7715 12.4004 69.9707 12.5488C70.1738 12.6973 70.2754 12.9551 70.2754 13.3223C70.2754 13.6777 70.1738 13.9336 69.9707 14.0898C69.7715 14.2422 69.5332 14.3184 69.2559 14.3184C68.9707 14.3184 68.7266 14.2422 68.5234 14.0898C68.3242 13.9336 68.2246 13.6777 68.2246 13.3223Z" fill="white"/>
<path d="M99.415 14.9249C98.96 14.5449 98.2225 14.2829 97.109 14.1009C96.1365 13.9424 95.791 13.7129 95.791 13.2294C95.791 12.7859 96.191 12.5089 96.8345 12.5089C97.5165 12.5089 97.8695 12.8099 97.9795 13.4989L97.987 13.5624H99.9635L99.956 13.4754C99.744 11.8514 98.654 10.9959 96.795 10.9959C95.007 10.9959 93.815 11.9309 93.815 13.3324C93.815 14.0614 94.0345 14.5999 94.4895 14.9959C94.9445 15.3604 95.697 15.6374 96.7325 15.8199C97.909 16.0334 98.105 16.2714 98.105 16.7304C98.105 17.1979 97.658 17.4989 96.9755 17.4989C96.1755 17.4989 95.6735 17.1189 95.564 16.4374L95.556 16.3739H93.501L93.517 16.4614C93.642 17.2454 94.027 17.8949 94.6225 18.3384C95.219 18.7819 96.0345 19.0119 96.9675 19.0119C97.846 19.0119 98.646 18.7739 99.2185 18.3384C99.791 17.9029 100.105 17.2769 100.105 16.5884C100.097 15.8354 99.8775 15.3134 99.415 14.9249ZM111.147 11.0829C110.449 11.0829 109.877 11.3604 109.414 11.9304C109.273 12.0809 109.234 12.1129 109.163 12.1129C109.077 12.1129 109.038 11.9779 109.022 11.9069C108.983 11.6929 108.943 11.4634 108.936 11.3129L108.928 11.2414H107.414V18.7584H109.445V14.7979C109.445 14.2514 109.524 13.8079 109.665 13.4829C109.861 13.0474 110.183 12.8254 110.598 12.8254C111.061 12.8254 111.32 13.1504 111.32 13.7204V13.9904H113.14L113.147 13.9264C113.163 13.8314 113.163 13.7129 113.163 13.6099C113.171 12.7464 112.951 12.0649 112.52 11.6299C112.182 11.2649 111.72 11.0829 111.147 11.0829ZM117.853 11.0039C116.77 11.0039 115.783 11.3999 115.061 12.1289C114.331 12.8654 113.931 13.8869 113.931 15.0039C113.931 16.1364 114.331 17.1664 115.053 17.8869C115.767 18.5999 116.778 18.9959 117.892 18.9959C119.798 18.9959 121.202 17.9979 121.57 16.3979L121.594 16.3029H119.563L119.547 16.3579C119.351 16.9999 118.747 17.3719 117.892 17.3719C116.841 17.3719 116.12 16.7224 116.01 15.6769H121.625L121.641 15.6219C121.68 15.4474 121.704 15.0594 121.704 14.8059C121.704 13.7129 121.351 12.7704 120.684 12.0889C119.986 11.3839 119.014 11.0039 117.853 11.0039ZM116.018 14.2514C116.151 13.2534 116.873 12.6114 117.892 12.6114C118.896 12.6114 119.61 13.2694 119.688 14.2514H116.018ZM129.327 11.3129C129.327 11.5189 129.288 11.8119 129.256 12.0179C129.209 12.2239 129.146 12.2239 129.115 12.2239C129.099 12.2239 129.021 12.2159 128.841 12.0259C128.237 11.3444 127.445 11.0119 126.425 11.0119C125.413 11.0119 124.48 11.4159 123.79 12.1519C123.1 12.8889 122.723 13.8949 122.723 14.9879C122.723 16.0809 123.1 17.0869 123.79 17.8239C124.48 18.5604 125.413 18.9564 126.425 18.9564C127.445 18.9564 128.237 18.6234 128.841 17.9424C129.021 17.7604 129.099 17.7444 129.115 17.7444C129.146 17.7444 129.209 17.7444 129.256 17.9504C129.288 18.1089 129.335 18.4179 129.335 18.6554V18.7344H130.88V11.2414H129.335V11.3129H129.327ZM128.896 14.9959C128.896 16.3189 128.072 17.2059 126.849 17.2059C126.229 17.2059 125.727 16.9999 125.358 16.6039C124.982 16.1999 124.794 15.6689 124.794 15.0039C124.794 13.6809 125.617 12.7939 126.849 12.7939C128.08 12.7859 128.896 13.6729 128.896 14.9959ZM141.483 11.0039C140.519 11.0039 139.844 11.3684 139.225 12.2159C139.091 12.3899 139.013 12.4294 138.966 12.4294C138.911 12.4294 138.856 12.4139 138.738 12.1999C138.291 11.3839 137.617 11.0039 136.605 11.0039C135.703 11.0039 135.005 11.3604 134.401 12.1364C134.26 12.2869 134.244 12.2869 134.182 12.2869C134.072 12.2869 134.033 12.1284 134.017 12.0334C133.978 11.7959 133.938 11.5504 133.931 11.3129V11.2414H132.409V18.7584H134.44V15.2734C134.44 14.5284 134.574 13.9424 134.848 13.5304C135.154 13.0714 135.554 12.8494 136.072 12.8494C136.605 12.8494 137.24 13.1109 137.24 14.3779V18.7664H139.256V15.2814C139.256 14.5364 139.389 13.9664 139.664 13.5384C139.97 13.0789 140.37 12.8574 140.887 12.8574C141.42 12.8574 142.056 13.1189 142.056 14.3859V18.7744H144.103V14.0849C144.095 12.1524 143.115 11.0039 141.483 11.0039ZM147.648 8.3899H145.616V18.7504H147.648V8.3899ZM151.2 11.2414H149.169V18.7584H151.2V11.2414ZM157.083 11.0039C156.071 11.0039 155.318 11.3524 154.738 12.1129C154.643 12.2314 154.565 12.2869 154.502 12.2869C154.432 12.2869 154.377 12.2079 154.345 12.0419C154.3 11.798 154.266 11.552 154.244 11.3049L154.236 11.2334H152.714V18.7504H154.745V15.3129C154.745 14.5209 154.902 13.9264 155.224 13.4829C155.545 13.0474 155.977 12.8334 156.549 12.8334C157.373 12.8334 157.836 13.3959 157.836 14.4099V18.7424H159.867V14.0849C159.867 13.1109 159.624 12.3504 159.137 11.8119C158.659 11.2889 157.945 11.0039 157.083 11.0039ZM167.639 12.0889C166.949 11.3839 165.969 11.0119 164.816 11.0119C163.733 11.0119 162.745 11.4079 162.024 12.1369C161.294 12.8734 160.894 13.8949 160.894 15.0119C160.894 16.1444 161.294 17.1744 162.016 17.8949C162.729 18.6079 163.741 19.0039 164.855 19.0039C166.761 19.0039 168.164 18.0059 168.533 16.4059L168.557 16.3109H166.525L166.51 16.3659C166.314 17.0079 165.71 17.3799 164.855 17.3799C163.804 17.3799 163.082 16.7304 162.973 15.6849H168.588L168.604 15.6299C168.643 15.4549 168.666 15.0674 168.666 14.8139C168.659 13.7129 168.306 12.7704 167.639 12.0889ZM162.98 14.2514C163.106 13.2534 163.835 12.6114 164.855 12.6114C165.859 12.6114 166.572 13.2694 166.651 14.2514H162.98ZM105.069 17.1899C104.285 17.1899 103.979 16.8414 103.979 15.9624V12.9524H105.893V11.2414H103.979V9.1739H102.567L102.559 9.2454C102.536 9.4829 102.442 10.2754 102.316 10.6954C102.23 11.0274 102.065 11.2414 101.501 11.2414H100.599V12.9444H101.979V16.1364C101.979 18.0059 102.795 18.8374 104.63 18.8374C105.085 18.8374 105.626 18.7584 105.947 18.6554L106.002 18.6394V17.0314L105.908 17.0634C105.636 17.1458 105.354 17.1884 105.069 17.1899ZM150.189 10.3859C150.851 10.3859 151.389 9.8434 151.389 9.1739C151.389 8.5049 150.851 7.9624 150.189 7.9624C149.526 7.9624 148.989 8.5049 148.989 9.1739C148.989 9.8439 149.526 10.3859 150.189 10.3859Z" fill="#CDFF71"/>
<path d="M88.0882 9.18455C88.0882 10.3877 87.1135 11.3691 85.9063 11.3691H83.7243L85.2638 12.9105H87.4458C88.0051 12.9105 88.5645 13.1212 88.9854 13.5481C89.8382 14.402 89.8382 15.7826 88.9854 16.6364L85.2694 20.3624C84.8762 20.756 84.3279 21 83.7298 21C82.5281 21 81.5479 20.0242 81.5479 18.8154C81.5479 17.6123 82.5225 16.6309 83.7298 16.6309H85.9118L84.3612 15.095H82.1792C81.6199 15.095 81.0605 14.8844 80.6396 14.4574C79.7868 13.6036 79.7868 12.223 80.6396 11.3691L84.3612 7.64317C84.7599 7.24396 85.3026 7 85.9063 7C87.108 7 88.0882 7.97584 88.0882 9.18455Z" fill="#CDFF71"/>
<path d="M192.506 19L191.528 16.2246H187.707L186.729 19H185L188.719 8.96484H190.537L194.249 19H192.506ZM191.104 14.8164L190.154 12.082C190.118 11.9635 190.065 11.7972 189.997 11.583C189.929 11.3643 189.86 11.1432 189.792 10.9199C189.724 10.6921 189.667 10.5007 189.621 10.3457C189.576 10.5326 189.519 10.7422 189.45 10.9746C189.386 11.2025 189.323 11.4167 189.259 11.6172C189.2 11.8177 189.154 11.9727 189.122 12.082L188.165 14.8164H191.104ZM198.453 19.1367C197.738 19.1367 197.118 18.9977 196.594 18.7197C196.07 18.4417 195.666 18.0156 195.384 17.4414C195.101 16.8672 194.96 16.138 194.96 15.2539C194.96 14.3333 195.115 13.5814 195.425 12.998C195.735 12.4147 196.163 11.984 196.71 11.7061C197.261 11.4281 197.893 11.2891 198.604 11.2891C199.055 11.2891 199.463 11.3346 199.827 11.4258C200.196 11.5124 200.508 11.6195 200.764 11.7471L200.285 13.0322C200.007 12.9183 199.722 12.8226 199.431 12.7451C199.139 12.6676 198.859 12.6289 198.59 12.6289C198.148 12.6289 197.779 12.7269 197.482 12.9229C197.191 13.1188 196.972 13.4105 196.826 13.7979C196.685 14.1852 196.614 14.666 196.614 15.2402C196.614 15.7962 196.687 16.2656 196.833 16.6484C196.979 17.0267 197.195 17.3138 197.482 17.5098C197.77 17.7012 198.123 17.7969 198.542 17.7969C198.957 17.7969 199.328 17.7467 199.656 17.6465C199.984 17.5462 200.294 17.4163 200.586 17.2568V18.6514C200.299 18.8154 199.991 18.9362 199.663 19.0137C199.335 19.0957 198.932 19.1367 198.453 19.1367ZM205.412 19.1367C204.697 19.1367 204.077 18.9977 203.553 18.7197C203.029 18.4417 202.625 18.0156 202.343 17.4414C202.06 16.8672 201.919 16.138 201.919 15.2539C201.919 14.3333 202.074 13.5814 202.384 12.998C202.694 12.4147 203.122 11.984 203.669 11.7061C204.22 11.4281 204.852 11.2891 205.562 11.2891C206.014 11.2891 206.422 11.3346 206.786 11.4258C207.155 11.5124 207.467 11.6195 207.723 11.7471L207.244 13.0322C206.966 12.9183 206.681 12.8226 206.39 12.7451C206.098 12.6676 205.818 12.6289 205.549 12.6289C205.107 12.6289 204.738 12.7269 204.441 12.9229C204.15 13.1188 203.931 13.4105 203.785 13.7979C203.644 14.1852 203.573 14.666 203.573 15.2402C203.573 15.7962 203.646 16.2656 203.792 16.6484C203.938 17.0267 204.154 17.3138 204.441 17.5098C204.729 17.7012 205.082 17.7969 205.501 17.7969C205.916 17.7969 206.287 17.7467 206.615 17.6465C206.943 17.5462 207.253 17.4163 207.545 17.2568V18.6514C207.258 18.8154 206.95 18.9362 206.622 19.0137C206.294 19.0957 205.891 19.1367 205.412 19.1367ZM212.337 11.2891C213.011 11.2891 213.59 11.4281 214.073 11.7061C214.556 11.984 214.928 12.3783 215.188 12.8887C215.447 13.3991 215.577 14.0098 215.577 14.7207V15.582H210.525C210.544 16.3158 210.74 16.8809 211.113 17.2773C211.492 17.6738 212.02 17.8721 212.699 17.8721C213.182 17.8721 213.615 17.8265 213.998 17.7354C214.385 17.6396 214.784 17.5007 215.194 17.3184V18.624C214.816 18.8018 214.431 18.9316 214.039 19.0137C213.647 19.0957 213.178 19.1367 212.631 19.1367C211.888 19.1367 211.234 18.9932 210.669 18.7061C210.108 18.4144 209.669 17.9814 209.35 17.4072C209.035 16.833 208.878 16.1198 208.878 15.2676C208.878 14.4199 209.021 13.6999 209.309 13.1074C209.596 12.515 209.999 12.0638 210.519 11.7539C211.038 11.444 211.644 11.2891 212.337 11.2891ZM212.337 12.499C211.831 12.499 211.421 12.6631 211.106 12.9912C210.797 13.3193 210.614 13.8001 210.56 14.4336H214.005C214 14.0553 213.937 13.7204 213.813 13.4287C213.695 13.137 213.513 12.9092 213.267 12.7451C213.025 12.5811 212.715 12.499 212.337 12.499ZM222.475 16.8398C222.475 17.3366 222.354 17.7559 222.112 18.0977C221.871 18.4395 221.518 18.6992 221.053 18.877C220.592 19.0501 220.027 19.1367 219.357 19.1367C218.829 19.1367 218.373 19.098 217.99 19.0205C217.612 18.9476 217.254 18.8337 216.917 18.6787V17.291C217.277 17.4596 217.68 17.6055 218.127 17.7285C218.578 17.8516 219.004 17.9131 219.405 17.9131C219.934 17.9131 220.314 17.8311 220.547 17.667C220.779 17.4984 220.896 17.2751 220.896 16.9971C220.896 16.833 220.848 16.6872 220.752 16.5596C220.661 16.4274 220.488 16.293 220.232 16.1562C219.982 16.015 219.613 15.8464 219.125 15.6504C218.646 15.459 218.243 15.2676 217.915 15.0762C217.587 14.8848 217.339 14.6546 217.17 14.3857C217.001 14.1123 216.917 13.7637 216.917 13.3398C216.917 12.6699 217.181 12.1618 217.71 11.8154C218.243 11.4645 218.947 11.2891 219.822 11.2891C220.287 11.2891 220.725 11.3369 221.135 11.4326C221.549 11.5238 221.955 11.6582 222.352 11.8359L221.846 13.0459C221.504 12.8955 221.16 12.7725 220.813 12.6768C220.472 12.5765 220.123 12.5264 219.768 12.5264C219.353 12.5264 219.036 12.5902 218.817 12.7178C218.603 12.8454 218.496 13.0277 218.496 13.2646C218.496 13.4424 218.549 13.5928 218.653 13.7158C218.758 13.8389 218.938 13.9619 219.193 14.085C219.453 14.208 219.813 14.3607 220.273 14.543C220.725 14.7161 221.114 14.8984 221.442 15.0898C221.775 15.2767 222.03 15.5068 222.208 15.7803C222.386 16.0537 222.475 16.4069 222.475 16.8398ZM229.297 16.8398C229.297 17.3366 229.176 17.7559 228.935 18.0977C228.693 18.4395 228.34 18.6992 227.875 18.877C227.415 19.0501 226.85 19.1367 226.18 19.1367C225.651 19.1367 225.195 19.098 224.812 19.0205C224.434 18.9476 224.076 18.8337 223.739 18.6787V17.291C224.099 17.4596 224.503 17.6055 224.949 17.7285C225.4 17.8516 225.826 17.9131 226.228 17.9131C226.756 17.9131 227.137 17.8311 227.369 17.667C227.602 17.4984 227.718 17.2751 227.718 16.9971C227.718 16.833 227.67 16.6872 227.574 16.5596C227.483 16.4274 227.31 16.293 227.055 16.1562C226.804 16.015 226.435 15.8464 225.947 15.6504C225.469 15.459 225.065 15.2676 224.737 15.0762C224.409 14.8848 224.161 14.6546 223.992 14.3857C223.824 14.1123 223.739 13.7637 223.739 13.3398C223.739 12.6699 224.004 12.1618 224.532 11.8154C225.065 11.4645 225.77 11.2891 226.645 11.2891C227.109 11.2891 227.547 11.3369 227.957 11.4326C228.372 11.5238 228.777 11.6582 229.174 11.8359L228.668 13.0459C228.326 12.8955 227.982 12.7725 227.636 12.6768C227.294 12.5765 226.945 12.5264 226.59 12.5264C226.175 12.5264 225.858 12.5902 225.64 12.7178C225.425 12.8454 225.318 13.0277 225.318 13.2646C225.318 13.4424 225.371 13.5928 225.476 13.7158C225.58 13.8389 225.76 13.9619 226.016 14.085C226.275 14.208 226.635 14.3607 227.096 14.543C227.547 14.7161 227.937 14.8984 228.265 15.0898C228.597 15.2767 228.853 15.5068 229.03 15.7803C229.208 16.0537 229.297 16.4069 229.297 16.8398ZM238.874 19H237.261V12.5674C237.261 12.3532 237.263 12.139 237.268 11.9248C237.272 11.7106 237.277 11.501 237.281 11.2959C237.29 11.0908 237.302 10.8949 237.315 10.708C237.22 10.8128 237.101 10.9268 236.96 11.0498C236.823 11.1729 236.677 11.3005 236.522 11.4326L235.374 12.3486L234.567 11.3301L237.534 9.00586H238.874V19ZM243.304 19L247.228 10.4141H242.039V9.00586H248.957V10.1064L245.033 19H243.304ZM256.941 13.9961C256.941 14.8027 256.878 15.5251 256.75 16.1631C256.627 16.7965 256.431 17.3343 256.162 17.7764C255.893 18.2184 255.542 18.5557 255.109 18.7881C254.676 19.0205 254.152 19.1367 253.537 19.1367C252.767 19.1367 252.131 18.9339 251.63 18.5283C251.129 18.1182 250.757 17.5303 250.516 16.7646C250.274 15.9945 250.153 15.0716 250.153 13.9961C250.153 12.9206 250.263 12 250.481 11.2344C250.705 10.4642 251.065 9.87402 251.562 9.46387C252.058 9.05371 252.717 8.84863 253.537 8.84863C254.312 8.84863 254.95 9.05371 255.451 9.46387C255.957 9.86947 256.331 10.4574 256.572 11.2275C256.818 11.9932 256.941 12.916 256.941 13.9961ZM251.773 13.9961C251.773 14.8392 251.828 15.5433 251.938 16.1084C252.051 16.6735 252.238 17.0973 252.498 17.3799C252.758 17.6579 253.104 17.7969 253.537 17.7969C253.97 17.7969 254.316 17.6579 254.576 17.3799C254.836 17.1019 255.023 16.6803 255.137 16.1152C255.255 15.5501 255.314 14.8438 255.314 13.9961C255.314 13.1576 255.257 12.4557 255.144 11.8906C255.03 11.3255 254.843 10.9017 254.583 10.6191C254.323 10.332 253.975 10.1885 253.537 10.1885C253.1 10.1885 252.751 10.332 252.491 10.6191C252.236 10.9017 252.051 11.3255 251.938 11.8906C251.828 12.4557 251.773 13.1576 251.773 13.9961ZM260.325 17.373L260.421 17.5303C260.339 17.8584 260.234 18.2116 260.106 18.5898C259.979 18.9681 259.84 19.3464 259.689 19.7246C259.539 20.1074 259.386 20.4674 259.231 20.8047H258.056C258.151 20.4355 258.243 20.0482 258.329 19.6426C258.42 19.2415 258.502 18.8451 258.575 18.4531C258.653 18.0566 258.714 17.6966 258.76 17.373H260.325ZM268.768 13.9961C268.768 14.8027 268.704 15.5251 268.576 16.1631C268.453 16.7965 268.257 17.3343 267.988 17.7764C267.719 18.2184 267.368 18.5557 266.936 18.7881C266.503 19.0205 265.979 19.1367 265.363 19.1367C264.593 19.1367 263.957 18.9339 263.456 18.5283C262.955 18.1182 262.583 17.5303 262.342 16.7646C262.1 15.9945 261.979 15.0716 261.979 13.9961C261.979 12.9206 262.089 12 262.308 11.2344C262.531 10.4642 262.891 9.87402 263.388 9.46387C263.884 9.05371 264.543 8.84863 265.363 8.84863C266.138 8.84863 266.776 9.05371 267.277 9.46387C267.783 9.86947 268.157 10.4574 268.398 11.2275C268.645 11.9932 268.768 12.916 268.768 13.9961ZM263.6 13.9961C263.6 14.8392 263.654 15.5433 263.764 16.1084C263.878 16.6735 264.064 17.0973 264.324 17.3799C264.584 17.6579 264.93 17.7969 265.363 17.7969C265.796 17.7969 266.143 17.6579 266.402 17.3799C266.662 17.1019 266.849 16.6803 266.963 16.1152C267.081 15.5501 267.141 14.8438 267.141 13.9961C267.141 13.1576 267.084 12.4557 266.97 11.8906C266.856 11.3255 266.669 10.9017 266.409 10.6191C266.149 10.332 265.801 10.1885 265.363 10.1885C264.926 10.1885 264.577 10.332 264.317 10.6191C264.062 10.9017 263.878 11.3255 263.764 11.8906C263.654 12.4557 263.6 13.1576 263.6 13.9961ZM276.779 13.9961C276.779 14.8027 276.715 15.5251 276.588 16.1631C276.465 16.7965 276.269 17.3343 276 17.7764C275.731 18.2184 275.38 18.5557 274.947 18.7881C274.514 19.0205 273.99 19.1367 273.375 19.1367C272.605 19.1367 271.969 18.9339 271.468 18.5283C270.966 18.1182 270.595 17.5303 270.354 16.7646C270.112 15.9945 269.991 15.0716 269.991 13.9961C269.991 12.9206 270.101 12 270.319 11.2344C270.543 10.4642 270.903 9.87402 271.399 9.46387C271.896 9.05371 272.555 8.84863 273.375 8.84863C274.15 8.84863 274.788 9.05371 275.289 9.46387C275.795 9.86947 276.169 10.4574 276.41 11.2275C276.656 11.9932 276.779 12.916 276.779 13.9961ZM271.611 13.9961C271.611 14.8392 271.666 15.5433 271.775 16.1084C271.889 16.6735 272.076 17.0973 272.336 17.3799C272.596 17.6579 272.942 17.7969 273.375 17.7969C273.808 17.7969 274.154 17.6579 274.414 17.3799C274.674 17.1019 274.861 16.6803 274.975 16.1152C275.093 15.5501 275.152 14.8438 275.152 13.9961C275.152 13.1576 275.095 12.4557 274.981 11.8906C274.868 11.3255 274.681 10.9017 274.421 10.6191C274.161 10.332 273.812 10.1885 273.375 10.1885C272.938 10.1885 272.589 10.332 272.329 10.6191C272.074 10.9017 271.889 11.3255 271.775 11.8906C271.666 12.4557 271.611 13.1576 271.611 13.9961ZM284.791 13.9961C284.791 14.8027 284.727 15.5251 284.6 16.1631C284.477 16.7965 284.281 17.3343 284.012 17.7764C283.743 18.2184 283.392 18.5557 282.959 18.7881C282.526 19.0205 282.002 19.1367 281.387 19.1367C280.617 19.1367 279.981 18.9339 279.479 18.5283C278.978 18.1182 278.607 17.5303 278.365 16.7646C278.124 15.9945 278.003 15.0716 278.003 13.9961C278.003 12.9206 278.112 12 278.331 11.2344C278.554 10.4642 278.914 9.87402 279.411 9.46387C279.908 9.05371 280.566 8.84863 281.387 8.84863C282.161 8.84863 282.799 9.05371 283.301 9.46387C283.807 9.86947 284.18 10.4574 284.422 11.2275C284.668 11.9932 284.791 12.916 284.791 13.9961ZM279.623 13.9961C279.623 14.8392 279.678 15.5433 279.787 16.1084C279.901 16.6735 280.088 17.0973 280.348 17.3799C280.607 17.6579 280.954 17.7969 281.387 17.7969C281.82 17.7969 282.166 17.6579 282.426 17.3799C282.686 17.1019 282.872 16.6803 282.986 16.1152C283.105 15.5501 283.164 14.8438 283.164 13.9961C283.164 13.1576 283.107 12.4557 282.993 11.8906C282.879 11.3255 282.692 10.9017 282.433 10.6191C282.173 10.332 281.824 10.1885 281.387 10.1885C280.949 10.1885 280.601 10.332 280.341 10.6191C280.086 10.9017 279.901 11.3255 279.787 11.8906C279.678 12.4557 279.623 13.1576 279.623 13.9961ZM294.669 19L291.791 10.6533H291.729C291.743 10.8402 291.759 11.0954 291.777 11.4189C291.796 11.7425 291.812 12.0889 291.825 12.458C291.839 12.8271 291.846 13.1803 291.846 13.5176V19H290.355V9.00586H292.659L295.428 16.9834H295.469L298.333 9.00586H300.63V19H299.064V13.4355C299.064 13.1302 299.069 12.7998 299.078 12.4443C299.092 12.0889 299.105 11.7516 299.119 11.4326C299.137 11.1136 299.151 10.8584 299.16 10.667H299.105L296.118 19H294.669ZM309.797 15.1992C309.797 15.8281 309.715 16.3864 309.551 16.874C309.387 17.3617 309.147 17.7741 308.833 18.1113C308.519 18.444 308.14 18.6992 307.698 18.877C307.256 19.0501 306.757 19.1367 306.201 19.1367C305.682 19.1367 305.205 19.0501 304.772 18.877C304.34 18.6992 303.964 18.444 303.645 18.1113C303.33 17.7741 303.086 17.3617 302.913 16.874C302.74 16.3864 302.653 15.8281 302.653 15.1992C302.653 14.3652 302.797 13.6589 303.084 13.0801C303.376 12.4967 303.79 12.0524 304.328 11.7471C304.866 11.4417 305.506 11.2891 306.249 11.2891C306.946 11.2891 307.562 11.4417 308.095 11.7471C308.628 12.0524 309.045 12.4967 309.346 13.0801C309.646 13.6634 309.797 14.3698 309.797 15.1992ZM304.308 15.1992C304.308 15.7507 304.374 16.2223 304.506 16.6143C304.643 17.0062 304.852 17.307 305.135 17.5166C305.417 17.7217 305.782 17.8242 306.229 17.8242C306.675 17.8242 307.04 17.7217 307.322 17.5166C307.605 17.307 307.812 17.0062 307.944 16.6143C308.076 16.2223 308.143 15.7507 308.143 15.1992C308.143 14.6478 308.076 14.1807 307.944 13.7979C307.812 13.4105 307.605 13.1165 307.322 12.916C307.04 12.7109 306.673 12.6084 306.222 12.6084C305.556 12.6084 305.071 12.8317 304.766 13.2783C304.46 13.7249 304.308 14.3652 304.308 15.1992ZM315.478 11.2891C315.605 11.2891 315.744 11.2959 315.895 11.3096C316.045 11.3232 316.175 11.3415 316.284 11.3643L316.134 12.8682C316.038 12.8408 315.92 12.8203 315.778 12.8066C315.642 12.793 315.519 12.7861 315.409 12.7861C315.122 12.7861 314.849 12.834 314.589 12.9297C314.329 13.0208 314.099 13.1621 313.898 13.3535C313.698 13.5404 313.541 13.7751 313.427 14.0576C313.313 14.3402 313.256 14.6683 313.256 15.042V19H311.643V11.4326H312.9L313.119 12.7656H313.194C313.345 12.4967 313.532 12.2507 313.755 12.0273C313.978 11.804 314.233 11.6263 314.521 11.4941C314.812 11.3574 315.131 11.2891 315.478 11.2891ZM320.7 11.2891C321.375 11.2891 321.953 11.4281 322.437 11.7061C322.92 11.984 323.291 12.3783 323.551 12.8887C323.811 13.3991 323.94 14.0098 323.94 14.7207V15.582H318.889C318.907 16.3158 319.103 16.8809 319.477 17.2773C319.855 17.6738 320.383 17.8721 321.062 17.8721C321.546 17.8721 321.979 17.8265 322.361 17.7354C322.749 17.6396 323.147 17.5007 323.558 17.3184V18.624C323.179 18.8018 322.794 18.9316 322.402 19.0137C322.01 19.0957 321.541 19.1367 320.994 19.1367C320.251 19.1367 319.597 18.9932 319.032 18.7061C318.472 18.4144 318.032 17.9814 317.713 17.4072C317.398 16.833 317.241 16.1198 317.241 15.2676C317.241 14.4199 317.385 13.6999 317.672 13.1074C317.959 12.515 318.362 12.0638 318.882 11.7539C319.401 11.444 320.007 11.2891 320.7 11.2891ZM320.7 12.499C320.194 12.499 319.784 12.6631 319.47 12.9912C319.16 13.3193 318.978 13.8001 318.923 14.4336H322.368C322.364 14.0553 322.3 13.7204 322.177 13.4287C322.058 13.137 321.876 12.9092 321.63 12.7451C321.388 12.5811 321.078 12.499 320.7 12.499ZM329.553 19V9.00586H331.193V19H329.553ZM336.717 19.1367C336.001 19.1367 335.382 18.9977 334.857 18.7197C334.333 18.4417 333.93 18.0156 333.647 17.4414C333.365 16.8672 333.224 16.138 333.224 15.2539C333.224 14.3333 333.379 13.5814 333.688 12.998C333.998 12.4147 334.427 11.984 334.974 11.7061C335.525 11.4281 336.156 11.2891 336.867 11.2891C337.318 11.2891 337.726 11.3346 338.091 11.4258C338.46 11.5124 338.772 11.6195 339.027 11.7471L338.549 13.0322C338.271 12.9183 337.986 12.8226 337.694 12.7451C337.403 12.6676 337.122 12.6289 336.854 12.6289C336.411 12.6289 336.042 12.7269 335.746 12.9229C335.454 13.1188 335.236 13.4105 335.09 13.7979C334.949 14.1852 334.878 14.666 334.878 15.2402C334.878 15.7962 334.951 16.2656 335.097 16.6484C335.243 17.0267 335.459 17.3138 335.746 17.5098C336.033 17.7012 336.386 17.7969 336.806 17.7969C337.22 17.7969 337.592 17.7467 337.92 17.6465C338.248 17.5462 338.558 17.4163 338.85 17.2568V18.6514C338.562 18.8154 338.255 18.9362 337.927 19.0137C337.599 19.0957 337.195 19.1367 336.717 19.1367ZM347.326 15.1992C347.326 15.8281 347.244 16.3864 347.08 16.874C346.916 17.3617 346.677 17.7741 346.362 18.1113C346.048 18.444 345.67 18.6992 345.228 18.877C344.785 19.0501 344.286 19.1367 343.73 19.1367C343.211 19.1367 342.735 19.0501 342.302 18.877C341.869 18.6992 341.493 18.444 341.174 18.1113C340.859 17.7741 340.616 17.3617 340.442 16.874C340.269 16.3864 340.183 15.8281 340.183 15.1992C340.183 14.3652 340.326 13.6589 340.613 13.0801C340.905 12.4967 341.32 12.0524 341.857 11.7471C342.395 11.4417 343.035 11.2891 343.778 11.2891C344.476 11.2891 345.091 11.4417 345.624 11.7471C346.157 12.0524 346.574 12.4967 346.875 13.0801C347.176 13.6634 347.326 14.3698 347.326 15.1992ZM341.837 15.1992C341.837 15.7507 341.903 16.2223 342.035 16.6143C342.172 17.0062 342.382 17.307 342.664 17.5166C342.947 17.7217 343.311 17.8242 343.758 17.8242C344.204 17.8242 344.569 17.7217 344.852 17.5166C345.134 17.307 345.341 17.0062 345.474 16.6143C345.606 16.2223 345.672 15.7507 345.672 15.1992C345.672 14.6478 345.606 14.1807 345.474 13.7979C345.341 13.4105 345.134 13.1165 344.852 12.916C344.569 12.7109 344.202 12.6084 343.751 12.6084C343.086 12.6084 342.6 12.8317 342.295 13.2783C341.99 13.7249 341.837 14.3652 341.837 15.1992ZM353.116 11.2891C353.968 11.2891 354.632 11.5101 355.105 11.9521C355.584 12.3896 355.823 13.0938 355.823 14.0645V19H354.217V14.3652C354.217 13.7773 354.096 13.3376 353.854 13.0459C353.613 12.7497 353.239 12.6016 352.733 12.6016C352 12.6016 351.489 12.8271 351.202 13.2783C350.92 13.7295 350.778 14.3835 350.778 15.2402V19H349.172V11.4326H350.423L350.648 12.458H350.737C350.901 12.1937 351.104 11.9772 351.346 11.8086C351.592 11.6354 351.865 11.5055 352.166 11.4189C352.471 11.3324 352.788 11.2891 353.116 11.2891ZM363.158 16.8398C363.158 17.3366 363.037 17.7559 362.796 18.0977C362.554 18.4395 362.201 18.6992 361.736 18.877C361.276 19.0501 360.711 19.1367 360.041 19.1367C359.512 19.1367 359.057 19.098 358.674 19.0205C358.296 18.9476 357.938 18.8337 357.601 18.6787V17.291C357.961 17.4596 358.364 17.6055 358.811 17.7285C359.262 17.8516 359.688 17.9131 360.089 17.9131C360.618 17.9131 360.998 17.8311 361.23 17.667C361.463 17.4984 361.579 17.2751 361.579 16.9971C361.579 16.833 361.531 16.6872 361.436 16.5596C361.344 16.4274 361.171 16.293 360.916 16.1562C360.665 16.015 360.296 15.8464 359.809 15.6504C359.33 15.459 358.927 15.2676 358.599 15.0762C358.271 14.8848 358.022 14.6546 357.854 14.3857C357.685 14.1123 357.601 13.7637 357.601 13.3398C357.601 12.6699 357.865 12.1618 358.394 11.8154C358.927 11.4645 359.631 11.2891 360.506 11.2891C360.971 11.2891 361.408 11.3369 361.818 11.4326C362.233 11.5238 362.639 11.6582 363.035 11.8359L362.529 13.0459C362.188 12.8955 361.843 12.7725 361.497 12.6768C361.155 12.5765 360.807 12.5264 360.451 12.5264C360.036 12.5264 359.72 12.5902 359.501 12.7178C359.287 12.8454 359.18 13.0277 359.18 13.2646C359.18 13.4424 359.232 13.5928 359.337 13.7158C359.442 13.8389 359.622 13.9619 359.877 14.085C360.137 14.208 360.497 14.3607 360.957 14.543C361.408 14.7161 361.798 14.8984 362.126 15.0898C362.459 15.2767 362.714 15.5068 362.892 15.7803C363.069 16.0537 363.158 16.4069 363.158 16.8398Z" fill="#1A2947"/>
<path d="M373.879 14L370.166 10.2875L371.227 9.22699L376 14L371.227 18.773L370.166 17.7125L373.879 14Z" fill="#AFB7C7"/>
</svg>
