<svg xmlns="http://www.w3.org/2000/svg" viewBox="0 0 24 24">
    <g>
        <path fill="none" d="M0 0h24v24H0z"/>
        <path d="M14.035 18h-5.07a3.5 3.5 0 0 1-6.93 0H1V6a1 1 0 0 1 1-1h14a1 1 0 0 1 1 1v2h3l3 4.056V18h-2.035a3.5 3.5 0 0 1-6.93 0zm2.05 0a1.5 1.5 0 0 0 2.83 0h-2.83zM15 15.05V7H3v8.05a3.5 3.5 0 0 1 5.663.95h5.674c.168-.353.393-.674.663-.95zm2-1.015c-.353.05-.69.154-1 .302V13h6v3h-1.337H21v-3.285L18.992 10H17v4.035zM6.915 18h-2.83a1.5 1.5 0 0 0 2.83 0z"/>
        <circle cx="5.5" cy="17.5" r="1.5" fill="#FFF" fill-rule="nonzero"/>
        <circle cx="17.5" cy="17.5" r="1.5" fill="#FFF" fill-rule="nonzero"/>
    </g>
</svg>
