<svg viewBox="0 0 24 24" fill="currentColor" xmlns="http://www.w3.org/2000/svg"><path d="M16.4004 21H14.2461L12.2461 16H5.75391L3.75391 21H1.59961L8 4.99996H10L16.4004 21ZM21 12V21H19V12H21ZM6.55371 14H11.4463L9 7.88473L6.55371 14ZM19.5293 2.3193C19.7058 1.89351 20.2942 1.8935 20.4707 2.3193L20.7236 2.93063C21.1555 3.97343 21.9615 4.80613 22.9746 5.2568L23.6914 5.57613C24.1022 5.75881 24.1022 6.35634 23.6914 6.53902L22.9326 6.87691C21.945 7.31619 21.1534 8.11942 20.7139 9.12789L20.4668 9.69332C20.2863 10.1075 19.7136 10.1075 19.5332 9.69332L19.2861 9.12789C18.8466 8.11941 18.0551 7.31619 17.0674 6.87691L16.3076 6.53902C15.8974 6.35617 15.8974 5.75894 16.3076 5.57613L17.0254 5.2568C18.0384 4.80613 18.8445 3.97343 19.2764 2.93063L19.5293 2.3193Z"/></svg>