<svg viewBox="0 0 24 24" fill="currentColor" xmlns="http://www.w3.org/2000/svg"><path d="M14.4336 3C15.136 3 15.7869 3.36852 16.1484 3.9707L16.9209 5.25684C17.0113 5.40744 17.174 5.5 17.3496 5.5H19C20.6569 5.5 22 6.84315 22 8.5V18C22 19.6569 20.6569 21 19 21H5C3.34315 21 2 19.6569 2 18V8.5C2 6.84315 3.34315 5.5 5 5.5H6.65039C6.82602 5.5 6.98874 5.40744 7.0791 5.25684L7.85156 3.9707C8.21306 3.36852 8.86403 3 9.56641 3H14.4336ZM8.79492 6.28613C8.34311 7.03915 7.52855 7.5 6.65039 7.5H5C4.44772 7.5 4 7.94772 4 8.5V18C4 18.5523 4.44772 19 5 19H19C19.5523 19 20 18.5523 20 18V8.5C20 7.94772 19.5523 7.5 19 7.5H17.3496C16.4715 7.5 15.6569 7.03915 15.2051 6.28613L14.4336 5H9.56641L8.79492 6.28613ZM11.5293 9.31738C11.7059 8.89154 12.2943 8.89153 12.4707 9.31738L12.7236 9.92871C13.1556 10.9715 13.9615 11.8042 14.9746 12.2549L15.6924 12.5742C16.1026 12.7571 16.1026 13.3542 15.6924 13.5371L14.9326 13.875C13.9449 14.3143 13.1534 15.1175 12.7139 16.126L12.4668 16.6914C12.2864 17.1055 11.7137 17.1055 11.5332 16.6914L11.2871 16.126C10.8476 15.1173 10.0552 14.3143 9.06738 13.875L8.30762 13.5371C7.89744 13.3543 7.89741 12.757 8.30762 12.5742L9.02539 12.2549C10.0385 11.8042 10.8445 10.9715 11.2764 9.92871L11.5293 9.31738Z"/></svg>