<svg viewBox="0 0 24 24" fill="currentColor" xmlns="http://www.w3.org/2000/svg"><path d="M14.4336 3C15.136 3 15.7869 3.36852 16.1484 3.9707L16.9209 5.25684C17.0113 5.40744 17.174 5.5 17.3496 5.5H19C20.6569 5.5 22 6.84315 22 8.5V18C22 19.6569 20.6569 21 19 21H5C3.34315 21 2 19.6569 2 18V8.5C2 6.84315 3.34315 5.5 5 5.5H6.65039C6.82602 5.5 6.98874 5.40744 7.0791 5.25684L7.85156 3.9707C8.21306 3.36852 8.86403 3 9.56641 3H14.4336ZM8.79492 6.28613C8.34311 7.03915 7.52855 7.5 6.65039 7.5H5C4.44772 7.5 4 7.94772 4 8.5V18C4 18.5523 4.44772 19 5 19H19C19.5523 19 20 18.5523 20 18V8.5C20 7.94772 19.5523 7.5 19 7.5H17.3496C16.4715 7.5 15.6569 7.03915 15.2051 6.28613L14.4336 5H9.56641L8.79492 6.28613ZM12 8.5C14.4853 8.5 16.5 10.5147 16.5 13C16.5 15.4853 14.4853 17.5 12 17.5C9.51472 17.5 7.5 15.4853 7.5 13C7.5 10.5147 9.51472 8.5 12 8.5ZM12 10.5C10.6193 10.5 9.5 11.6193 9.5 13C9.5 14.3807 10.6193 15.5 12 15.5C13.3807 15.5 14.5 14.3807 14.5 13C14.5 11.6193 13.3807 10.5 12 10.5Z"/></svg>