<?xml version="1.0" encoding="UTF-8" standalone="no"?>
<svg
   viewBox="0 0 24 24"
   fill="currentColor"
   version="1.1"
   id="svg1"
   sodipodi:docname="rewind-bar-fill.svg"
   inkscape:version="1.3 (0e150ed6c4, 2023-07-21)"
   xmlns:inkscape="http://www.inkscape.org/namespaces/inkscape"
   xmlns:sodipodi="http://sodipodi.sourceforge.net/DTD/sodipodi-0.dtd"
   xmlns="http://www.w3.org/2000/svg"
   xmlns:svg="http://www.w3.org/2000/svg">
  <defs
     id="defs1" />
  <sodipodi:namedview
     id="namedview1"
     pagecolor="#ffffff"
     bordercolor="#000000"
     borderopacity="0.25"
     inkscape:showpageshadow="2"
     inkscape:pageopacity="0.0"
     inkscape:pagecheckerboard="0"
     inkscape:deskcolor="#d1d1d1"
     inkscape:zoom="20.5"
     inkscape:cx="12.02439"
     inkscape:cy="12"
     inkscape:window-width="1280"
     inkscape:window-height="730"
     inkscape:window-x="-6"
     inkscape:window-y="-6"
     inkscape:window-maximized="1"
     inkscape:current-layer="svg1" />
  <g
     id="g1"
     transform="matrix(-1,0,0,1,24.146342,0)">
    <path
       d="m 21.585366,12.6667 -10.22265,6.8151 c -0.22976,0.1531 -0.5402,0.0911 -0.69338,-0.1387 -0.05475,-0.0821 -0.08397,-0.1786 -0.08397,-0.2774 V 4.93426 c 0,-0.27614 0.22386,-0.5 0.5,-0.5 0.09871,0 0.19522,0.02922 0.27735,0.08397 l 10.22265,6.81507 V 5 c 0,-0.55228 0.4477,-1 1,-1 0.5523,0 1,0.44772 1,1 v 14 c 0,0.5523 -0.4477,1 -1,1 -0.5523,0 -1,-0.4477 -1,-1 z"
       id="path1-3" />
    <path
       d="m 11.936976,12.416012 -10.5986504,7.0657 c -0.22976,0.1532 -0.54019999,0.0911 -0.69337999,-0.1386 -0.05475,-0.0822 -0.08397,-0.1787 -0.08397,-0.2774 V 4.9342425 c 0,-0.27615 0.22386,-0.5 0.49999999,-0.5 0.09871,0 0.19522,0.02922 0.27735,0.08397 L 11.936976,11.583912 c 0.2297,0.1532 0.2918,0.4637 0.1386,0.6934 -0.0366,0.0549 -0.0837,0.1021 -0.1386,0.1387 z"
       id="path1-1" />
  </g>
</svg>
